# MagicaVoxel @ Ephtracy

# group
o 

# material
mtllib NintendoSwitch.mtl
usemtl palette

# normals
vn -1 0 0
vn 1 0 0
vn 0 0 1
vn 0 0 -1
vn 0 -1 0
vn 0 1 0

# texcoords
vt 0.779297 0.5
vt 0.845703 0.5
vt 0.970703 0.5
vt 0.978516 0.5
vt 0.990234 0.5
vt 0.994141 0.5

# verts
v -0.8 0 1.3
v -0.8 0 -1.4
v -0.8 0.1 -1.2
v -0.8 0.1 -1.4
v -0.8 0.2 0.3
v -0.8 0.2 0
v -0.8 0.2 -0.1
v -0.8 0.2 -0.4
v -0.8 0.2 -1.2
v -0.8 0.2 -1.4
v -0.8 0.3 0.4
v -0.8 0.3 0.3
v -0.8 0.3 -0.2
v -0.8 0.3 -0.4
v -0.8 0.3 -0.5
v -0.8 0.4 0.3
v -0.8 0.4 0.2
v -0.8 0.5 0.3
v -0.8 0.5 0.2
v -0.8 0.6 -0.3
v -0.8 0.6 -0.4
v -0.8 0.7 -0.3
v -0.8 0.7 -0.4
v -0.8 0.8 0.4
v -0.8 0.8 0.3
v -0.8 0.8 -0.2
v -0.8 0.8 -0.4
v -0.8 0.8 -0.5
v -0.8 0.9 0.3
v -0.8 0.9 0
v -0.8 0.9 -0.1
v -0.8 0.9 -0.4
v -0.8 1.1 1.3
v -0.8 1.1 -1.4
v -0.7 0.4 1.6
v -0.7 0.4 1.4
v -0.7 0.4 -1.5
v -0.7 0.4 -1.7
v -0.7 0.6 1.6
v -0.7 0.6 1.4
v -0.7 0.6 -1.5
v -0.7 0.6 -1.7
v -0.7 0.9 1.6
v -0.7 0.9 1.5
v -0.7 0.9 -1.6
v -0.7 0.9 -1.7
v -0.7 1 1.7
v -0.7 1 1.6
v -0.7 1 1.5
v -0.7 1 1.4
v -0.7 1 -1.5
v -0.7 1 -1.6
v -0.7 1 -1.7
v -0.7 1 -1.8
v -0.7 1.1 1.7
v -0.7 1.1 1.6
v -0.7 1.1 1.5
v -0.7 1.1 1.4
v -0.7 1.1 -1.5
v -0.7 1.1 -1.6
v -0.7 1.1 -1.7
v -0.7 1.1 -1.8
v -0.7 1.2 1.6
v -0.7 1.2 1.5
v -0.7 1.2 -1.6
v -0.7 1.2 -1.7
v -0.6 0.1 1.5
v -0.6 0.1 1.3
v -0.6 0.1 -1.4
v -0.6 0.1 -1.6
v -0.6 0.2 1.6
v -0.6 0.2 1.5
v -0.6 0.2 -1.6
v -0.6 0.2 -1.7
v -0.6 0.3 1.7
v -0.6 0.3 1.6
v -0.6 0.3 -1.7
v -0.6 0.3 -1.8
v -0.6 0.4 1.6
v -0.6 0.4 1.4
v -0.6 0.4 -1.5
v -0.6 0.4 -1.7
v -0.6 0.6 1.6
v -0.6 0.6 1.4
v -0.6 0.6 -1.5
v -0.6 0.6 -1.7
v -0.6 0.9 1.6
v -0.6 0.9 1.5
v -0.6 0.9 -1.6
v -0.6 0.9 -1.7
v -0.6 1 1.7
v -0.6 1 1.6
v -0.6 1 1.5
v -0.6 1 1.4
v -0.6 1 -1.5
v -0.6 1 -1.6
v -0.6 1 -1.7
v -0.6 1 -1.8
v -0.6 1.1 1.7
v -0.6 1.1 1.6
v -0.6 1.1 1.5
v -0.6 1.1 1.4
v -0.6 1.1 1.3
v -0.6 1.1 1.2
v -0.6 1.1 -1.3
v -0.6 1.1 -1.4
v -0.6 1.1 -1.5
v -0.6 1.1 -1.6
v -0.6 1.1 -1.7
v -0.6 1.1 -1.8
v -0.6 1.2 1.6
v -0.6 1.2 1.5
v -0.6 1.2 -1.6
v -0.6 1.2 -1.7
v -0.6 1.3 1.7
v -0.6 1.3 1.6
v -0.6 1.3 -1.7
v -0.6 1.3 -1.8
v -0.6 1.4 1.6
v -0.6 1.4 1.5
v -0.6 1.4 1.2
v -0.6 1.4 -1.3
v -0.6 1.4 -1.6
v -0.6 1.4 -1.7
v -0.6 1.5 1.5
v -0.6 1.5 1.3
v -0.6 1.5 -1.4
v -0.6 1.5 -1.6
v -0.5 0.1 1.6
v -0.5 0.1 1.5
v -0.5 0.1 -1.6
v -0.5 0.1 -1.7
v -0.5 0.2 1.7
v -0.5 0.2 1.6
v -0.5 0.2 1.5
v -0.5 0.2 -1.6
v -0.5 0.2 -1.7
v -0.5 0.2 -1.8
v -0.5 0.3 1.8
v -0.5 0.3 1.7
v -0.5 0.3 1.6
v -0.5 0.3 -1.7
v -0.5 0.3 -1.8
v -0.5 0.3 -1.9
v -0.5 1.3 1.8
v -0.5 1.3 1.7
v -0.5 1.3 1.6
v -0.5 1.3 -1.7
v -0.5 1.3 -1.8
v -0.5 1.3 -1.9
v -0.5 1.4 1.7
v -0.5 1.4 1.6
v -0.5 1.4 1.5
v -0.5 1.4 -1.6
v -0.5 1.4 -1.7
v -0.5 1.4 -1.8
v -0.5 1.5 1.6
v -0.5 1.5 1.5
v -0.5 1.5 -1.6
v -0.5 1.5 -1.7
v -0.4 1.4 1.7
v -0.4 1.4 1.6
v -0.4 1.4 -1.7
v -0.4 1.4 -1.8
v -0.4 1.5 1.7
v -0.4 1.5 1.6
v -0.4 1.5 -1.7
v -0.4 1.5 -1.8
v -0.4 0.1 1.6
v -0.4 0.1 1.5
v -0.4 0.1 -1.6
v -0.4 0.1 -1.7
v -0.4 0.2 1.7
v -0.4 0.2 1.6
v -0.4 0.2 1.5
v -0.4 0.2 -1.6
v -0.4 0.2 -1.7
v -0.4 0.2 -1.8
v -0.4 0.3 1.8
v -0.4 0.3 1.7
v -0.4 0.3 1.6
v -0.4 0.3 -1.7
v -0.4 0.3 -1.8
v -0.4 0.3 -1.9
v -0.4 1.3 1.8
v -0.4 1.3 1.7
v -0.4 1.3 -1.8
v -0.4 1.3 -1.9
v -0.3 0.1 1.5
v -0.3 0.1 1.3
v -0.3 0.1 -1.4
v -0.3 0.1 -1.6
v -0.3 0.2 1.6
v -0.3 0.2 1.5
v -0.3 0.2 -1.6
v -0.3 0.2 -1.7
v -0.3 0.3 1.7
v -0.3 0.3 1.6
v -0.3 0.3 -1.7
v -0.3 0.3 -1.8
v -0.3 1.1 1.3
v -0.3 1.1 -1.4
v -0.3 1.3 1.7
v -0.3 1.3 1.3
v -0.3 1.3 -1.4
v -0.3 1.3 -1.8
v -0.3 1.5 1.7
v -0.3 1.5 -1.8
v -0.1 0 1.3
v -0.1 0 -1.4
v -0.1 1.1 1.3
v -0.1 1.1 -1.4
v -0.5 0.3 1.8
v -0.5 1.3 1.8
v -0.4 0.3 1.8
v -0.4 1.3 1.8
v -0.7 1 1.7
v -0.7 1.1 1.7
v -0.6 0.3 1.7
v -0.6 1 1.7
v -0.6 1.1 1.7
v -0.6 1.3 1.7
v -0.5 0.2 1.7
v -0.5 0.3 1.7
v -0.5 1.3 1.7
v -0.5 1.4 1.7
v -0.4 0.2 1.7
v -0.4 0.3 1.7
v -0.4 1.3 1.7
v -0.4 1.4 1.7
v -0.4 1.5 1.7
v -0.3 0.3 1.7
v -0.3 1.3 1.7
v -0.3 1.5 1.7
v -0.7 0.4 1.6
v -0.7 0.6 1.6
v -0.7 0.9 1.6
v -0.7 1 1.6
v -0.7 1.1 1.6
v -0.7 1.2 1.6
v -0.6 0.2 1.6
v -0.6 0.3 1.6
v -0.6 0.4 1.6
v -0.6 0.6 1.6
v -0.6 0.9 1.6
v -0.6 1 1.6
v -0.6 1.1 1.6
v -0.6 1.2 1.6
v -0.6 1.3 1.6
v -0.6 1.4 1.6
v -0.5 0.1 1.6
v -0.5 0.2 1.6
v -0.5 0.3 1.6
v -0.5 1.3 1.6
v -0.5 1.4 1.6
v -0.5 1.5 1.6
v -0.4 0.1 1.6
v -0.4 0.2 1.6
v -0.4 0.3 1.6
v -0.4 1.4 1.6
v -0.4 1.5 1.6
v -0.3 0.2 1.6
v -0.3 0.3 1.6
v -0.7 1 1.5
v -0.7 1.1 1.5
v -0.6 0.1 1.5
v -0.6 0.2 1.5
v -0.6 1 1.5
v -0.6 1.1 1.5
v -0.6 1.4 1.5
v -0.6 1.5 1.5
v -0.5 0.1 1.5
v -0.5 0.2 1.5
v -0.5 1.4 1.5
v -0.5 1.5 1.5
v -0.4 0.1 1.5
v -0.4 0.2 1.5
v -0.3 0.1 1.5
v -0.3 0.2 1.5
v -0.8 0 1.3
v -0.8 1.1 1.3
v -0.6 0.1 1.3
v -0.6 1.1 1.3
v -0.3 0.1 1.3
v -0.3 1.1 1.3
v -0.1 0 1.3
v -0.1 1.1 1.3
v -0.7 0.4 -1.5
v -0.7 0.6 -1.5
v -0.7 1 -1.5
v -0.7 1.1 -1.5
v -0.6 0.4 -1.5
v -0.6 0.6 -1.5
v -0.6 1 -1.5
v -0.6 1.1 -1.5
v -0.7 0.9 -1.6
v -0.7 1 -1.6
v -0.7 1.1 -1.6
v -0.7 1.2 -1.6
v -0.6 0.9 -1.6
v -0.6 1 -1.6
v -0.6 1.1 -1.6
v -0.6 1.2 -1.6
v -0.7 1 1.6
v -0.7 1.1 1.6
v -0.6 1 1.6
v -0.6 1.1 1.6
v -0.7 0.9 1.5
v -0.7 1 1.5
v -0.7 1.1 1.5
v -0.7 1.2 1.5
v -0.6 0.9 1.5
v -0.6 1 1.5
v -0.6 1.1 1.5
v -0.6 1.2 1.5
v -0.7 0.4 1.4
v -0.7 0.6 1.4
v -0.7 1 1.4
v -0.7 1.1 1.4
v -0.6 0.4 1.4
v -0.6 0.6 1.4
v -0.6 1 1.4
v -0.6 1.1 1.4
v -0.8 0 -1.4
v -0.8 0.1 -1.4
v -0.8 0.2 -1.4
v -0.8 1.1 -1.4
v -0.7 0.1 -1.4
v -0.7 0.2 -1.4
v -0.6 0.1 -1.4
v -0.6 1.1 -1.4
v -0.3 0.1 -1.4
v -0.3 1.1 -1.4
v -0.1 0 -1.4
v -0.1 1.1 -1.4
v -0.6 0.1 -1.6
v -0.6 0.2 -1.6
v -0.6 1.4 -1.6
v -0.6 1.5 -1.6
v -0.5 0.1 -1.6
v -0.5 0.2 -1.6
v -0.5 1.4 -1.6
v -0.5 1.5 -1.6
v -0.4 0.1 -1.6
v -0.4 0.2 -1.6
v -0.3 0.1 -1.6
v -0.3 0.2 -1.6
v -0.7 0.4 -1.7
v -0.7 0.6 -1.7
v -0.7 0.9 -1.7
v -0.7 1 -1.7
v -0.7 1.1 -1.7
v -0.7 1.2 -1.7
v -0.6 0.2 -1.7
v -0.6 0.3 -1.7
v -0.6 0.4 -1.7
v -0.6 0.6 -1.7
v -0.6 0.9 -1.7
v -0.6 1 -1.7
v -0.6 1.1 -1.7
v -0.6 1.2 -1.7
v -0.6 1.3 -1.7
v -0.6 1.4 -1.7
v -0.5 0.1 -1.7
v -0.5 0.2 -1.7
v -0.5 0.3 -1.7
v -0.5 1.3 -1.7
v -0.5 1.4 -1.7
v -0.5 1.5 -1.7
v -0.4 0.1 -1.7
v -0.4 0.2 -1.7
v -0.4 0.3 -1.7
v -0.4 1.4 -1.7
v -0.4 1.5 -1.7
v -0.3 0.2 -1.7
v -0.3 0.3 -1.7
v -0.7 1 -1.8
v -0.7 1.1 -1.8
v -0.6 0.3 -1.8
v -0.6 1 -1.8
v -0.6 1.1 -1.8
v -0.6 1.3 -1.8
v -0.5 0.2 -1.8
v -0.5 0.3 -1.8
v -0.5 1.3 -1.8
v -0.5 1.4 -1.8
v -0.4 0.2 -1.8
v -0.4 0.3 -1.8
v -0.4 1.3 -1.8
v -0.4 1.4 -1.8
v -0.4 1.5 -1.8
v -0.3 0.3 -1.8
v -0.3 1.3 -1.8
v -0.3 1.5 -1.8
v -0.5 0.3 -1.9
v -0.5 1.3 -1.9
v -0.4 0.3 -1.9
v -0.4 1.3 -1.9
v -0.8 0 1.3
v -0.1 0 1.3
v -0.8 0 -1.4
v -0.1 0 -1.4
v -0.5 0.1 1.6
v -0.4 0.1 1.6
v -0.6 0.1 1.5
v -0.5 0.1 1.5
v -0.4 0.1 1.5
v -0.3 0.1 1.5
v -0.6 0.1 1.3
v -0.3 0.1 1.3
v -0.6 0.1 -1.4
v -0.3 0.1 -1.4
v -0.6 0.1 -1.6
v -0.5 0.1 -1.6
v -0.4 0.1 -1.6
v -0.3 0.1 -1.6
v -0.5 0.1 -1.7
v -0.4 0.1 -1.7
v -0.5 0.2 1.7
v -0.4 0.2 1.7
v -0.6 0.2 1.6
v -0.5 0.2 1.6
v -0.4 0.2 1.6
v -0.3 0.2 1.6
v -0.6 0.2 1.5
v -0.5 0.2 1.5
v -0.4 0.2 1.5
v -0.3 0.2 1.5
v -0.6 0.2 -1.6
v -0.5 0.2 -1.6
v -0.4 0.2 -1.6
v -0.3 0.2 -1.6
v -0.6 0.2 -1.7
v -0.5 0.2 -1.7
v -0.4 0.2 -1.7
v -0.3 0.2 -1.7
v -0.5 0.2 -1.8
v -0.4 0.2 -1.8
v -0.5 0.3 1.8
v -0.4 0.3 1.8
v -0.6 0.3 1.7
v -0.5 0.3 1.7
v -0.4 0.3 1.7
v -0.3 0.3 1.7
v -0.6 0.3 1.6
v -0.5 0.3 1.6
v -0.4 0.3 1.6
v -0.3 0.3 1.6
v -0.6 0.3 -1.7
v -0.5 0.3 -1.7
v -0.4 0.3 -1.7
v -0.3 0.3 -1.7
v -0.6 0.3 -1.8
v -0.5 0.3 -1.8
v -0.4 0.3 -1.8
v -0.3 0.3 -1.8
v -0.5 0.3 -1.9
v -0.4 0.3 -1.9
v -0.7 0.4 1.6
v -0.6 0.4 1.6
v -0.7 0.4 1.4
v -0.6 0.4 1.4
v -0.7 0.4 -1.5
v -0.6 0.4 -1.5
v -0.7 0.4 -1.7
v -0.6 0.4 -1.7
v -0.7 0.9 1.6
v -0.6 0.9 1.6
v -0.7 0.9 1.5
v -0.6 0.9 1.5
v -0.7 0.9 -1.6
v -0.6 0.9 -1.6
v -0.7 0.9 -1.7
v -0.6 0.9 -1.7
v -0.7 1 1.7
v -0.6 1 1.7
v -0.7 1 1.6
v -0.6 1 1.6
v -0.7 1 1.5
v -0.6 1 1.5
v -0.7 1 1.4
v -0.6 1 1.4
v -0.7 1 -1.5
v -0.6 1 -1.5
v -0.7 1 -1.6
v -0.6 1 -1.6
v -0.7 1 -1.7
v -0.6 1 -1.7
v -0.7 1 -1.8
v -0.6 1 -1.8
v -0.7 1.1 1.6
v -0.6 1.1 1.6
v -0.7 1.1 1.5
v -0.6 1.1 1.5
v -0.7 0.6 1.6
v -0.6 0.6 1.6
v -0.7 0.6 1.4
v -0.6 0.6 1.4
v -0.7 0.6 -1.5
v -0.6 0.6 -1.5
v -0.7 0.6 -1.7
v -0.6 0.6 -1.7
v -0.7 1 1.6
v -0.6 1 1.6
v -0.7 1 1.5
v -0.6 1 1.5
v -0.7 1.1 1.7
v -0.6 1.1 1.7
v -0.7 1.1 1.6
v -0.6 1.1 1.6
v -0.7 1.1 1.5
v -0.6 1.1 1.5
v -0.7 1.1 1.4
v -0.6 1.1 1.4
v -0.8 1.1 1.3
v -0.6 1.1 1.3
v -0.3 1.1 1.3
v -0.1 1.1 1.3
v -0.6 1.1 1.2
v -0.6 1.1 -1.3
v -0.8 1.1 -1.4
v -0.6 1.1 -1.4
v -0.3 1.1 -1.4
v -0.1 1.1 -1.4
v -0.7 1.1 -1.5
v -0.6 1.1 -1.5
v -0.7 1.1 -1.6
v -0.6 1.1 -1.6
v -0.7 1.1 -1.7
v -0.6 1.1 -1.7
v -0.7 1.1 -1.8
v -0.6 1.1 -1.8
v -0.7 1.2 1.6
v -0.6 1.2 1.6
v -0.7 1.2 1.5
v -0.6 1.2 1.5
v -0.7 1.2 -1.6
v -0.6 1.2 -1.6
v -0.7 1.2 -1.7
v -0.6 1.2 -1.7
v -0.5 1.3 1.8
v -0.4 1.3 1.8
v -0.6 1.3 1.7
v -0.5 1.3 1.7
v -0.4 1.3 1.7
v -0.6 1.3 1.6
v -0.5 1.3 1.6
v -0.6 1.3 -1.7
v -0.5 1.3 -1.7
v -0.6 1.3 -1.8
v -0.5 1.3 -1.8
v -0.4 1.3 -1.8
v -0.5 1.3 -1.9
v -0.4 1.3 -1.9
v -0.5 1.4 1.7
v -0.4 1.4 1.7
v -0.6 1.4 1.6
v -0.5 1.4 1.6
v -0.4 1.4 1.6
v -0.6 1.4 1.5
v -0.5 1.4 1.5
v -0.6 1.4 -1.6
v -0.5 1.4 -1.6
v -0.6 1.4 -1.7
v -0.5 1.4 -1.7
v -0.4 1.4 -1.7
v -0.5 1.4 -1.8
v -0.4 1.4 -1.8
v -0.4 1.5 1.7
v -0.3 1.5 1.7
v -0.5 1.5 1.6
v -0.4 1.5 1.6
v -0.6 1.5 1.5
v -0.5 1.5 1.5
v -0.6 1.5 1.3
v -0.4 1.5 1.3
v -0.6 1.5 -1.4
v -0.4 1.5 -1.4
v -0.6 1.5 -1.6
v -0.5 1.5 -1.6
v -0.5 1.5 -1.7
v -0.4 1.5 -1.7
v -0.4 1.5 -1.8
v -0.3 1.5 -1.8

# faces
f 3/5/1 2/5/1 1/5/1
f 4/5/1 2/5/1 3/5/1
f 5/5/1 3/5/1 1/5/1
f 6/5/1 3/5/1 5/5/1
f 7/5/1 3/5/1 6/5/1
f 8/5/1 3/5/1 7/5/1
f 9/4/1 4/4/1 3/4/1
f 9/5/1 3/5/1 8/5/1
f 10/4/1 4/4/1 9/4/1
f 11/5/1 5/5/1 1/5/1
f 12/6/1 6/6/1 5/6/1
f 12/5/1 5/5/1 11/5/1
f 13/6/1 8/6/1 7/6/1
f 14/5/1 9/5/1 8/5/1
f 14/6/1 8/6/1 13/6/1
f 14/5/1 10/5/1 9/5/1
f 15/5/1 10/5/1 14/5/1
f 16/6/1 6/6/1 12/6/1
f 16/6/1 12/6/1 11/6/1
f 17/6/1 6/6/1 16/6/1
f 18/6/1 16/6/1 11/6/1
f 18/5/1 17/5/1 16/5/1
f 19/6/1 6/6/1 17/6/1
f 19/5/1 17/5/1 18/5/1
f 20/5/1 14/5/1 13/5/1
f 21/6/1 15/6/1 14/6/1
f 21/5/1 14/5/1 20/5/1
f 22/5/1 20/5/1 13/5/1
f 22/6/1 21/6/1 20/6/1
f 23/6/1 15/6/1 21/6/1
f 23/6/1 21/6/1 22/6/1
f 24/5/1 11/5/1 1/5/1
f 24/6/1 18/6/1 11/6/1
f 24/6/1 19/6/1 18/6/1
f 25/6/1 19/6/1 24/6/1
f 26/6/1 13/6/1 7/6/1
f 26/5/1 22/5/1 13/5/1
f 26/5/1 23/5/1 22/5/1
f 27/6/1 15/6/1 23/6/1
f 27/5/1 23/5/1 26/5/1
f 28/5/1 10/5/1 15/5/1
f 28/6/1 15/6/1 27/6/1
f 29/6/1 19/6/1 25/6/1
f 29/5/1 25/5/1 24/5/1
f 30/5/1 7/5/1 6/5/1
f 30/6/1 19/6/1 29/6/1
f 30/6/1 6/6/1 19/6/1
f 31/6/1 27/6/1 26/6/1
f 31/5/1 7/5/1 30/5/1
f 31/6/1 26/6/1 7/6/1
f 32/5/1 28/5/1 27/5/1
f 32/6/1 27/6/1 31/6/1
f 33/5/1 30/5/1 29/5/1
f 33/5/1 24/5/1 1/5/1
f 33/5/1 32/5/1 31/5/1
f 33/5/1 31/5/1 30/5/1
f 33/5/1 29/5/1 24/5/1
f 34/5/1 28/5/1 32/5/1
f 34/5/1 32/5/1 33/5/1
f 34/5/1 10/5/1 28/5/1
f 39/6/1 36/6/1 35/6/1
f 40/6/1 36/6/1 39/6/1
f 41/6/1 38/6/1 37/6/1
f 42/6/1 38/6/1 41/6/1
f 48/6/1 44/6/1 43/6/1
f 49/6/1 44/6/1 48/6/1
f 52/6/1 46/6/1 45/6/1
f 53/6/1 46/6/1 52/6/1
f 55/6/1 48/6/1 47/6/1
f 56/6/1 48/6/1 55/6/1
f 57/6/1 50/6/1 49/6/1
f 58/6/1 50/6/1 57/6/1
f 59/6/1 53/6/1 52/6/1
f 59/6/1 54/6/1 53/6/1
f 59/6/1 52/6/1 51/6/1
f 60/6/1 54/6/1 59/6/1
f 61/6/1 54/6/1 60/6/1
f 62/6/1 54/6/1 61/6/1
f 63/6/1 57/6/1 56/6/1
f 64/6/1 57/6/1 63/6/1
f 65/6/1 61/6/1 60/6/1
f 66/6/1 61/6/1 65/6/1
f 72/1/1 68/1/1 67/1/1
f 73/2/1 70/2/1 69/2/1
f 76/1/1 72/1/1 71/1/1
f 77/2/1 74/2/1 73/2/1
f 79/1/1 76/1/1 75/1/1
f 79/1/1 72/1/1 76/1/1
f 80/1/1 68/1/1 72/1/1
f 80/1/1 72/1/1 79/1/1
f 81/2/1 78/2/1 77/2/1
f 81/2/1 73/2/1 69/2/1
f 81/2/1 77/2/1 73/2/1
f 82/2/1 78/2/1 81/2/1
f 83/1/1 79/1/1 75/1/1
f 84/1/1 68/1/1 80/1/1
f 85/2/1 81/2/1 69/2/1
f 86/2/1 78/2/1 82/2/1
f 87/1/1 83/1/1 75/1/1
f 87/1/1 84/1/1 83/1/1
f 88/1/1 84/1/1 87/1/1
f 89/2/1 86/2/1 85/2/1
f 90/2/1 78/2/1 86/2/1
f 90/2/1 86/2/1 89/2/1
f 91/1/1 87/1/1 75/1/1
f 92/1/1 87/1/1 91/1/1
f 93/1/1 84/1/1 88/1/1
f 94/1/1 68/1/1 84/1/1
f 94/1/1 84/1/1 93/1/1
f 95/2/1 85/2/1 69/2/1
f 95/2/1 89/2/1 85/2/1
f 96/2/1 89/2/1 95/2/1
f 97/2/1 78/2/1 90/2/1
f 98/2/1 78/2/1 97/2/1
f 100/1/1 93/1/1 92/1/1
f 101/1/1 93/1/1 100/1/1
f 102/1/1 68/1/1 94/1/1
f 103/1/1 68/1/1 102/1/1
f 106/2/1 95/2/1 69/2/1
f 107/2/1 95/2/1 106/2/1
f 111/1/1 100/1/1 99/1/1
f 112/1/1 102/1/1 101/1/1
f 112/1/1 103/1/1 102/1/1
f 113/2/1 108/2/1 107/2/1
f 113/2/1 107/2/1 106/2/1
f 114/2/1 110/2/1 109/2/1
f 115/1/1 112/1/1 111/1/1
f 115/1/1 111/1/1 99/1/1
f 116/1/1 112/1/1 115/1/1
f 117/2/1 114/2/1 113/2/1
f 117/2/1 110/2/1 114/2/1
f 118/2/1 110/2/1 117/2/1
f 119/1/1 112/1/1 116/1/1
f 120/1/1 103/1/1 112/1/1
f 120/1/1 112/1/1 119/1/1
f 121/3/1 105/3/1 104/3/1
f 121/6/1 104/6/1 103/6/1
f 122/6/1 106/6/1 105/6/1
f 122/3/1 105/3/1 121/3/1
f 123/2/1 113/2/1 106/2/1
f 123/2/1 117/2/1 113/2/1
f 124/2/1 117/2/1 123/2/1
f 125/1/1 103/1/1 120/1/1
f 126/6/1 122/6/1 121/6/1
f 126/1/1 103/1/1 125/1/1
f 126/6/1 121/6/1 103/6/1
f 127/6/1 106/6/1 122/6/1
f 127/6/1 122/6/1 126/6/1
f 127/2/1 123/2/1 106/2/1
f 128/2/1 123/2/1 127/2/1
f 134/1/1 130/1/1 129/1/1
f 135/1/1 130/1/1 134/1/1
f 136/2/1 132/2/1 131/2/1
f 137/2/1 132/2/1 136/2/1
f 140/1/1 134/1/1 133/1/1
f 141/1/1 134/1/1 140/1/1
f 142/2/1 138/2/1 137/2/1
f 143/2/1 138/2/1 142/2/1
f 145/1/1 140/1/1 139/1/1
f 146/1/1 140/1/1 145/1/1
f 149/2/1 144/2/1 143/2/1
f 150/2/1 144/2/1 149/2/1
f 151/1/1 147/1/1 146/1/1
f 152/1/1 147/1/1 151/1/1
f 155/2/1 149/2/1 148/2/1
f 156/2/1 149/2/1 155/2/1
f 157/1/1 153/1/1 152/1/1
f 158/1/1 153/1/1 157/1/1
f 159/2/1 155/2/1 154/2/1
f 160/2/1 155/2/1 159/2/1
f 165/6/1 162/6/1 161/6/1
f 166/6/1 162/6/1 165/6/1
f 167/6/1 164/6/1 163/6/1
f 168/6/1 164/6/1 167/6/1
f 169/1/2 170/1/2 174/1/2
f 174/1/2 170/1/2 175/1/2
f 171/2/2 172/2/2 176/2/2
f 176/2/2 172/2/2 177/2/2
f 173/1/2 174/1/2 180/1/2
f 180/1/2 174/1/2 181/1/2
f 177/2/2 178/2/2 182/2/2
f 182/2/2 178/2/2 183/2/2
f 179/1/2 180/1/2 185/1/2
f 185/1/2 180/1/2 186/1/2
f 183/2/2 184/2/2 187/2/2
f 187/2/2 184/2/2 188/2/2
f 189/1/2 190/1/2 194/1/2
f 191/2/2 192/2/2 195/2/2
f 193/1/2 194/1/2 198/1/2
f 195/2/2 196/2/2 199/2/2
f 197/1/2 198/1/2 201/1/2
f 194/1/2 190/1/2 201/1/2
f 198/1/2 194/1/2 201/1/2
f 199/2/2 200/2/2 202/2/2
f 195/2/2 199/2/2 202/2/2
f 191/2/2 195/2/2 202/2/2
f 197/1/2 201/1/2 203/1/2
f 201/6/2 202/6/2 204/6/2
f 203/1/2 201/1/2 204/1/2
f 202/2/2 200/2/2 205/2/2
f 204/6/2 202/6/2 205/6/2
f 205/2/2 200/2/2 206/2/2
f 203/6/2 204/6/2 207/6/2
f 204/6/2 205/6/2 207/6/2
f 205/6/2 206/6/2 207/6/2
f 207/6/2 206/6/2 208/6/2
f 209/5/2 210/5/2 211/5/2
f 211/5/2 210/5/2 212/5/2
f 215/1/3 214/1/3 213/1/3
f 216/1/3 214/1/3 215/1/3
f 220/6/3 218/6/3 217/6/3
f 221/6/3 218/6/3 220/6/3
f 224/1/3 220/1/3 219/1/3
f 224/1/3 222/1/3 221/1/3
f 224/1/3 221/1/3 220/1/3
f 225/1/3 222/1/3 224/1/3
f 227/1/3 224/1/3 223/1/3
f 228/1/3 224/1/3 227/1/3
f 229/1/3 226/1/3 225/1/3
f 230/1/3 226/1/3 229/1/3
f 232/1/3 229/1/3 228/1/3
f 233/6/3 231/6/3 230/6/3
f 233/1/3 229/1/3 232/1/3
f 233/6/3 230/6/3 229/6/3
f 234/6/3 231/6/3 233/6/3
f 243/6/3 236/6/3 235/6/3
f 244/6/3 236/6/3 243/6/3
f 245/6/3 238/6/3 237/6/3
f 246/6/3 238/6/3 245/6/3
f 247/6/3 240/6/3 239/6/3
f 248/6/3 240/6/3 247/6/3
f 252/1/3 242/1/3 241/1/3
f 253/1/3 242/1/3 252/1/3
f 254/1/3 250/1/3 249/1/3
f 255/1/3 250/1/3 254/1/3
f 257/1/3 252/1/3 251/1/3
f 258/1/3 252/1/3 257/1/3
f 260/1/3 256/1/3 255/1/3
f 261/1/3 256/1/3 260/1/3
f 262/1/3 259/1/3 258/1/3
f 263/1/3 259/1/3 262/1/3
f 268/6/3 265/6/3 264/6/3
f 269/6/3 265/6/3 268/6/3
f 272/1/3 267/1/3 266/1/3
f 273/1/3 267/1/3 272/1/3
f 274/1/3 271/1/3 270/1/3
f 275/1/3 271/1/3 274/1/3
f 278/1/3 277/1/3 276/1/3
f 279/1/3 277/1/3 278/1/3
f 282/5/3 281/5/3 280/5/3
f 283/5/3 281/5/3 282/5/3
f 284/5/3 282/5/3 280/5/3
f 286/5/3 284/5/3 280/5/3
f 286/5/3 285/5/3 284/5/3
f 287/5/3 285/5/3 286/5/3
f 292/6/3 289/6/3 288/6/3
f 293/6/3 289/6/3 292/6/3
f 294/6/3 291/6/3 290/6/3
f 295/6/3 291/6/3 294/6/3
f 300/6/3 297/6/3 296/6/3
f 301/6/3 297/6/3 300/6/3
f 302/6/3 299/6/3 298/6/3
f 303/6/3 299/6/3 302/6/3
f 304/6/4 305/6/4 306/6/4
f 306/6/4 305/6/4 307/6/4
f 308/6/4 309/6/4 312/6/4
f 312/6/4 309/6/4 313/6/4
f 310/6/4 311/6/4 314/6/4
f 314/6/4 311/6/4 315/6/4
f 316/6/4 317/6/4 320/6/4
f 320/6/4 317/6/4 321/6/4
f 318/6/4 319/6/4 322/6/4
f 322/6/4 319/6/4 323/6/4
f 324/5/4 325/5/4 328/5/4
f 325/4/4 326/4/4 328/4/4
f 326/5/4 327/5/4 329/5/4
f 328/4/4 326/4/4 329/4/4
f 324/5/4 328/5/4 330/5/4
f 328/5/4 329/5/4 330/5/4
f 329/5/4 327/5/4 331/5/4
f 330/5/4 329/5/4 331/5/4
f 324/5/4 330/5/4 332/5/4
f 324/5/4 332/5/4 334/5/4
f 332/5/4 333/5/4 334/5/4
f 334/5/4 333/5/4 335/5/4
f 336/2/4 337/2/4 340/2/4
f 340/2/4 337/2/4 341/2/4
f 338/2/4 339/2/4 342/2/4
f 342/2/4 339/2/4 343/2/4
f 344/2/4 345/2/4 346/2/4
f 346/2/4 345/2/4 347/2/4
f 348/6/4 349/6/4 356/6/4
f 356/6/4 349/6/4 357/6/4
f 350/6/4 351/6/4 358/6/4
f 358/6/4 351/6/4 359/6/4
f 352/6/4 353/6/4 360/6/4
f 360/6/4 353/6/4 361/6/4
f 354/2/4 355/2/4 365/2/4
f 365/2/4 355/2/4 366/2/4
f 362/2/4 363/2/4 367/2/4
f 367/2/4 363/2/4 368/2/4
f 364/2/4 365/2/4 370/2/4
f 370/2/4 365/2/4 371/2/4
f 368/2/4 369/2/4 373/2/4
f 373/2/4 369/2/4 374/2/4
f 371/2/4 372/2/4 375/2/4
f 375/2/4 372/2/4 376/2/4
f 377/6/4 378/6/4 380/6/4
f 380/6/4 378/6/4 381/6/4
f 379/2/4 380/2/4 384/2/4
f 381/2/4 382/2/4 384/2/4
f 380/2/4 381/2/4 384/2/4
f 384/2/4 382/2/4 385/2/4
f 383/2/4 384/2/4 387/2/4
f 387/2/4 384/2/4 388/2/4
f 385/2/4 386/2/4 389/2/4
f 389/2/4 386/2/4 390/2/4
f 388/2/4 389/2/4 392/2/4
f 390/6/4 391/6/4 393/6/4
f 392/2/4 389/2/4 393/2/4
f 389/6/4 390/6/4 393/6/4
f 393/6/4 391/6/4 394/6/4
f 395/2/4 396/2/4 397/2/4
f 397/2/4 396/2/4 398/2/4
f 401/5/5 400/5/5 399/5/5
f 402/5/5 400/5/5 401/5/5
f 406/1/5 404/1/5 403/1/5
f 407/1/5 404/1/5 406/1/5
f 409/1/5 406/1/5 405/1/5
f 409/1/5 408/1/5 407/1/5
f 409/1/5 407/1/5 406/1/5
f 410/1/5 408/1/5 409/1/5
f 413/2/5 412/2/5 411/2/5
f 414/2/5 412/2/5 413/2/5
f 415/2/5 412/2/5 414/2/5
f 416/2/5 412/2/5 415/2/5
f 417/2/5 415/2/5 414/2/5
f 418/2/5 415/2/5 417/2/5
f 422/1/5 420/1/5 419/1/5
f 423/1/5 420/1/5 422/1/5
f 425/1/5 422/1/5 421/1/5
f 426/1/5 422/1/5 425/1/5
f 427/1/5 424/1/5 423/1/5
f 428/1/5 424/1/5 427/1/5
f 433/2/5 430/2/5 429/2/5
f 434/2/5 430/2/5 433/2/5
f 435/2/5 432/2/5 431/2/5
f 436/2/5 432/2/5 435/2/5
f 437/2/5 435/2/5 434/2/5
f 438/2/5 435/2/5 437/2/5
f 442/1/5 440/1/5 439/1/5
f 443/1/5 440/1/5 442/1/5
f 445/1/5 442/1/5 441/1/5
f 446/1/5 442/1/5 445/1/5
f 447/1/5 444/1/5 443/1/5
f 448/1/5 444/1/5 447/1/5
f 453/2/5 450/2/5 449/2/5
f 454/2/5 450/2/5 453/2/5
f 455/2/5 452/2/5 451/2/5
f 456/2/5 452/2/5 455/2/5
f 457/2/5 455/2/5 454/2/5
f 458/2/5 455/2/5 457/2/5
f 461/6/5 460/6/5 459/6/5
f 462/6/5 460/6/5 461/6/5
f 465/6/5 464/6/5 463/6/5
f 466/6/5 464/6/5 465/6/5
f 469/6/5 468/6/5 467/6/5
f 470/6/5 468/6/5 469/6/5
f 473/6/5 472/6/5 471/6/5
f 474/6/5 472/6/5 473/6/5
f 477/6/5 476/6/5 475/6/5
f 478/6/5 476/6/5 477/6/5
f 481/6/5 480/6/5 479/6/5
f 482/6/5 480/6/5 481/6/5
f 485/6/5 484/6/5 483/6/5
f 486/6/5 484/6/5 485/6/5
f 489/6/5 488/6/5 487/6/5
f 490/6/5 488/6/5 489/6/5
f 493/6/5 492/6/5 491/6/5
f 494/6/5 492/6/5 493/6/5
f 495/6/6 496/6/6 497/6/6
f 497/6/6 496/6/6 498/6/6
f 499/6/6 500/6/6 501/6/6
f 501/6/6 500/6/6 502/6/6
f 503/6/6 504/6/6 505/6/6
f 505/6/6 504/6/6 506/6/6
f 507/6/6 508/6/6 509/6/6
f 509/6/6 508/6/6 510/6/6
f 511/6/6 512/6/6 513/6/6
f 513/6/6 512/6/6 514/6/6
f 515/5/6 516/5/6 519/5/6
f 515/5/6 519/5/6 520/5/6
f 515/5/6 520/5/6 521/5/6
f 521/5/6 520/5/6 522/5/6
f 517/5/6 518/5/6 523/5/6
f 523/5/6 518/5/6 524/5/6
f 525/6/6 526/6/6 527/6/6
f 527/6/6 526/6/6 528/6/6
f 529/6/6 530/6/6 531/6/6
f 531/6/6 530/6/6 532/6/6
f 533/6/6 534/6/6 535/6/6
f 535/6/6 534/6/6 536/6/6
f 537/6/6 538/6/6 539/6/6
f 539/6/6 538/6/6 540/6/6
f 541/1/6 542/1/6 544/1/6
f 544/1/6 542/1/6 545/1/6
f 543/1/6 544/1/6 546/1/6
f 546/1/6 544/1/6 547/1/6
f 548/2/6 549/2/6 550/2/6
f 550/2/6 549/2/6 551/2/6
f 551/2/6 552/2/6 553/2/6
f 553/2/6 552/2/6 554/2/6
f 555/1/6 556/1/6 558/1/6
f 558/1/6 556/1/6 559/1/6
f 557/1/6 558/1/6 560/1/6
f 560/1/6 558/1/6 561/1/6
f 562/2/6 563/2/6 564/2/6
f 564/2/6 563/2/6 565/2/6
f 565/2/6 566/2/6 567/2/6
f 567/2/6 566/2/6 568/2/6
f 569/6/6 570/6/6 572/6/6
f 571/1/6 572/1/6 574/1/6
f 573/1/6 574/1/6 575/1/6
f 572/6/6 570/6/6 576/6/6
f 575/1/6 574/1/6 576/1/6
f 574/1/6 572/1/6 576/1/6
f 575/6/6 576/6/6 577/6/6
f 576/6/6 570/6/6 578/6/6
f 577/6/6 576/6/6 578/6/6
f 577/2/6 578/2/6 579/2/6
f 579/2/6 578/2/6 580/2/6
f 580/2/6 578/2/6 581/2/6
f 578/6/6 570/6/6 582/6/6
f 581/2/6 578/2/6 582/2/6
f 582/6/6 570/6/6 583/6/6
f 583/6/6 570/6/6 584/6/6
