# MagicaVoxel @ Ephtracy

# group
o 

# material
mtllib Voxel Design (Cars)-10.mtl
usemtl palette

# normals
vn -1 0 0
vn 1 0 0
vn 0 0 1
vn 0 0 -1
vn 0 -1 0
vn 0 1 0

# texcoords
vt 0.150391 0.5
vt 0.689453 0.5
vt 0.748047 0.5
vt 0.912109 0.5
vt 0.962891 0.5
vt 0.966797 0.5
vt 0.986328 0.5
vt 0.990234 0.5

# verts
v -3.8 0 0.6
v -3.8 0 0.3
v -3.8 0 -0.2
v -3.8 0 -0.5
v -3.8 0.1 0.5
v -3.8 0.1 0.4
v -3.8 0.1 -0.3
v -3.8 0.1 -0.4
v -3.8 0.2 0.5
v -3.8 0.2 0.4
v -3.8 0.2 -0.3
v -3.8 0.2 -0.4
v -3.8 0.3 0.6
v -3.8 0.3 0.3
v -3.8 0.3 -0.2
v -3.8 0.3 -0.5
v -3.8 0.5 0.3
v -3.8 0.5 0.2
v -3.8 0.7 0.3
v -3.8 0.7 0.2
v -3.7 0.1 0.8
v -3.7 0.1 0.6
v -3.7 0.1 0.3
v -3.7 0.1 -0.2
v -3.7 0.1 -0.5
v -3.7 0.1 -0.7
v -3.7 0.3 0.8
v -3.7 0.3 0.7
v -3.7 0.3 0.6
v -3.7 0.3 0.3
v -3.7 0.3 -0.2
v -3.7 0.3 -0.5
v -3.7 0.3 -0.7
v -3.7 0.4 0.7
v -3.7 0.4 0.6
v -3.7 0.5 0.3
v -3.7 0.5 0.2
v -3.7 0.5 -0.1
v -3.7 0.5 -0.2
v -3.7 0.6 0.8
v -3.7 0.6 0.4
v -3.7 0.6 0.2
v -3.7 0.6 -0.1
v -3.7 0.6 -0.3
v -3.7 0.6 -0.7
v -3.7 0.7 0.3
v -3.7 0.7 -0.1
v -3.7 0.7 -0.2
v -3.7 1 0.3
v -3.7 1 -0.2
v -3.7 1.1 0.4
v -3.7 1.1 -0.3
v -3.6 0.6 0.2
v -3.6 0.6 -0.1
v -3.6 0.7 0.3
v -3.6 0.7 0.2
v -3.6 0.7 -0.1
v -3.6 0.7 -0.2
v -3.6 1 0.3
v -3.6 1 -0.2
v -2.9 0.3 -0.5
v -2.9 0.3 -0.6
v -2.9 0.6 -0.5
v -2.9 0.6 -0.6
v -2.8 0 0.6
v -2.8 0 0.3
v -2.8 0 -0.2
v -2.8 0 -0.5
v -2.8 0.1 0.6
v -2.8 0.1 0.3
v -2.8 0.1 -0.2
v -2.8 0.1 -0.5
v -2.8 0.3 -0.3
v -2.8 0.3 -0.5
v -2.8 0.6 0.4
v -2.8 0.6 0.3
v -2.8 0.6 -0.3
v -2.8 0.6 -0.5
v -2.8 0.8 -0.2
v -2.8 0.8 -0.3
v -2.8 1 0.4
v -2.8 1 0.3
v -2.8 1 -0.2
v -2.8 1 -0.3
v -3.6 0 0.6
v -3.6 0 0.3
v -3.6 0 -0.2
v -3.6 0 -0.5
v -3.6 0.1 0.6
v -3.6 0.1 0.3
v -3.6 0.1 -0.2
v -3.6 0.1 -0.5
v -3.6 0.3 -0.3
v -3.6 0.3 -0.5
v -3.6 0.6 0.4
v -3.6 0.6 0.3
v -3.6 0.6 -0.3
v -3.6 0.6 -0.5
v -3.6 0.8 -0.2
v -3.6 0.8 -0.3
v -3.6 1 0.4
v -3.6 1 0.3
v -3.6 1 -0.2
v -3.6 1 -0.3
v -3.5 0.3 -0.5
v -3.5 0.3 -0.6
v -3.5 0.6 -0.5
v -3.5 0.6 -0.6
v -2.8 0.6 0.2
v -2.8 0.6 -0.1
v -2.8 0.7 0.3
v -2.8 0.7 0.2
v -2.8 0.7 -0.1
v -2.8 0.7 -0.2
v -2.8 1 0.3
v -2.8 1 -0.2
v -2.7 0.1 0.8
v -2.7 0.1 0.6
v -2.7 0.1 0.3
v -2.7 0.1 -0.2
v -2.7 0.1 -0.5
v -2.7 0.1 -0.7
v -2.7 0.3 0.8
v -2.7 0.3 0.7
v -2.7 0.3 0.6
v -2.7 0.3 0.3
v -2.7 0.3 -0.2
v -2.7 0.3 -0.5
v -2.7 0.3 -0.7
v -2.7 0.4 0.7
v -2.7 0.4 0.6
v -2.7 0.5 0.3
v -2.7 0.5 0.2
v -2.7 0.5 -0.1
v -2.7 0.5 -0.2
v -2.7 0.6 0.8
v -2.7 0.6 0.4
v -2.7 0.6 0.2
v -2.7 0.6 -0.1
v -2.7 0.6 -0.3
v -2.7 0.6 -0.7
v -2.7 0.7 0.3
v -2.7 0.7 -0.1
v -2.7 0.7 -0.2
v -2.7 1 0.3
v -2.7 1 -0.2
v -2.7 1.1 0.4
v -2.7 1.1 -0.3
v -2.6 0 0.6
v -2.6 0 0.3
v -2.6 0 -0.2
v -2.6 0 -0.5
v -2.6 0.1 0.5
v -2.6 0.1 0.4
v -2.6 0.1 -0.3
v -2.6 0.1 -0.4
v -2.6 0.2 0.5
v -2.6 0.2 0.4
v -2.6 0.2 -0.3
v -2.6 0.2 -0.4
v -2.6 0.3 0.6
v -2.6 0.3 0.3
v -2.6 0.3 -0.2
v -2.6 0.3 -0.5
v -2.6 0.5 0.3
v -2.6 0.5 0.2
v -2.6 0.7 0.3
v -2.6 0.7 0.2
v -3.7 0.1 0.8
v -3.7 0.3 0.8
v -3.7 0.6 0.8
v -3.6 0.3 0.8
v -3.6 0.5 0.8
v -3.5 0.1 0.8
v -3.5 0.2 0.8
v -3.5 0.3 0.8
v -3.5 0.5 0.8
v -3.4 0.1 0.8
v -3.4 0.2 0.8
v -3.4 0.4 0.8
v -3.4 0.5 0.8
v -3 0.1 0.8
v -3 0.2 0.8
v -3 0.4 0.8
v -3 0.5 0.8
v -2.9 0.1 0.8
v -2.9 0.2 0.8
v -2.9 0.3 0.8
v -2.9 0.5 0.8
v -2.8 0.3 0.8
v -2.8 0.5 0.8
v -2.7 0.1 0.8
v -2.7 0.3 0.8
v -2.7 0.6 0.8
v -3.8 0 0.6
v -3.8 0.3 0.6
v -3.7 0.1 0.6
v -3.7 0.3 0.6
v -3.6 0 0.6
v -3.6 0.1 0.6
v -2.8 0 0.6
v -2.8 0.1 0.6
v -2.7 0.1 0.6
v -2.7 0.3 0.6
v -2.6 0 0.6
v -2.6 0.3 0.6
v -3.7 0.6 0.4
v -3.7 1.1 0.4
v -3.6 0.6 0.4
v -3.6 1 0.4
v -3.4 1 0.4
v -3.4 1.1 0.4
v -3.3 1 0.4
v -3.3 1.1 0.4
v -3.1 1 0.4
v -3.1 1.1 0.4
v -3 1 0.4
v -3 1.1 0.4
v -2.8 0.6 0.4
v -2.8 1 0.4
v -2.7 0.6 0.4
v -2.7 1.1 0.4
v -3.8 0.5 0.3
v -3.8 0.7 0.3
v -3.7 0.5 0.3
v -3.7 0.7 0.3
v -3.6 0.6 0.3
v -3.6 1 0.3
v -3.4 0.6 0.3
v -3.4 1 0.3
v -3.3 0.6 0.3
v -3.3 1 0.3
v -3.1 0.6 0.3
v -3.1 1 0.3
v -3 0.6 0.3
v -3 1 0.3
v -2.8 0.6 0.3
v -2.8 1 0.3
v -2.7 0.5 0.3
v -2.7 0.7 0.3
v -2.6 0.5 0.3
v -2.6 0.7 0.3
v -3.7 0.6 -0.1
v -3.7 0.7 -0.1
v -3.6 0.6 -0.1
v -3.6 0.7 -0.1
v -2.8 0.6 -0.1
v -2.8 0.7 -0.1
v -2.7 0.6 -0.1
v -2.7 0.7 -0.1
v -3.8 0 -0.2
v -3.8 0.3 -0.2
v -3.7 0.1 -0.2
v -3.7 0.3 -0.2
v -3.7 0.7 -0.2
v -3.7 1 -0.2
v -3.6 0 -0.2
v -3.6 0.1 -0.2
v -3.6 0.7 -0.2
v -3.6 1 -0.2
v -2.8 0 -0.2
v -2.8 0.1 -0.2
v -2.8 0.7 -0.2
v -2.8 1 -0.2
v -2.7 0.1 -0.2
v -2.7 0.3 -0.2
v -2.7 0.7 -0.2
v -2.7 1 -0.2
v -2.6 0 -0.2
v -2.6 0.3 -0.2
v -3.6 0.3 -0.5
v -3.6 0.6 -0.5
v -3.5 0.3 -0.5
v -3.5 0.6 -0.5
v -2.9 0.3 -0.5
v -2.9 0.6 -0.5
v -2.8 0.3 -0.5
v -2.8 0.6 -0.5
v -3.5 0.3 -0.6
v -3.5 0.6 -0.6
v -3.4 0.3 -0.6
v -3.3 0.3 -0.6
v -3.1 0.3 -0.6
v -3 0.3 -0.6
v -2.9 0.3 -0.6
v -2.9 0.6 -0.6
v -3.8 0 0.3
v -3.8 0.3 0.3
v -3.7 0.1 0.3
v -3.7 0.3 0.3
v -3.7 0.7 0.3
v -3.7 1 0.3
v -3.6 0 0.3
v -3.6 0.1 0.3
v -3.6 0.7 0.3
v -3.6 1 0.3
v -2.8 0 0.3
v -2.8 0.1 0.3
v -2.8 0.7 0.3
v -2.8 1 0.3
v -2.7 0.1 0.3
v -2.7 0.3 0.3
v -2.7 0.7 0.3
v -2.7 1 0.3
v -2.6 0 0.3
v -2.6 0.3 0.3
v -3.8 0.5 0.2
v -3.8 0.7 0.2
v -3.7 0.5 0.2
v -3.7 0.6 0.2
v -3.6 0.6 0.2
v -3.6 0.7 0.2
v -2.8 0.6 0.2
v -2.8 0.7 0.2
v -2.7 0.5 0.2
v -2.7 0.6 0.2
v -2.6 0.5 0.2
v -2.6 0.7 0.2
v -3.6 0.8 -0.2
v -3.6 1 -0.2
v -3.4 0.8 -0.2
v -3.4 1 -0.2
v -3.3 0.8 -0.2
v -3.3 1 -0.2
v -3.1 0.8 -0.2
v -3.1 1 -0.2
v -3 0.8 -0.2
v -3 1 -0.2
v -2.8 0.8 -0.2
v -2.8 1 -0.2
v -3.7 0.6 -0.3
v -3.7 1.1 -0.3
v -3.6 0.3 -0.3
v -3.6 0.6 -0.3
v -3.6 0.8 -0.3
v -3.6 1 -0.3
v -3.4 0.3 -0.3
v -3.4 0.8 -0.3
v -3.4 1 -0.3
v -3.4 1.1 -0.3
v -3.3 0.3 -0.3
v -3.3 0.8 -0.3
v -3.3 1 -0.3
v -3.3 1.1 -0.3
v -3.1 0.3 -0.3
v -3.1 0.8 -0.3
v -3.1 1 -0.3
v -3.1 1.1 -0.3
v -3 0.3 -0.3
v -3 0.8 -0.3
v -3 1 -0.3
v -3 1.1 -0.3
v -2.8 0.3 -0.3
v -2.8 0.6 -0.3
v -2.8 0.8 -0.3
v -2.8 1 -0.3
v -2.7 0.6 -0.3
v -2.7 1.1 -0.3
v -3.8 0 -0.5
v -3.8 0.3 -0.5
v -3.7 0.1 -0.5
v -3.7 0.3 -0.5
v -3.6 0 -0.5
v -3.6 0.1 -0.5
v -2.8 0 -0.5
v -2.8 0.1 -0.5
v -2.7 0.1 -0.5
v -2.7 0.3 -0.5
v -2.6 0 -0.5
v -2.6 0.3 -0.5
v -3.7 0.1 -0.7
v -3.7 0.3 -0.7
v -3.7 0.6 -0.7
v -3.6 0.3 -0.7
v -3.6 0.5 -0.7
v -3.5 0.3 -0.7
v -3.5 0.5 -0.7
v -2.9 0.3 -0.7
v -2.9 0.5 -0.7
v -2.8 0.3 -0.7
v -2.8 0.5 -0.7
v -2.7 0.1 -0.7
v -2.7 0.3 -0.7
v -2.7 0.6 -0.7
v -3.8 0 0.6
v -3.6 0 0.6
v -2.8 0 0.6
v -2.6 0 0.6
v -3.8 0 0.3
v -3.6 0 0.3
v -2.8 0 0.3
v -2.6 0 0.3
v -3.8 0 -0.2
v -3.6 0 -0.2
v -2.8 0 -0.2
v -2.6 0 -0.2
v -3.8 0 -0.5
v -3.6 0 -0.5
v -2.8 0 -0.5
v -2.6 0 -0.5
v -3.7 0.1 0.8
v -3.5 0.1 0.8
v -3.4 0.1 0.8
v -3 0.1 0.8
v -2.9 0.1 0.8
v -2.7 0.1 0.8
v -3.5 0.1 0.7
v -3.4 0.1 0.7
v -3.3 0.1 0.7
v -3.1 0.1 0.7
v -3 0.1 0.7
v -2.9 0.1 0.7
v -3.7 0.1 0.6
v -3.6 0.1 0.6
v -3.5 0.1 0.6
v -3.4 0.1 0.6
v -3 0.1 0.6
v -2.9 0.1 0.6
v -2.8 0.1 0.6
v -2.7 0.1 0.6
v -3.5 0.1 0.5
v -3.4 0.1 0.5
v -3.3 0.1 0.5
v -3.1 0.1 0.5
v -3 0.1 0.5
v -2.9 0.1 0.5
v -3.7 0.1 0.3
v -3.6 0.1 0.3
v -3.3 0.1 0.3
v -3.1 0.1 0.3
v -2.8 0.1 0.3
v -2.7 0.1 0.3
v -3.3 0.1 0.1
v -3.1 0.1 0.1
v -3.3 0.1 0
v -3.1 0.1 0
v -3.7 0.1 -0.2
v -3.6 0.1 -0.2
v -3.3 0.1 -0.2
v -3.1 0.1 -0.2
v -2.8 0.1 -0.2
v -2.7 0.1 -0.2
v -3.3 0.1 -0.3
v -3.1 0.1 -0.3
v -3.5 0.1 -0.4
v -3.3 0.1 -0.4
v -3.1 0.1 -0.4
v -2.9 0.1 -0.4
v -3.7 0.1 -0.5
v -3.6 0.1 -0.5
v -3.4 0.1 -0.5
v -3 0.1 -0.5
v -2.8 0.1 -0.5
v -2.7 0.1 -0.5
v -3.5 0.1 -0.6
v -3.4 0.1 -0.6
v -3 0.1 -0.6
v -2.9 0.1 -0.6
v -3.7 0.1 -0.7
v -2.7 0.1 -0.7
v -3.8 0.5 0.3
v -3.7 0.5 0.3
v -2.7 0.5 0.3
v -2.6 0.5 0.3
v -3.8 0.5 0.2
v -3.7 0.5 0.2
v -2.7 0.5 0.2
v -2.6 0.5 0.2
v -3.6 1 0.4
v -3.4 1 0.4
v -3.3 1 0.4
v -3.1 1 0.4
v -3 1 0.4
v -2.8 1 0.4
v -3.7 1 0.3
v -3.6 1 0.3
v -3.4 1 0.3
v -3.3 1 0.3
v -3.1 1 0.3
v -3 1 0.3
v -2.8 1 0.3
v -2.7 1 0.3
v -3.7 1 -0.2
v -3.6 1 -0.2
v -3.4 1 -0.2
v -3.3 1 -0.2
v -3.1 1 -0.2
v -3 1 -0.2
v -2.8 1 -0.2
v -2.7 1 -0.2
v -3.6 1 -0.3
v -3.4 1 -0.3
v -3.3 1 -0.3
v -3.1 1 -0.3
v -3 1 -0.3
v -2.8 1 -0.3
v -3.8 0.3 0.6
v -3.7 0.3 0.6
v -2.7 0.3 0.6
v -2.6 0.3 0.6
v -3.8 0.3 0.3
v -3.7 0.3 0.3
v -2.7 0.3 0.3
v -2.6 0.3 0.3
v -3.8 0.3 -0.2
v -3.7 0.3 -0.2
v -2.7 0.3 -0.2
v -2.6 0.3 -0.2
v -3.6 0.3 -0.3
v -3.4 0.3 -0.3
v -3.3 0.3 -0.3
v -3.1 0.3 -0.3
v -3 0.3 -0.3
v -2.8 0.3 -0.3
v -3.8 0.3 -0.5
v -3.7 0.3 -0.5
v -3.6 0.3 -0.5
v -3.5 0.3 -0.5
v -2.9 0.3 -0.5
v -2.8 0.3 -0.5
v -2.7 0.3 -0.5
v -2.6 0.3 -0.5
v -3.5 0.3 -0.6
v -3.4 0.3 -0.6
v -3.3 0.3 -0.6
v -3.1 0.3 -0.6
v -3 0.3 -0.6
v -2.9 0.3 -0.6
v -3.7 0.6 0.8
v -2.7 0.6 0.8
v -3.4 0.6 0.7
v -3.3 0.6 0.7
v -3.1 0.6 0.7
v -3 0.6 0.7
v -3.7 0.6 0.4
v -3.6 0.6 0.4
v -2.8 0.6 0.4
v -2.7 0.6 0.4
v -3.6 0.6 0.3
v -3.4 0.6 0.3
v -3.3 0.6 0.3
v -3.1 0.6 0.3
v -3 0.6 0.3
v -2.8 0.6 0.3
v -3.7 0.6 0.2
v -3.6 0.6 0.2
v -2.8 0.6 0.2
v -2.7 0.6 0.2
v -3.7 0.6 -0.1
v -3.6 0.6 -0.1
v -2.8 0.6 -0.1
v -2.7 0.6 -0.1
v -3.7 0.6 -0.3
v -3.6 0.6 -0.3
v -2.8 0.6 -0.3
v -2.7 0.6 -0.3
v -3.6 0.6 -0.5
v -3.5 0.6 -0.5
v -2.9 0.6 -0.5
v -2.8 0.6 -0.5
v -3.5 0.6 -0.6
v -2.9 0.6 -0.6
v -3.7 0.6 -0.7
v -2.7 0.6 -0.7
v -3.8 0.7 0.3
v -3.7 0.7 0.3
v -3.6 0.7 0.3
v -2.8 0.7 0.3
v -2.7 0.7 0.3
v -2.6 0.7 0.3
v -3.8 0.7 0.2
v -3.6 0.7 0.2
v -2.8 0.7 0.2
v -2.6 0.7 0.2
v -3.7 0.7 -0.1
v -3.6 0.7 -0.1
v -2.8 0.7 -0.1
v -2.7 0.7 -0.1
v -3.7 0.7 -0.2
v -3.6 0.7 -0.2
v -2.8 0.7 -0.2
v -2.7 0.7 -0.2
v -3.6 0.8 -0.2
v -3.4 0.8 -0.2
v -3.3 0.8 -0.2
v -3.1 0.8 -0.2
v -3 0.8 -0.2
v -2.8 0.8 -0.2
v -3.6 0.8 -0.3
v -3.4 0.8 -0.3
v -3.3 0.8 -0.3
v -3.1 0.8 -0.3
v -3 0.8 -0.3
v -2.8 0.8 -0.3
v -3.7 1.1 0.4
v -3.4 1.1 0.4
v -3.3 1.1 0.4
v -3.1 1.1 0.4
v -3 1.1 0.4
v -2.7 1.1 0.4
v -3.7 1.1 -0.3
v -3.4 1.1 -0.3
v -3.3 1.1 -0.3
v -3.1 1.1 -0.3
v -3 1.1 -0.3
v -2.7 1.1 -0.3

# faces
f 5/7/1 2/7/1 1/7/1
f 6/7/1 2/7/1 5/7/1
f 7/7/1 4/7/1 3/7/1
f 8/7/1 4/7/1 7/7/1
f 9/7/1 5/7/1 1/7/1
f 9/5/1 6/5/1 5/5/1
f 10/7/1 2/7/1 6/7/1
f 10/5/1 6/5/1 9/5/1
f 11/5/1 8/5/1 7/5/1
f 11/7/1 7/7/1 3/7/1
f 12/7/1 4/7/1 8/7/1
f 12/5/1 8/5/1 11/5/1
f 13/7/1 9/7/1 1/7/1
f 13/7/1 10/7/1 9/7/1
f 14/7/1 2/7/1 10/7/1
f 14/7/1 10/7/1 13/7/1
f 15/7/1 11/7/1 3/7/1
f 15/7/1 12/7/1 11/7/1
f 16/7/1 4/7/1 12/7/1
f 16/7/1 12/7/1 15/7/1
f 19/2/1 18/2/1 17/2/1
f 20/2/1 18/2/1 19/2/1
f 27/6/1 22/6/1 21/6/1
f 28/6/1 22/6/1 27/6/1
f 29/6/1 22/6/1 28/6/1
f 30/6/1 24/6/1 23/6/1
f 31/6/1 24/6/1 30/6/1
f 32/6/1 26/6/1 25/6/1
f 33/6/1 26/6/1 32/6/1
f 34/1/1 29/1/1 28/1/1
f 34/3/1 28/3/1 27/3/1
f 35/3/1 31/3/1 30/3/1
f 35/1/1 29/1/1 34/1/1
f 35/3/1 33/3/1 32/3/1
f 35/3/1 32/3/1 31/3/1
f 35/3/1 30/3/1 29/3/1
f 36/3/1 35/3/1 34/3/1
f 36/3/1 33/3/1 35/3/1
f 37/3/1 33/3/1 36/3/1
f 38/3/1 33/3/1 37/3/1
f 39/3/1 33/3/1 38/3/1
f 40/3/1 34/3/1 27/3/1
f 40/3/1 36/3/1 34/3/1
f 41/3/1 36/3/1 40/3/1
f 42/3/1 38/3/1 37/3/1
f 43/2/1 39/2/1 38/2/1
f 43/3/1 38/3/1 42/3/1
f 44/3/1 33/3/1 39/3/1
f 45/3/1 33/3/1 44/3/1
f 46/3/1 36/3/1 41/3/1
f 47/2/1 39/2/1 43/2/1
f 48/3/1 44/3/1 39/3/1
f 48/2/1 39/2/1 47/2/1
f 49/3/1 46/3/1 41/3/1
f 50/3/1 44/3/1 48/3/1
f 51/3/1 49/3/1 41/3/1
f 51/3/1 50/3/1 49/3/1
f 52/3/1 44/3/1 50/3/1
f 52/3/1 50/3/1 51/3/1
f 56/8/1 54/8/1 53/8/1
f 57/8/1 54/8/1 56/8/1
f 59/8/1 56/8/1 55/8/1
f 59/8/1 58/8/1 57/8/1
f 59/8/1 57/8/1 56/8/1
f 60/8/1 58/8/1 59/8/1
f 63/3/1 62/3/1 61/3/1
f 64/3/1 62/3/1 63/3/1
f 69/7/1 66/7/1 65/7/1
f 70/7/1 66/7/1 69/7/1
f 71/7/1 68/7/1 67/7/1
f 72/7/1 68/7/1 71/7/1
f 77/3/1 74/3/1 73/3/1
f 78/3/1 74/3/1 77/3/1
f 81/3/1 76/3/1 75/3/1
f 82/3/1 76/3/1 81/3/1
f 83/3/1 80/3/1 79/3/1
f 84/3/1 80/3/1 83/3/1
f 85/7/2 86/7/2 89/7/2
f 89/7/2 86/7/2 90/7/2
f 87/7/2 88/7/2 91/7/2
f 91/7/2 88/7/2 92/7/2
f 93/3/2 94/3/2 97/3/2
f 97/3/2 94/3/2 98/3/2
f 95/3/2 96/3/2 101/3/2
f 101/3/2 96/3/2 102/3/2
f 99/3/2 100/3/2 103/3/2
f 103/3/2 100/3/2 104/3/2
f 105/3/2 106/3/2 107/3/2
f 107/3/2 106/3/2 108/3/2
f 109/8/2 110/8/2 112/8/2
f 112/8/2 110/8/2 113/8/2
f 111/8/2 112/8/2 115/8/2
f 113/8/2 114/8/2 115/8/2
f 112/8/2 113/8/2 115/8/2
f 115/8/2 114/8/2 116/8/2
f 117/6/2 118/6/2 123/6/2
f 123/6/2 118/6/2 124/6/2
f 124/6/2 118/6/2 125/6/2
f 119/6/2 120/6/2 126/6/2
f 126/6/2 120/6/2 127/6/2
f 121/6/2 122/6/2 128/6/2
f 128/6/2 122/6/2 129/6/2
f 124/1/2 125/1/2 130/1/2
f 123/3/2 124/3/2 130/3/2
f 126/3/2 127/3/2 131/3/2
f 130/1/2 125/1/2 131/1/2
f 128/3/2 129/3/2 131/3/2
f 127/3/2 128/3/2 131/3/2
f 125/3/2 126/3/2 131/3/2
f 130/3/2 131/3/2 132/3/2
f 131/3/2 129/3/2 132/3/2
f 132/3/2 129/3/2 133/3/2
f 133/3/2 129/3/2 134/3/2
f 134/3/2 129/3/2 135/3/2
f 123/3/2 130/3/2 136/3/2
f 130/3/2 132/3/2 136/3/2
f 136/3/2 132/3/2 137/3/2
f 133/3/2 134/3/2 138/3/2
f 134/2/2 135/2/2 139/2/2
f 138/3/2 134/3/2 139/3/2
f 135/3/2 129/3/2 140/3/2
f 140/3/2 129/3/2 141/3/2
f 137/3/2 132/3/2 142/3/2
f 139/2/2 135/2/2 143/2/2
f 135/3/2 140/3/2 144/3/2
f 143/2/2 135/2/2 144/2/2
f 137/3/2 142/3/2 145/3/2
f 144/3/2 140/3/2 146/3/2
f 137/3/2 145/3/2 147/3/2
f 145/3/2 146/3/2 147/3/2
f 146/3/2 140/3/2 148/3/2
f 147/3/2 146/3/2 148/3/2
f 149/7/2 150/7/2 153/7/2
f 153/7/2 150/7/2 154/7/2
f 151/7/2 152/7/2 155/7/2
f 155/7/2 152/7/2 156/7/2
f 149/7/2 153/7/2 157/7/2
f 153/5/2 154/5/2 157/5/2
f 154/7/2 150/7/2 158/7/2
f 157/5/2 154/5/2 158/5/2
f 155/5/2 156/5/2 159/5/2
f 151/7/2 155/7/2 159/7/2
f 156/7/2 152/7/2 160/7/2
f 159/5/2 156/5/2 160/5/2
f 149/7/2 157/7/2 161/7/2
f 157/7/2 158/7/2 161/7/2
f 158/7/2 150/7/2 162/7/2
f 161/7/2 158/7/2 162/7/2
f 151/7/2 159/7/2 163/7/2
f 159/7/2 160/7/2 163/7/2
f 160/7/2 152/7/2 164/7/2
f 163/7/2 160/7/2 164/7/2
f 165/2/2 166/2/2 167/2/2
f 167/2/2 166/2/2 168/2/2
f 172/6/3 170/6/3 169/6/3
f 172/3/3 171/3/3 170/3/3
f 173/3/3 171/3/3 172/3/3
f 174/6/3 172/6/3 169/6/3
f 175/6/3 172/6/3 174/6/3
f 176/4/3 173/4/3 172/4/3
f 176/6/3 172/6/3 175/6/3
f 177/3/3 171/3/3 173/3/3
f 177/4/3 173/4/3 176/4/3
f 178/4/3 175/4/3 174/4/3
f 179/6/3 176/6/3 175/6/3
f 179/4/3 175/4/3 178/4/3
f 180/3/3 177/3/3 176/3/3
f 181/3/3 171/3/3 177/3/3
f 181/3/3 177/3/3 180/3/3
f 182/6/3 179/6/3 178/6/3
f 183/6/3 176/6/3 179/6/3
f 183/6/3 179/6/3 182/6/3
f 184/3/3 180/3/3 176/3/3
f 184/7/3 181/7/3 180/7/3
f 185/3/3 171/3/3 181/3/3
f 185/7/3 181/7/3 184/7/3
f 186/4/3 183/4/3 182/4/3
f 187/6/3 176/6/3 183/6/3
f 187/4/3 183/4/3 186/4/3
f 188/3/3 184/3/3 176/3/3
f 188/6/3 176/6/3 187/6/3
f 188/3/3 185/3/3 184/3/3
f 189/3/3 171/3/3 185/3/3
f 189/3/3 185/3/3 188/3/3
f 190/6/3 187/6/3 186/6/3
f 190/6/3 188/6/3 187/6/3
f 190/4/3 189/4/3 188/4/3
f 191/3/3 171/3/3 189/3/3
f 191/4/3 189/4/3 190/4/3
f 192/6/3 190/6/3 186/6/3
f 193/3/3 191/3/3 190/3/3
f 193/6/3 190/6/3 192/6/3
f 194/3/3 171/3/3 191/3/3
f 194/3/3 191/3/3 193/3/3
f 197/7/3 196/7/3 195/7/3
f 198/7/3 196/7/3 197/7/3
f 199/7/3 197/7/3 195/7/3
f 200/7/3 197/7/3 199/7/3
f 203/7/3 202/7/3 201/7/3
f 205/7/3 203/7/3 201/7/3
f 205/7/3 204/7/3 203/7/3
f 206/7/3 204/7/3 205/7/3
f 209/3/3 208/3/3 207/3/3
f 210/3/3 208/3/3 209/3/3
f 211/3/3 208/3/3 210/3/3
f 212/3/3 208/3/3 211/3/3
f 213/5/3 212/5/3 211/5/3
f 214/5/3 212/5/3 213/5/3
f 215/3/3 214/3/3 213/3/3
f 216/3/3 214/3/3 215/3/3
f 217/5/3 216/5/3 215/5/3
f 218/5/3 216/5/3 217/5/3
f 220/3/3 218/3/3 217/3/3
f 221/3/3 220/3/3 219/3/3
f 222/3/3 218/3/3 220/3/3
f 222/3/3 220/3/3 221/3/3
f 225/2/3 224/2/3 223/2/3
f 226/2/3 224/2/3 225/2/3
f 229/8/3 228/8/3 227/8/3
f 230/8/3 228/8/3 229/8/3
f 231/8/3 230/8/3 229/8/3
f 232/8/3 230/8/3 231/8/3
f 233/8/3 232/8/3 231/8/3
f 234/8/3 232/8/3 233/8/3
f 235/8/3 234/8/3 233/8/3
f 236/8/3 234/8/3 235/8/3
f 237/8/3 236/8/3 235/8/3
f 238/8/3 236/8/3 237/8/3
f 241/2/3 240/2/3 239/2/3
f 242/2/3 240/2/3 241/2/3
f 245/2/3 244/2/3 243/2/3
f 246/2/3 244/2/3 245/2/3
f 249/2/3 248/2/3 247/2/3
f 250/2/3 248/2/3 249/2/3
f 253/7/3 252/7/3 251/7/3
f 254/7/3 252/7/3 253/7/3
f 257/7/3 253/7/3 251/7/3
f 258/7/3 253/7/3 257/7/3
f 259/3/3 256/3/3 255/3/3
f 260/3/3 256/3/3 259/3/3
f 265/7/3 262/7/3 261/7/3
f 267/3/3 264/3/3 263/3/3
f 268/3/3 264/3/3 267/3/3
f 269/7/3 266/7/3 265/7/3
f 269/7/3 265/7/3 261/7/3
f 270/7/3 266/7/3 269/7/3
f 273/3/3 272/3/3 271/3/3
f 274/3/3 272/3/3 273/3/3
f 277/3/3 276/3/3 275/3/3
f 278/3/3 276/3/3 277/3/3
f 281/3/3 280/3/3 279/3/3
f 282/3/3 280/3/3 281/3/3
f 283/3/3 280/3/3 282/3/3
f 284/3/3 280/3/3 283/3/3
f 285/3/3 280/3/3 284/3/3
f 286/3/3 280/3/3 285/3/3
f 287/7/4 288/7/4 289/7/4
f 289/7/4 288/7/4 290/7/4
f 287/7/4 289/7/4 293/7/4
f 293/7/4 289/7/4 294/7/4
f 291/3/4 292/3/4 295/3/4
f 295/3/4 292/3/4 296/3/4
f 297/7/4 298/7/4 301/7/4
f 299/3/4 300/3/4 303/3/4
f 303/3/4 300/3/4 304/3/4
f 301/7/4 302/7/4 305/7/4
f 297/7/4 301/7/4 305/7/4
f 305/7/4 302/7/4 306/7/4
f 307/2/4 308/2/4 309/2/4
f 309/2/4 308/2/4 310/2/4
f 310/2/4 308/2/4 311/2/4
f 311/2/4 308/2/4 312/2/4
f 313/2/4 314/2/4 316/2/4
f 315/2/4 316/2/4 317/2/4
f 316/2/4 314/2/4 318/2/4
f 317/2/4 316/2/4 318/2/4
f 319/8/4 320/8/4 321/8/4
f 321/8/4 320/8/4 322/8/4
f 321/8/4 322/8/4 323/8/4
f 323/8/4 322/8/4 324/8/4
f 323/8/4 324/8/4 325/8/4
f 325/8/4 324/8/4 326/8/4
f 325/8/4 326/8/4 327/8/4
f 327/8/4 326/8/4 328/8/4
f 327/8/4 328/8/4 329/8/4
f 329/8/4 328/8/4 330/8/4
f 331/3/4 332/3/4 334/3/4
f 334/3/4 332/3/4 335/3/4
f 335/3/4 332/3/4 336/3/4
f 333/3/4 334/3/4 337/3/4
f 334/3/4 335/3/4 337/3/4
f 337/3/4 335/3/4 338/3/4
f 336/3/4 332/3/4 339/3/4
f 339/3/4 332/3/4 340/3/4
f 337/5/4 338/5/4 341/5/4
f 341/5/4 338/5/4 342/5/4
f 339/5/4 340/5/4 343/5/4
f 343/5/4 340/5/4 344/5/4
f 341/3/4 342/3/4 345/3/4
f 345/3/4 342/3/4 346/3/4
f 343/3/4 344/3/4 347/3/4
f 347/3/4 344/3/4 348/3/4
f 345/5/4 346/5/4 349/5/4
f 349/5/4 346/5/4 350/5/4
f 347/5/4 348/5/4 351/5/4
f 351/5/4 348/5/4 352/5/4
f 349/3/4 350/3/4 353/3/4
f 353/3/4 350/3/4 354/3/4
f 354/3/4 350/3/4 355/3/4
f 351/3/4 352/3/4 356/3/4
f 354/3/4 355/3/4 357/3/4
f 355/3/4 356/3/4 357/3/4
f 356/3/4 352/3/4 358/3/4
f 357/3/4 356/3/4 358/3/4
f 359/7/4 360/7/4 361/7/4
f 361/7/4 360/7/4 362/7/4
f 359/7/4 361/7/4 363/7/4
f 363/7/4 361/7/4 364/7/4
f 365/7/4 366/7/4 367/7/4
f 365/7/4 367/7/4 369/7/4
f 367/7/4 368/7/4 369/7/4
f 369/7/4 368/7/4 370/7/4
f 371/6/4 372/6/4 374/6/4
f 372/3/4 373/3/4 374/3/4
f 374/3/4 373/3/4 375/3/4
f 371/6/4 374/6/4 376/6/4
f 374/1/4 375/1/4 376/1/4
f 375/3/4 373/3/4 377/3/4
f 376/1/4 375/1/4 377/1/4
f 371/6/4 376/6/4 378/6/4
f 376/3/4 377/3/4 378/3/4
f 377/3/4 373/3/4 379/3/4
f 378/3/4 377/3/4 379/3/4
f 371/6/4 378/6/4 380/6/4
f 378/1/4 379/1/4 380/1/4
f 379/3/4 373/3/4 381/3/4
f 380/1/4 379/1/4 381/1/4
f 371/6/4 380/6/4 382/6/4
f 380/3/4 381/3/4 383/3/4
f 382/6/4 380/6/4 383/6/4
f 381/3/4 373/3/4 384/3/4
f 383/3/4 381/3/4 384/3/4
f 389/7/5 386/7/5 385/7/5
f 390/7/5 386/7/5 389/7/5
f 391/7/5 388/7/5 387/7/5
f 392/7/5 388/7/5 391/7/5
f 397/7/5 394/7/5 393/7/5
f 398/7/5 394/7/5 397/7/5
f 399/7/5 396/7/5 395/7/5
f 400/7/5 396/7/5 399/7/5
f 407/6/5 402/6/5 401/6/5
f 407/4/5 403/4/5 402/4/5
f 408/6/5 404/6/5 403/6/5
f 408/4/5 403/4/5 407/4/5
f 409/6/5 404/6/5 408/6/5
f 410/6/5 404/6/5 409/6/5
f 411/4/5 405/4/5 404/4/5
f 411/6/5 404/6/5 410/6/5
f 412/6/5 406/6/5 405/6/5
f 412/4/5 405/4/5 411/4/5
f 413/6/5 407/6/5 401/6/5
f 413/6/5 408/6/5 407/6/5
f 413/6/5 409/6/5 408/6/5
f 414/6/5 409/6/5 413/6/5
f 415/6/5 409/6/5 414/6/5
f 416/6/5 409/6/5 415/6/5
f 417/6/5 411/6/5 410/6/5
f 417/6/5 412/6/5 411/6/5
f 418/6/5 406/6/5 412/6/5
f 418/6/5 412/6/5 417/6/5
f 419/6/5 406/6/5 418/6/5
f 420/6/5 406/6/5 419/6/5
f 421/7/5 416/7/5 415/7/5
f 421/6/5 415/6/5 414/6/5
f 422/6/5 409/6/5 416/6/5
f 422/7/5 416/7/5 421/7/5
f 423/7/5 410/7/5 409/7/5
f 423/6/5 409/6/5 422/6/5
f 424/6/5 417/6/5 410/6/5
f 424/7/5 410/7/5 423/7/5
f 425/7/5 418/7/5 417/7/5
f 425/6/5 417/6/5 424/6/5
f 426/6/5 419/6/5 418/6/5
f 426/7/5 418/7/5 425/7/5
f 428/6/5 421/6/5 414/6/5
f 428/6/5 422/6/5 421/6/5
f 428/6/5 426/6/5 425/6/5
f 428/6/5 424/6/5 423/6/5
f 428/6/5 425/6/5 424/6/5
f 428/6/5 423/6/5 422/6/5
f 429/6/5 426/6/5 428/6/5
f 430/6/5 426/6/5 429/6/5
f 431/6/5 419/6/5 426/6/5
f 431/6/5 426/6/5 430/6/5
f 433/7/5 430/7/5 429/7/5
f 433/6/5 428/6/5 427/6/5
f 433/6/5 429/6/5 428/6/5
f 434/6/5 432/6/5 431/6/5
f 434/7/5 430/7/5 433/7/5
f 434/6/5 431/6/5 430/6/5
f 435/6/5 433/6/5 427/6/5
f 435/6/5 434/6/5 433/6/5
f 436/6/5 432/6/5 434/6/5
f 436/6/5 434/6/5 435/6/5
f 437/6/5 435/6/5 427/6/5
f 438/6/5 435/6/5 437/6/5
f 439/7/5 436/7/5 435/7/5
f 439/6/5 435/6/5 438/6/5
f 440/6/5 432/6/5 436/6/5
f 440/7/5 436/7/5 439/7/5
f 441/6/5 432/6/5 440/6/5
f 442/6/5 432/6/5 441/6/5
f 443/6/5 439/6/5 438/6/5
f 443/6/5 441/6/5 440/6/5
f 443/6/5 440/6/5 439/6/5
f 444/6/5 441/6/5 443/6/5
f 445/6/5 443/6/5 438/6/5
f 446/7/5 444/7/5 443/7/5
f 446/6/5 443/6/5 445/6/5
f 447/6/5 441/6/5 444/6/5
f 447/7/5 444/7/5 446/7/5
f 448/6/5 441/6/5 447/6/5
f 450/6/5 445/6/5 438/6/5
f 451/7/5 446/7/5 445/7/5
f 451/7/5 447/7/5 446/7/5
f 451/7/5 448/7/5 447/7/5
f 452/7/5 448/7/5 451/7/5
f 453/6/5 441/6/5 448/6/5
f 455/6/5 450/6/5 449/6/5
f 455/6/5 445/6/5 450/6/5
f 455/7/5 451/7/5 445/7/5
f 456/6/5 452/6/5 451/6/5
f 456/7/5 451/7/5 455/7/5
f 457/7/5 448/7/5 452/7/5
f 457/6/5 452/6/5 456/6/5
f 458/6/5 454/6/5 453/6/5
f 458/7/5 448/7/5 457/7/5
f 458/6/5 453/6/5 448/6/5
f 459/6/5 457/6/5 456/6/5
f 459/6/5 456/6/5 455/6/5
f 459/6/5 458/6/5 457/6/5
f 459/6/5 455/6/5 449/6/5
f 460/6/5 454/6/5 458/6/5
f 460/6/5 458/6/5 459/6/5
f 465/2/5 462/2/5 461/2/5
f 466/2/5 462/2/5 465/2/5
f 467/2/5 464/2/5 463/2/5
f 468/2/5 464/2/5 467/2/5
f 476/3/5 470/3/5 469/3/5
f 477/5/5 471/5/5 470/5/5
f 477/3/5 470/3/5 476/3/5
f 478/3/5 472/3/5 471/3/5
f 478/5/5 471/5/5 477/5/5
f 479/5/5 473/5/5 472/5/5
f 479/3/5 472/3/5 478/3/5
f 480/3/5 474/3/5 473/3/5
f 480/5/5 473/5/5 479/5/5
f 481/3/5 474/3/5 480/3/5
f 483/3/5 476/3/5 475/3/5
f 484/3/5 476/3/5 483/3/5
f 489/3/5 482/3/5 481/3/5
f 490/3/5 482/3/5 489/3/5
f 491/3/5 485/3/5 484/3/5
f 492/5/5 486/5/5 485/5/5
f 492/3/5 485/3/5 491/3/5
f 493/3/5 487/3/5 486/3/5
f 493/5/5 486/5/5 492/5/5
f 494/5/5 488/5/5 487/5/5
f 494/3/5 487/3/5 493/3/5
f 495/3/5 489/3/5 488/3/5
f 495/5/5 488/5/5 494/5/5
f 496/3/5 489/3/5 495/3/5
f 497/7/6 498/7/6 501/7/6
f 501/7/6 498/7/6 502/7/6
f 499/7/6 500/7/6 503/7/6
f 503/7/6 500/7/6 504/7/6
f 505/7/6 506/7/6 515/7/6
f 515/7/6 506/7/6 516/7/6
f 509/3/6 510/3/6 517/3/6
f 517/3/6 510/3/6 518/3/6
f 513/3/6 514/3/6 519/3/6
f 519/3/6 514/3/6 520/3/6
f 507/7/6 508/7/6 521/7/6
f 521/7/6 508/7/6 522/7/6
f 518/3/6 510/3/6 523/3/6
f 510/5/6 511/5/6 524/5/6
f 523/3/6 510/3/6 524/3/6
f 511/3/6 512/3/6 525/3/6
f 524/5/6 511/5/6 525/5/6
f 512/5/6 513/5/6 526/5/6
f 525/3/6 512/3/6 526/3/6
f 513/3/6 519/3/6 527/3/6
f 526/5/6 513/5/6 527/5/6
f 527/3/6 519/3/6 528/3/6
f 529/3/6 530/3/6 531/3/6
f 531/3/6 530/3/6 532/3/6
f 532/3/6 530/3/6 533/3/6
f 533/3/6 530/3/6 534/3/6
f 529/3/6 531/3/6 535/3/6
f 535/3/6 531/3/6 536/3/6
f 534/3/6 530/3/6 537/3/6
f 537/3/6 530/3/6 538/3/6
f 536/3/6 531/3/6 539/3/6
f 531/5/6 532/5/6 540/5/6
f 539/3/6 531/3/6 540/3/6
f 532/3/6 533/3/6 541/3/6
f 540/5/6 532/5/6 541/5/6
f 533/5/6 534/5/6 542/5/6
f 541/3/6 533/3/6 542/3/6
f 534/3/6 537/3/6 543/3/6
f 542/5/6 534/5/6 543/5/6
f 543/3/6 537/3/6 544/3/6
f 545/3/6 546/3/6 549/3/6
f 549/3/6 546/3/6 550/3/6
f 547/3/6 548/3/6 551/3/6
f 551/3/6 548/3/6 552/3/6
f 553/3/6 554/3/6 557/3/6
f 555/3/6 556/3/6 560/3/6
f 557/3/6 558/3/6 561/3/6
f 559/3/6 560/3/6 562/3/6
f 557/3/6 561/3/6 563/3/6
f 561/3/6 562/3/6 563/3/6
f 553/3/6 557/3/6 563/3/6
f 562/3/6 560/3/6 564/3/6
f 563/3/6 562/3/6 564/3/6
f 560/3/6 556/3/6 564/3/6
f 565/2/6 566/2/6 571/2/6
f 566/2/6 567/2/6 571/2/6
f 571/2/6 567/2/6 572/2/6
f 569/2/6 570/2/6 573/2/6
f 568/2/6 569/2/6 573/2/6
f 573/2/6 570/2/6 574/2/6
f 575/2/6 576/2/6 579/2/6
f 579/2/6 576/2/6 580/2/6
f 577/2/6 578/2/6 581/2/6
f 581/2/6 578/2/6 582/2/6
f 583/3/6 584/3/6 589/3/6
f 584/5/6 585/5/6 590/5/6
f 589/3/6 584/3/6 590/3/6
f 585/3/6 586/3/6 591/3/6
f 590/5/6 585/5/6 591/5/6
f 586/5/6 587/5/6 592/5/6
f 591/3/6 586/3/6 592/3/6
f 587/3/6 588/3/6 593/3/6
f 592/5/6 587/5/6 593/5/6
f 593/3/6 588/3/6 594/3/6
f 595/3/6 596/3/6 601/3/6
f 596/5/6 597/5/6 602/5/6
f 601/3/6 596/3/6 602/3/6
f 597/3/6 598/3/6 603/3/6
f 602/5/6 597/5/6 603/5/6
f 598/5/6 599/5/6 604/5/6
f 603/3/6 598/3/6 604/3/6
f 599/3/6 600/3/6 605/3/6
f 604/5/6 599/5/6 605/5/6
f 605/3/6 600/3/6 606/3/6
