# MagicaVoxel @ Ephtracy

# group
o 

# material
mtllib Voxel Design (Cars)-1.mtl
usemtl palette

# normals
vn -1 0 0
vn 1 0 0
vn 0 0 1
vn 0 0 -1
vn 0 -1 0
vn 0 1 0

# texcoords
vt 0.150391 0.5
vt 0.912109 0.5
vt 0.962891 0.5
vt 0.966797 0.5
vt 0.982422 0.5
vt 0.986328 0.5
vt 0.990234 0.5

# verts
v 5.8 0 0.9
v 5.8 0 0.6
v 5.8 0 -0.3
v 5.8 0 -0.7
v 5.8 0.1 0.8
v 5.8 0.1 0.7
v 5.8 0.1 -0.4
v 5.8 0.1 -0.6
v 5.8 0.2 0.8
v 5.8 0.2 0.7
v 5.8 0.3 0.9
v 5.8 0.3 0.6
v 5.8 0.3 -0.4
v 5.8 0.3 -0.6
v 5.8 0.4 0.1
v 5.8 0.4 0
v 5.8 0.4 -0.3
v 5.8 0.4 -0.7
v 5.8 0.6 0.1
v 5.8 0.6 0
v 5.9 0 1
v 5.9 0 0.9
v 5.9 0 0.6
v 5.9 0 0.5
v 5.9 0 -0.2
v 5.9 0 -0.3
v 5.9 0 -0.7
v 5.9 0 -0.8
v 5.9 0.1 0.5
v 5.9 0.1 -0.2
v 5.9 0.2 0.6
v 5.9 0.2 -0.3
v 5.9 0.3 1
v 5.9 0.3 0.9
v 5.9 0.3 0.8
v 5.9 0.3 0.6
v 5.9 0.3 -0.7
v 5.9 0.3 -0.8
v 5.9 0.4 1
v 5.9 0.4 0.8
v 5.9 0.4 0.1
v 5.9 0.4 0
v 5.9 0.4 -0.3
v 5.9 0.4 -0.7
v 5.9 0.5 1
v 5.9 0.5 0.2
v 5.9 0.5 0.1
v 5.9 0.5 0
v 5.9 0.5 -0.2
v 5.9 0.5 -0.5
v 5.9 0.5 -0.6
v 5.9 0.5 -0.8
v 5.9 0.6 0.1
v 5.9 0.7 -0.6
v 5.9 0.7 -0.8
v 5.9 0.8 0.1
v 5.9 0.8 -0.2
v 5.9 0.9 0.2
v 5.9 0.9 -0.5
v 6 0 0.5
v 6 0 -0.2
v 6 0.1 0.5
v 6 0.1 -0.2
v 6 0.5 0
v 6 0.5 -0.2
v 6 0.6 0.1
v 6 0.6 0
v 6 0.8 0.1
v 6 0.8 -0.2
v 6.1 0.5 0.6
v 6.1 0.5 0.1
v 6.1 0.6 0.6
v 6.1 0.6 0.1
v 6.2 0.5 0.8
v 6.2 0.5 0.6
v 6.2 0.6 0.6
v 6.2 0.6 0.3
v 6.2 0.7 0.8
v 6.2 0.7 0.3
v 6.5 0.5 0.8
v 6.5 0.5 0.6
v 6.5 0.6 0.8
v 6.5 0.6 0.6
v 6.7 0.7 -0.4
v 6.7 0.7 -0.5
v 6.7 0.8 -0.4
v 6.7 0.8 -0.5
v 6.8 0 1
v 6.8 0 0.9
v 6.8 0.1 1
v 6.8 0.1 0.9
v 6.8 0.5 0.2
v 6.8 0.5 0.1
v 6.8 0.5 -0.4
v 6.8 0.5 -0.5
v 6.8 0.5 -0.6
v 6.8 0.5 -0.8
v 6.8 0.6 -0.6
v 6.8 0.6 -0.8
v 6.8 0.7 -0.4
v 6.8 0.7 -0.5
v 6.8 0.8 0.2
v 6.8 0.8 0.1
v 6 0 1
v 6 0 0.9
v 6 0.1 1
v 6 0.1 0.9
v 6 0.5 0.2
v 6 0.5 0.1
v 6 0.5 -0.4
v 6 0.5 -0.5
v 6 0.5 -0.6
v 6 0.5 -0.8
v 6 0.6 -0.6
v 6 0.6 -0.8
v 6 0.7 -0.4
v 6 0.7 -0.5
v 6 0.8 0.2
v 6 0.8 0.1
v 6.1 0.7 -0.4
v 6.1 0.7 -0.5
v 6.1 0.8 -0.4
v 6.1 0.8 -0.5
v 6.3 0.5 0.8
v 6.3 0.5 0.6
v 6.3 0.6 0.8
v 6.3 0.6 0.6
v 6.6 0.5 0.8
v 6.6 0.5 0.6
v 6.6 0.6 0.6
v 6.6 0.6 0.3
v 6.6 0.7 0.8
v 6.6 0.7 0.3
v 6.7 0.5 0.6
v 6.7 0.5 0.1
v 6.7 0.6 0.6
v 6.7 0.6 0.1
v 6.8 0 0.5
v 6.8 0 -0.2
v 6.8 0.1 0.5
v 6.8 0.1 -0.2
v 6.8 0.5 0
v 6.8 0.5 -0.2
v 6.8 0.6 0.1
v 6.8 0.6 0
v 6.8 0.8 0.1
v 6.8 0.8 -0.2
v 6.9 0 1
v 6.9 0 0.9
v 6.9 0 0.6
v 6.9 0 0.5
v 6.9 0 -0.2
v 6.9 0 -0.3
v 6.9 0 -0.7
v 6.9 0 -0.8
v 6.9 0.1 0.5
v 6.9 0.1 -0.2
v 6.9 0.2 0.6
v 6.9 0.2 -0.3
v 6.9 0.3 1
v 6.9 0.3 0.9
v 6.9 0.3 0.8
v 6.9 0.3 0.6
v 6.9 0.3 -0.7
v 6.9 0.3 -0.8
v 6.9 0.4 1
v 6.9 0.4 0.8
v 6.9 0.4 0.1
v 6.9 0.4 0
v 6.9 0.4 -0.3
v 6.9 0.4 -0.7
v 6.9 0.5 1
v 6.9 0.5 0.2
v 6.9 0.5 0.1
v 6.9 0.5 0
v 6.9 0.5 -0.2
v 6.9 0.5 -0.5
v 6.9 0.5 -0.6
v 6.9 0.5 -0.8
v 6.9 0.6 0.1
v 6.9 0.7 -0.6
v 6.9 0.7 -0.8
v 6.9 0.8 0.1
v 6.9 0.8 -0.2
v 6.9 0.9 0.2
v 6.9 0.9 -0.5
v 7 0 0.9
v 7 0 0.6
v 7 0 -0.3
v 7 0 -0.7
v 7 0.1 0.8
v 7 0.1 0.7
v 7 0.1 -0.4
v 7 0.1 -0.6
v 7 0.2 0.8
v 7 0.2 0.7
v 7 0.3 0.9
v 7 0.3 0.6
v 7 0.3 -0.4
v 7 0.3 -0.6
v 7 0.4 0.1
v 7 0.4 0
v 7 0.4 -0.3
v 7 0.4 -0.7
v 7 0.6 0.1
v 7 0.6 0
v 5.9 0 1
v 5.9 0.3 1
v 5.9 0.4 1
v 5.9 0.5 1
v 6 0 1
v 6 0.1 1
v 6.1 0.2 1
v 6.1 0.3 1
v 6.7 0.2 1
v 6.7 0.3 1
v 6.8 0 1
v 6.8 0.1 1
v 6.9 0 1
v 6.9 0.3 1
v 6.9 0.4 1
v 6.9 0.5 1
v 5.8 0 0.9
v 5.8 0.3 0.9
v 5.9 0 0.9
v 5.9 0.3 0.9
v 6 0 0.9
v 6 0.1 0.9
v 6.8 0 0.9
v 6.8 0.1 0.9
v 6.9 0 0.9
v 6.9 0.3 0.9
v 7 0 0.9
v 7 0.3 0.9
v 6.2 0.5 0.8
v 6.2 0.7 0.8
v 6.3 0.5 0.8
v 6.3 0.6 0.8
v 6.5 0.5 0.8
v 6.5 0.6 0.8
v 6.6 0.5 0.8
v 6.6 0.7 0.8
v 6.1 0.5 0.6
v 6.1 0.6 0.6
v 6.2 0.5 0.6
v 6.2 0.6 0.6
v 6.3 0.5 0.6
v 6.3 0.6 0.6
v 6.5 0.5 0.6
v 6.5 0.6 0.6
v 6.6 0.5 0.6
v 6.6 0.6 0.6
v 6.7 0.5 0.6
v 6.7 0.6 0.6
v 5.9 0.5 0.2
v 5.9 0.9 0.2
v 6 0.5 0.2
v 6 0.8 0.2
v 6.8 0.5 0.2
v 6.8 0.8 0.2
v 6.9 0.5 0.2
v 6.9 0.9 0.2
v 5.8 0.4 0.1
v 5.8 0.6 0.1
v 5.9 0.4 0.1
v 5.9 0.5 0.1
v 5.9 0.6 0.1
v 6 0.5 0.1
v 6 0.8 0.1
v 6.1 0.5 0.1
v 6.1 0.6 0.1
v 6.7 0.5 0.1
v 6.7 0.6 0.1
v 6.8 0.5 0.1
v 6.8 0.8 0.1
v 6.9 0.4 0.1
v 6.9 0.5 0.1
v 6.9 0.6 0.1
v 7 0.4 0.1
v 7 0.6 0.1
v 5.9 0 -0.2
v 5.9 0.1 -0.2
v 5.9 0.5 -0.2
v 5.9 0.8 -0.2
v 6 0 -0.2
v 6 0.1 -0.2
v 6 0.5 -0.2
v 6 0.8 -0.2
v 6.8 0 -0.2
v 6.8 0.1 -0.2
v 6.8 0.5 -0.2
v 6.8 0.8 -0.2
v 6.9 0 -0.2
v 6.9 0.1 -0.2
v 6.9 0.5 -0.2
v 6.9 0.8 -0.2
v 5.8 0 -0.3
v 5.8 0.4 -0.3
v 5.9 0 -0.3
v 5.9 0.2 -0.3
v 5.9 0.4 -0.3
v 6.9 0 -0.3
v 6.9 0.2 -0.3
v 6.9 0.4 -0.3
v 7 0 -0.3
v 7 0.4 -0.3
v 5.9 0.5 -0.6
v 5.9 0.7 -0.6
v 6 0.5 -0.6
v 6 0.6 -0.6
v 6.8 0.5 -0.6
v 6.8 0.6 -0.6
v 6.9 0.5 -0.6
v 6.9 0.7 -0.6
v 5.8 0 0.6
v 5.8 0.3 0.6
v 5.9 0 0.6
v 5.9 0.2 0.6
v 5.9 0.3 0.6
v 6.9 0 0.6
v 6.9 0.2 0.6
v 6.9 0.3 0.6
v 7 0 0.6
v 7 0.3 0.6
v 5.9 0 0.5
v 5.9 0.1 0.5
v 6 0 0.5
v 6 0.1 0.5
v 6.8 0 0.5
v 6.8 0.1 0.5
v 6.9 0 0.5
v 6.9 0.1 0.5
v 6.2 0.6 0.3
v 6.2 0.7 0.3
v 6.6 0.6 0.3
v 6.6 0.7 0.3
v 5.9 0.6 0.1
v 5.9 0.8 0.1
v 6 0.6 0.1
v 6 0.8 0.1
v 6.8 0.6 0.1
v 6.8 0.8 0.1
v 6.9 0.6 0.1
v 6.9 0.8 0.1
v 5.8 0.4 0
v 5.8 0.6 0
v 5.9 0.4 0
v 5.9 0.5 0
v 6 0.5 0
v 6 0.6 0
v 6.8 0.5 0
v 6.8 0.6 0
v 6.9 0.4 0
v 6.9 0.5 0
v 7 0.4 0
v 7 0.6 0
v 6 0.5 -0.4
v 6 0.7 -0.4
v 6.1 0.7 -0.4
v 6.1 0.8 -0.4
v 6.7 0.7 -0.4
v 6.7 0.8 -0.4
v 6.8 0.5 -0.4
v 6.8 0.7 -0.4
v 5.9 0.5 -0.5
v 5.9 0.9 -0.5
v 6 0.5 -0.5
v 6 0.7 -0.5
v 6 0.8 -0.5
v 6.1 0.7 -0.5
v 6.1 0.8 -0.5
v 6.7 0.7 -0.5
v 6.7 0.8 -0.5
v 6.8 0.5 -0.5
v 6.8 0.7 -0.5
v 6.8 0.8 -0.5
v 6.9 0.5 -0.5
v 6.9 0.9 -0.5
v 5.8 0 -0.7
v 5.8 0.4 -0.7
v 5.9 0 -0.7
v 5.9 0.3 -0.7
v 5.9 0.4 -0.7
v 6.9 0 -0.7
v 6.9 0.3 -0.7
v 6.9 0.4 -0.7
v 7 0 -0.7
v 7 0.4 -0.7
v 5.9 0 -0.8
v 5.9 0.3 -0.8
v 5.9 0.5 -0.8
v 5.9 0.7 -0.8
v 6 0.3 -0.8
v 6 0.4 -0.8
v 6 0.5 -0.8
v 6 0.6 -0.8
v 6.1 0 -0.8
v 6.1 0.1 -0.8
v 6.1 0.2 -0.8
v 6.1 0.3 -0.8
v 6.2 0 -0.8
v 6.2 0.1 -0.8
v 6.3 0.3 -0.8
v 6.3 0.4 -0.8
v 6.5 0.3 -0.8
v 6.5 0.4 -0.8
v 6.6 0 -0.8
v 6.6 0.1 -0.8
v 6.7 0 -0.8
v 6.7 0.1 -0.8
v 6.7 0.2 -0.8
v 6.7 0.3 -0.8
v 6.8 0.3 -0.8
v 6.8 0.4 -0.8
v 6.8 0.5 -0.8
v 6.8 0.6 -0.8
v 6.9 0 -0.8
v 6.9 0.3 -0.8
v 6.9 0.5 -0.8
v 6.9 0.7 -0.8
v 5.9 0 1
v 6 0 1
v 6.8 0 1
v 6.9 0 1
v 5.8 0 0.9
v 5.9 0 0.9
v 6 0 0.9
v 6.8 0 0.9
v 6.9 0 0.9
v 7 0 0.9
v 5.8 0 0.6
v 5.9 0 0.6
v 6.9 0 0.6
v 7 0 0.6
v 5.9 0 0.5
v 6 0 0.5
v 6.8 0 0.5
v 6.9 0 0.5
v 5.9 0 -0.2
v 6 0 -0.2
v 6.8 0 -0.2
v 6.9 0 -0.2
v 5.8 0 -0.3
v 5.9 0 -0.3
v 6.9 0 -0.3
v 7 0 -0.3
v 5.8 0 -0.7
v 5.9 0 -0.7
v 6.1 0 -0.7
v 6.2 0 -0.7
v 6.6 0 -0.7
v 6.7 0 -0.7
v 6.9 0 -0.7
v 7 0 -0.7
v 5.9 0 -0.8
v 6.1 0 -0.8
v 6.2 0 -0.8
v 6.6 0 -0.8
v 6.7 0 -0.8
v 6.9 0 -0.8
v 6 0.1 1
v 6.8 0.1 1
v 6 0.1 0.9
v 6.8 0.1 0.9
v 5.9 0.1 0.5
v 6 0.1 0.5
v 6.8 0.1 0.5
v 6.9 0.1 0.5
v 5.9 0.1 -0.2
v 6 0.1 -0.2
v 6.8 0.1 -0.2
v 6.9 0.1 -0.2
v 5.8 0.4 0.1
v 5.9 0.4 0.1
v 6.9 0.4 0.1
v 7 0.4 0.1
v 5.8 0.4 0
v 5.9 0.4 0
v 6.9 0.4 0
v 7 0.4 0
v 6.3 0.6 0.8
v 6.5 0.6 0.8
v 6.3 0.6 0.6
v 6.5 0.6 0.6
v 6 0.6 -0.6
v 6.8 0.6 -0.6
v 6 0.6 -0.8
v 6.8 0.6 -0.8
v 6 0.7 -0.4
v 6.1 0.7 -0.4
v 6.7 0.7 -0.4
v 6.8 0.7 -0.4
v 6 0.7 -0.5
v 6.1 0.7 -0.5
v 6.7 0.7 -0.5
v 6.8 0.7 -0.5
v 6 0.8 0.2
v 6.8 0.8 0.2
v 5.9 0.8 0.1
v 6 0.8 0.1
v 6.8 0.8 0.1
v 6.9 0.8 0.1
v 5.9 0.8 -0.2
v 6 0.8 -0.2
v 6.8 0.8 -0.2
v 6.9 0.8 -0.2
v 6.1 0.8 -0.4
v 6.7 0.8 -0.4
v 6.1 0.8 -0.5
v 6.7 0.8 -0.5
v 5.8 0.3 0.9
v 5.9 0.3 0.9
v 6.9 0.3 0.9
v 7 0.3 0.9
v 5.9 0.3 0.8
v 6.9 0.3 0.8
v 5.8 0.3 0.6
v 5.9 0.3 0.6
v 6.9 0.3 0.6
v 7 0.3 0.6
v 5.8 0.4 -0.3
v 5.9 0.4 -0.3
v 6.9 0.4 -0.3
v 7 0.4 -0.3
v 5.8 0.4 -0.7
v 5.9 0.4 -0.7
v 6.9 0.4 -0.7
v 7 0.4 -0.7
v 5.9 0.5 1
v 6.9 0.5 1
v 6.1 0.5 0.9
v 6.7 0.5 0.9
v 6.2 0.5 0.8
v 6.3 0.5 0.8
v 6.5 0.5 0.8
v 6.6 0.5 0.8
v 6.1 0.5 0.6
v 6.2 0.5 0.6
v 6.3 0.5 0.6
v 6.5 0.5 0.6
v 6.6 0.5 0.6
v 6.7 0.5 0.6
v 5.9 0.5 0.2
v 6 0.5 0.2
v 6.8 0.5 0.2
v 6.9 0.5 0.2
v 6 0.5 0.1
v 6.1 0.5 0.1
v 6.7 0.5 0.1
v 6.8 0.5 0.1
v 5.9 0.5 0
v 6 0.5 0
v 6.8 0.5 0
v 6.9 0.5 0
v 5.9 0.5 -0.2
v 6 0.5 -0.2
v 6.8 0.5 -0.2
v 6.9 0.5 -0.2
v 6 0.5 -0.4
v 6.8 0.5 -0.4
v 5.9 0.5 -0.5
v 6 0.5 -0.5
v 6.8 0.5 -0.5
v 6.9 0.5 -0.5
v 5.9 0.5 -0.6
v 6 0.5 -0.6
v 6.8 0.5 -0.6
v 6.9 0.5 -0.6
v 6 0.5 -0.8
v 6.8 0.5 -0.8
v 6.1 0.6 0.6
v 6.2 0.6 0.6
v 6.6 0.6 0.6
v 6.7 0.6 0.6
v 6.2 0.6 0.3
v 6.6 0.6 0.3
v 5.8 0.6 0.1
v 5.9 0.6 0.1
v 6 0.6 0.1
v 6.1 0.6 0.1
v 6.7 0.6 0.1
v 6.8 0.6 0.1
v 6.9 0.6 0.1
v 7 0.6 0.1
v 5.8 0.6 0
v 6 0.6 0
v 6.8 0.6 0
v 7 0.6 0
v 6.2 0.7 0.8
v 6.6 0.7 0.8
v 6.2 0.7 0.3
v 6.6 0.7 0.3
v 5.9 0.7 -0.6
v 6.9 0.7 -0.6
v 5.9 0.7 -0.8
v 6.9 0.7 -0.8
v 5.9 0.9 0.2
v 6.9 0.9 0.2
v 5.9 0.9 -0.5
v 6.9 0.9 -0.5

# faces
f 5/6/1 2/6/1 1/6/1
f 6/6/1 2/6/1 5/6/1
f 7/6/1 4/6/1 3/6/1
f 8/6/1 4/6/1 7/6/1
f 9/6/1 5/6/1 1/6/1
f 9/3/1 6/3/1 5/3/1
f 10/6/1 2/6/1 6/6/1
f 10/3/1 6/3/1 9/3/1
f 11/6/1 9/6/1 1/6/1
f 11/6/1 10/6/1 9/6/1
f 12/6/1 2/6/1 10/6/1
f 12/6/1 10/6/1 11/6/1
f 13/3/1 8/3/1 7/3/1
f 13/6/1 7/6/1 3/6/1
f 14/6/1 4/6/1 8/6/1
f 14/3/1 8/3/1 13/3/1
f 17/6/1 13/6/1 3/6/1
f 17/6/1 14/6/1 13/6/1
f 18/6/1 4/6/1 14/6/1
f 18/6/1 14/6/1 17/6/1
f 19/3/1 16/3/1 15/3/1
f 20/3/1 16/3/1 19/3/1
f 29/4/1 24/4/1 23/4/1
f 30/4/1 26/4/1 25/4/1
f 31/4/1 29/4/1 23/4/1
f 31/4/1 30/4/1 29/4/1
f 32/4/1 26/4/1 30/4/1
f 32/4/1 30/4/1 31/4/1
f 33/4/1 22/4/1 21/4/1
f 34/4/1 22/4/1 33/4/1
f 36/5/1 32/5/1 31/5/1
f 37/4/1 28/4/1 27/4/1
f 38/4/1 28/4/1 37/4/1
f 39/2/1 35/2/1 34/2/1
f 39/2/1 34/2/1 33/2/1
f 40/5/1 36/5/1 35/5/1
f 40/2/1 35/2/1 39/2/1
f 41/5/1 32/5/1 36/5/1
f 41/5/1 36/5/1 40/5/1
f 42/5/1 32/5/1 41/5/1
f 43/5/1 32/5/1 42/5/1
f 44/5/1 38/5/1 37/5/1
f 45/5/1 40/5/1 39/5/1
f 45/5/1 41/5/1 40/5/1
f 46/5/1 41/5/1 45/5/1
f 47/5/1 41/5/1 46/5/1
f 48/5/1 44/5/1 43/5/1
f 48/5/1 43/5/1 42/5/1
f 49/5/1 44/5/1 48/5/1
f 50/5/1 44/5/1 49/5/1
f 51/5/1 44/5/1 50/5/1
f 52/5/1 38/5/1 44/5/1
f 52/5/1 44/5/1 51/5/1
f 53/3/1 47/3/1 46/3/1
f 54/3/1 52/3/1 51/3/1
f 55/3/1 52/3/1 54/3/1
f 56/3/1 53/3/1 46/3/1
f 57/3/1 50/3/1 49/3/1
f 58/3/1 56/3/1 46/3/1
f 58/3/1 57/3/1 56/3/1
f 59/3/1 50/3/1 57/3/1
f 59/3/1 57/3/1 58/3/1
f 62/4/1 61/4/1 60/4/1
f 63/4/1 61/4/1 62/4/1
f 67/7/1 65/7/1 64/7/1
f 68/7/1 67/7/1 66/7/1
f 69/7/1 65/7/1 67/7/1
f 69/7/1 67/7/1 68/7/1
f 72/3/1 71/3/1 70/3/1
f 73/3/1 71/3/1 72/3/1
f 76/3/1 75/3/1 74/3/1
f 78/3/1 76/3/1 74/3/1
f 78/3/1 77/3/1 76/3/1
f 79/3/1 77/3/1 78/3/1
f 82/3/1 81/3/1 80/3/1
f 83/3/1 81/3/1 82/3/1
f 86/5/1 85/5/1 84/5/1
f 87/5/1 85/5/1 86/5/1
f 90/4/1 89/4/1 88/4/1
f 91/4/1 89/4/1 90/4/1
f 98/3/1 97/3/1 96/3/1
f 99/3/1 97/3/1 98/3/1
f 100/3/1 95/3/1 94/3/1
f 101/3/1 95/3/1 100/3/1
f 102/3/1 93/3/1 92/3/1
f 103/3/1 93/3/1 102/3/1
f 104/4/2 105/4/2 106/4/2
f 106/4/2 105/4/2 107/4/2
f 112/3/2 113/3/2 114/3/2
f 114/3/2 113/3/2 115/3/2
f 110/3/2 111/3/2 116/3/2
f 116/3/2 111/3/2 117/3/2
f 108/3/2 109/3/2 118/3/2
f 118/3/2 109/3/2 119/3/2
f 120/5/2 121/5/2 122/5/2
f 122/5/2 121/5/2 123/5/2
f 124/3/2 125/3/2 126/3/2
f 126/3/2 125/3/2 127/3/2
f 128/3/2 129/3/2 130/3/2
f 128/3/2 130/3/2 132/3/2
f 130/3/2 131/3/2 132/3/2
f 132/3/2 131/3/2 133/3/2
f 134/3/2 135/3/2 136/3/2
f 136/3/2 135/3/2 137/3/2
f 138/4/2 139/4/2 140/4/2
f 140/4/2 139/4/2 141/4/2
f 142/7/2 143/7/2 145/7/2
f 144/7/2 145/7/2 146/7/2
f 145/7/2 143/7/2 147/7/2
f 146/7/2 145/7/2 147/7/2
f 150/4/2 151/4/2 156/4/2
f 152/4/2 153/4/2 157/4/2
f 150/4/2 156/4/2 158/4/2
f 156/4/2 157/4/2 158/4/2
f 157/4/2 153/4/2 159/4/2
f 158/4/2 157/4/2 159/4/2
f 148/4/2 149/4/2 160/4/2
f 160/4/2 149/4/2 161/4/2
f 158/5/2 159/5/2 163/5/2
f 154/4/2 155/4/2 164/4/2
f 164/4/2 155/4/2 165/4/2
f 161/2/2 162/2/2 166/2/2
f 160/2/2 161/2/2 166/2/2
f 162/5/2 163/5/2 167/5/2
f 166/2/2 162/2/2 167/2/2
f 163/5/2 159/5/2 168/5/2
f 167/5/2 163/5/2 168/5/2
f 168/5/2 159/5/2 169/5/2
f 169/5/2 159/5/2 170/5/2
f 164/5/2 165/5/2 171/5/2
f 166/5/2 167/5/2 172/5/2
f 167/5/2 168/5/2 172/5/2
f 172/5/2 168/5/2 173/5/2
f 173/5/2 168/5/2 174/5/2
f 170/5/2 171/5/2 175/5/2
f 169/5/2 170/5/2 175/5/2
f 175/5/2 171/5/2 176/5/2
f 176/5/2 171/5/2 177/5/2
f 177/5/2 171/5/2 178/5/2
f 171/5/2 165/5/2 179/5/2
f 178/5/2 171/5/2 179/5/2
f 173/3/2 174/3/2 180/3/2
f 178/3/2 179/3/2 181/3/2
f 181/3/2 179/3/2 182/3/2
f 173/3/2 180/3/2 183/3/2
f 176/3/2 177/3/2 184/3/2
f 173/3/2 183/3/2 185/3/2
f 183/3/2 184/3/2 185/3/2
f 184/3/2 177/3/2 186/3/2
f 185/3/2 184/3/2 186/3/2
f 187/6/2 188/6/2 191/6/2
f 191/6/2 188/6/2 192/6/2
f 189/6/2 190/6/2 193/6/2
f 193/6/2 190/6/2 194/6/2
f 187/6/2 191/6/2 195/6/2
f 191/3/2 192/3/2 195/3/2
f 192/6/2 188/6/2 196/6/2
f 195/3/2 192/3/2 196/3/2
f 187/6/2 195/6/2 197/6/2
f 195/6/2 196/6/2 197/6/2
f 196/6/2 188/6/2 198/6/2
f 197/6/2 196/6/2 198/6/2
f 193/3/2 194/3/2 199/3/2
f 189/6/2 193/6/2 199/6/2
f 194/6/2 190/6/2 200/6/2
f 199/3/2 194/3/2 200/3/2
f 189/6/2 199/6/2 203/6/2
f 199/6/2 200/6/2 203/6/2
f 200/6/2 190/6/2 204/6/2
f 203/6/2 200/6/2 204/6/2
f 201/3/2 202/3/2 205/3/2
f 205/3/2 202/3/2 206/3/2
f 211/4/3 208/4/3 207/4/3
f 212/4/3 208/4/3 211/4/3
f 213/4/3 208/4/3 212/4/3
f 214/2/3 209/2/3 208/2/3
f 214/4/3 208/4/3 213/4/3
f 215/4/3 213/4/3 212/4/3
f 215/6/3 214/6/3 213/6/3
f 216/2/3 209/2/3 214/2/3
f 216/6/3 214/6/3 215/6/3
f 218/4/3 215/4/3 212/4/3
f 218/4/3 216/4/3 215/4/3
f 219/4/3 218/4/3 217/4/3
f 220/2/3 209/2/3 216/2/3
f 220/4/3 218/4/3 219/4/3
f 220/4/3 216/4/3 218/4/3
f 221/5/3 210/5/3 209/5/3
f 221/2/3 209/2/3 220/2/3
f 222/5/3 210/5/3 221/5/3
f 225/6/3 224/6/3 223/6/3
f 226/6/3 224/6/3 225/6/3
f 229/4/3 228/4/3 227/4/3
f 230/4/3 228/4/3 229/4/3
f 233/6/3 232/6/3 231/6/3
f 234/6/3 232/6/3 233/6/3
f 237/3/3 236/3/3 235/3/3
f 238/3/3 236/3/3 237/3/3
f 240/3/3 236/3/3 238/3/3
f 241/3/3 240/3/3 239/3/3
f 242/3/3 236/3/3 240/3/3
f 242/3/3 240/3/3 241/3/3
f 245/3/3 244/3/3 243/3/3
f 246/3/3 244/3/3 245/3/3
f 249/3/3 248/3/3 247/3/3
f 250/3/3 248/3/3 249/3/3
f 253/3/3 252/3/3 251/3/3
f 254/3/3 252/3/3 253/3/3
f 257/3/3 256/3/3 255/3/3
f 258/3/3 256/3/3 257/3/3
f 260/3/3 256/3/3 258/3/3
f 261/3/3 260/3/3 259/3/3
f 262/3/3 256/3/3 260/3/3
f 262/3/3 260/3/3 261/3/3
f 265/3/3 264/3/3 263/3/3
f 266/3/3 264/3/3 265/3/3
f 267/3/3 264/3/3 266/3/3
f 270/7/3 269/7/3 268/7/3
f 271/7/3 269/7/3 270/7/3
f 273/7/3 269/7/3 271/7/3
f 274/7/3 273/7/3 272/7/3
f 275/7/3 269/7/3 273/7/3
f 275/7/3 273/7/3 274/7/3
f 279/3/3 277/3/3 276/3/3
f 279/3/3 278/3/3 277/3/3
f 280/3/3 278/3/3 279/3/3
f 285/4/3 282/4/3 281/4/3
f 286/4/3 282/4/3 285/4/3
f 287/3/3 284/3/3 283/3/3
f 288/3/3 284/3/3 287/3/3
f 293/4/3 290/4/3 289/4/3
f 294/4/3 290/4/3 293/4/3
f 295/3/3 292/3/3 291/3/3
f 296/3/3 292/3/3 295/3/3
f 299/6/3 298/6/3 297/6/3
f 300/6/3 298/6/3 299/6/3
f 301/6/3 298/6/3 300/6/3
f 305/6/3 303/6/3 302/6/3
f 305/6/3 304/6/3 303/6/3
f 306/6/3 304/6/3 305/6/3
f 309/3/3 308/3/3 307/3/3
f 310/3/3 308/3/3 309/3/3
f 312/3/3 308/3/3 310/3/3
f 313/3/3 312/3/3 311/3/3
f 314/3/3 308/3/3 312/3/3
f 314/3/3 312/3/3 313/3/3
f 315/6/4 316/6/4 317/6/4
f 317/6/4 316/6/4 318/6/4
f 318/6/4 316/6/4 319/6/4
f 320/6/4 321/6/4 323/6/4
f 321/6/4 322/6/4 323/6/4
f 323/6/4 322/6/4 324/6/4
f 325/4/4 326/4/4 327/4/4
f 327/4/4 326/4/4 328/4/4
f 329/4/4 330/4/4 331/4/4
f 331/4/4 330/4/4 332/4/4
f 333/3/4 334/3/4 335/3/4
f 335/3/4 334/3/4 336/3/4
f 337/3/4 338/3/4 339/3/4
f 339/3/4 338/3/4 340/3/4
f 341/3/4 342/3/4 343/3/4
f 343/3/4 342/3/4 344/3/4
f 345/3/4 346/3/4 347/3/4
f 347/3/4 346/3/4 348/3/4
f 348/3/4 346/3/4 349/3/4
f 349/3/4 346/3/4 350/3/4
f 351/3/4 352/3/4 354/3/4
f 353/3/4 354/3/4 355/3/4
f 354/3/4 352/3/4 356/3/4
f 355/3/4 354/3/4 356/3/4
f 357/7/4 358/7/4 359/7/4
f 357/7/4 359/7/4 361/7/4
f 359/7/4 360/7/4 361/7/4
f 361/7/4 360/7/4 362/7/4
f 357/7/4 361/7/4 363/7/4
f 363/7/4 361/7/4 364/7/4
f 365/3/4 366/3/4 367/3/4
f 367/3/4 366/3/4 368/3/4
f 368/3/4 366/3/4 369/3/4
f 368/5/4 369/5/4 370/5/4
f 369/3/4 366/3/4 371/3/4
f 370/5/4 369/5/4 371/5/4
f 371/3/4 366/3/4 373/3/4
f 372/5/4 373/5/4 375/5/4
f 373/3/4 366/3/4 376/3/4
f 375/5/4 373/5/4 376/5/4
f 374/3/4 375/3/4 377/3/4
f 375/3/4 376/3/4 377/3/4
f 376/3/4 366/3/4 378/3/4
f 377/3/4 376/3/4 378/3/4
f 379/6/4 380/6/4 381/6/4
f 381/6/4 380/6/4 382/6/4
f 382/6/4 380/6/4 383/6/4
f 384/6/4 385/6/4 387/6/4
f 385/6/4 386/6/4 387/6/4
f 387/6/4 386/6/4 388/6/4
f 389/4/4 390/4/4 393/4/4
f 390/5/4 391/5/4 393/5/4
f 393/5/4 391/5/4 394/5/4
f 391/3/4 392/3/4 395/3/4
f 394/5/4 391/5/4 395/5/4
f 395/3/4 392/3/4 396/3/4
f 389/4/4 393/4/4 397/4/4
f 397/4/4 393/4/4 398/4/4
f 398/4/4 393/4/4 399/4/4
f 393/1/4 394/1/4 400/1/4
f 399/4/4 393/4/4 400/4/4
f 397/6/4 398/6/4 401/6/4
f 398/4/4 399/4/4 402/4/4
f 401/6/4 398/6/4 402/6/4
f 400/1/4 394/1/4 403/1/4
f 399/5/4 400/5/4 403/5/4
f 394/5/4 395/5/4 404/5/4
f 403/1/4 394/1/4 404/1/4
f 399/5/4 403/5/4 405/5/4
f 403/5/4 404/5/4 405/5/4
f 404/5/4 395/5/4 406/5/4
f 405/5/4 404/5/4 406/5/4
f 401/4/4 402/4/4 407/4/4
f 402/4/4 399/4/4 408/4/4
f 407/4/4 402/4/4 408/4/4
f 407/6/4 408/6/4 409/6/4
f 408/4/4 399/4/4 410/4/4
f 409/6/4 408/6/4 410/6/4
f 399/5/4 405/5/4 411/5/4
f 410/4/4 399/4/4 411/4/4
f 405/1/4 406/1/4 412/1/4
f 411/5/4 405/5/4 412/5/4
f 409/4/4 410/4/4 413/4/4
f 412/1/4 406/1/4 413/1/4
f 411/4/4 412/4/4 413/4/4
f 410/4/4 411/4/4 413/4/4
f 406/5/4 395/5/4 414/5/4
f 413/1/4 406/1/4 414/1/4
f 414/5/4 395/5/4 415/5/4
f 396/3/4 392/3/4 416/3/4
f 409/4/4 413/4/4 417/4/4
f 414/5/4 415/5/4 418/5/4
f 417/4/4 413/4/4 418/4/4
f 413/5/4 414/5/4 418/5/4
f 415/3/4 416/3/4 419/3/4
f 418/5/4 415/5/4 419/5/4
f 416/3/4 392/3/4 420/3/4
f 419/3/4 416/3/4 420/3/4
f 426/4/5 422/4/5 421/4/5
f 427/4/5 422/4/5 426/4/5
f 428/4/5 424/4/5 423/4/5
f 429/4/5 424/4/5 428/4/5
f 431/6/5 426/6/5 425/6/5
f 432/4/5 427/4/5 426/4/5
f 432/6/5 426/6/5 431/6/5
f 432/4/5 428/4/5 427/4/5
f 432/4/5 429/4/5 428/4/5
f 433/6/5 430/6/5 429/6/5
f 433/4/5 429/4/5 432/4/5
f 434/6/5 430/6/5 433/6/5
f 435/4/5 433/4/5 432/4/5
f 436/4/5 433/4/5 435/4/5
f 437/4/5 433/4/5 436/4/5
f 438/4/5 433/4/5 437/4/5
f 440/4/5 437/4/5 436/4/5
f 441/4/5 437/4/5 440/4/5
f 444/4/5 440/4/5 439/4/5
f 444/4/5 442/4/5 441/4/5
f 444/4/5 441/4/5 440/4/5
f 445/4/5 442/4/5 444/4/5
f 447/6/5 444/6/5 443/6/5
f 448/4/5 445/4/5 444/4/5
f 448/6/5 444/6/5 447/6/5
f 449/4/5 445/4/5 448/4/5
f 450/4/5 445/4/5 449/4/5
f 451/4/5 445/4/5 450/4/5
f 452/4/5 445/4/5 451/4/5
f 453/6/5 446/6/5 445/6/5
f 453/4/5 445/4/5 452/4/5
f 454/6/5 446/6/5 453/6/5
f 455/4/5 449/4/5 448/4/5
f 456/6/5 450/6/5 449/6/5
f 456/4/5 449/4/5 455/4/5
f 457/4/5 451/4/5 450/4/5
f 457/6/5 450/6/5 456/6/5
f 458/6/5 452/6/5 451/6/5
f 458/4/5 451/4/5 457/4/5
f 459/4/5 453/4/5 452/4/5
f 459/6/5 452/6/5 458/6/5
f 460/4/5 453/4/5 459/4/5
f 463/4/5 462/4/5 461/4/5
f 464/4/5 462/4/5 463/4/5
f 469/4/5 466/4/5 465/4/5
f 470/4/5 466/4/5 469/4/5
f 471/4/5 468/4/5 467/4/5
f 472/4/5 468/4/5 471/4/5
f 477/3/5 474/3/5 473/3/5
f 478/3/5 474/3/5 477/3/5
f 479/3/5 476/3/5 475/3/5
f 480/3/5 476/3/5 479/3/5
f 483/3/5 482/3/5 481/3/5
f 484/3/5 482/3/5 483/3/5
f 487/3/5 486/3/5 485/3/5
f 488/3/5 486/3/5 487/3/5
f 493/5/5 490/5/5 489/5/5
f 494/5/5 490/5/5 493/5/5
f 495/5/5 492/5/5 491/5/5
f 496/5/5 492/5/5 495/5/5
f 500/3/5 498/3/5 497/3/5
f 501/3/5 498/3/5 500/3/5
f 503/3/5 500/3/5 499/3/5
f 504/3/5 500/3/5 503/3/5
f 505/3/5 502/3/5 501/3/5
f 506/3/5 502/3/5 505/3/5
f 509/3/5 508/3/5 507/3/5
f 510/3/5 508/3/5 509/3/5
f 511/6/6 512/6/6 515/6/6
f 513/6/6 514/6/6 516/6/6
f 511/6/6 515/6/6 517/6/6
f 517/6/6 515/6/6 518/6/6
f 516/6/6 514/6/6 519/6/6
f 519/6/6 514/6/6 520/6/6
f 521/6/6 522/6/6 525/6/6
f 525/6/6 522/6/6 526/6/6
f 523/6/6 524/6/6 527/6/6
f 527/6/6 524/6/6 528/6/6
f 529/5/6 530/5/6 531/5/6
f 531/5/6 530/5/6 532/5/6
f 531/3/6 532/3/6 533/3/6
f 533/3/6 532/3/6 534/3/6
f 534/3/6 532/3/6 535/3/6
f 535/3/6 532/3/6 536/3/6
f 529/5/6 531/5/6 537/5/6
f 531/3/6 533/3/6 537/3/6
f 537/3/6 533/3/6 538/3/6
f 534/3/6 535/3/6 539/3/6
f 539/3/6 535/3/6 540/3/6
f 536/3/6 532/3/6 541/3/6
f 532/5/6 530/5/6 542/5/6
f 541/3/6 532/3/6 542/3/6
f 529/5/6 537/5/6 543/5/6
f 543/5/6 537/5/6 544/5/6
f 542/5/6 530/5/6 545/5/6
f 545/5/6 530/5/6 546/5/6
f 544/5/6 537/5/6 547/5/6
f 547/5/6 537/5/6 548/5/6
f 542/5/6 545/5/6 549/5/6
f 549/5/6 545/5/6 550/5/6
f 551/5/6 552/5/6 555/5/6
f 555/5/6 552/5/6 556/5/6
f 553/5/6 554/5/6 557/5/6
f 557/5/6 554/5/6 558/5/6
f 559/5/6 560/5/6 562/5/6
f 562/5/6 560/5/6 563/5/6
f 561/5/6 562/5/6 565/5/6
f 563/5/6 564/5/6 565/5/6
f 562/5/6 563/5/6 565/5/6
f 565/5/6 564/5/6 566/5/6
f 566/5/6 564/5/6 567/5/6
f 567/5/6 564/5/6 568/5/6
f 566/5/6 567/5/6 569/5/6
f 569/5/6 567/5/6 570/5/6
f 571/3/6 572/3/6 575/3/6
f 573/3/6 574/3/6 576/3/6
f 571/3/6 575/3/6 580/3/6
f 575/3/6 576/3/6 580/3/6
f 576/3/6 574/3/6 581/3/6
f 580/3/6 576/3/6 581/3/6
f 578/3/6 579/3/6 585/3/6
f 577/3/6 578/3/6 585/3/6
f 585/3/6 579/3/6 586/3/6
f 583/3/6 584/3/6 587/3/6
f 582/3/6 583/3/6 587/3/6
f 587/3/6 584/3/6 588/3/6
f 589/3/6 590/3/6 591/3/6
f 591/3/6 590/3/6 592/3/6
f 593/3/6 594/3/6 595/3/6
f 595/3/6 594/3/6 596/3/6
f 597/3/6 598/3/6 599/3/6
f 599/3/6 598/3/6 600/3/6
