# MagicaVoxel @ Ephtracy

# group
o 

# material
mtllib Voxel Design (Cars)-11.mtl
usemtl palette

# normals
vn -1 0 0
vn 1 0 0
vn 0 0 1
vn 0 0 -1
vn 0 -1 0
vn 0 1 0

# texcoords
vt 0.150391 0.5
vt 0.587891 0.5
vt 0.599609 0.5
vt 0.912109 0.5
vt 0.962891 0.5
vt 0.966797 0.5
vt 0.986328 0.5
vt 0.990234 0.5

# verts
v -0.6 0 0.6
v -0.6 0 0.3
v -0.6 0 -0.3
v -0.6 0 -0.6
v -0.6 0.1 0.5
v -0.6 0.1 0.4
v -0.6 0.1 -0.4
v -0.6 0.1 -0.5
v -0.6 0.2 0.5
v -0.6 0.2 0.4
v -0.6 0.2 -0.4
v -0.6 0.2 -0.5
v -0.6 0.3 0.6
v -0.6 0.3 0.3
v -0.6 0.3 -0.3
v -0.6 0.3 -0.6
v -0.6 0.5 0.3
v -0.6 0.5 0.2
v -0.6 0.7 0.3
v -0.6 0.7 0.2
v -0.5 0.1 0.8
v -0.5 0.1 0.6
v -0.5 0.1 0.3
v -0.5 0.1 -0.3
v -0.5 0.1 -0.6
v -0.5 0.1 -0.7
v -0.5 0.2 0.7
v -0.5 0.2 0.6
v -0.5 0.2 0.3
v -0.5 0.2 -0.3
v -0.5 0.3 0.8
v -0.5 0.3 0.7
v -0.5 0.3 0.6
v -0.5 0.3 0.3
v -0.5 0.3 -0.3
v -0.5 0.3 -0.6
v -0.5 0.3 -0.7
v -0.5 0.4 0.7
v -0.5 0.4 0.6
v -0.5 0.5 0.3
v -0.5 0.5 0.2
v -0.5 0.5 -0.1
v -0.5 0.5 -0.2
v -0.5 0.6 0.8
v -0.5 0.6 0.4
v -0.5 0.6 0.2
v -0.5 0.6 -0.1
v -0.5 0.6 -0.6
v -0.5 0.6 -0.7
v -0.5 0.7 0.3
v -0.5 0.7 -0.1
v -0.5 0.7 -0.2
v -0.5 0.7 -0.3
v -0.5 0.7 -0.5
v -0.5 1 0.3
v -0.5 1 -0.2
v -0.5 1 -0.3
v -0.5 1 -0.5
v -0.5 1.1 0.4
v -0.5 1.1 -0.6
v -0.4 0.6 0.2
v -0.4 0.6 -0.1
v -0.4 0.7 0.3
v -0.4 0.7 0.2
v -0.4 0.7 -0.1
v -0.4 0.7 -0.2
v -0.4 0.7 -0.3
v -0.4 0.7 -0.5
v -0.4 1 0.3
v -0.4 1 -0.2
v -0.4 1 -0.3
v -0.4 1 -0.5
v 0.4 0 0.6
v 0.4 0 0.3
v 0.4 0 -0.3
v 0.4 0 -0.6
v 0.4 0.1 0.6
v 0.4 0.1 0.3
v 0.4 0.1 -0.3
v 0.4 0.1 -0.6
v 0.4 0.6 0.4
v 0.4 0.6 0.3
v 0.4 0.6 -0.5
v 0.4 0.6 -0.6
v 0.4 1 0.4
v 0.4 1 0.3
v 0.4 1 -0.5
v 0.4 1 -0.6
v -0.4 0 0.6
v -0.4 0 0.3
v -0.4 0 -0.3
v -0.4 0 -0.6
v -0.4 0.1 0.6
v -0.4 0.1 0.3
v -0.4 0.1 -0.3
v -0.4 0.1 -0.6
v -0.4 0.6 0.4
v -0.4 0.6 0.3
v -0.4 0.6 -0.5
v -0.4 0.6 -0.6
v -0.4 1 0.4
v -0.4 1 0.3
v -0.4 1 -0.5
v -0.4 1 -0.6
v 0.4 0.6 0.2
v 0.4 0.6 -0.1
v 0.4 0.7 0.3
v 0.4 0.7 0.2
v 0.4 0.7 -0.1
v 0.4 0.7 -0.2
v 0.4 0.7 -0.3
v 0.4 0.7 -0.5
v 0.4 1 0.3
v 0.4 1 -0.2
v 0.4 1 -0.3
v 0.4 1 -0.5
v 0.5 0.1 0.8
v 0.5 0.1 0.6
v 0.5 0.1 0.3
v 0.5 0.1 -0.3
v 0.5 0.1 -0.6
v 0.5 0.1 -0.7
v 0.5 0.2 0.7
v 0.5 0.2 0.6
v 0.5 0.2 0.3
v 0.5 0.2 -0.3
v 0.5 0.3 0.8
v 0.5 0.3 0.7
v 0.5 0.3 0.6
v 0.5 0.3 0.3
v 0.5 0.3 -0.3
v 0.5 0.3 -0.6
v 0.5 0.3 -0.7
v 0.5 0.4 0.7
v 0.5 0.4 0.6
v 0.5 0.5 0.3
v 0.5 0.5 0.2
v 0.5 0.5 -0.1
v 0.5 0.5 -0.2
v 0.5 0.6 0.8
v 0.5 0.6 0.4
v 0.5 0.6 0.2
v 0.5 0.6 -0.1
v 0.5 0.6 -0.6
v 0.5 0.6 -0.7
v 0.5 0.7 0.3
v 0.5 0.7 -0.1
v 0.5 0.7 -0.2
v 0.5 0.7 -0.3
v 0.5 0.7 -0.5
v 0.5 1 0.3
v 0.5 1 -0.2
v 0.5 1 -0.3
v 0.5 1 -0.5
v 0.5 1.1 0.4
v 0.5 1.1 -0.6
v 0.6 0 0.6
v 0.6 0 0.3
v 0.6 0 -0.3
v 0.6 0 -0.6
v 0.6 0.1 0.5
v 0.6 0.1 0.4
v 0.6 0.1 -0.4
v 0.6 0.1 -0.5
v 0.6 0.2 0.5
v 0.6 0.2 0.4
v 0.6 0.2 -0.4
v 0.6 0.2 -0.5
v 0.6 0.3 0.6
v 0.6 0.3 0.3
v 0.6 0.3 -0.3
v 0.6 0.3 -0.6
v 0.6 0.5 0.3
v 0.6 0.5 0.2
v 0.6 0.7 0.3
v 0.6 0.7 0.2
v -0.5 0.1 0.8
v -0.5 0.3 0.8
v -0.5 0.6 0.8
v -0.4 0.3 0.8
v -0.4 0.4 0.8
v -0.3 0.1 0.8
v -0.3 0.2 0.8
v -0.2 0.1 0.8
v -0.2 0.2 0.8
v -0.2 0.3 0.8
v -0.2 0.4 0.8
v 0.2 0.1 0.8
v 0.2 0.2 0.8
v 0.2 0.3 0.8
v 0.2 0.4 0.8
v 0.3 0.1 0.8
v 0.3 0.2 0.8
v 0.4 0.3 0.8
v 0.4 0.4 0.8
v 0.5 0.1 0.8
v 0.5 0.3 0.8
v 0.5 0.6 0.8
v -0.6 0 0.6
v -0.6 0.3 0.6
v -0.5 0.1 0.6
v -0.5 0.2 0.6
v -0.5 0.3 0.6
v -0.4 0 0.6
v -0.4 0.1 0.6
v 0.4 0 0.6
v 0.4 0.1 0.6
v 0.5 0.1 0.6
v 0.5 0.2 0.6
v 0.5 0.3 0.6
v 0.6 0 0.6
v 0.6 0.3 0.6
v -0.5 0.6 0.4
v -0.5 1.1 0.4
v -0.4 0.6 0.4
v -0.4 1 0.4
v -0.2 1 0.4
v -0.2 1.1 0.4
v 0.2 1 0.4
v 0.2 1.1 0.4
v 0.4 0.6 0.4
v 0.4 1 0.4
v 0.5 0.6 0.4
v 0.5 1.1 0.4
v -0.6 0.5 0.3
v -0.6 0.7 0.3
v -0.5 0.5 0.3
v -0.5 0.7 0.3
v -0.4 0.6 0.3
v -0.4 1 0.3
v -0.2 0.6 0.3
v -0.2 1 0.3
v 0.2 0.6 0.3
v 0.2 1 0.3
v 0.4 0.6 0.3
v 0.4 1 0.3
v 0.5 0.5 0.3
v 0.5 0.7 0.3
v 0.6 0.5 0.3
v 0.6 0.7 0.3
v -0.5 0.6 -0.1
v -0.5 0.7 -0.1
v -0.4 0.6 -0.1
v -0.4 0.7 -0.1
v 0.4 0.6 -0.1
v 0.4 0.7 -0.1
v 0.5 0.6 -0.1
v 0.5 0.7 -0.1
v -0.5 0.7 -0.2
v -0.5 1 -0.2
v -0.4 0.7 -0.2
v -0.4 1 -0.2
v 0.4 0.7 -0.2
v 0.4 1 -0.2
v 0.5 0.7 -0.2
v 0.5 1 -0.2
v -0.6 0 -0.3
v -0.6 0.3 -0.3
v -0.5 0.1 -0.3
v -0.5 0.2 -0.3
v -0.5 0.3 -0.3
v -0.4 0 -0.3
v -0.4 0.1 -0.3
v 0.4 0 -0.3
v 0.4 0.1 -0.3
v 0.5 0.1 -0.3
v 0.5 0.2 -0.3
v 0.5 0.3 -0.3
v 0.6 0 -0.3
v 0.6 0.3 -0.3
v -0.5 0.7 -0.5
v -0.5 1 -0.5
v -0.4 0.7 -0.5
v -0.4 1 -0.5
v 0.4 0.7 -0.5
v 0.4 1 -0.5
v 0.5 0.7 -0.5
v 0.5 1 -0.5
v -0.6 0 0.3
v -0.6 0.3 0.3
v -0.5 0.1 0.3
v -0.5 0.2 0.3
v -0.5 0.3 0.3
v -0.5 0.7 0.3
v -0.5 1 0.3
v -0.4 0 0.3
v -0.4 0.1 0.3
v -0.4 0.7 0.3
v -0.4 1 0.3
v 0.4 0 0.3
v 0.4 0.1 0.3
v 0.4 0.7 0.3
v 0.4 1 0.3
v 0.5 0.1 0.3
v 0.5 0.2 0.3
v 0.5 0.3 0.3
v 0.5 0.7 0.3
v 0.5 1 0.3
v 0.6 0 0.3
v 0.6 0.3 0.3
v -0.6 0.5 0.2
v -0.6 0.7 0.2
v -0.5 0.5 0.2
v -0.5 0.6 0.2
v -0.4 0.6 0.2
v -0.4 0.7 0.2
v 0.4 0.6 0.2
v 0.4 0.7 0.2
v 0.5 0.5 0.2
v 0.5 0.6 0.2
v 0.6 0.5 0.2
v 0.6 0.7 0.2
v -0.5 0.7 -0.3
v -0.5 1 -0.3
v -0.4 0.7 -0.3
v -0.4 1 -0.3
v 0.4 0.7 -0.3
v 0.4 1 -0.3
v 0.5 0.7 -0.3
v 0.5 1 -0.3
v -0.4 0.6 -0.5
v -0.4 1 -0.5
v -0.2 0.6 -0.5
v -0.2 1 -0.5
v 0.2 0.6 -0.5
v 0.2 1 -0.5
v 0.4 0.6 -0.5
v 0.4 1 -0.5
v -0.6 0 -0.6
v -0.6 0.3 -0.6
v -0.5 0.1 -0.6
v -0.5 0.3 -0.6
v -0.5 0.6 -0.6
v -0.5 1.1 -0.6
v -0.4 0 -0.6
v -0.4 0.1 -0.6
v -0.4 0.6 -0.6
v -0.4 1 -0.6
v -0.2 1 -0.6
v -0.2 1.1 -0.6
v 0.2 1 -0.6
v 0.2 1.1 -0.6
v 0.4 0 -0.6
v 0.4 0.1 -0.6
v 0.4 0.6 -0.6
v 0.4 1 -0.6
v 0.5 0.1 -0.6
v 0.5 0.3 -0.6
v 0.5 0.6 -0.6
v 0.5 1.1 -0.6
v 0.6 0 -0.6
v 0.6 0.3 -0.6
v -0.5 0.1 -0.7
v -0.5 0.3 -0.7
v -0.5 0.6 -0.7
v -0.4 0.3 -0.7
v -0.4 0.4 -0.7
v -0.3 0.1 -0.7
v -0.3 0.2 -0.7
v -0.2 0.1 -0.7
v -0.2 0.2 -0.7
v -0.2 0.3 -0.7
v -0.2 0.4 -0.7
v 0.2 0.1 -0.7
v 0.2 0.2 -0.7
v 0.2 0.3 -0.7
v 0.2 0.4 -0.7
v 0.3 0.1 -0.7
v 0.3 0.2 -0.7
v 0.4 0.3 -0.7
v 0.4 0.4 -0.7
v 0.5 0.1 -0.7
v 0.5 0.3 -0.7
v 0.5 0.6 -0.7
v -0.6 0 0.6
v -0.4 0 0.6
v 0.4 0 0.6
v 0.6 0 0.6
v -0.6 0 0.3
v -0.4 0 0.3
v 0.4 0 0.3
v 0.6 0 0.3
v -0.6 0 -0.3
v -0.4 0 -0.3
v 0.4 0 -0.3
v 0.6 0 -0.3
v -0.6 0 -0.6
v -0.4 0 -0.6
v 0.4 0 -0.6
v 0.6 0 -0.6
v -0.5 0.1 0.8
v -0.3 0.1 0.8
v -0.2 0.1 0.8
v 0.2 0.1 0.8
v 0.3 0.1 0.8
v 0.5 0.1 0.8
v -0.3 0.1 0.7
v -0.2 0.1 0.7
v -0.1 0.1 0.7
v 0.1 0.1 0.7
v 0.2 0.1 0.7
v 0.3 0.1 0.7
v -0.5 0.1 0.6
v -0.4 0.1 0.6
v -0.3 0.1 0.6
v -0.2 0.1 0.6
v 0.2 0.1 0.6
v 0.3 0.1 0.6
v 0.4 0.1 0.6
v 0.5 0.1 0.6
v -0.3 0.1 0.5
v -0.2 0.1 0.5
v -0.1 0.1 0.5
v 0.1 0.1 0.5
v 0.2 0.1 0.5
v 0.3 0.1 0.5
v -0.5 0.1 0.3
v -0.4 0.1 0.3
v -0.1 0.1 0.3
v 0.1 0.1 0.3
v 0.4 0.1 0.3
v 0.5 0.1 0.3
v -0.1 0.1 0.1
v 0.1 0.1 0.1
v -0.1 0.1 0
v 0.1 0.1 0
v -0.1 0.1 -0.2
v 0.1 0.1 -0.2
v -0.5 0.1 -0.3
v -0.4 0.1 -0.3
v -0.1 0.1 -0.3
v 0.1 0.1 -0.3
v 0.4 0.1 -0.3
v 0.5 0.1 -0.3
v -0.3 0.1 -0.4
v -0.1 0.1 -0.4
v 0.1 0.1 -0.4
v 0.3 0.1 -0.4
v -0.2 0.1 -0.5
v 0.2 0.1 -0.5
v -0.5 0.1 -0.6
v -0.4 0.1 -0.6
v 0.4 0.1 -0.6
v 0.5 0.1 -0.6
v -0.5 0.1 -0.7
v -0.3 0.1 -0.7
v -0.2 0.1 -0.7
v 0.2 0.1 -0.7
v 0.3 0.1 -0.7
v 0.5 0.1 -0.7
v -0.6 0.5 0.3
v -0.5 0.5 0.3
v 0.5 0.5 0.3
v 0.6 0.5 0.3
v -0.6 0.5 0.2
v -0.5 0.5 0.2
v 0.5 0.5 0.2
v 0.6 0.5 0.2
v -0.4 1 0.4
v -0.2 1 0.4
v 0.2 1 0.4
v 0.4 1 0.4
v -0.5 1 0.3
v -0.4 1 0.3
v -0.2 1 0.3
v 0.2 1 0.3
v 0.4 1 0.3
v 0.5 1 0.3
v -0.5 1 -0.2
v -0.4 1 -0.2
v 0.4 1 -0.2
v 0.5 1 -0.2
v -0.5 1 -0.3
v -0.4 1 -0.3
v 0.4 1 -0.3
v 0.5 1 -0.3
v -0.5 1 -0.5
v -0.4 1 -0.5
v -0.2 1 -0.5
v 0.2 1 -0.5
v 0.4 1 -0.5
v 0.5 1 -0.5
v -0.4 1 -0.6
v -0.2 1 -0.6
v 0.2 1 -0.6
v 0.4 1 -0.6
v -0.6 0.3 0.6
v -0.5 0.3 0.6
v 0.5 0.3 0.6
v 0.6 0.3 0.6
v -0.6 0.3 0.3
v -0.5 0.3 0.3
v 0.5 0.3 0.3
v 0.6 0.3 0.3
v -0.6 0.3 -0.3
v -0.5 0.3 -0.3
v 0.5 0.3 -0.3
v 0.6 0.3 -0.3
v -0.6 0.3 -0.6
v -0.5 0.3 -0.6
v 0.5 0.3 -0.6
v 0.6 0.3 -0.6
v -0.5 0.6 0.8
v 0.5 0.6 0.8
v -0.2 0.6 0.7
v 0.2 0.6 0.7
v -0.5 0.6 0.4
v -0.4 0.6 0.4
v 0.4 0.6 0.4
v 0.5 0.6 0.4
v -0.4 0.6 0.3
v -0.2 0.6 0.3
v 0.2 0.6 0.3
v 0.4 0.6 0.3
v -0.5 0.6 0.2
v -0.4 0.6 0.2
v 0.4 0.6 0.2
v 0.5 0.6 0.2
v -0.5 0.6 -0.1
v -0.4 0.6 -0.1
v 0.4 0.6 -0.1
v 0.5 0.6 -0.1
v -0.4 0.6 -0.5
v -0.2 0.6 -0.5
v 0.2 0.6 -0.5
v 0.4 0.6 -0.5
v -0.5 0.6 -0.6
v -0.4 0.6 -0.6
v -0.2 0.6 -0.6
v 0.2 0.6 -0.6
v 0.4 0.6 -0.6
v 0.5 0.6 -0.6
v -0.5 0.6 -0.7
v 0.5 0.6 -0.7
v -0.6 0.7 0.3
v -0.5 0.7 0.3
v -0.4 0.7 0.3
v 0.4 0.7 0.3
v 0.5 0.7 0.3
v 0.6 0.7 0.3
v -0.6 0.7 0.2
v -0.4 0.7 0.2
v 0.4 0.7 0.2
v 0.6 0.7 0.2
v -0.5 0.7 -0.1
v -0.4 0.7 -0.1
v 0.4 0.7 -0.1
v 0.5 0.7 -0.1
v -0.5 0.7 -0.2
v -0.4 0.7 -0.2
v 0.4 0.7 -0.2
v 0.5 0.7 -0.2
v -0.5 0.7 -0.3
v -0.4 0.7 -0.3
v 0.4 0.7 -0.3
v 0.5 0.7 -0.3
v -0.5 0.7 -0.5
v -0.4 0.7 -0.5
v 0.4 0.7 -0.5
v 0.5 0.7 -0.5
v -0.5 1.1 0.4
v -0.2 1.1 0.4
v 0.2 1.1 0.4
v 0.5 1.1 0.4
v -0.5 1.1 -0.6
v -0.2 1.1 -0.6
v 0.2 1.1 -0.6
v 0.5 1.1 -0.6

# faces
f 5/7/1 2/7/1 1/7/1
f 6/7/1 2/7/1 5/7/1
f 7/7/1 4/7/1 3/7/1
f 8/7/1 4/7/1 7/7/1
f 9/7/1 5/7/1 1/7/1
f 9/5/1 6/5/1 5/5/1
f 10/7/1 2/7/1 6/7/1
f 10/5/1 6/5/1 9/5/1
f 11/5/1 8/5/1 7/5/1
f 11/7/1 7/7/1 3/7/1
f 12/7/1 4/7/1 8/7/1
f 12/5/1 8/5/1 11/5/1
f 13/7/1 9/7/1 1/7/1
f 13/7/1 10/7/1 9/7/1
f 14/7/1 2/7/1 10/7/1
f 14/7/1 10/7/1 13/7/1
f 15/7/1 11/7/1 3/7/1
f 15/7/1 12/7/1 11/7/1
f 16/7/1 4/7/1 12/7/1
f 16/7/1 12/7/1 15/7/1
f 19/3/1 18/3/1 17/3/1
f 20/3/1 18/3/1 19/3/1
f 27/6/1 22/6/1 21/6/1
f 28/6/1 22/6/1 27/6/1
f 29/6/1 24/6/1 23/6/1
f 30/6/1 24/6/1 29/6/1
f 31/6/1 27/6/1 21/6/1
f 32/2/1 28/2/1 27/2/1
f 32/6/1 27/6/1 31/6/1
f 33/2/1 28/2/1 32/2/1
f 34/2/1 30/2/1 29/2/1
f 35/2/1 30/2/1 34/2/1
f 36/6/1 26/6/1 25/6/1
f 37/6/1 26/6/1 36/6/1
f 38/1/1 33/1/1 32/1/1
f 38/2/1 32/2/1 31/2/1
f 39/2/1 35/2/1 34/2/1
f 39/1/1 33/1/1 38/1/1
f 39/2/1 34/2/1 33/2/1
f 39/2/1 36/2/1 35/2/1
f 39/2/1 37/2/1 36/2/1
f 40/2/1 39/2/1 38/2/1
f 40/2/1 37/2/1 39/2/1
f 41/2/1 37/2/1 40/2/1
f 42/2/1 37/2/1 41/2/1
f 43/2/1 37/2/1 42/2/1
f 44/2/1 38/2/1 31/2/1
f 44/2/1 40/2/1 38/2/1
f 45/2/1 40/2/1 44/2/1
f 46/2/1 42/2/1 41/2/1
f 47/3/1 43/3/1 42/3/1
f 47/2/1 42/2/1 46/2/1
f 48/2/1 37/2/1 43/2/1
f 49/2/1 37/2/1 48/2/1
f 50/2/1 40/2/1 45/2/1
f 51/3/1 43/3/1 47/3/1
f 52/2/1 48/2/1 43/2/1
f 52/3/1 43/3/1 51/3/1
f 53/2/1 48/2/1 52/2/1
f 54/2/1 48/2/1 53/2/1
f 55/2/1 50/2/1 45/2/1
f 56/2/1 53/2/1 52/2/1
f 57/2/1 53/2/1 56/2/1
f 58/2/1 48/2/1 54/2/1
f 59/2/1 57/2/1 56/2/1
f 59/2/1 58/2/1 57/2/1
f 59/2/1 55/2/1 45/2/1
f 59/2/1 56/2/1 55/2/1
f 60/2/1 48/2/1 58/2/1
f 60/2/1 58/2/1 59/2/1
f 64/8/1 62/8/1 61/8/1
f 65/8/1 62/8/1 64/8/1
f 69/8/1 64/8/1 63/8/1
f 69/8/1 65/8/1 64/8/1
f 69/8/1 66/8/1 65/8/1
f 70/8/1 66/8/1 69/8/1
f 71/8/1 68/8/1 67/8/1
f 72/8/1 68/8/1 71/8/1
f 77/7/1 74/7/1 73/7/1
f 78/7/1 74/7/1 77/7/1
f 79/7/1 76/7/1 75/7/1
f 80/7/1 76/7/1 79/7/1
f 85/2/1 82/2/1 81/2/1
f 86/2/1 82/2/1 85/2/1
f 87/2/1 84/2/1 83/2/1
f 88/2/1 84/2/1 87/2/1
f 89/7/2 90/7/2 93/7/2
f 93/7/2 90/7/2 94/7/2
f 91/7/2 92/7/2 95/7/2
f 95/7/2 92/7/2 96/7/2
f 97/2/2 98/2/2 101/2/2
f 101/2/2 98/2/2 102/2/2
f 99/2/2 100/2/2 103/2/2
f 103/2/2 100/2/2 104/2/2
f 105/8/2 106/8/2 108/8/2
f 108/8/2 106/8/2 109/8/2
f 107/8/2 108/8/2 113/8/2
f 108/8/2 109/8/2 113/8/2
f 109/8/2 110/8/2 113/8/2
f 113/8/2 110/8/2 114/8/2
f 111/8/2 112/8/2 115/8/2
f 115/8/2 112/8/2 116/8/2
f 117/6/2 118/6/2 123/6/2
f 123/6/2 118/6/2 124/6/2
f 119/6/2 120/6/2 125/6/2
f 125/6/2 120/6/2 126/6/2
f 117/6/2 123/6/2 127/6/2
f 123/2/2 124/2/2 128/2/2
f 127/6/2 123/6/2 128/6/2
f 128/2/2 124/2/2 129/2/2
f 125/2/2 126/2/2 130/2/2
f 130/2/2 126/2/2 131/2/2
f 121/6/2 122/6/2 132/6/2
f 132/6/2 122/6/2 133/6/2
f 128/1/2 129/1/2 134/1/2
f 127/2/2 128/2/2 134/2/2
f 130/2/2 131/2/2 135/2/2
f 134/1/2 129/1/2 135/1/2
f 129/2/2 130/2/2 135/2/2
f 131/2/2 132/2/2 135/2/2
f 132/2/2 133/2/2 135/2/2
f 134/2/2 135/2/2 136/2/2
f 135/2/2 133/2/2 136/2/2
f 136/2/2 133/2/2 137/2/2
f 137/2/2 133/2/2 138/2/2
f 138/2/2 133/2/2 139/2/2
f 127/2/2 134/2/2 140/2/2
f 134/2/2 136/2/2 140/2/2
f 140/2/2 136/2/2 141/2/2
f 137/2/2 138/2/2 142/2/2
f 138/3/2 139/3/2 143/3/2
f 142/2/2 138/2/2 143/2/2
f 139/2/2 133/2/2 144/2/2
f 144/2/2 133/2/2 145/2/2
f 141/2/2 136/2/2 146/2/2
f 143/3/2 139/3/2 147/3/2
f 139/2/2 144/2/2 148/2/2
f 147/3/2 139/3/2 148/3/2
f 148/2/2 144/2/2 149/2/2
f 149/2/2 144/2/2 150/2/2
f 141/2/2 146/2/2 151/2/2
f 148/2/2 149/2/2 152/2/2
f 152/2/2 149/2/2 153/2/2
f 150/2/2 144/2/2 154/2/2
f 152/2/2 153/2/2 155/2/2
f 153/2/2 154/2/2 155/2/2
f 141/2/2 151/2/2 155/2/2
f 151/2/2 152/2/2 155/2/2
f 154/2/2 144/2/2 156/2/2
f 155/2/2 154/2/2 156/2/2
f 157/7/2 158/7/2 161/7/2
f 161/7/2 158/7/2 162/7/2
f 159/7/2 160/7/2 163/7/2
f 163/7/2 160/7/2 164/7/2
f 157/7/2 161/7/2 165/7/2
f 161/5/2 162/5/2 165/5/2
f 162/7/2 158/7/2 166/7/2
f 165/5/2 162/5/2 166/5/2
f 163/5/2 164/5/2 167/5/2
f 159/7/2 163/7/2 167/7/2
f 164/7/2 160/7/2 168/7/2
f 167/5/2 164/5/2 168/5/2
f 157/7/2 165/7/2 169/7/2
f 165/7/2 166/7/2 169/7/2
f 166/7/2 158/7/2 170/7/2
f 169/7/2 166/7/2 170/7/2
f 159/7/2 167/7/2 171/7/2
f 167/7/2 168/7/2 171/7/2
f 168/7/2 160/7/2 172/7/2
f 171/7/2 168/7/2 172/7/2
f 173/3/2 174/3/2 175/3/2
f 175/3/2 174/3/2 176/3/2
f 180/6/3 178/6/3 177/6/3
f 180/2/3 179/2/3 178/2/3
f 181/2/3 179/2/3 180/2/3
f 182/6/3 180/6/3 177/6/3
f 183/6/3 180/6/3 182/6/3
f 184/4/3 183/4/3 182/4/3
f 185/6/3 180/6/3 183/6/3
f 185/4/3 183/4/3 184/4/3
f 186/4/3 181/4/3 180/4/3
f 186/6/3 180/6/3 185/6/3
f 187/2/3 179/2/3 181/2/3
f 187/4/3 181/4/3 186/4/3
f 188/6/3 186/6/3 185/6/3
f 188/6/3 185/6/3 184/6/3
f 189/6/3 186/6/3 188/6/3
f 190/7/3 187/7/3 186/7/3
f 190/6/3 186/6/3 189/6/3
f 191/2/3 179/2/3 187/2/3
f 191/7/3 187/7/3 190/7/3
f 192/4/3 189/4/3 188/4/3
f 193/6/3 190/6/3 189/6/3
f 193/4/3 189/4/3 192/4/3
f 194/4/3 191/4/3 190/4/3
f 194/6/3 190/6/3 193/6/3
f 194/6/3 193/6/3 192/6/3
f 195/2/3 179/2/3 191/2/3
f 195/4/3 191/4/3 194/4/3
f 196/6/3 194/6/3 192/6/3
f 197/2/3 195/2/3 194/2/3
f 197/6/3 194/6/3 196/6/3
f 198/2/3 179/2/3 195/2/3
f 198/2/3 195/2/3 197/2/3
f 201/7/3 200/7/3 199/7/3
f 202/7/3 200/7/3 201/7/3
f 203/7/3 200/7/3 202/7/3
f 204/7/3 201/7/3 199/7/3
f 205/7/3 201/7/3 204/7/3
f 208/7/3 207/7/3 206/7/3
f 211/7/3 208/7/3 206/7/3
f 211/7/3 210/7/3 209/7/3
f 211/7/3 209/7/3 208/7/3
f 212/7/3 210/7/3 211/7/3
f 215/2/3 214/2/3 213/2/3
f 216/2/3 214/2/3 215/2/3
f 217/2/3 214/2/3 216/2/3
f 218/2/3 214/2/3 217/2/3
f 219/5/3 218/5/3 217/5/3
f 220/5/3 218/5/3 219/5/3
f 222/2/3 220/2/3 219/2/3
f 223/2/3 222/2/3 221/2/3
f 224/2/3 220/2/3 222/2/3
f 224/2/3 222/2/3 223/2/3
f 227/3/3 226/3/3 225/3/3
f 228/3/3 226/3/3 227/3/3
f 231/8/3 230/8/3 229/8/3
f 232/8/3 230/8/3 231/8/3
f 233/8/3 232/8/3 231/8/3
f 234/8/3 232/8/3 233/8/3
f 235/8/3 234/8/3 233/8/3
f 236/8/3 234/8/3 235/8/3
f 239/3/3 238/3/3 237/3/3
f 240/3/3 238/3/3 239/3/3
f 243/3/3 242/3/3 241/3/3
f 244/3/3 242/3/3 243/3/3
f 247/3/3 246/3/3 245/3/3
f 248/3/3 246/3/3 247/3/3
f 251/2/3 250/2/3 249/2/3
f 252/2/3 250/2/3 251/2/3
f 255/2/3 254/2/3 253/2/3
f 256/2/3 254/2/3 255/2/3
f 259/7/3 258/7/3 257/7/3
f 260/7/3 258/7/3 259/7/3
f 261/7/3 258/7/3 260/7/3
f 262/7/3 259/7/3 257/7/3
f 263/7/3 259/7/3 262/7/3
f 266/7/3 265/7/3 264/7/3
f 269/7/3 266/7/3 264/7/3
f 269/7/3 268/7/3 267/7/3
f 269/7/3 267/7/3 266/7/3
f 270/7/3 268/7/3 269/7/3
f 273/2/3 272/2/3 271/2/3
f 274/2/3 272/2/3 273/2/3
f 277/2/3 276/2/3 275/2/3
f 278/2/3 276/2/3 277/2/3
f 279/7/4 280/7/4 281/7/4
f 281/7/4 280/7/4 282/7/4
f 282/7/4 280/7/4 283/7/4
f 279/7/4 281/7/4 286/7/4
f 286/7/4 281/7/4 287/7/4
f 284/2/4 285/2/4 288/2/4
f 288/2/4 285/2/4 289/2/4
f 290/7/4 291/7/4 294/7/4
f 292/2/4 293/2/4 297/2/4
f 297/2/4 293/2/4 298/2/4
f 295/7/4 296/7/4 299/7/4
f 290/7/4 294/7/4 299/7/4
f 294/7/4 295/7/4 299/7/4
f 299/7/4 296/7/4 300/7/4
f 301/3/4 302/3/4 303/3/4
f 303/3/4 302/3/4 304/3/4
f 304/3/4 302/3/4 305/3/4
f 305/3/4 302/3/4 306/3/4
f 307/3/4 308/3/4 310/3/4
f 309/3/4 310/3/4 311/3/4
f 310/3/4 308/3/4 312/3/4
f 311/3/4 310/3/4 312/3/4
f 313/2/4 314/2/4 315/2/4
f 315/2/4 314/2/4 316/2/4
f 317/2/4 318/2/4 319/2/4
f 319/2/4 318/2/4 320/2/4
f 321/8/4 322/8/4 323/8/4
f 323/8/4 322/8/4 324/8/4
f 323/8/4 324/8/4 325/8/4
f 325/8/4 324/8/4 326/8/4
f 325/8/4 326/8/4 327/8/4
f 327/8/4 326/8/4 328/8/4
f 329/7/4 330/7/4 331/7/4
f 331/7/4 330/7/4 332/7/4
f 329/7/4 331/7/4 335/7/4
f 335/7/4 331/7/4 336/7/4
f 333/2/4 334/2/4 337/2/4
f 337/2/4 334/2/4 338/2/4
f 338/2/4 334/2/4 339/2/4
f 339/2/4 334/2/4 340/2/4
f 339/5/4 340/5/4 341/5/4
f 341/5/4 340/5/4 342/5/4
f 341/2/4 342/2/4 346/2/4
f 343/7/4 344/7/4 347/7/4
f 345/2/4 346/2/4 349/2/4
f 346/2/4 342/2/4 350/2/4
f 349/2/4 346/2/4 350/2/4
f 347/7/4 348/7/4 351/7/4
f 343/7/4 347/7/4 351/7/4
f 351/7/4 348/7/4 352/7/4
f 353/6/4 354/6/4 356/6/4
f 354/2/4 355/2/4 356/2/4
f 356/2/4 355/2/4 357/2/4
f 353/6/4 356/6/4 358/6/4
f 358/6/4 356/6/4 359/6/4
f 358/7/4 359/7/4 360/7/4
f 359/6/4 356/6/4 361/6/4
f 360/7/4 359/7/4 361/7/4
f 356/1/4 357/1/4 362/1/4
f 361/6/4 356/6/4 362/6/4
f 357/2/4 355/2/4 363/2/4
f 362/1/4 357/1/4 363/1/4
f 361/6/4 362/6/4 364/6/4
f 360/6/4 361/6/4 364/6/4
f 364/6/4 362/6/4 365/6/4
f 362/2/4 363/2/4 366/2/4
f 365/6/4 362/6/4 366/6/4
f 363/2/4 355/2/4 367/2/4
f 366/2/4 363/2/4 367/2/4
f 364/7/4 365/7/4 368/7/4
f 365/6/4 366/6/4 369/6/4
f 368/7/4 365/7/4 369/7/4
f 366/1/4 367/1/4 370/1/4
f 369/6/4 366/6/4 370/6/4
f 368/6/4 369/6/4 370/6/4
f 367/2/4 355/2/4 371/2/4
f 370/1/4 367/1/4 371/1/4
f 368/6/4 370/6/4 372/6/4
f 370/2/4 371/2/4 373/2/4
f 372/6/4 370/6/4 373/6/4
f 371/2/4 355/2/4 374/2/4
f 373/2/4 371/2/4 374/2/4
f 379/7/5 376/7/5 375/7/5
f 380/7/5 376/7/5 379/7/5
f 381/7/5 378/7/5 377/7/5
f 382/7/5 378/7/5 381/7/5
f 387/7/5 384/7/5 383/7/5
f 388/7/5 384/7/5 387/7/5
f 389/7/5 386/7/5 385/7/5
f 390/7/5 386/7/5 389/7/5
f 397/6/5 392/6/5 391/6/5
f 397/4/5 393/4/5 392/4/5
f 398/6/5 394/6/5 393/6/5
f 398/4/5 393/4/5 397/4/5
f 399/6/5 394/6/5 398/6/5
f 400/6/5 394/6/5 399/6/5
f 401/4/5 395/4/5 394/4/5
f 401/6/5 394/6/5 400/6/5
f 402/6/5 396/6/5 395/6/5
f 402/4/5 395/4/5 401/4/5
f 403/6/5 397/6/5 391/6/5
f 403/6/5 398/6/5 397/6/5
f 403/6/5 399/6/5 398/6/5
f 404/6/5 399/6/5 403/6/5
f 405/6/5 399/6/5 404/6/5
f 406/6/5 399/6/5 405/6/5
f 407/6/5 401/6/5 400/6/5
f 407/6/5 402/6/5 401/6/5
f 408/6/5 396/6/5 402/6/5
f 408/6/5 402/6/5 407/6/5
f 409/6/5 396/6/5 408/6/5
f 410/6/5 396/6/5 409/6/5
f 411/7/5 406/7/5 405/7/5
f 411/6/5 405/6/5 404/6/5
f 412/6/5 399/6/5 406/6/5
f 412/7/5 406/7/5 411/7/5
f 413/7/5 400/7/5 399/7/5
f 413/6/5 399/6/5 412/6/5
f 414/6/5 407/6/5 400/6/5
f 414/7/5 400/7/5 413/7/5
f 415/7/5 408/7/5 407/7/5
f 415/6/5 407/6/5 414/6/5
f 416/6/5 409/6/5 408/6/5
f 416/7/5 408/7/5 415/7/5
f 418/6/5 411/6/5 404/6/5
f 418/6/5 412/6/5 411/6/5
f 418/6/5 416/6/5 415/6/5
f 418/6/5 414/6/5 413/6/5
f 418/6/5 415/6/5 414/6/5
f 418/6/5 413/6/5 412/6/5
f 419/6/5 416/6/5 418/6/5
f 420/6/5 416/6/5 419/6/5
f 421/6/5 409/6/5 416/6/5
f 421/6/5 416/6/5 420/6/5
f 423/7/5 420/7/5 419/7/5
f 423/6/5 418/6/5 417/6/5
f 423/6/5 419/6/5 418/6/5
f 424/6/5 422/6/5 421/6/5
f 424/7/5 420/7/5 423/7/5
f 424/6/5 421/6/5 420/6/5
f 425/6/5 423/6/5 417/6/5
f 425/6/5 424/6/5 423/6/5
f 426/6/5 422/6/5 424/6/5
f 426/6/5 424/6/5 425/6/5
f 427/6/5 425/6/5 417/6/5
f 427/7/5 426/7/5 425/7/5
f 428/6/5 422/6/5 426/6/5
f 428/7/5 426/7/5 427/7/5
f 429/6/5 427/6/5 417/6/5
f 429/6/5 428/6/5 427/6/5
f 430/6/5 428/6/5 429/6/5
f 431/6/5 428/6/5 430/6/5
f 432/6/5 422/6/5 428/6/5
f 432/6/5 428/6/5 431/6/5
f 433/6/5 422/6/5 432/6/5
f 434/6/5 422/6/5 433/6/5
f 435/6/5 431/6/5 430/6/5
f 436/7/5 432/7/5 431/7/5
f 436/6/5 431/6/5 435/6/5
f 437/6/5 433/6/5 432/6/5
f 437/7/5 432/7/5 436/7/5
f 438/6/5 433/6/5 437/6/5
f 439/7/5 436/7/5 435/7/5
f 439/7/5 437/7/5 436/7/5
f 439/7/5 438/7/5 437/7/5
f 440/7/5 438/7/5 439/7/5
f 442/6/5 435/6/5 430/6/5
f 443/6/5 433/6/5 438/6/5
f 445/6/5 442/6/5 441/6/5
f 446/7/5 439/7/5 435/7/5
f 446/6/5 442/6/5 445/6/5
f 446/6/5 435/6/5 442/6/5
f 447/6/5 440/6/5 439/6/5
f 447/7/5 439/7/5 446/7/5
f 448/7/5 438/7/5 440/7/5
f 448/6/5 440/6/5 447/6/5
f 449/6/5 444/6/5 443/6/5
f 449/7/5 438/7/5 448/7/5
f 449/6/5 443/6/5 438/6/5
f 450/6/5 444/6/5 449/6/5
f 455/3/5 452/3/5 451/3/5
f 456/3/5 452/3/5 455/3/5
f 457/3/5 454/3/5 453/3/5
f 458/3/5 454/3/5 457/3/5
f 464/2/5 460/2/5 459/2/5
f 465/5/5 461/5/5 460/5/5
f 465/2/5 460/2/5 464/2/5
f 466/2/5 462/2/5 461/2/5
f 466/5/5 461/5/5 465/5/5
f 467/2/5 462/2/5 466/2/5
f 469/2/5 464/2/5 463/2/5
f 470/2/5 464/2/5 469/2/5
f 471/2/5 468/2/5 467/2/5
f 472/2/5 468/2/5 471/2/5
f 477/2/5 474/2/5 473/2/5
f 478/2/5 474/2/5 477/2/5
f 481/2/5 476/2/5 475/2/5
f 482/2/5 476/2/5 481/2/5
f 483/2/5 479/2/5 478/2/5
f 484/5/5 480/5/5 479/5/5
f 484/2/5 479/2/5 483/2/5
f 485/2/5 481/2/5 480/2/5
f 485/5/5 480/5/5 484/5/5
f 486/2/5 481/2/5 485/2/5
f 487/7/6 488/7/6 491/7/6
f 491/7/6 488/7/6 492/7/6
f 489/7/6 490/7/6 493/7/6
f 493/7/6 490/7/6 494/7/6
f 495/7/6 496/7/6 499/7/6
f 499/7/6 496/7/6 500/7/6
f 497/7/6 498/7/6 501/7/6
f 501/7/6 498/7/6 502/7/6
f 503/2/6 504/2/6 505/2/6
f 505/2/6 504/2/6 506/2/6
f 503/2/6 505/2/6 507/2/6
f 507/2/6 505/2/6 508/2/6
f 506/2/6 504/2/6 509/2/6
f 509/2/6 504/2/6 510/2/6
f 508/2/6 505/2/6 511/2/6
f 505/5/6 506/5/6 512/5/6
f 511/2/6 505/2/6 512/2/6
f 506/2/6 509/2/6 513/2/6
f 512/5/6 506/5/6 513/5/6
f 513/2/6 509/2/6 514/2/6
f 515/2/6 516/2/6 519/2/6
f 519/2/6 516/2/6 520/2/6
f 517/2/6 518/2/6 521/2/6
f 521/2/6 518/2/6 522/2/6
f 523/2/6 524/2/6 528/2/6
f 524/5/6 525/5/6 529/5/6
f 528/2/6 524/2/6 529/2/6
f 525/2/6 526/2/6 530/2/6
f 529/5/6 525/5/6 530/5/6
f 530/2/6 526/2/6 531/2/6
f 528/2/6 529/2/6 533/2/6
f 531/2/6 532/2/6 533/2/6
f 530/2/6 531/2/6 533/2/6
f 529/2/6 530/2/6 533/2/6
f 527/2/6 528/2/6 533/2/6
f 533/2/6 532/2/6 534/2/6
f 535/3/6 536/3/6 541/3/6
f 536/3/6 537/3/6 541/3/6
f 541/3/6 537/3/6 542/3/6
f 539/3/6 540/3/6 543/3/6
f 538/3/6 539/3/6 543/3/6
f 543/3/6 540/3/6 544/3/6
f 545/3/6 546/3/6 549/3/6
f 549/3/6 546/3/6 550/3/6
f 547/3/6 548/3/6 551/3/6
f 551/3/6 548/3/6 552/3/6
f 553/2/6 554/2/6 557/2/6
f 557/2/6 554/2/6 558/2/6
f 555/2/6 556/2/6 559/2/6
f 559/2/6 556/2/6 560/2/6
f 561/2/6 562/2/6 565/2/6
f 562/5/6 563/5/6 566/5/6
f 565/2/6 562/2/6 566/2/6
f 563/2/6 564/2/6 567/2/6
f 566/5/6 563/5/6 567/5/6
f 567/2/6 564/2/6 568/2/6
