# MagicaVoxel @ Ephtracy

# group
o 

# material
mtllib Bench.mtl
usemtl palette

# normals
vn -1 0 0
vn 1 0 0
vn 0 0 1
vn 0 0 -1
vn 0 -1 0
vn 0 1 0

# texcoords
vt 0.0917969 0.5
vt 0.255859 0.5
vt 0.994141 0.5

# verts
v -2 1.4 0
v -2 1.4 -0.1
v -2 2.1 0
v -2 2.1 -0.1
v -2 2.5 0
v -2 2.5 -0.1
v -2 3.8 0
v -2 3.8 -0.1
v -1.8 1 0
v -1.8 1 -0.1
v -1.8 1.4 0
v -1.8 1.4 -0.1
v -1.8 2.1 0
v -1.8 2.1 -0.1
v -1.8 2.5 0
v -1.8 2.5 -0.1
v 1.6 1 0
v 1.6 1 -0.1
v 1.6 1.4 0
v 1.6 1.4 -0.1
v 1.6 2.1 0
v 1.6 2.1 -0.1
v 1.6 2.5 0
v 1.6 2.5 -0.1
v -1.6 1 0
v -1.6 1 -0.1
v -1.6 1.4 0
v -1.6 1.4 -0.1
v -1.6 2.1 0
v -1.6 2.1 -0.1
v -1.6 2.5 0
v -1.6 2.5 -0.1
v 1.8 1 0
v 1.8 1 -0.1
v 1.8 1.4 0
v 1.8 1.4 -0.1
v 1.8 2.1 0
v 1.8 2.1 -0.1
v 1.8 2.5 0
v 1.8 2.5 -0.1
v 2 1.4 0
v 2 1.4 -0.1
v 2 2.1 0
v 2 2.1 -0.1
v 2 2.5 0
v 2 2.5 -0.1
v 2 3.8 0
v 2 3.8 -0.1
v -2 1.4 0
v -2 2.1 0
v -2 2.5 0
v -2 3.8 0
v -1.8 1 0
v -1.8 1.4 0
v -1.8 1.6 0
v -1.8 1.9 0
v -1.8 2.1 0
v -1.8 2.5 0
v -1.8 2.7 0
v -1.8 3.6 0
v -1.6 1 0
v -1.6 1.4 0
v -1.6 2.1 0
v -1.6 2.5 0
v -1.5 2.8 0
v -1.5 3 0
v -1.5 3.2 0
v -1.5 3.4 0
v -1.3 2.8 0
v -1.3 3 0
v -1.3 3.2 0
v -1.3 3.4 0
v 1.4 2.8 0
v 1.4 3 0
v 1.4 3.2 0
v 1.4 3.4 0
v 1.6 1 0
v 1.6 1.4 0
v 1.6 2.1 0
v 1.6 2.5 0
v 1.6 2.8 0
v 1.6 3 0
v 1.6 3.2 0
v 1.6 3.4 0
v 1.8 1 0
v 1.8 1.4 0
v 1.8 1.6 0
v 1.8 1.9 0
v 1.8 2.1 0
v 1.8 2.5 0
v 1.8 2.7 0
v 1.8 3.6 0
v 2 1.4 0
v 2 2.1 0
v 2 2.5 0
v 2 3.8 0
v -2 1.4 -0.1
v -2 2.1 -0.1
v -2 2.5 -0.1
v -2 3.8 -0.1
v -1.8 1 -0.1
v -1.8 1.4 -0.1
v -1.8 1.6 -0.1
v -1.8 1.9 -0.1
v -1.8 2.1 -0.1
v -1.8 2.5 -0.1
v -1.8 2.7 -0.1
v -1.8 3.6 -0.1
v -1.6 1 -0.1
v -1.6 1.4 -0.1
v -1.6 2.1 -0.1
v -1.6 2.5 -0.1
v -1.5 2.8 -0.1
v -1.5 3 -0.1
v -1.5 3.2 -0.1
v -1.5 3.4 -0.1
v -1.3 2.8 -0.1
v -1.3 3 -0.1
v -1.3 3.2 -0.1
v -1.3 3.4 -0.1
v 1.4 2.8 -0.1
v 1.4 3 -0.1
v 1.4 3.2 -0.1
v 1.4 3.4 -0.1
v 1.6 1 -0.1
v 1.6 1.4 -0.1
v 1.6 2.1 -0.1
v 1.6 2.5 -0.1
v 1.6 2.8 -0.1
v 1.6 3 -0.1
v 1.6 3.2 -0.1
v 1.6 3.4 -0.1
v 1.8 1 -0.1
v 1.8 1.4 -0.1
v 1.8 1.6 -0.1
v 1.8 1.9 -0.1
v 1.8 2.1 -0.1
v 1.8 2.5 -0.1
v 1.8 2.7 -0.1
v 1.8 3.6 -0.1
v 2 1.4 -0.1
v 2 2.1 -0.1
v 2 2.5 -0.1
v 2 3.8 -0.1
v -1.8 1 0
v -1.6 1 0
v 1.6 1 0
v 1.8 1 0
v -1.8 1 -0.1
v -1.6 1 -0.1
v 1.6 1 -0.1
v 1.8 1 -0.1
v -2 1.4 0
v -1.8 1.4 0
v -1.6 1.4 0
v 1.6 1.4 0
v 1.8 1.4 0
v 2 1.4 0
v -2 1.4 -0.1
v -1.8 1.4 -0.1
v -1.6 1.4 -0.1
v 1.6 1.4 -0.1
v 1.8 1.4 -0.1
v 2 1.4 -0.1
v -2 2.5 0
v -1.8 2.5 0
v -1.6 2.5 0
v 1.6 2.5 0
v 1.8 2.5 0
v 2 2.5 0
v -2 2.5 -0.1
v -1.8 2.5 -0.1
v -1.6 2.5 -0.1
v 1.6 2.5 -0.1
v 1.8 2.5 -0.1
v 2 2.5 -0.1
v -2 2.1 0
v -1.8 2.1 0
v -1.6 2.1 0
v 1.6 2.1 0
v 1.8 2.1 0
v 2 2.1 0
v -2 2.1 -0.1
v -1.8 2.1 -0.1
v -1.6 2.1 -0.1
v 1.6 2.1 -0.1
v 1.8 2.1 -0.1
v 2 2.1 -0.1
v -2 3.8 0
v 2 3.8 0
v -2 3.8 -0.1
v 2 3.8 -0.1

# faces
f 3/2/1 2/2/1 1/2/1
f 4/2/1 2/2/1 3/2/1
f 7/2/1 6/2/1 5/2/1
f 8/2/1 6/2/1 7/2/1
f 11/3/1 10/3/1 9/3/1
f 12/3/1 10/3/1 11/3/1
f 15/3/1 14/3/1 13/3/1
f 16/3/1 14/3/1 15/3/1
f 19/3/1 18/3/1 17/3/1
f 20/3/1 18/3/1 19/3/1
f 23/3/1 22/3/1 21/3/1
f 24/3/1 22/3/1 23/3/1
f 25/3/2 26/3/2 27/3/2
f 27/3/2 26/3/2 28/3/2
f 29/3/2 30/3/2 31/3/2
f 31/3/2 30/3/2 32/3/2
f 33/3/2 34/3/2 35/3/2
f 35/3/2 34/3/2 36/3/2
f 37/3/2 38/3/2 39/3/2
f 39/3/2 38/3/2 40/3/2
f 41/2/2 42/2/2 43/2/2
f 43/2/2 42/2/2 44/2/2
f 45/2/2 46/2/2 47/2/2
f 47/2/2 46/2/2 48/2/2
f 54/2/3 50/2/3 49/2/3
f 55/2/3 50/2/3 54/2/3
f 56/2/3 50/2/3 55/2/3
f 57/2/3 50/2/3 56/2/3
f 58/2/3 52/2/3 51/2/3
f 59/2/3 52/2/3 58/2/3
f 60/2/3 52/2/3 59/2/3
f 61/3/3 54/3/3 53/3/3
f 62/2/3 55/2/3 54/2/3
f 62/3/3 54/3/3 61/3/3
f 63/2/3 57/2/3 56/2/3
f 63/3/3 58/3/3 57/3/3
f 64/2/3 59/2/3 58/2/3
f 64/3/3 58/3/3 63/3/3
f 65/1/3 60/1/3 59/1/3
f 66/1/3 60/1/3 65/1/3
f 67/1/3 60/1/3 66/1/3
f 68/1/3 60/1/3 67/1/3
f 69/1/3 65/1/3 59/1/3
f 69/3/3 66/3/3 65/3/3
f 70/1/3 67/1/3 66/1/3
f 70/3/3 66/3/3 69/3/3
f 71/3/3 68/3/3 67/3/3
f 71/1/3 67/1/3 70/1/3
f 72/1/3 60/1/3 68/1/3
f 72/3/3 68/3/3 71/3/3
f 73/1/3 71/1/3 70/1/3
f 73/1/3 70/1/3 69/1/3
f 73/1/3 72/1/3 71/1/3
f 73/1/3 69/1/3 59/1/3
f 74/1/3 72/1/3 73/1/3
f 75/1/3 72/1/3 74/1/3
f 76/1/3 60/1/3 72/1/3
f 76/1/3 72/1/3 75/1/3
f 78/2/3 55/2/3 62/2/3
f 79/2/3 63/2/3 56/2/3
f 80/2/3 59/2/3 64/2/3
f 81/1/3 73/1/3 59/1/3
f 81/3/3 74/3/3 73/3/3
f 82/1/3 75/1/3 74/1/3
f 82/3/3 74/3/3 81/3/3
f 83/3/3 76/3/3 75/3/3
f 83/1/3 75/1/3 82/1/3
f 84/1/3 60/1/3 76/1/3
f 84/3/3 76/3/3 83/3/3
f 85/3/3 78/3/3 77/3/3
f 86/2/3 55/2/3 78/2/3
f 86/3/3 78/3/3 85/3/3
f 87/1/3 56/1/3 55/1/3
f 87/2/3 55/2/3 86/2/3
f 88/2/3 79/2/3 56/2/3
f 88/1/3 56/1/3 87/1/3
f 89/3/3 80/3/3 79/3/3
f 89/2/3 79/2/3 88/2/3
f 90/2/3 59/2/3 80/2/3
f 90/3/3 80/3/3 89/3/3
f 91/1/3 83/1/3 82/1/3
f 91/2/3 59/2/3 90/2/3
f 91/1/3 81/1/3 59/1/3
f 91/1/3 84/1/3 83/1/3
f 91/1/3 82/1/3 81/1/3
f 92/2/3 52/2/3 60/2/3
f 92/1/3 84/1/3 91/1/3
f 92/1/3 60/1/3 84/1/3
f 93/2/3 87/2/3 86/2/3
f 93/2/3 88/2/3 87/2/3
f 93/2/3 89/2/3 88/2/3
f 94/2/3 89/2/3 93/2/3
f 95/2/3 91/2/3 90/2/3
f 95/2/3 92/2/3 91/2/3
f 96/2/3 52/2/3 92/2/3
f 96/2/3 92/2/3 95/2/3
f 97/2/4 98/2/4 102/2/4
f 102/2/4 98/2/4 103/2/4
f 103/2/4 98/2/4 104/2/4
f 104/2/4 98/2/4 105/2/4
f 99/2/4 100/2/4 106/2/4
f 106/2/4 100/2/4 107/2/4
f 107/2/4 100/2/4 108/2/4
f 101/3/4 102/3/4 109/3/4
f 102/2/4 103/2/4 110/2/4
f 109/3/4 102/3/4 110/3/4
f 104/2/4 105/2/4 111/2/4
f 105/3/4 106/3/4 111/3/4
f 106/2/4 107/2/4 112/2/4
f 111/3/4 106/3/4 112/3/4
f 107/1/4 108/1/4 113/1/4
f 113/1/4 108/1/4 114/1/4
f 114/1/4 108/1/4 115/1/4
f 115/1/4 108/1/4 116/1/4
f 107/1/4 113/1/4 117/1/4
f 113/3/4 114/3/4 117/3/4
f 114/1/4 115/1/4 118/1/4
f 117/3/4 114/3/4 118/3/4
f 115/3/4 116/3/4 119/3/4
f 118/1/4 115/1/4 119/1/4
f 116/1/4 108/1/4 120/1/4
f 119/3/4 116/3/4 120/3/4
f 118/1/4 119/1/4 121/1/4
f 117/1/4 118/1/4 121/1/4
f 119/1/4 120/1/4 121/1/4
f 107/1/4 117/1/4 121/1/4
f 121/1/4 120/1/4 122/1/4
f 122/1/4 120/1/4 123/1/4
f 120/1/4 108/1/4 124/1/4
f 123/1/4 120/1/4 124/1/4
f 110/2/4 103/2/4 126/2/4
f 104/2/4 111/2/4 127/2/4
f 112/2/4 107/2/4 128/2/4
f 107/1/4 121/1/4 129/1/4
f 121/3/4 122/3/4 129/3/4
f 122/1/4 123/1/4 130/1/4
f 129/3/4 122/3/4 130/3/4
f 123/3/4 124/3/4 131/3/4
f 130/1/4 123/1/4 131/1/4
f 124/1/4 108/1/4 132/1/4
f 131/3/4 124/3/4 132/3/4
f 125/3/4 126/3/4 133/3/4
f 126/2/4 103/2/4 134/2/4
f 133/3/4 126/3/4 134/3/4
f 103/1/4 104/1/4 135/1/4
f 134/2/4 103/2/4 135/2/4
f 104/2/4 127/2/4 136/2/4
f 135/1/4 104/1/4 136/1/4
f 127/3/4 128/3/4 137/3/4
f 136/2/4 127/2/4 137/2/4
f 128/2/4 107/2/4 138/2/4
f 137/3/4 128/3/4 138/3/4
f 130/1/4 131/1/4 139/1/4
f 138/2/4 107/2/4 139/2/4
f 107/1/4 129/1/4 139/1/4
f 131/1/4 132/1/4 139/1/4
f 129/1/4 130/1/4 139/1/4
f 108/2/4 100/2/4 140/2/4
f 139/1/4 132/1/4 140/1/4
f 132/1/4 108/1/4 140/1/4
f 134/2/4 135/2/4 141/2/4
f 135/2/4 136/2/4 141/2/4
f 136/2/4 137/2/4 141/2/4
f 141/2/4 137/2/4 142/2/4
f 138/2/4 139/2/4 143/2/4
f 139/2/4 140/2/4 143/2/4
f 140/2/4 100/2/4 144/2/4
f 143/2/4 140/2/4 144/2/4
f 149/3/5 146/3/5 145/3/5
f 150/3/5 146/3/5 149/3/5
f 151/3/5 148/3/5 147/3/5
f 152/3/5 148/3/5 151/3/5
f 159/2/5 154/2/5 153/2/5
f 160/2/5 154/2/5 159/2/5
f 161/2/5 156/2/5 155/2/5
f 162/2/5 156/2/5 161/2/5
f 163/2/5 158/2/5 157/2/5
f 164/2/5 158/2/5 163/2/5
f 171/2/5 166/2/5 165/2/5
f 172/2/5 166/2/5 171/2/5
f 173/2/5 168/2/5 167/2/5
f 174/2/5 168/2/5 173/2/5
f 175/2/5 170/2/5 169/2/5
f 176/2/5 170/2/5 175/2/5
f 177/2/6 178/2/6 183/2/6
f 183/2/6 178/2/6 184/2/6
f 179/2/6 180/2/6 185/2/6
f 185/2/6 180/2/6 186/2/6
f 181/2/6 182/2/6 187/2/6
f 187/2/6 182/2/6 188/2/6
f 189/2/6 190/2/6 191/2/6
f 191/2/6 190/2/6 192/2/6
