# MagicaVoxel @ Ephtracy

# group
o 

# material
mtllib locker.mtl
usemtl palette

# normals
vn -1 0 0
vn 1 0 0
vn 0 0 1
vn 0 0 -1
vn 0 -1 0
vn 0 1 0

# texcoords
vt 0.00195312 0.5
vt 0.966797 0.5
vt 0.974609 0.5

# verts
v -1.3 0 0.4
v -1.3 0 -0.7
v -1.3 4 0.4
v -1.3 4 -0.7
v -0.9 1 0.4
v -0.9 1 0.3
v -0.9 1.2 0.4
v -0.9 1.2 0.3
v -0.9 1.7 0.4
v -0.9 1.7 0.3
v -0.9 1.9 0.4
v -0.9 1.9 0.3
v -0.9 2.8 0.4
v -0.9 2.8 0.3
v -0.9 3 0.4
v -0.9 3 0.3
v -0.9 3.5 0.4
v -0.9 3.5 0.3
v -0.9 3.7 0.4
v -0.9 3.7 0.3
v -0.7 1.7 0.4
v -0.7 1.7 0.3
v -0.7 1.9 0.4
v -0.7 1.9 0.3
v -0.7 3.5 0.4
v -0.7 3.5 0.3
v -0.7 3.7 0.4
v -0.7 3.7 0.3
v -0.5 1.7 0.4
v -0.5 1.7 0.3
v -0.5 1.9 0.4
v -0.5 1.9 0.3
v -0.5 3.5 0.4
v -0.5 3.5 0.3
v -0.5 3.7 0.4
v -0.5 3.7 0.3
v -0.0999999 1 0.4
v -0.0999999 1 0.3
v -0.0999999 1.2 0.4
v -0.0999999 1.2 0.3
v -0.0999999 1.7 0.4
v -0.0999999 1.7 0.3
v -0.0999999 1.9 0.4
v -0.0999999 1.9 0.3
v -0.0999999 2.8 0.4
v -0.0999999 2.8 0.3
v -0.0999999 3 0.4
v -0.0999999 3 0.3
v -0.0999999 3.5 0.4
v -0.0999999 3.5 0.3
v -0.0999999 3.7 0.4
v -0.0999999 3.7 0.3
v 0.1 1.7 0.4
v 0.1 1.7 0.3
v 0.1 1.9 0.4
v 0.1 1.9 0.3
v 0.1 3.5 0.4
v 0.1 3.5 0.3
v 0.1 3.7 0.4
v 0.1 3.7 0.3
v 0.3 1.7 0.4
v 0.3 1.7 0.3
v 0.3 1.9 0.4
v 0.3 1.9 0.3
v 0.3 3.5 0.4
v 0.3 3.5 0.3
v 0.3 3.7 0.4
v 0.3 3.7 0.3
v 0.7 1 0.4
v 0.7 1 0.3
v 0.7 1.2 0.4
v 0.7 1.2 0.3
v 0.7 1.7 0.4
v 0.7 1.7 0.3
v 0.7 1.9 0.4
v 0.7 1.9 0.3
v 0.7 2.8 0.4
v 0.7 2.8 0.3
v 0.7 3 0.4
v 0.7 3 0.3
v 0.7 3.5 0.4
v 0.7 3.5 0.3
v 0.7 3.7 0.4
v 0.7 3.7 0.3
v 0.9 1.7 0.4
v 0.9 1.7 0.3
v 0.9 1.9 0.4
v 0.9 1.9 0.3
v 0.9 3.5 0.4
v 0.9 3.5 0.3
v 0.9 3.7 0.4
v 0.9 3.7 0.3
v 1.1 1.7 0.4
v 1.1 1.7 0.3
v 1.1 1.9 0.4
v 1.1 1.9 0.3
v 1.1 3.5 0.4
v 1.1 3.5 0.3
v 1.1 3.7 0.4
v 1.1 3.7 0.3
v -1 1 0.4
v -1 1 0.3
v -1 1.2 0.4
v -1 1.2 0.3
v -1 1.7 0.4
v -1 1.7 0.3
v -1 1.9 0.4
v -1 1.9 0.3
v -1 2.8 0.4
v -1 2.8 0.3
v -1 3 0.4
v -1 3 0.3
v -1 3.5 0.4
v -1 3.5 0.3
v -1 3.7 0.4
v -1 3.7 0.3
v -0.8 1.7 0.4
v -0.8 1.7 0.3
v -0.8 1.9 0.4
v -0.8 1.9 0.3
v -0.8 3.5 0.4
v -0.8 3.5 0.3
v -0.8 3.7 0.4
v -0.8 3.7 0.3
v -0.6 1.7 0.4
v -0.6 1.7 0.3
v -0.6 1.9 0.4
v -0.6 1.9 0.3
v -0.6 3.5 0.4
v -0.6 3.5 0.3
v -0.6 3.7 0.4
v -0.6 3.7 0.3
v -0.2 1 0.4
v -0.2 1 0.3
v -0.2 1.2 0.4
v -0.2 1.2 0.3
v -0.2 1.7 0.4
v -0.2 1.7 0.3
v -0.2 1.9 0.4
v -0.2 1.9 0.3
v -0.2 2.8 0.4
v -0.2 2.8 0.3
v -0.2 3 0.4
v -0.2 3 0.3
v -0.2 3.5 0.4
v -0.2 3.5 0.3
v -0.2 3.7 0.4
v -0.2 3.7 0.3
v 0 1.7 0.4
v 0 1.7 0.3
v 0 1.9 0.4
v 0 1.9 0.3
v 0 3.5 0.4
v 0 3.5 0.3
v 0 3.7 0.4
v 0 3.7 0.3
v 0.2 1.7 0.4
v 0.2 1.7 0.3
v 0.2 1.9 0.4
v 0.2 1.9 0.3
v 0.2 3.5 0.4
v 0.2 3.5 0.3
v 0.2 3.7 0.4
v 0.2 3.7 0.3
v 0.6 1 0.4
v 0.6 1 0.3
v 0.6 1.2 0.4
v 0.6 1.2 0.3
v 0.6 1.7 0.4
v 0.6 1.7 0.3
v 0.6 1.9 0.4
v 0.6 1.9 0.3
v 0.6 2.8 0.4
v 0.6 2.8 0.3
v 0.6 3 0.4
v 0.6 3 0.3
v 0.6 3.5 0.4
v 0.6 3.5 0.3
v 0.6 3.7 0.4
v 0.6 3.7 0.3
v 0.8 1.7 0.4
v 0.8 1.7 0.3
v 0.8 1.9 0.4
v 0.8 1.9 0.3
v 0.8 3.5 0.4
v 0.8 3.5 0.3
v 0.8 3.7 0.4
v 0.8 3.7 0.3
v 1 1.7 0.4
v 1 1.7 0.3
v 1 1.9 0.4
v 1 1.9 0.3
v 1 3.5 0.4
v 1 3.5 0.3
v 1 3.7 0.4
v 1 3.7 0.3
v 1.4 0 0.4
v 1.4 0 -0.7
v 1.4 4 0.4
v 1.4 4 -0.7
v -1.3 0 0.4
v -1.3 4 0.4
v -1.2 0.2 0.4
v -1.2 3.9 0.4
v -1.1 0.3 0.4
v -1.1 2 0.4
v -1.1 2.1 0.4
v -1.1 3.8 0.4
v -1 1 0.4
v -1 1.2 0.4
v -1 1.3 0.4
v -1 1.7 0.4
v -1 1.9 0.4
v -1 2.8 0.4
v -1 3 0.4
v -1 3.1 0.4
v -1 3.5 0.4
v -1 3.7 0.4
v -0.9 1 0.4
v -0.9 1.2 0.4
v -0.9 1.3 0.4
v -0.9 1.7 0.4
v -0.9 1.9 0.4
v -0.9 2.8 0.4
v -0.9 3 0.4
v -0.9 3.1 0.4
v -0.9 3.5 0.4
v -0.9 3.7 0.4
v -0.8 1.7 0.4
v -0.8 1.9 0.4
v -0.8 3.5 0.4
v -0.8 3.7 0.4
v -0.7 1.7 0.4
v -0.7 1.9 0.4
v -0.7 3.5 0.4
v -0.7 3.7 0.4
v -0.6 1.7 0.4
v -0.6 1.9 0.4
v -0.6 3.5 0.4
v -0.6 3.7 0.4
v -0.5 1.7 0.4
v -0.5 1.9 0.4
v -0.5 3.5 0.4
v -0.5 3.7 0.4
v -0.4 0.3 0.4
v -0.4 2 0.4
v -0.4 2.1 0.4
v -0.4 3.8 0.4
v -0.3 0.3 0.4
v -0.3 2 0.4
v -0.3 2.1 0.4
v -0.3 3.8 0.4
v -0.2 1 0.4
v -0.2 1.2 0.4
v -0.2 1.3 0.4
v -0.2 1.7 0.4
v -0.2 1.9 0.4
v -0.2 2.8 0.4
v -0.2 3 0.4
v -0.2 3.1 0.4
v -0.2 3.5 0.4
v -0.2 3.7 0.4
v -0.0999999 1 0.4
v -0.0999999 1.2 0.4
v -0.0999999 1.3 0.4
v -0.0999999 1.7 0.4
v -0.0999999 1.9 0.4
v -0.0999999 2.8 0.4
v -0.0999999 3 0.4
v -0.0999999 3.1 0.4
v -0.0999999 3.5 0.4
v -0.0999999 3.7 0.4
v 0 1.7 0.4
v 0 1.9 0.4
v 0 3.5 0.4
v 0 3.7 0.4
v 0.1 1.7 0.4
v 0.1 1.9 0.4
v 0.1 3.5 0.4
v 0.1 3.7 0.4
v 0.2 1.7 0.4
v 0.2 1.9 0.4
v 0.2 3.5 0.4
v 0.2 3.7 0.4
v 0.3 1.7 0.4
v 0.3 1.9 0.4
v 0.3 3.5 0.4
v 0.3 3.7 0.4
v 0.4 0.3 0.4
v 0.4 2 0.4
v 0.4 2.1 0.4
v 0.4 3.8 0.4
v 0.5 0.3 0.4
v 0.5 2 0.4
v 0.5 2.1 0.4
v 0.5 3.8 0.4
v 0.6 1 0.4
v 0.6 1.2 0.4
v 0.6 1.3 0.4
v 0.6 1.7 0.4
v 0.6 1.9 0.4
v 0.6 2.8 0.4
v 0.6 3 0.4
v 0.6 3.1 0.4
v 0.6 3.5 0.4
v 0.6 3.7 0.4
v 0.7 1 0.4
v 0.7 1.2 0.4
v 0.7 1.3 0.4
v 0.7 1.7 0.4
v 0.7 1.9 0.4
v 0.7 2.8 0.4
v 0.7 3 0.4
v 0.7 3.1 0.4
v 0.7 3.5 0.4
v 0.7 3.7 0.4
v 0.8 1.7 0.4
v 0.8 1.9 0.4
v 0.8 3.5 0.4
v 0.8 3.7 0.4
v 0.9 1.7 0.4
v 0.9 1.9 0.4
v 0.9 3.5 0.4
v 0.9 3.7 0.4
v 1 1.7 0.4
v 1 1.9 0.4
v 1 3.5 0.4
v 1 3.7 0.4
v 1.1 1.7 0.4
v 1.1 1.9 0.4
v 1.1 3.5 0.4
v 1.1 3.7 0.4
v 1.2 0.3 0.4
v 1.2 2 0.4
v 1.2 2.1 0.4
v 1.2 3.8 0.4
v 1.3 0.2 0.4
v 1.3 3.9 0.4
v 1.4 0 0.4
v 1.4 4 0.4
v -1 1 0.3
v -1 1.2 0.3
v -1 1.7 0.3
v -1 1.9 0.3
v -1 2.8 0.3
v -1 3 0.3
v -1 3.5 0.3
v -1 3.7 0.3
v -0.9 1 0.3
v -0.9 1.2 0.3
v -0.9 1.7 0.3
v -0.9 1.9 0.3
v -0.9 2.8 0.3
v -0.9 3 0.3
v -0.9 3.5 0.3
v -0.9 3.7 0.3
v -0.8 1.7 0.3
v -0.8 1.9 0.3
v -0.8 3.5 0.3
v -0.8 3.7 0.3
v -0.7 1.7 0.3
v -0.7 1.9 0.3
v -0.7 3.5 0.3
v -0.7 3.7 0.3
v -0.6 1.7 0.3
v -0.6 1.9 0.3
v -0.6 3.5 0.3
v -0.6 3.7 0.3
v -0.5 1.7 0.3
v -0.5 1.9 0.3
v -0.5 3.5 0.3
v -0.5 3.7 0.3
v -0.2 1 0.3
v -0.2 1.2 0.3
v -0.2 1.7 0.3
v -0.2 1.9 0.3
v -0.2 2.8 0.3
v -0.2 3 0.3
v -0.2 3.5 0.3
v -0.2 3.7 0.3
v -0.0999999 1 0.3
v -0.0999999 1.2 0.3
v -0.0999999 1.7 0.3
v -0.0999999 1.9 0.3
v -0.0999999 2.8 0.3
v -0.0999999 3 0.3
v -0.0999999 3.5 0.3
v -0.0999999 3.7 0.3
v 0 1.7 0.3
v 0 1.9 0.3
v 0 3.5 0.3
v 0 3.7 0.3
v 0.1 1.7 0.3
v 0.1 1.9 0.3
v 0.1 3.5 0.3
v 0.1 3.7 0.3
v 0.2 1.7 0.3
v 0.2 1.9 0.3
v 0.2 3.5 0.3
v 0.2 3.7 0.3
v 0.3 1.7 0.3
v 0.3 1.9 0.3
v 0.3 3.5 0.3
v 0.3 3.7 0.3
v 0.6 1 0.3
v 0.6 1.2 0.3
v 0.6 1.7 0.3
v 0.6 1.9 0.3
v 0.6 2.8 0.3
v 0.6 3 0.3
v 0.6 3.5 0.3
v 0.6 3.7 0.3
v 0.7 1 0.3
v 0.7 1.2 0.3
v 0.7 1.7 0.3
v 0.7 1.9 0.3
v 0.7 2.8 0.3
v 0.7 3 0.3
v 0.7 3.5 0.3
v 0.7 3.7 0.3
v 0.8 1.7 0.3
v 0.8 1.9 0.3
v 0.8 3.5 0.3
v 0.8 3.7 0.3
v 0.9 1.7 0.3
v 0.9 1.9 0.3
v 0.9 3.5 0.3
v 0.9 3.7 0.3
v 1 1.7 0.3
v 1 1.9 0.3
v 1 3.5 0.3
v 1 3.7 0.3
v 1.1 1.7 0.3
v 1.1 1.9 0.3
v 1.1 3.5 0.3
v 1.1 3.7 0.3
v -1.3 0 -0.7
v -1.3 4 -0.7
v 1.4 0 -0.7
v 1.4 4 -0.7
v -1.3 0 0.4
v 1.4 0 0.4
v -1.3 0 -0.7
v 1.4 0 -0.7
v -1 1.2 0.4
v -0.9 1.2 0.4
v -0.2 1.2 0.4
v -0.0999999 1.2 0.4
v 0.6 1.2 0.4
v 0.7 1.2 0.4
v -1 1.2 0.3
v -0.9 1.2 0.3
v -0.2 1.2 0.3
v -0.0999999 1.2 0.3
v 0.6 1.2 0.3
v 0.7 1.2 0.3
v -1 1.9 0.4
v -0.9 1.9 0.4
v -0.8 1.9 0.4
v -0.7 1.9 0.4
v -0.6 1.9 0.4
v -0.5 1.9 0.4
v -0.2 1.9 0.4
v -0.0999999 1.9 0.4
v 0 1.9 0.4
v 0.1 1.9 0.4
v 0.2 1.9 0.4
v 0.3 1.9 0.4
v 0.6 1.9 0.4
v 0.7 1.9 0.4
v 0.8 1.9 0.4
v 0.9 1.9 0.4
v 1 1.9 0.4
v 1.1 1.9 0.4
v -1 1.9 0.3
v -0.9 1.9 0.3
v -0.8 1.9 0.3
v -0.7 1.9 0.3
v -0.6 1.9 0.3
v -0.5 1.9 0.3
v -0.2 1.9 0.3
v -0.0999999 1.9 0.3
v 0 1.9 0.3
v 0.1 1.9 0.3
v 0.2 1.9 0.3
v 0.3 1.9 0.3
v 0.6 1.9 0.3
v 0.7 1.9 0.3
v 0.8 1.9 0.3
v 0.9 1.9 0.3
v 1 1.9 0.3
v 1.1 1.9 0.3
v -1 3 0.4
v -0.9 3 0.4
v -0.2 3 0.4
v -0.0999999 3 0.4
v 0.6 3 0.4
v 0.7 3 0.4
v -1 3 0.3
v -0.9 3 0.3
v -0.2 3 0.3
v -0.0999999 3 0.3
v 0.6 3 0.3
v 0.7 3 0.3
v -1 3.7 0.4
v -0.9 3.7 0.4
v -0.8 3.7 0.4
v -0.7 3.7 0.4
v -0.6 3.7 0.4
v -0.5 3.7 0.4
v -0.2 3.7 0.4
v -0.0999999 3.7 0.4
v 0 3.7 0.4
v 0.1 3.7 0.4
v 0.2 3.7 0.4
v 0.3 3.7 0.4
v 0.6 3.7 0.4
v 0.7 3.7 0.4
v 0.8 3.7 0.4
v 0.9 3.7 0.4
v 1 3.7 0.4
v 1.1 3.7 0.4
v -1 3.7 0.3
v -0.9 3.7 0.3
v -0.8 3.7 0.3
v -0.7 3.7 0.3
v -0.6 3.7 0.3
v -0.5 3.7 0.3
v -0.2 3.7 0.3
v -0.0999999 3.7 0.3
v 0 3.7 0.3
v 0.1 3.7 0.3
v 0.2 3.7 0.3
v 0.3 3.7 0.3
v 0.6 3.7 0.3
v 0.7 3.7 0.3
v 0.8 3.7 0.3
v 0.9 3.7 0.3
v 1 3.7 0.3
v 1.1 3.7 0.3
v -1 1 0.4
v -0.9 1 0.4
v -0.2 1 0.4
v -0.0999999 1 0.4
v 0.6 1 0.4
v 0.7 1 0.4
v -1 1 0.3
v -0.9 1 0.3
v -0.2 1 0.3
v -0.0999999 1 0.3
v 0.6 1 0.3
v 0.7 1 0.3
v -1 1.7 0.4
v -0.9 1.7 0.4
v -0.8 1.7 0.4
v -0.7 1.7 0.4
v -0.6 1.7 0.4
v -0.5 1.7 0.4
v -0.2 1.7 0.4
v -0.0999999 1.7 0.4
v 0 1.7 0.4
v 0.1 1.7 0.4
v 0.2 1.7 0.4
v 0.3 1.7 0.4
v 0.6 1.7 0.4
v 0.7 1.7 0.4
v 0.8 1.7 0.4
v 0.9 1.7 0.4
v 1 1.7 0.4
v 1.1 1.7 0.4
v -1 1.7 0.3
v -0.9 1.7 0.3
v -0.8 1.7 0.3
v -0.7 1.7 0.3
v -0.6 1.7 0.3
v -0.5 1.7 0.3
v -0.2 1.7 0.3
v -0.0999999 1.7 0.3
v 0 1.7 0.3
v 0.1 1.7 0.3
v 0.2 1.7 0.3
v 0.3 1.7 0.3
v 0.6 1.7 0.3
v 0.7 1.7 0.3
v 0.8 1.7 0.3
v 0.9 1.7 0.3
v 1 1.7 0.3
v 1.1 1.7 0.3
v -1 2.8 0.4
v -0.9 2.8 0.4
v -0.2 2.8 0.4
v -0.0999999 2.8 0.4
v 0.6 2.8 0.4
v 0.7 2.8 0.4
v -1 2.8 0.3
v -0.9 2.8 0.3
v -0.2 2.8 0.3
v -0.0999999 2.8 0.3
v 0.6 2.8 0.3
v 0.7 2.8 0.3
v -1 3.5 0.4
v -0.9 3.5 0.4
v -0.8 3.5 0.4
v -0.7 3.5 0.4
v -0.6 3.5 0.4
v -0.5 3.5 0.4
v -0.2 3.5 0.4
v -0.0999999 3.5 0.4
v 0 3.5 0.4
v 0.1 3.5 0.4
v 0.2 3.5 0.4
v 0.3 3.5 0.4
v 0.6 3.5 0.4
v 0.7 3.5 0.4
v 0.8 3.5 0.4
v 0.9 3.5 0.4
v 1 3.5 0.4
v 1.1 3.5 0.4
v -1 3.5 0.3
v -0.9 3.5 0.3
v -0.8 3.5 0.3
v -0.7 3.5 0.3
v -0.6 3.5 0.3
v -0.5 3.5 0.3
v -0.2 3.5 0.3
v -0.0999999 3.5 0.3
v 0 3.5 0.3
v 0.1 3.5 0.3
v 0.2 3.5 0.3
v 0.3 3.5 0.3
v 0.6 3.5 0.3
v 0.7 3.5 0.3
v 0.8 3.5 0.3
v 0.9 3.5 0.3
v 1 3.5 0.3
v 1.1 3.5 0.3
v -1.3 4 0.4
v 1.4 4 0.4
v -1.3 4 -0.7
v 1.4 4 -0.7

# faces
f 3/1/1 2/1/1 1/1/1
f 4/1/1 2/1/1 3/1/1
f 7/1/1 6/1/1 5/1/1
f 8/1/1 6/1/1 7/1/1
f 11/1/1 10/1/1 9/1/1
f 12/1/1 10/1/1 11/1/1
f 15/1/1 14/1/1 13/1/1
f 16/1/1 14/1/1 15/1/1
f 19/1/1 18/1/1 17/1/1
f 20/1/1 18/1/1 19/1/1
f 23/1/1 22/1/1 21/1/1
f 24/1/1 22/1/1 23/1/1
f 27/1/1 26/1/1 25/1/1
f 28/1/1 26/1/1 27/1/1
f 31/1/1 30/1/1 29/1/1
f 32/1/1 30/1/1 31/1/1
f 35/1/1 34/1/1 33/1/1
f 36/1/1 34/1/1 35/1/1
f 39/1/1 38/1/1 37/1/1
f 40/1/1 38/1/1 39/1/1
f 43/1/1 42/1/1 41/1/1
f 44/1/1 42/1/1 43/1/1
f 47/1/1 46/1/1 45/1/1
f 48/1/1 46/1/1 47/1/1
f 51/1/1 50/1/1 49/1/1
f 52/1/1 50/1/1 51/1/1
f 55/1/1 54/1/1 53/1/1
f 56/1/1 54/1/1 55/1/1
f 59/1/1 58/1/1 57/1/1
f 60/1/1 58/1/1 59/1/1
f 63/1/1 62/1/1 61/1/1
f 64/1/1 62/1/1 63/1/1
f 67/1/1 66/1/1 65/1/1
f 68/1/1 66/1/1 67/1/1
f 71/1/1 70/1/1 69/1/1
f 72/1/1 70/1/1 71/1/1
f 75/1/1 74/1/1 73/1/1
f 76/1/1 74/1/1 75/1/1
f 79/1/1 78/1/1 77/1/1
f 80/1/1 78/1/1 79/1/1
f 83/1/1 82/1/1 81/1/1
f 84/1/1 82/1/1 83/1/1
f 87/1/1 86/1/1 85/1/1
f 88/1/1 86/1/1 87/1/1
f 91/1/1 90/1/1 89/1/1
f 92/1/1 90/1/1 91/1/1
f 95/1/1 94/1/1 93/1/1
f 96/1/1 94/1/1 95/1/1
f 99/1/1 98/1/1 97/1/1
f 100/1/1 98/1/1 99/1/1
f 101/1/2 102/1/2 103/1/2
f 103/1/2 102/1/2 104/1/2
f 105/1/2 106/1/2 107/1/2
f 107/1/2 106/1/2 108/1/2
f 109/1/2 110/1/2 111/1/2
f 111/1/2 110/1/2 112/1/2
f 113/1/2 114/1/2 115/1/2
f 115/1/2 114/1/2 116/1/2
f 117/1/2 118/1/2 119/1/2
f 119/1/2 118/1/2 120/1/2
f 121/1/2 122/1/2 123/1/2
f 123/1/2 122/1/2 124/1/2
f 125/1/2 126/1/2 127/1/2
f 127/1/2 126/1/2 128/1/2
f 129/1/2 130/1/2 131/1/2
f 131/1/2 130/1/2 132/1/2
f 133/1/2 134/1/2 135/1/2
f 135/1/2 134/1/2 136/1/2
f 137/1/2 138/1/2 139/1/2
f 139/1/2 138/1/2 140/1/2
f 141/1/2 142/1/2 143/1/2
f 143/1/2 142/1/2 144/1/2
f 145/1/2 146/1/2 147/1/2
f 147/1/2 146/1/2 148/1/2
f 149/1/2 150/1/2 151/1/2
f 151/1/2 150/1/2 152/1/2
f 153/1/2 154/1/2 155/1/2
f 155/1/2 154/1/2 156/1/2
f 157/1/2 158/1/2 159/1/2
f 159/1/2 158/1/2 160/1/2
f 161/1/2 162/1/2 163/1/2
f 163/1/2 162/1/2 164/1/2
f 165/1/2 166/1/2 167/1/2
f 167/1/2 166/1/2 168/1/2
f 169/1/2 170/1/2 171/1/2
f 171/1/2 170/1/2 172/1/2
f 173/1/2 174/1/2 175/1/2
f 175/1/2 174/1/2 176/1/2
f 177/1/2 178/1/2 179/1/2
f 179/1/2 178/1/2 180/1/2
f 181/1/2 182/1/2 183/1/2
f 183/1/2 182/1/2 184/1/2
f 185/1/2 186/1/2 187/1/2
f 187/1/2 186/1/2 188/1/2
f 189/1/2 190/1/2 191/1/2
f 191/1/2 190/1/2 192/1/2
f 193/1/2 194/1/2 195/1/2
f 195/1/2 194/1/2 196/1/2
f 197/1/2 198/1/2 199/1/2
f 199/1/2 198/1/2 200/1/2
f 203/1/3 202/1/3 201/1/3
f 204/1/3 202/1/3 203/1/3
f 205/2/3 204/2/3 203/2/3
f 206/2/3 204/2/3 205/2/3
f 207/2/3 204/2/3 206/2/3
f 208/2/3 204/2/3 207/2/3
f 209/1/3 206/1/3 205/1/3
f 210/1/3 206/1/3 209/1/3
f 211/1/3 206/1/3 210/1/3
f 212/1/3 206/1/3 211/1/3
f 213/1/3 206/1/3 212/1/3
f 214/1/3 208/1/3 207/1/3
f 215/1/3 208/1/3 214/1/3
f 216/1/3 208/1/3 215/1/3
f 217/1/3 208/1/3 216/1/3
f 218/1/3 208/1/3 217/1/3
f 219/1/3 209/1/3 205/1/3
f 220/2/3 211/2/3 210/2/3
f 221/1/3 212/1/3 211/1/3
f 221/2/3 211/2/3 220/2/3
f 222/1/3 212/1/3 221/1/3
f 223/1/3 206/1/3 213/1/3
f 224/1/3 214/1/3 207/1/3
f 225/2/3 216/2/3 215/2/3
f 226/1/3 217/1/3 216/1/3
f 226/2/3 216/2/3 225/2/3
f 227/1/3 217/1/3 226/1/3
f 228/1/3 208/1/3 218/1/3
f 229/1/3 222/1/3 221/1/3
f 229/1/3 220/1/3 219/1/3
f 229/1/3 223/1/3 222/1/3
f 229/1/3 221/1/3 220/1/3
f 230/1/3 206/1/3 223/1/3
f 230/1/3 223/1/3 229/1/3
f 231/1/3 228/1/3 227/1/3
f 231/1/3 227/1/3 226/1/3
f 231/1/3 225/1/3 224/1/3
f 231/1/3 226/1/3 225/1/3
f 232/1/3 208/1/3 228/1/3
f 232/1/3 228/1/3 231/1/3
f 233/1/3 229/1/3 219/1/3
f 234/1/3 206/1/3 230/1/3
f 235/1/3 231/1/3 224/1/3
f 236/1/3 208/1/3 232/1/3
f 237/1/3 233/1/3 219/1/3
f 237/1/3 234/1/3 233/1/3
f 238/1/3 206/1/3 234/1/3
f 238/1/3 234/1/3 237/1/3
f 239/1/3 236/1/3 235/1/3
f 239/1/3 235/1/3 224/1/3
f 240/1/3 208/1/3 236/1/3
f 240/1/3 236/1/3 239/1/3
f 241/1/3 237/1/3 219/1/3
f 242/1/3 206/1/3 238/1/3
f 243/1/3 239/1/3 224/1/3
f 244/1/3 208/1/3 240/1/3
f 245/2/3 205/2/3 203/2/3
f 245/1/3 241/1/3 219/1/3
f 245/1/3 219/1/3 205/1/3
f 245/1/3 242/1/3 241/1/3
f 246/2/3 207/2/3 206/2/3
f 246/1/3 242/1/3 245/1/3
f 246/1/3 206/1/3 242/1/3
f 247/1/3 244/1/3 243/1/3
f 247/2/3 207/2/3 246/2/3
f 247/1/3 243/1/3 224/1/3
f 247/1/3 224/1/3 207/1/3
f 248/2/3 204/2/3 208/2/3
f 248/1/3 244/1/3 247/1/3
f 248/1/3 208/1/3 244/1/3
f 249/2/3 246/2/3 245/2/3
f 249/2/3 247/2/3 246/2/3
f 249/2/3 248/2/3 247/2/3
f 249/2/3 245/2/3 203/2/3
f 250/2/3 248/2/3 249/2/3
f 251/2/3 248/2/3 250/2/3
f 252/2/3 204/2/3 248/2/3
f 252/2/3 248/2/3 251/2/3
f 253/1/3 250/1/3 249/1/3
f 254/1/3 250/1/3 253/1/3
f 255/1/3 250/1/3 254/1/3
f 256/1/3 250/1/3 255/1/3
f 257/1/3 250/1/3 256/1/3
f 258/1/3 252/1/3 251/1/3
f 259/1/3 252/1/3 258/1/3
f 260/1/3 252/1/3 259/1/3
f 261/1/3 252/1/3 260/1/3
f 262/1/3 252/1/3 261/1/3
f 263/1/3 253/1/3 249/1/3
f 264/2/3 255/2/3 254/2/3
f 265/1/3 256/1/3 255/1/3
f 265/2/3 255/2/3 264/2/3
f 266/1/3 256/1/3 265/1/3
f 267/1/3 250/1/3 257/1/3
f 268/1/3 258/1/3 251/1/3
f 269/2/3 260/2/3 259/2/3
f 270/1/3 261/1/3 260/1/3
f 270/2/3 260/2/3 269/2/3
f 271/1/3 261/1/3 270/1/3
f 272/1/3 252/1/3 262/1/3
f 273/1/3 266/1/3 265/1/3
f 273/1/3 264/1/3 263/1/3
f 273/1/3 267/1/3 266/1/3
f 273/1/3 265/1/3 264/1/3
f 274/1/3 250/1/3 267/1/3
f 274/1/3 267/1/3 273/1/3
f 275/1/3 272/1/3 271/1/3
f 275/1/3 271/1/3 270/1/3
f 275/1/3 269/1/3 268/1/3
f 275/1/3 270/1/3 269/1/3
f 276/1/3 252/1/3 272/1/3
f 276/1/3 272/1/3 275/1/3
f 277/1/3 273/1/3 263/1/3
f 278/1/3 250/1/3 274/1/3
f 279/1/3 275/1/3 268/1/3
f 280/1/3 252/1/3 276/1/3
f 281/1/3 277/1/3 263/1/3
f 281/1/3 278/1/3 277/1/3
f 282/1/3 250/1/3 278/1/3
f 282/1/3 278/1/3 281/1/3
f 283/1/3 280/1/3 279/1/3
f 283/1/3 279/1/3 268/1/3
f 284/1/3 252/1/3 280/1/3
f 284/1/3 280/1/3 283/1/3
f 285/1/3 281/1/3 263/1/3
f 286/1/3 250/1/3 282/1/3
f 287/1/3 283/1/3 268/1/3
f 288/1/3 252/1/3 284/1/3
f 289/2/3 249/2/3 203/2/3
f 289/1/3 285/1/3 263/1/3
f 289/1/3 263/1/3 249/1/3
f 289/1/3 286/1/3 285/1/3
f 290/2/3 251/2/3 250/2/3
f 290/1/3 286/1/3 289/1/3
f 290/1/3 250/1/3 286/1/3
f 291/1/3 288/1/3 287/1/3
f 291/2/3 251/2/3 290/2/3
f 291/1/3 287/1/3 268/1/3
f 291/1/3 268/1/3 251/1/3
f 292/2/3 204/2/3 252/2/3
f 292/1/3 288/1/3 291/1/3
f 292/1/3 252/1/3 288/1/3
f 293/2/3 289/2/3 203/2/3
f 293/2/3 290/2/3 289/2/3
f 293/2/3 292/2/3 291/2/3
f 293/2/3 291/2/3 290/2/3
f 294/2/3 292/2/3 293/2/3
f 295/2/3 292/2/3 294/2/3
f 296/2/3 204/2/3 292/2/3
f 296/2/3 292/2/3 295/2/3
f 297/1/3 294/1/3 293/1/3
f 298/1/3 294/1/3 297/1/3
f 299/1/3 294/1/3 298/1/3
f 300/1/3 294/1/3 299/1/3
f 301/1/3 294/1/3 300/1/3
f 302/1/3 296/1/3 295/1/3
f 303/1/3 296/1/3 302/1/3
f 304/1/3 296/1/3 303/1/3
f 305/1/3 296/1/3 304/1/3
f 306/1/3 296/1/3 305/1/3
f 307/1/3 297/1/3 293/1/3
f 308/2/3 299/2/3 298/2/3
f 309/1/3 300/1/3 299/1/3
f 309/2/3 299/2/3 308/2/3
f 310/1/3 300/1/3 309/1/3
f 311/1/3 294/1/3 301/1/3
f 312/1/3 302/1/3 295/1/3
f 313/2/3 304/2/3 303/2/3
f 314/1/3 305/1/3 304/1/3
f 314/2/3 304/2/3 313/2/3
f 315/1/3 305/1/3 314/1/3
f 316/1/3 296/1/3 306/1/3
f 317/1/3 310/1/3 309/1/3
f 317/1/3 308/1/3 307/1/3
f 317/1/3 311/1/3 310/1/3
f 317/1/3 309/1/3 308/1/3
f 318/1/3 294/1/3 311/1/3
f 318/1/3 311/1/3 317/1/3
f 319/1/3 316/1/3 315/1/3
f 319/1/3 315/1/3 314/1/3
f 319/1/3 313/1/3 312/1/3
f 319/1/3 314/1/3 313/1/3
f 320/1/3 296/1/3 316/1/3
f 320/1/3 316/1/3 319/1/3
f 321/1/3 317/1/3 307/1/3
f 322/1/3 294/1/3 318/1/3
f 323/1/3 319/1/3 312/1/3
f 324/1/3 296/1/3 320/1/3
f 325/1/3 321/1/3 307/1/3
f 325/1/3 322/1/3 321/1/3
f 326/1/3 294/1/3 322/1/3
f 326/1/3 322/1/3 325/1/3
f 327/1/3 324/1/3 323/1/3
f 327/1/3 323/1/3 312/1/3
f 328/1/3 296/1/3 324/1/3
f 328/1/3 324/1/3 327/1/3
f 329/1/3 325/1/3 307/1/3
f 330/1/3 294/1/3 326/1/3
f 331/1/3 327/1/3 312/1/3
f 332/1/3 296/1/3 328/1/3
f 333/2/3 293/2/3 203/2/3
f 333/1/3 329/1/3 307/1/3
f 333/1/3 307/1/3 293/1/3
f 333/1/3 330/1/3 329/1/3
f 334/2/3 295/2/3 294/2/3
f 334/1/3 330/1/3 333/1/3
f 334/1/3 294/1/3 330/1/3
f 335/1/3 332/1/3 331/1/3
f 335/2/3 295/2/3 334/2/3
f 335/1/3 331/1/3 312/1/3
f 335/1/3 312/1/3 295/1/3
f 336/2/3 204/2/3 296/2/3
f 336/1/3 332/1/3 335/1/3
f 336/1/3 296/1/3 332/1/3
f 337/1/3 203/1/3 201/1/3
f 337/2/3 333/2/3 203/2/3
f 337/2/3 336/2/3 335/2/3
f 337/2/3 334/2/3 333/2/3
f 337/2/3 335/2/3 334/2/3
f 338/2/3 204/2/3 336/2/3
f 338/2/3 336/2/3 337/2/3
f 338/1/3 202/1/3 204/1/3
f 339/1/3 337/1/3 201/1/3
f 339/1/3 338/1/3 337/1/3
f 340/1/3 202/1/3 338/1/3
f 340/1/3 338/1/3 339/1/3
f 349/3/3 342/3/3 341/3/3
f 350/3/3 342/3/3 349/3/3
f 351/3/3 344/3/3 343/3/3
f 352/3/3 344/3/3 351/3/3
f 353/3/3 346/3/3 345/3/3
f 354/3/3 346/3/3 353/3/3
f 355/3/3 348/3/3 347/3/3
f 356/3/3 348/3/3 355/3/3
f 361/3/3 358/3/3 357/3/3
f 362/3/3 358/3/3 361/3/3
f 363/3/3 360/3/3 359/3/3
f 364/3/3 360/3/3 363/3/3
f 369/3/3 366/3/3 365/3/3
f 370/3/3 366/3/3 369/3/3
f 371/3/3 368/3/3 367/3/3
f 372/3/3 368/3/3 371/3/3
f 381/3/3 374/3/3 373/3/3
f 382/3/3 374/3/3 381/3/3
f 383/3/3 376/3/3 375/3/3
f 384/3/3 376/3/3 383/3/3
f 385/3/3 378/3/3 377/3/3
f 386/3/3 378/3/3 385/3/3
f 387/3/3 380/3/3 379/3/3
f 388/3/3 380/3/3 387/3/3
f 393/3/3 390/3/3 389/3/3
f 394/3/3 390/3/3 393/3/3
f 395/3/3 392/3/3 391/3/3
f 396/3/3 392/3/3 395/3/3
f 401/3/3 398/3/3 397/3/3
f 402/3/3 398/3/3 401/3/3
f 403/3/3 400/3/3 399/3/3
f 404/3/3 400/3/3 403/3/3
f 413/3/3 406/3/3 405/3/3
f 414/3/3 406/3/3 413/3/3
f 415/3/3 408/3/3 407/3/3
f 416/3/3 408/3/3 415/3/3
f 417/3/3 410/3/3 409/3/3
f 418/3/3 410/3/3 417/3/3
f 419/3/3 412/3/3 411/3/3
f 420/3/3 412/3/3 419/3/3
f 425/3/3 422/3/3 421/3/3
f 426/3/3 422/3/3 425/3/3
f 427/3/3 424/3/3 423/3/3
f 428/3/3 424/3/3 427/3/3
f 433/3/3 430/3/3 429/3/3
f 434/3/3 430/3/3 433/3/3
f 435/3/3 432/3/3 431/3/3
f 436/3/3 432/3/3 435/3/3
f 437/1/4 438/1/4 439/1/4
f 439/1/4 438/1/4 440/1/4
f 443/1/5 442/1/5 441/1/5
f 444/1/5 442/1/5 443/1/5
f 451/2/5 446/2/5 445/2/5
f 452/2/5 446/2/5 451/2/5
f 453/2/5 448/2/5 447/2/5
f 454/2/5 448/2/5 453/2/5
f 455/2/5 450/2/5 449/2/5
f 456/2/5 450/2/5 455/2/5
f 475/1/5 458/1/5 457/1/5
f 476/1/5 458/1/5 475/1/5
f 477/1/5 460/1/5 459/1/5
f 478/1/5 460/1/5 477/1/5
f 479/1/5 462/1/5 461/1/5
f 480/1/5 462/1/5 479/1/5
f 481/1/5 464/1/5 463/1/5
f 482/1/5 464/1/5 481/1/5
f 483/1/5 466/1/5 465/1/5
f 484/1/5 466/1/5 483/1/5
f 485/1/5 468/1/5 467/1/5
f 486/1/5 468/1/5 485/1/5
f 487/1/5 470/1/5 469/1/5
f 488/1/5 470/1/5 487/1/5
f 489/1/5 472/1/5 471/1/5
f 490/1/5 472/1/5 489/1/5
f 491/1/5 474/1/5 473/1/5
f 492/1/5 474/1/5 491/1/5
f 499/2/5 494/2/5 493/2/5
f 500/2/5 494/2/5 499/2/5
f 501/2/5 496/2/5 495/2/5
f 502/2/5 496/2/5 501/2/5
f 503/2/5 498/2/5 497/2/5
f 504/2/5 498/2/5 503/2/5
f 523/1/5 506/1/5 505/1/5
f 524/1/5 506/1/5 523/1/5
f 525/1/5 508/1/5 507/1/5
f 526/1/5 508/1/5 525/1/5
f 527/1/5 510/1/5 509/1/5
f 528/1/5 510/1/5 527/1/5
f 529/1/5 512/1/5 511/1/5
f 530/1/5 512/1/5 529/1/5
f 531/1/5 514/1/5 513/1/5
f 532/1/5 514/1/5 531/1/5
f 533/1/5 516/1/5 515/1/5
f 534/1/5 516/1/5 533/1/5
f 535/1/5 518/1/5 517/1/5
f 536/1/5 518/1/5 535/1/5
f 537/1/5 520/1/5 519/1/5
f 538/1/5 520/1/5 537/1/5
f 539/1/5 522/1/5 521/1/5
f 540/1/5 522/1/5 539/1/5
f 541/1/6 542/1/6 547/1/6
f 547/1/6 542/1/6 548/1/6
f 543/1/6 544/1/6 549/1/6
f 549/1/6 544/1/6 550/1/6
f 545/1/6 546/1/6 551/1/6
f 551/1/6 546/1/6 552/1/6
f 553/1/6 554/1/6 571/1/6
f 571/1/6 554/1/6 572/1/6
f 555/1/6 556/1/6 573/1/6
f 573/1/6 556/1/6 574/1/6
f 557/1/6 558/1/6 575/1/6
f 575/1/6 558/1/6 576/1/6
f 559/1/6 560/1/6 577/1/6
f 577/1/6 560/1/6 578/1/6
f 561/1/6 562/1/6 579/1/6
f 579/1/6 562/1/6 580/1/6
f 563/1/6 564/1/6 581/1/6
f 581/1/6 564/1/6 582/1/6
f 565/1/6 566/1/6 583/1/6
f 583/1/6 566/1/6 584/1/6
f 567/1/6 568/1/6 585/1/6
f 585/1/6 568/1/6 586/1/6
f 569/1/6 570/1/6 587/1/6
f 587/1/6 570/1/6 588/1/6
f 589/1/6 590/1/6 595/1/6
f 595/1/6 590/1/6 596/1/6
f 591/1/6 592/1/6 597/1/6
f 597/1/6 592/1/6 598/1/6
f 593/1/6 594/1/6 599/1/6
f 599/1/6 594/1/6 600/1/6
f 601/1/6 602/1/6 619/1/6
f 619/1/6 602/1/6 620/1/6
f 603/1/6 604/1/6 621/1/6
f 621/1/6 604/1/6 622/1/6
f 605/1/6 606/1/6 623/1/6
f 623/1/6 606/1/6 624/1/6
f 607/1/6 608/1/6 625/1/6
f 625/1/6 608/1/6 626/1/6
f 609/1/6 610/1/6 627/1/6
f 627/1/6 610/1/6 628/1/6
f 611/1/6 612/1/6 629/1/6
f 629/1/6 612/1/6 630/1/6
f 613/1/6 614/1/6 631/1/6
f 631/1/6 614/1/6 632/1/6
f 615/1/6 616/1/6 633/1/6
f 633/1/6 616/1/6 634/1/6
f 617/1/6 618/1/6 635/1/6
f 635/1/6 618/1/6 636/1/6
f 637/1/6 638/1/6 639/1/6
f 639/1/6 638/1/6 640/1/6
