# MagicaVoxel @ Ephtracy

# group
o 

# material
mtllib FireHydrant.mtl
usemtl palette

# normals
vn -1 0 0
vn 1 0 0
vn 0 0 1
vn 0 0 -1
vn 0 -1 0
vn 0 1 0

# texcoords
vt 0.841797 0.5
vt 0.958984 0.5
vt 0.966797 0.5
vt 0.970703 0.5
vt 0.974609 0.5
vt 0.994141 0.5

# verts
v -1.4 0 0.4
v -1.4 0 -0.6
v -1.4 0.1 0.3
v -1.4 0.1 -0.5
v -1.4 2.7 0.3
v -1.4 2.7 -0.5
v -1.4 2.8 0.3
v -1.4 2.8 -0.5
v -1.4 3.9 0.3
v -1.4 3.9 -0.5
v -1.4 4 0.4
v -1.4 4 -0.6
v -1 1.3 0.4
v -1 1.3 0.3
v -1 1.6 0.4
v -1 1.6 0.3
v -0.2 3 0.5
v -0.2 3 0.4
v -0.2 3.3 0.5
v -0.2 3.3 0.4
v -0.1 2.9 0.5
v -0.1 2.9 0.4
v -0.1 3 0.5
v -0.1 3 0.4
v -0.1 3.3 0.5
v -0.1 3.3 0.4
v -0.1 3.4 0.5
v -0.1 3.4 0.4
v 0 3.6 0.5
v 0 3.6 0.4
v 0 3.7 0.5
v 0 3.7 0.4
v -1.1 1.3 0.4
v -1.1 1.3 0.3
v -1.1 1.6 0.4
v -1.1 1.6 0.3
v 0.1 3.6 0.5
v 0.1 3.6 0.4
v 0.1 3.7 0.5
v 0.1 3.7 0.4
v 0.2 2.9 0.5
v 0.2 2.9 0.4
v 0.2 3 0.5
v 0.2 3 0.4
v 0.2 3.3 0.5
v 0.2 3.3 0.4
v 0.2 3.4 0.5
v 0.2 3.4 0.4
v 0.3 3 0.5
v 0.3 3 0.4
v 0.3 3.3 0.5
v 0.3 3.3 0.4
v 1.5 0 0.4
v 1.5 0 -0.6
v 1.5 0.1 0.3
v 1.5 0.1 -0.5
v 1.5 2.7 0.3
v 1.5 2.7 -0.5
v 1.5 2.8 0.3
v 1.5 2.8 -0.5
v 1.5 3.9 0.3
v 1.5 3.9 -0.5
v 1.5 4 0.4
v 1.5 4 -0.6
v -0.2 3 0.5
v -0.2 3.3 0.5
v -0.1 2.9 0.5
v -0.1 3 0.5
v -0.1 3.2 0.5
v -0.1 3.3 0.5
v -0.1 3.4 0.5
v 0 3 0.5
v 0 3.1 0.5
v 0 3.6 0.5
v 0 3.7 0.5
v 0.1 3 0.5
v 0.1 3.1 0.5
v 0.1 3.6 0.5
v 0.1 3.7 0.5
v 0.2 2.9 0.5
v 0.2 3 0.5
v 0.2 3.2 0.5
v 0.2 3.3 0.5
v 0.2 3.4 0.5
v 0.3 3 0.5
v 0.3 3.3 0.5
v -1.4 0 0.4
v -1.4 4 0.4
v -1.3 0.1 0.4
v -1.3 2.7 0.4
v -1.3 2.8 0.4
v -1.3 3.9 0.4
v -1.1 1.2 0.4
v -1.1 1.3 0.4
v -1.1 1.6 0.4
v -1.1 1.7 0.4
v -1 1.3 0.4
v -1 1.6 0.4
v -1 2 0.4
v -1 2.1 0.4
v -1 2.2 0.4
v -1 2.3 0.4
v -1 2.4 0.4
v -1 2.5 0.4
v -0.9 1.2 0.4
v -0.9 1.7 0.4
v -0.9 2 0.4
v -0.9 2.1 0.4
v -0.9 2.2 0.4
v -0.9 2.3 0.4
v -0.9 2.4 0.4
v -0.9 2.5 0.4
v -0.9 2.6 0.4
v -0.9 3.2 0.4
v -0.9 3.5 0.4
v -0.8 2 0.4
v -0.8 2.5 0.4
v -0.8 2.6 0.4
v -0.7 2 0.4
v -0.7 2.1 0.4
v -0.7 2.3 0.4
v -0.7 2.4 0.4
v -0.7 2.5 0.4
v -0.7 2.6 0.4
v -0.6 2 0.4
v -0.6 2.1 0.4
v -0.6 2.3 0.4
v -0.6 2.4 0.4
v -0.6 2.5 0.4
v -0.6 2.6 0.4
v -0.6 3.2 0.4
v -0.6 3.5 0.4
v -0.5 2 0.4
v -0.5 2.5 0.4
v -0.5 2.6 0.4
v -0.4 2.5 0.4
v -0.4 2.6 0.4
v -0.2 2 0.4
v -0.2 2.1 0.4
v -0.2 2.4 0.4
v -0.2 2.5 0.4
v -0.2 3 0.4
v -0.2 3.3 0.4
v -0.1 2 0.4
v -0.1 2.1 0.4
v -0.1 2.2 0.4
v -0.1 2.4 0.4
v -0.1 2.5 0.4
v -0.1 2.9 0.4
v -0.1 3 0.4
v -0.1 3.3 0.4
v -0.1 3.4 0.4
v 0 2.1 0.4
v 0 2.2 0.4
v 0 2.6 0.4
v 0 3.6 0.4
v 0 3.7 0.4
v 0.1 2.1 0.4
v 0.1 2.2 0.4
v 0.1 2.6 0.4
v 0.1 3.6 0.4
v 0.1 3.7 0.4
v 0.2 2 0.4
v 0.2 2.1 0.4
v 0.2 2.2 0.4
v 0.2 2.4 0.4
v 0.2 2.5 0.4
v 0.2 2.9 0.4
v 0.2 3 0.4
v 0.2 3.3 0.4
v 0.2 3.4 0.4
v 0.3 2 0.4
v 0.3 2.1 0.4
v 0.3 2.4 0.4
v 0.3 2.5 0.4
v 0.3 3 0.4
v 0.3 3.3 0.4
v 0.5 2.1 0.4
v 0.5 2.3 0.4
v 0.5 2.4 0.4
v 0.5 2.5 0.4
v 0.6 2 0.4
v 0.6 2.1 0.4
v 0.6 2.3 0.4
v 0.6 2.4 0.4
v 0.6 2.5 0.4
v 0.6 2.6 0.4
v 0.7 2 0.4
v 0.7 2.1 0.4
v 0.7 2.3 0.4
v 0.7 2.4 0.4
v 0.7 2.5 0.4
v 0.7 2.6 0.4
v 0.7 3.2 0.4
v 0.7 3.5 0.4
v 0.8 2 0.4
v 0.8 2.1 0.4
v 0.8 2.2 0.4
v 0.9 2.1 0.4
v 0.9 2.2 0.4
v 0.9 2.3 0.4
v 0.9 2.4 0.4
v 0.9 2.5 0.4
v 0.9 2.6 0.4
v 1 2.1 0.4
v 1 2.2 0.4
v 1 2.3 0.4
v 1 2.4 0.4
v 1 2.5 0.4
v 1 2.6 0.4
v 1 3.2 0.4
v 1 3.5 0.4
v 1.1 2 0.4
v 1.1 2.1 0.4
v 1.1 2.2 0.4
v 1.1 2.3 0.4
v 1.1 2.4 0.4
v 1.1 2.5 0.4
v 1.4 0.1 0.4
v 1.4 2.7 0.4
v 1.4 2.8 0.4
v 1.4 3.9 0.4
v 1.5 0 0.4
v 1.5 4 0.4
v -1.1 1.3 0.3
v -1.1 1.6 0.3
v -1 1.3 0.3
v -1 1.6 0.3
v -1.4 0 -0.6
v -1.4 4 -0.6
v -1.3 0.1 -0.6
v -1.3 2.7 -0.6
v -1.3 2.8 -0.6
v -1.3 3.9 -0.6
v -0.1 3.2 -0.6
v -0.1 3.3 -0.6
v 0 3 -0.6
v 0 3.1 -0.6
v 0.1 3 -0.6
v 0.1 3.1 -0.6
v 0.2 3.2 -0.6
v 0.2 3.3 -0.6
v 1.4 0.1 -0.6
v 1.4 2.7 -0.6
v 1.4 2.8 -0.6
v 1.4 3.9 -0.6
v 1.5 0 -0.6
v 1.5 4 -0.6
v -1.4 0 0.4
v 1.5 0 0.4
v -1.3 0 0.3
v 1.4 0 0.3
v -1.3 0 -0.5
v 1.4 0 -0.5
v -1.4 0 -0.6
v 1.5 0 -0.6
v -1.1 1.6 0.4
v -1 1.6 0.4
v -1.1 1.6 0.3
v -1 1.6 0.3
v -0.1 2.9 0.5
v 0.2 2.9 0.5
v -0.1 2.9 0.4
v 0.2 2.9 0.4
v -0.2 3 0.5
v -0.1 3 0.5
v 0.2 3 0.5
v 0.3 3 0.5
v -0.2 3 0.4
v -0.1 3 0.4
v 0.2 3 0.4
v 0.3 3 0.4
v 0 3.6 0.5
v 0.1 3.6 0.5
v 0 3.6 0.4
v 0.1 3.6 0.4
v -1.1 1.3 0.4
v -1 1.3 0.4
v -1.1 1.3 0.3
v -1 1.3 0.3
v -0.2 3.3 0.5
v -0.1 3.3 0.5
v 0.2 3.3 0.5
v 0.3 3.3 0.5
v -0.2 3.3 0.4
v -0.1 3.3 0.4
v 0.2 3.3 0.4
v 0.3 3.3 0.4
v -0.1 3.4 0.5
v 0.2 3.4 0.5
v -0.1 3.4 0.4
v 0.2 3.4 0.4
v 0 3.7 0.5
v 0.1 3.7 0.5
v 0 3.7 0.4
v 0.1 3.7 0.4
v -1.4 4 0.4
v 1.5 4 0.4
v -1.3 4 0.3
v 1.4 4 0.3
v -1.3 4 -0.5
v 1.4 4 -0.5
v -1.4 4 -0.6
v 1.5 4 -0.6

# faces
f 3/4/1 2/4/1 1/4/1
f 4/4/1 2/4/1 3/4/1
f 5/4/1 3/4/1 1/4/1
f 5/3/1 4/3/1 3/3/1
f 6/4/1 2/4/1 4/4/1
f 6/3/1 4/3/1 5/3/1
f 7/4/1 5/4/1 1/4/1
f 7/6/1 6/6/1 5/6/1
f 8/4/1 2/4/1 6/4/1
f 8/6/1 6/6/1 7/6/1
f 9/4/1 7/4/1 1/4/1
f 9/3/1 8/3/1 7/3/1
f 10/4/1 2/4/1 8/4/1
f 10/3/1 8/3/1 9/3/1
f 11/4/1 9/4/1 1/4/1
f 11/4/1 10/4/1 9/4/1
f 12/4/1 2/4/1 10/4/1
f 12/4/1 10/4/1 11/4/1
f 15/5/1 14/5/1 13/5/1
f 16/5/1 14/5/1 15/5/1
f 19/1/1 18/1/1 17/1/1
f 20/1/1 18/1/1 19/1/1
f 23/1/1 22/1/1 21/1/1
f 24/1/1 22/1/1 23/1/1
f 27/1/1 26/1/1 25/1/1
f 28/1/1 26/1/1 27/1/1
f 31/1/1 30/1/1 29/1/1
f 32/1/1 30/1/1 31/1/1
f 33/3/2 34/3/2 35/3/2
f 35/3/2 34/3/2 36/3/2
f 37/1/2 38/1/2 39/1/2
f 39/1/2 38/1/2 40/1/2
f 41/1/2 42/1/2 43/1/2
f 43/1/2 42/1/2 44/1/2
f 45/1/2 46/1/2 47/1/2
f 47/1/2 46/1/2 48/1/2
f 49/1/2 50/1/2 51/1/2
f 51/1/2 50/1/2 52/1/2
f 53/4/2 54/4/2 55/4/2
f 55/4/2 54/4/2 56/4/2
f 53/4/2 55/4/2 57/4/2
f 55/3/2 56/3/2 57/3/2
f 56/4/2 54/4/2 58/4/2
f 57/3/2 56/3/2 58/3/2
f 53/4/2 57/4/2 59/4/2
f 57/6/2 58/6/2 59/6/2
f 58/4/2 54/4/2 60/4/2
f 59/6/2 58/6/2 60/6/2
f 53/4/2 59/4/2 61/4/2
f 59/3/2 60/3/2 61/3/2
f 60/4/2 54/4/2 62/4/2
f 61/3/2 60/3/2 62/3/2
f 53/4/2 61/4/2 63/4/2
f 61/4/2 62/4/2 63/4/2
f 62/4/2 54/4/2 64/4/2
f 63/4/2 62/4/2 64/4/2
f 68/1/3 66/1/3 65/1/3
f 69/1/3 66/1/3 68/1/3
f 70/1/3 66/1/3 69/1/3
f 72/1/3 68/1/3 67/1/3
f 72/1/3 69/1/3 68/1/3
f 73/1/3 69/1/3 72/1/3
f 76/1/3 72/1/3 67/1/3
f 76/6/3 73/6/3 72/6/3
f 77/1/3 69/1/3 73/1/3
f 77/6/3 73/6/3 76/6/3
f 78/1/3 75/1/3 74/1/3
f 79/1/3 75/1/3 78/1/3
f 80/1/3 76/1/3 67/1/3
f 80/1/3 77/1/3 76/1/3
f 81/1/3 77/1/3 80/1/3
f 82/2/3 70/2/3 69/2/3
f 82/1/3 77/1/3 81/1/3
f 82/1/3 69/1/3 77/1/3
f 83/1/3 71/1/3 70/1/3
f 83/2/3 70/2/3 82/2/3
f 84/1/3 71/1/3 83/1/3
f 85/1/3 82/1/3 81/1/3
f 85/1/3 83/1/3 82/1/3
f 86/1/3 83/1/3 85/1/3
f 89/4/3 88/4/3 87/4/3
f 90/4/3 88/4/3 89/4/3
f 91/4/3 88/4/3 90/4/3
f 92/4/3 88/4/3 91/4/3
f 93/3/3 90/3/3 89/3/3
f 94/3/3 90/3/3 93/3/3
f 95/3/3 90/3/3 94/3/3
f 96/3/3 90/3/3 95/3/3
f 97/5/3 94/5/3 93/5/3
f 98/5/3 96/5/3 95/5/3
f 99/3/3 90/3/3 96/3/3
f 100/3/3 90/3/3 99/3/3
f 101/3/3 90/3/3 100/3/3
f 102/3/3 90/3/3 101/3/3
f 103/3/3 90/3/3 102/3/3
f 104/3/3 90/3/3 103/3/3
f 105/3/3 93/3/3 89/3/3
f 105/5/3 98/5/3 97/5/3
f 105/5/3 97/5/3 93/5/3
f 106/5/3 96/5/3 98/5/3
f 106/5/3 98/5/3 105/5/3
f 106/3/3 99/3/3 96/3/3
f 107/1/3 100/1/3 99/1/3
f 107/3/3 99/3/3 106/3/3
f 108/3/3 101/3/3 100/3/3
f 108/1/3 100/1/3 107/1/3
f 109/1/3 102/1/3 101/1/3
f 109/3/3 101/3/3 108/3/3
f 110/3/3 103/3/3 102/3/3
f 110/1/3 102/1/3 109/1/3
f 111/1/3 104/1/3 103/1/3
f 111/3/3 103/3/3 110/3/3
f 112/3/3 90/3/3 104/3/3
f 112/1/3 104/1/3 111/1/3
f 113/3/3 90/3/3 112/3/3
f 114/3/3 92/3/3 91/3/3
f 115/3/3 92/3/3 114/3/3
f 116/3/3 111/3/3 110/3/3
f 116/3/3 110/3/3 109/3/3
f 116/3/3 109/3/3 108/3/3
f 116/3/3 108/3/3 107/3/3
f 116/3/3 106/3/3 105/3/3
f 116/3/3 112/3/3 111/3/3
f 116/3/3 107/3/3 106/3/3
f 117/1/3 113/1/3 112/1/3
f 117/3/3 112/3/3 116/3/3
f 118/3/3 90/3/3 113/3/3
f 118/1/3 113/1/3 117/1/3
f 119/1/3 117/1/3 116/1/3
f 119/3/3 116/3/3 105/3/3
f 120/1/3 117/1/3 119/1/3
f 121/1/3 117/1/3 120/1/3
f 122/1/3 117/1/3 121/1/3
f 123/3/3 118/3/3 117/3/3
f 123/1/3 117/1/3 122/1/3
f 124/3/3 90/3/3 118/3/3
f 124/3/3 118/3/3 123/3/3
f 125/3/3 119/3/3 105/3/3
f 125/3/3 120/3/3 119/3/3
f 126/1/3 121/1/3 120/1/3
f 126/3/3 120/3/3 125/3/3
f 127/3/3 122/3/3 121/3/3
f 127/1/3 121/1/3 126/1/3
f 128/1/3 123/1/3 122/1/3
f 128/3/3 122/3/3 127/3/3
f 128/1/3 124/1/3 123/1/3
f 129/1/3 124/1/3 128/1/3
f 130/3/3 90/3/3 124/3/3
f 130/1/3 124/1/3 129/1/3
f 131/5/3 115/5/3 114/5/3
f 131/3/3 114/3/3 91/3/3
f 132/3/3 92/3/3 115/3/3
f 132/5/3 115/5/3 131/5/3
f 133/1/3 127/1/3 126/1/3
f 133/1/3 126/1/3 125/1/3
f 133/1/3 129/1/3 128/1/3
f 133/1/3 128/1/3 127/1/3
f 133/3/3 125/3/3 105/3/3
f 134/3/3 130/3/3 129/3/3
f 134/1/3 129/1/3 133/1/3
f 135/3/3 90/3/3 130/3/3
f 135/3/3 130/3/3 134/3/3
f 136/3/3 134/3/3 133/3/3
f 136/1/3 135/1/3 134/1/3
f 137/3/3 90/3/3 135/3/3
f 137/1/3 135/1/3 136/1/3
f 138/3/3 136/3/3 133/3/3
f 138/3/3 133/3/3 105/3/3
f 138/3/3 137/3/3 136/3/3
f 139/3/3 137/3/3 138/3/3
f 140/3/3 137/3/3 139/3/3
f 141/3/3 137/3/3 140/3/3
f 142/3/3 131/3/3 91/3/3
f 142/3/3 132/3/3 131/3/3
f 143/3/3 132/3/3 142/3/3
f 144/3/3 138/3/3 105/3/3
f 144/1/3 139/1/3 138/1/3
f 145/3/3 140/3/3 139/3/3
f 145/1/3 139/1/3 144/1/3
f 146/3/3 140/3/3 145/3/3
f 147/1/3 141/1/3 140/1/3
f 147/3/3 140/3/3 146/3/3
f 148/3/3 137/3/3 141/3/3
f 148/1/3 141/1/3 147/1/3
f 149/3/3 142/3/3 91/3/3
f 150/3/3 142/3/3 149/3/3
f 151/3/3 132/3/3 143/3/3
f 152/3/3 132/3/3 151/3/3
f 153/1/3 146/1/3 145/1/3
f 153/3/3 145/3/3 144/3/3
f 154/3/3 147/3/3 146/3/3
f 154/1/3 146/1/3 153/1/3
f 154/3/3 148/3/3 147/3/3
f 155/3/3 90/3/3 137/3/3
f 155/3/3 148/3/3 154/3/3
f 155/3/3 137/3/3 148/3/3
f 156/3/3 92/3/3 132/3/3
f 156/3/3 132/3/3 152/3/3
f 157/3/3 92/3/3 156/3/3
f 158/3/3 153/3/3 144/3/3
f 158/3/3 154/3/3 153/3/3
f 159/1/3 155/1/3 154/1/3
f 159/3/3 154/3/3 158/3/3
f 160/3/3 90/3/3 155/3/3
f 160/1/3 155/1/3 159/1/3
f 161/3/3 156/3/3 152/3/3
f 162/3/3 92/3/3 157/3/3
f 163/3/3 158/3/3 144/3/3
f 163/3/3 144/3/3 105/3/3
f 164/1/3 159/1/3 158/1/3
f 164/3/3 158/3/3 163/3/3
f 165/3/3 160/3/3 159/3/3
f 165/1/3 159/1/3 164/1/3
f 166/3/3 160/3/3 165/3/3
f 167/3/3 160/3/3 166/3/3
f 168/3/3 149/3/3 91/3/3
f 171/3/3 161/3/3 152/3/3
f 171/3/3 162/3/3 161/3/3
f 172/3/3 163/3/3 105/3/3
f 172/1/3 164/1/3 163/1/3
f 173/3/3 165/3/3 164/3/3
f 173/1/3 164/1/3 172/1/3
f 173/3/3 166/3/3 165/3/3
f 174/1/3 167/1/3 166/1/3
f 174/3/3 166/3/3 173/3/3
f 175/3/3 160/3/3 167/3/3
f 175/1/3 167/1/3 174/1/3
f 176/3/3 169/3/3 168/3/3
f 177/3/3 171/3/3 170/3/3
f 178/3/3 174/3/3 173/3/3
f 178/3/3 173/3/3 172/3/3
f 178/3/3 175/3/3 174/3/3
f 179/3/3 175/3/3 178/3/3
f 180/3/3 175/3/3 179/3/3
f 181/3/3 160/3/3 175/3/3
f 181/3/3 175/3/3 180/3/3
f 182/3/3 172/3/3 105/3/3
f 182/3/3 178/3/3 172/3/3
f 183/1/3 179/1/3 178/1/3
f 183/3/3 178/3/3 182/3/3
f 184/3/3 180/3/3 179/3/3
f 184/1/3 179/1/3 183/1/3
f 185/1/3 181/1/3 180/1/3
f 185/3/3 180/3/3 184/3/3
f 186/3/3 160/3/3 181/3/3
f 186/1/3 181/1/3 185/1/3
f 187/3/3 90/3/3 160/3/3
f 187/3/3 160/3/3 186/3/3
f 188/1/3 183/1/3 182/1/3
f 188/1/3 186/1/3 185/1/3
f 188/1/3 187/1/3 186/1/3
f 188/3/3 182/3/3 105/3/3
f 188/1/3 184/1/3 183/1/3
f 188/1/3 185/1/3 184/1/3
f 189/1/3 187/1/3 188/1/3
f 190/1/3 187/1/3 189/1/3
f 191/1/3 187/1/3 190/1/3
f 192/1/3 187/1/3 191/1/3
f 193/3/3 90/3/3 187/3/3
f 193/1/3 187/1/3 192/1/3
f 194/3/3 177/3/3 176/3/3
f 195/3/3 162/3/3 171/3/3
f 195/3/3 177/3/3 194/3/3
f 195/3/3 171/3/3 177/3/3
f 196/3/3 188/3/3 105/3/3
f 196/3/3 189/3/3 188/3/3
f 197/1/3 190/1/3 189/1/3
f 197/3/3 189/3/3 196/3/3
f 198/1/3 190/1/3 197/1/3
f 199/1/3 197/1/3 196/1/3
f 199/3/3 198/3/3 197/3/3
f 200/1/3 190/1/3 198/1/3
f 200/3/3 198/3/3 199/3/3
f 201/3/3 191/3/3 190/3/3
f 201/1/3 190/1/3 200/1/3
f 202/1/3 192/1/3 191/1/3
f 202/3/3 191/3/3 201/3/3
f 203/3/3 193/3/3 192/3/3
f 203/1/3 192/1/3 202/1/3
f 204/3/3 90/3/3 193/3/3
f 204/3/3 193/3/3 203/3/3
f 205/1/3 201/1/3 200/1/3
f 205/1/3 202/1/3 201/1/3
f 205/1/3 200/1/3 199/1/3
f 205/1/3 199/1/3 196/1/3
f 206/1/3 202/1/3 205/1/3
f 207/1/3 202/1/3 206/1/3
f 208/3/3 203/3/3 202/3/3
f 208/1/3 202/1/3 207/1/3
f 209/1/3 204/1/3 203/1/3
f 209/3/3 203/3/3 208/3/3
f 210/3/3 90/3/3 204/3/3
f 210/1/3 204/1/3 209/1/3
f 211/3/3 194/3/3 176/3/3
f 211/5/3 195/5/3 194/5/3
f 212/3/3 162/3/3 195/3/3
f 212/5/3 195/5/3 211/5/3
f 213/3/3 196/3/3 105/3/3
f 213/1/3 205/1/3 196/1/3
f 214/3/3 206/3/3 205/3/3
f 214/1/3 205/1/3 213/1/3
f 215/1/3 207/1/3 206/1/3
f 215/3/3 206/3/3 214/3/3
f 216/3/3 208/3/3 207/3/3
f 216/1/3 207/1/3 215/1/3
f 217/1/3 209/1/3 208/1/3
f 217/3/3 208/3/3 216/3/3
f 218/3/3 210/3/3 209/3/3
f 218/1/3 209/1/3 217/1/3
f 219/4/3 89/4/3 87/4/3
f 219/3/3 216/3/3 215/3/3
f 219/3/3 218/3/3 217/3/3
f 219/3/3 213/3/3 105/3/3
f 219/3/3 105/3/3 89/3/3
f 219/3/3 214/3/3 213/3/3
f 219/3/3 217/3/3 216/3/3
f 219/3/3 215/3/3 214/3/3
f 220/3/3 210/3/3 218/3/3
f 220/3/3 218/3/3 219/3/3
f 220/6/3 91/6/3 90/6/3
f 220/3/3 90/3/3 210/3/3
f 221/3/3 176/3/3 168/3/3
f 221/6/3 91/6/3 220/6/3
f 221/3/3 212/3/3 211/3/3
f 221/3/3 168/3/3 91/3/3
f 221/3/3 211/3/3 176/3/3
f 222/4/3 88/4/3 92/4/3
f 222/3/3 212/3/3 221/3/3
f 222/3/3 92/3/3 162/3/3
f 222/3/3 162/3/3 212/3/3
f 223/4/3 219/4/3 87/4/3
f 223/4/3 221/4/3 220/4/3
f 223/4/3 222/4/3 221/4/3
f 223/4/3 220/4/3 219/4/3
f 224/4/3 88/4/3 222/4/3
f 224/4/3 222/4/3 223/4/3
f 227/6/3 226/6/3 225/6/3
f 228/6/3 226/6/3 227/6/3
f 229/4/4 230/4/4 231/4/4
f 231/4/4 230/4/4 232/4/4
f 232/4/4 230/4/4 233/4/4
f 233/4/4 230/4/4 234/4/4
f 233/3/4 234/3/4 235/3/4
f 235/3/4 234/3/4 236/3/4
f 233/3/4 235/3/4 237/3/4
f 237/3/4 235/3/4 238/3/4
f 233/3/4 237/3/4 239/3/4
f 237/6/4 238/6/4 239/6/4
f 238/3/4 235/3/4 240/3/4
f 239/6/4 238/6/4 240/6/4
f 235/2/4 236/2/4 241/2/4
f 240/3/4 235/3/4 241/3/4
f 239/3/4 240/3/4 241/3/4
f 236/3/4 234/3/4 242/3/4
f 241/2/4 236/2/4 242/2/4
f 229/4/4 231/4/4 243/4/4
f 231/3/4 232/3/4 243/3/4
f 232/6/4 233/6/4 244/6/4
f 243/3/4 232/3/4 244/3/4
f 241/3/4 242/3/4 245/3/4
f 244/6/4 233/6/4 245/6/4
f 239/3/4 241/3/4 245/3/4
f 233/3/4 239/3/4 245/3/4
f 242/3/4 234/3/4 246/3/4
f 245/3/4 242/3/4 246/3/4
f 234/4/4 230/4/4 246/4/4
f 244/4/4 245/4/4 247/4/4
f 243/4/4 244/4/4 247/4/4
f 245/4/4 246/4/4 247/4/4
f 229/4/4 243/4/4 247/4/4
f 246/4/4 230/4/4 248/4/4
f 247/4/4 246/4/4 248/4/4
f 251/4/5 250/4/5 249/4/5
f 252/4/5 250/4/5 251/4/5
f 253/4/5 251/4/5 249/4/5
f 253/3/5 252/3/5 251/3/5
f 254/4/5 250/4/5 252/4/5
f 254/3/5 252/3/5 253/3/5
f 255/4/5 253/4/5 249/4/5
f 255/4/5 254/4/5 253/4/5
f 256/4/5 250/4/5 254/4/5
f 256/4/5 254/4/5 255/4/5
f 259/5/5 258/5/5 257/5/5
f 260/5/5 258/5/5 259/5/5
f 263/1/5 262/1/5 261/1/5
f 264/1/5 262/1/5 263/1/5
f 269/1/5 266/1/5 265/1/5
f 270/1/5 266/1/5 269/1/5
f 271/1/5 268/1/5 267/1/5
f 272/1/5 268/1/5 271/1/5
f 275/1/5 274/1/5 273/1/5
f 276/1/5 274/1/5 275/1/5
f 277/5/6 278/5/6 279/5/6
f 279/5/6 278/5/6 280/5/6
f 281/1/6 282/1/6 285/1/6
f 285/1/6 282/1/6 286/1/6
f 283/1/6 284/1/6 287/1/6
f 287/1/6 284/1/6 288/1/6
f 289/1/6 290/1/6 291/1/6
f 291/1/6 290/1/6 292/1/6
f 293/1/6 294/1/6 295/1/6
f 295/1/6 294/1/6 296/1/6
f 297/4/6 298/4/6 299/4/6
f 299/4/6 298/4/6 300/4/6
f 297/4/6 299/4/6 301/4/6
f 299/3/6 300/3/6 301/3/6
f 300/4/6 298/4/6 302/4/6
f 301/3/6 300/3/6 302/3/6
f 297/4/6 301/4/6 303/4/6
f 301/4/6 302/4/6 303/4/6
f 302/4/6 298/4/6 304/4/6
f 303/4/6 302/4/6 304/4/6
