# MagicaVoxel @ Ephtracy

# group
o 

# material
mtllib V_Phone.mtl
usemtl palette

# normals
vn -1 0 0
vn 1 0 0
vn 0 0 1
vn 0 0 -1
vn 0 -1 0
vn 0 1 0

# texcoords
vt 0.904297 0.5
vt 0.958984 0.5
vt 0.966797 0.5
vt 0.982422 0.5
vt 0.994141 0.5

# verts
v -2 0 1.8
v -2 0 -1.2
v -2 0.3 1.8
v -2 0.3 -1.2
v -1.9 0 1.9
v -1.9 0 1.8
v -1.9 0 -1.2
v -1.9 0 -1.3
v -1.9 0.3 1.9
v -1.9 0.3 1.8
v -1.9 0.3 -1.2
v -1.9 0.3 -1.3
v -1.8 0 2
v -1.8 0 1.9
v -1.8 0 -1.3
v -1.8 0 -1.4
v -1.8 0.3 2
v -1.8 0.3 1.9
v -1.8 0.3 -1.3
v -1.8 0.3 -1.4
v -0.3 0 2
v -0.3 0 1.9
v -0.3 0 -1.3
v -0.3 0 -1.4
v -0.3 0.3 2
v -0.3 0.3 1.9
v -0.3 0.3 -1.3
v -0.3 0.3 -1.4
v -0.2 0 1.9
v -0.2 0 1.8
v -0.2 0 -1.2
v -0.2 0 -1.3
v -0.2 0.3 1.9
v -0.2 0.3 1.8
v -0.2 0.3 -1.2
v -0.2 0.3 -1.3
v -0.0999999 0 1.8
v -0.0999999 0 -1.2
v -0.0999999 0.3 1.8
v -0.0999999 0.3 -1.2
v -1.8 0 2
v -1.8 0.3 2
v -1.2 0.1 2
v -1.2 0.2 2
v -0.9 0.1 2
v -0.9 0.2 2
v -0.3 0 2
v -0.3 0.3 2
v -1.9 0 1.9
v -1.9 0.3 1.9
v -1.8 0 1.9
v -1.8 0.3 1.9
v -0.3 0 1.9
v -0.3 0.3 1.9
v -0.2 0 1.9
v -0.2 0.3 1.9
v -2 0 1.8
v -2 0.3 1.8
v -1.9 0 1.8
v -1.9 0.3 1.8
v -0.2 0 1.8
v -0.2 0.3 1.8
v -0.0999999 0 1.8
v -0.0999999 0.3 1.8
v -2 0 -1.2
v -2 0.3 -1.2
v -1.9 0 -1.2
v -1.9 0.3 -1.2
v -0.2 0 -1.2
v -0.2 0.3 -1.2
v -0.0999999 0 -1.2
v -0.0999999 0.3 -1.2
v -1.9 0 -1.3
v -1.9 0.3 -1.3
v -1.8 0 -1.3
v -1.8 0.3 -1.3
v -0.3 0 -1.3
v -0.3 0.3 -1.3
v -0.2 0 -1.3
v -0.2 0.3 -1.3
v -1.8 0 -1.4
v -1.8 0.3 -1.4
v -0.3 0 -1.4
v -0.3 0.3 -1.4
v -1.8 0 2
v -0.3 0 2
v -1.9 0 1.9
v -1.8 0 1.9
v -0.3 0 1.9
v -0.2 0 1.9
v -2 0 1.8
v -1.9 0 1.8
v -0.2 0 1.8
v -0.0999999 0 1.8
v -1.8 0 -0.7
v -1.3 0 -0.7
v -1.6 0 -0.8
v -1.5 0 -0.8
v -1.7 0 -0.9
v -1.6 0 -0.9
v -1.5 0 -0.9
v -1.4 0 -0.9
v -1.7 0 -1
v -1.6 0 -1
v -1.5 0 -1
v -1.4 0 -1
v -1.6 0 -1.1
v -1.5 0 -1.1
v -2 0 -1.2
v -1.9 0 -1.2
v -1.8 0 -1.2
v -1.3 0 -1.2
v -0.2 0 -1.2
v -0.0999999 0 -1.2
v -1.9 0 -1.3
v -1.8 0 -1.3
v -0.3 0 -1.3
v -0.2 0 -1.3
v -1.8 0 -1.4
v -0.3 0 -1.4
v -1.8 0.3 2
v -0.3 0.3 2
v -1.9 0.3 1.9
v -1.8 0.3 1.9
v -1.1 0.3 1.9
v -1 0.3 1.9
v -0.3 0.3 1.9
v -0.2 0.3 1.9
v -2 0.3 1.8
v -1.9 0.3 1.8
v -1.8 0.3 1.8
v -1.2 0.3 1.8
v -1.1 0.3 1.8
v -1 0.3 1.8
v -0.9 0.3 1.8
v -0.3 0.3 1.8
v -0.2 0.3 1.8
v -0.0999999 0.3 1.8
v -1.2 0.3 1.7
v -1.1 0.3 1.7
v -1 0.3 1.7
v -0.9 0.3 1.7
v -1.8 0.3 1.6
v -1.1 0.3 1.6
v -1 0.3 1.6
v -0.3 0.3 1.6
v -1.8 0.3 -1
v -0.3 0.3 -1
v -1.4 0.3 -1.1
v -1 0.3 -1.1
v -0.9 0.3 -1.1
v -0.8 0.3 -1.1
v -2 0.3 -1.2
v -1.9 0.3 -1.2
v -1.8 0.3 -1.2
v -1.4 0.3 -1.2
v -1 0.3 -1.2
v -0.9 0.3 -1.2
v -0.8 0.3 -1.2
v -0.3 0.3 -1.2
v -0.2 0.3 -1.2
v -0.0999999 0.3 -1.2
v -1.9 0.3 -1.3
v -1.8 0.3 -1.3
v -0.3 0.3 -1.3
v -0.2 0.3 -1.3
v -1.8 0.3 -1.4
v -0.3 0.3 -1.4

# faces
f 3/1/1 2/1/1 1/1/1
f 4/1/1 2/1/1 3/1/1
f 9/1/1 6/1/1 5/1/1
f 10/1/1 6/1/1 9/1/1
f 11/1/1 8/1/1 7/1/1
f 12/1/1 8/1/1 11/1/1
f 17/1/1 14/1/1 13/1/1
f 18/1/1 14/1/1 17/1/1
f 19/1/1 16/1/1 15/1/1
f 20/1/1 16/1/1 19/1/1
f 21/1/2 22/1/2 25/1/2
f 25/1/2 22/1/2 26/1/2
f 23/1/2 24/1/2 27/1/2
f 27/1/2 24/1/2 28/1/2
f 29/1/2 30/1/2 33/1/2
f 33/1/2 30/1/2 34/1/2
f 31/1/2 32/1/2 35/1/2
f 35/1/2 32/1/2 36/1/2
f 37/1/2 38/1/2 39/1/2
f 39/1/2 38/1/2 40/1/2
f 43/1/3 42/1/3 41/1/3
f 44/1/3 42/1/3 43/1/3
f 45/1/3 43/1/3 41/1/3
f 45/5/3 44/5/3 43/5/3
f 46/1/3 42/1/3 44/1/3
f 46/5/3 44/5/3 45/5/3
f 47/1/3 45/1/3 41/1/3
f 47/1/3 46/1/3 45/1/3
f 48/1/3 42/1/3 46/1/3
f 48/1/3 46/1/3 47/1/3
f 51/1/3 50/1/3 49/1/3
f 52/1/3 50/1/3 51/1/3
f 55/1/3 54/1/3 53/1/3
f 56/1/3 54/1/3 55/1/3
f 59/1/3 58/1/3 57/1/3
f 60/1/3 58/1/3 59/1/3
f 63/1/3 62/1/3 61/1/3
f 64/1/3 62/1/3 63/1/3
f 65/1/4 66/1/4 67/1/4
f 67/1/4 66/1/4 68/1/4
f 69/1/4 70/1/4 71/1/4
f 71/1/4 70/1/4 72/1/4
f 73/1/4 74/1/4 75/1/4
f 75/1/4 74/1/4 76/1/4
f 77/1/4 78/1/4 79/1/4
f 79/1/4 78/1/4 80/1/4
f 81/1/4 82/1/4 83/1/4
f 83/1/4 82/1/4 84/1/4
f 88/1/5 86/1/5 85/1/5
f 89/1/5 86/1/5 88/1/5
f 92/1/5 88/1/5 87/1/5
f 92/1/5 90/1/5 89/1/5
f 92/1/5 89/1/5 88/1/5
f 93/1/5 90/1/5 92/1/5
f 95/1/5 92/1/5 91/1/5
f 95/1/5 94/1/5 93/1/5
f 95/1/5 93/1/5 92/1/5
f 96/1/5 94/1/5 95/1/5
f 97/5/5 96/5/5 95/5/5
f 98/5/5 96/5/5 97/5/5
f 99/5/5 97/5/5 95/5/5
f 100/4/5 98/4/5 97/4/5
f 100/5/5 97/5/5 99/5/5
f 101/5/5 96/5/5 98/5/5
f 101/4/5 98/4/5 100/4/5
f 102/5/5 96/5/5 101/5/5
f 103/4/5 100/4/5 99/4/5
f 103/5/5 99/5/5 95/5/5
f 103/4/5 102/4/5 101/4/5
f 103/4/5 101/4/5 100/4/5
f 104/4/5 102/4/5 103/4/5
f 105/4/5 102/4/5 104/4/5
f 106/5/5 96/5/5 102/5/5
f 106/4/5 102/4/5 105/4/5
f 107/4/5 105/4/5 104/4/5
f 107/5/5 104/5/5 103/5/5
f 108/5/5 106/5/5 105/5/5
f 108/4/5 105/4/5 107/4/5
f 109/1/5 95/1/5 91/1/5
f 110/1/5 95/1/5 109/1/5
f 111/5/5 103/5/5 95/5/5
f 111/1/5 95/1/5 110/1/5
f 111/5/5 107/5/5 103/5/5
f 111/5/5 108/5/5 107/5/5
f 112/5/5 106/5/5 108/5/5
f 112/5/5 108/5/5 111/5/5
f 112/1/5 94/1/5 96/1/5
f 112/5/5 96/5/5 106/5/5
f 113/1/5 94/1/5 112/1/5
f 114/1/5 94/1/5 113/1/5
f 115/1/5 111/1/5 110/1/5
f 115/1/5 113/1/5 112/1/5
f 115/1/5 112/1/5 111/1/5
f 116/1/5 113/1/5 115/1/5
f 117/1/5 113/1/5 116/1/5
f 118/1/5 113/1/5 117/1/5
f 119/1/5 117/1/5 116/1/5
f 120/1/5 117/1/5 119/1/5
f 121/1/6 122/1/6 124/1/6
f 124/1/6 122/1/6 125/1/6
f 125/1/6 122/1/6 126/1/6
f 126/1/6 122/1/6 127/1/6
f 123/1/6 124/1/6 130/1/6
f 124/2/6 125/2/6 131/2/6
f 130/1/6 124/1/6 131/1/6
f 131/2/6 125/2/6 132/2/6
f 125/3/6 126/3/6 133/3/6
f 132/2/6 125/2/6 133/2/6
f 126/2/6 127/2/6 134/2/6
f 133/3/6 126/3/6 134/3/6
f 134/2/6 127/2/6 135/2/6
f 127/1/6 128/1/6 136/1/6
f 135/2/6 127/2/6 136/2/6
f 136/1/6 128/1/6 137/1/6
f 134/3/6 135/3/6 139/3/6
f 131/2/6 132/2/6 139/2/6
f 132/3/6 133/3/6 139/3/6
f 130/2/6 131/2/6 139/2/6
f 133/3/6 134/3/6 139/3/6
f 139/3/6 135/3/6 140/3/6
f 140/3/6 135/3/6 141/3/6
f 136/2/6 137/2/6 142/2/6
f 141/3/6 135/3/6 142/3/6
f 135/2/6 136/2/6 142/2/6
f 139/2/6 140/2/6 143/2/6
f 130/2/6 139/2/6 143/2/6
f 140/3/6 141/3/6 144/3/6
f 143/2/6 140/2/6 144/2/6
f 141/2/6 142/2/6 145/2/6
f 144/3/6 141/3/6 145/3/6
f 142/2/6 137/2/6 146/2/6
f 145/2/6 142/2/6 146/2/6
f 130/2/6 143/2/6 147/2/6
f 144/5/6 145/5/6 147/5/6
f 145/5/6 146/5/6 147/5/6
f 143/5/6 144/5/6 147/5/6
f 146/2/6 137/2/6 148/2/6
f 147/5/6 146/5/6 148/5/6
f 147/2/6 148/2/6 149/2/6
f 149/2/6 148/2/6 150/2/6
f 150/2/6 148/2/6 151/2/6
f 151/2/6 148/2/6 152/2/6
f 129/1/6 130/1/6 153/1/6
f 130/2/6 147/2/6 154/2/6
f 153/1/6 130/1/6 154/1/6
f 147/2/6 149/2/6 154/2/6
f 154/2/6 149/2/6 155/2/6
f 149/5/6 150/5/6 156/5/6
f 155/2/6 149/2/6 156/2/6
f 150/2/6 151/2/6 157/2/6
f 156/5/6 150/5/6 157/5/6
f 151/5/6 152/5/6 158/5/6
f 157/2/6 151/2/6 158/2/6
f 152/2/6 148/2/6 159/2/6
f 158/5/6 152/5/6 159/5/6
f 148/2/6 137/2/6 160/2/6
f 159/2/6 148/2/6 160/2/6
f 137/1/6 138/1/6 161/1/6
f 160/2/6 137/2/6 161/2/6
f 161/1/6 138/1/6 162/1/6
f 154/1/6 155/1/6 163/1/6
f 159/2/6 160/2/6 164/2/6
f 163/1/6 155/1/6 164/1/6
f 157/2/6 158/2/6 164/2/6
f 158/2/6 159/2/6 164/2/6
f 155/2/6 156/2/6 164/2/6
f 156/2/6 157/2/6 164/2/6
f 160/1/6 161/1/6 165/1/6
f 164/2/6 160/2/6 165/2/6
f 165/1/6 161/1/6 166/1/6
f 164/1/6 165/1/6 167/1/6
f 167/1/6 165/1/6 168/1/6
