# MagicaVoxel @ Ephtracy

# group
o 

# material
mtllib nankairemono.mtl
usemtl palette

# normals
vn -1 0 0
vn 1 0 0
vn 0 0 1
vn 0 0 -1
vn 0 -1 0
vn 0 1 0

# texcoords
vt 0.564453 0.5
vt 0.958984 0.5

# verts
v -0.6 0 0.9
v -0.6 0 -1.2
v -0.6 0.1 0.9
v -0.6 0.1 0.7
v -0.6 0.2 0.7
v -0.6 0.2 0.6
v -0.6 0.3 0.9
v -0.6 0.3 0.6
v -0.6 0.4 0.9
v -0.6 0.4 0.6
v -0.6 0.5 0.6
v -0.6 0.5 0.5
v -0.6 0.6 0.5
v -0.6 0.6 -0.7
v -0.6 1.3 -0.7
v -0.6 1.3 -1.2
v -0.5 0.1 0.8
v -0.5 0.1 0.7
v -0.5 0.2 0.8
v -0.5 0.2 0.7
v -0.5 0.4 0.7
v -0.5 0.4 0.6
v -0.5 0.5 0.7
v -0.5 0.5 0.6
v -0.2 0.7 -0.8
v -0.2 0.7 -1.1
v -0.2 1.3 -0.8
v -0.2 1.3 -1.1
v 0.2 0.7 -0.8
v 0.2 0.7 -1.1
v 0.2 0.9 -0.8
v 0.2 0.9 -1.1
v 0.6 0.1 0.7
v 0.6 0.1 -1
v 0.6 0.2 0.7
v 0.6 0.2 0.6
v 0.6 0.3 0.6
v 0.6 0.3 -1
v 0.6 0.4 0.6
v 0.6 0.4 -1.1
v 0.6 0.5 0.6
v 0.6 0.5 0.5
v 0.6 0.6 0.5
v 0.6 0.6 -0.7
v 0.6 0.6 -1.1
v 0.6 0.7 -0.8
v 0.6 0.7 -1.1
v 0.6 0.9 -0.8
v 0.6 0.9 -1.1
v -0.5 0.1 -0.9
v -0.5 0.1 -1
v -0.5 0.2 0.6
v -0.5 0.2 -0.9
v -0.5 0.3 0.6
v -0.5 0.3 -1
v -0.5 0.4 -1
v -0.5 0.4 -1.1
v -0.5 0.5 0.5
v -0.5 0.5 -1
v -0.5 0.6 0.5
v -0.5 0.6 -0.7
v -0.5 0.6 -1.1
v -0.5 0.7 -0.8
v -0.5 0.7 -1.1
v -0.5 1.3 -0.8
v -0.5 1.3 -1.1
v -0.0999999 0.7 -0.8
v -0.0999999 0.7 -1.1
v -0.0999999 0.9 -0.7
v -0.0999999 0.9 -0.8
v -0.0999999 0.9 -1.1
v -0.0999999 0.9 -1.2
v -0.0999999 1.3 -0.7
v -0.0999999 1.3 -1.2
v 0.3 0.7 -0.8
v 0.3 0.7 -1.1
v 0.3 0.9 -0.8
v 0.3 0.9 -1.1
v 0.5 0.1 0.8
v 0.5 0.1 -0.9
v 0.5 0.2 0.8
v 0.5 0.2 -0.9
v 0.5 0.4 0.7
v 0.5 0.4 -1
v 0.5 0.5 0.7
v 0.5 0.5 -1
v 0.7 0 0.9
v 0.7 0 -1.2
v 0.7 0.1 0.9
v 0.7 0.1 0.7
v 0.7 0.2 0.7
v 0.7 0.2 0.6
v 0.7 0.3 0.9
v 0.7 0.3 0.6
v 0.7 0.4 0.9
v 0.7 0.4 0.6
v 0.7 0.5 0.6
v 0.7 0.5 0.5
v 0.7 0.6 0.5
v 0.7 0.6 -0.7
v 0.7 0.9 -0.7
v 0.7 0.9 -1.2
v -0.6 0 0.9
v -0.6 0.1 0.9
v -0.6 0.3 0.9
v -0.6 0.4 0.9
v 0.7 0 0.9
v 0.7 0.1 0.9
v 0.7 0.3 0.9
v 0.7 0.4 0.9
v -0.5 0.1 0.8
v -0.5 0.2 0.8
v 0.5 0.1 0.8
v 0.5 0.2 0.8
v -0.6 0.1 0.7
v -0.6 0.2 0.7
v -0.5 0.1 0.7
v -0.5 0.2 0.7
v -0.5 0.4 0.7
v -0.5 0.5 0.7
v 0.5 0.4 0.7
v 0.5 0.5 0.7
v 0.6 0.1 0.7
v 0.6 0.2 0.7
v 0.7 0.1 0.7
v 0.7 0.2 0.7
v -0.6 0.2 0.6
v -0.6 0.3 0.6
v -0.6 0.4 0.6
v -0.6 0.5 0.6
v -0.5 0.2 0.6
v -0.5 0.3 0.6
v -0.5 0.4 0.6
v -0.5 0.5 0.6
v 0.6 0.2 0.6
v 0.6 0.3 0.6
v 0.6 0.4 0.6
v 0.6 0.5 0.6
v 0.7 0.2 0.6
v 0.7 0.3 0.6
v 0.7 0.4 0.6
v 0.7 0.5 0.6
v -0.6 0.5 0.5
v -0.6 0.6 0.5
v -0.5 0.5 0.5
v -0.5 0.6 0.5
v 0.6 0.5 0.5
v 0.6 0.6 0.5
v 0.7 0.5 0.5
v 0.7 0.6 0.5
v -0.6 0.6 -0.7
v -0.6 1.3 -0.7
v -0.5 0.6 -0.7
v -0.0999999 0.9 -0.7
v -0.0999999 1.3 -0.7
v 0.6 0.6 -0.7
v 0.7 0.6 -0.7
v 0.7 0.9 -0.7
v -0.5 0.1 -1
v -0.5 0.3 -1
v 0.6 0.1 -1
v 0.6 0.3 -1
v -0.5 0.4 -1.1
v -0.5 0.6 -1.1
v -0.5 0.7 -1.1
v -0.5 1.3 -1.1
v -0.2 0.7 -1.1
v -0.2 1.3 -1.1
v -0.0999999 0.7 -1.1
v -0.0999999 0.9 -1.1
v 0.2 0.7 -1.1
v 0.2 0.9 -1.1
v 0.3 0.7 -1.1
v 0.3 0.9 -1.1
v 0.6 0.4 -1.1
v 0.6 0.6 -1.1
v 0.6 0.7 -1.1
v 0.6 0.9 -1.1
v -0.5 0.7 -0.8
v -0.5 1.3 -0.8
v -0.2 0.7 -0.8
v -0.2 1.3 -0.8
v -0.0999999 0.7 -0.8
v -0.0999999 0.9 -0.8
v 0.2 0.7 -0.8
v 0.2 0.9 -0.8
v 0.3 0.7 -0.8
v 0.3 0.9 -0.8
v 0.6 0.7 -0.8
v 0.6 0.9 -0.8
v -0.5 0.1 -0.9
v -0.5 0.2 -0.9
v 0.5 0.1 -0.9
v 0.5 0.2 -0.9
v -0.5 0.4 -1
v -0.5 0.5 -1
v 0.5 0.4 -1
v 0.5 0.5 -1
v -0.6 0 -1.2
v -0.6 1.3 -1.2
v -0.0999999 0.9 -1.2
v -0.0999999 1.3 -1.2
v 0.7 0 -1.2
v 0.7 0.9 -1.2
v -0.6 0 0.9
v 0.7 0 0.9
v -0.6 0 -1.2
v 0.7 0 -1.2
v -0.6 0.3 0.9
v 0.7 0.3 0.9
v -0.6 0.3 0.6
v -0.5 0.3 0.6
v 0.6 0.3 0.6
v 0.7 0.3 0.6
v -0.5 0.3 -1
v 0.6 0.3 -1
v -0.5 0.6 -0.7
v 0.6 0.6 -0.7
v -0.5 0.6 -1.1
v 0.6 0.6 -1.1
v -0.6 0.1 0.9
v 0.7 0.1 0.9
v -0.5 0.1 0.8
v 0.5 0.1 0.8
v -0.6 0.1 0.7
v -0.5 0.1 0.7
v 0.6 0.1 0.7
v 0.7 0.1 0.7
v -0.5 0.1 -0.9
v 0.5 0.1 -0.9
v -0.5 0.1 -1
v 0.6 0.1 -1
v -0.5 0.2 0.8
v 0.5 0.2 0.8
v -0.6 0.2 0.7
v -0.5 0.2 0.7
v 0.6 0.2 0.7
v 0.7 0.2 0.7
v -0.6 0.2 0.6
v -0.5 0.2 0.6
v 0.6 0.2 0.6
v 0.7 0.2 0.6
v -0.5 0.2 -0.9
v 0.5 0.2 -0.9
v -0.6 0.4 0.9
v 0.7 0.4 0.9
v -0.5 0.4 0.7
v 0.5 0.4 0.7
v -0.6 0.4 0.6
v -0.5 0.4 0.6
v 0.6 0.4 0.6
v 0.7 0.4 0.6
v -0.5 0.4 -1
v 0.5 0.4 -1
v -0.5 0.4 -1.1
v 0.6 0.4 -1.1
v -0.5 0.5 0.7
v 0.5 0.5 0.7
v -0.6 0.5 0.6
v -0.5 0.5 0.6
v 0.6 0.5 0.6
v 0.7 0.5 0.6
v -0.6 0.5 0.5
v -0.5 0.5 0.5
v 0.6 0.5 0.5
v 0.7 0.5 0.5
v -0.5 0.5 -1
v 0.5 0.5 -1
v -0.6 0.6 0.5
v -0.5 0.6 0.5
v 0.6 0.6 0.5
v 0.7 0.6 0.5
v -0.6 0.6 -0.7
v -0.5 0.6 -0.7
v 0.6 0.6 -0.7
v 0.7 0.6 -0.7
v -0.5 0.7 -0.8
v -0.2 0.7 -0.8
v -0.0999999 0.7 -0.8
v 0.2 0.7 -0.8
v 0.3 0.7 -0.8
v 0.6 0.7 -0.8
v -0.5 0.7 -1.1
v -0.2 0.7 -1.1
v -0.0999999 0.7 -1.1
v 0.2 0.7 -1.1
v 0.3 0.7 -1.1
v 0.6 0.7 -1.1
v -0.0999999 0.9 -0.7
v 0.7 0.9 -0.7
v -0.0999999 0.9 -0.8
v 0.2 0.9 -0.8
v 0.3 0.9 -0.8
v 0.6 0.9 -0.8
v -0.0999999 0.9 -1.1
v 0.2 0.9 -1.1
v 0.3 0.9 -1.1
v 0.6 0.9 -1.1
v -0.0999999 0.9 -1.2
v 0.7 0.9 -1.2
v -0.6 1.3 -0.7
v -0.0999999 1.3 -0.7
v -0.5 1.3 -0.8
v -0.2 1.3 -0.8
v -0.5 1.3 -1.1
v -0.2 1.3 -1.1
v -0.6 1.3 -1.2
v -0.0999999 1.3 -1.2

# faces
f 3/1/1 2/1/1 1/1/1
f 4/1/1 2/1/1 3/1/1
f 5/1/1 2/1/1 4/1/1
f 6/1/1 2/1/1 5/1/1
f 8/1/1 2/1/1 6/1/1
f 9/1/1 8/1/1 7/1/1
f 10/1/1 2/1/1 8/1/1
f 10/1/1 8/1/1 9/1/1
f 11/1/1 2/1/1 10/1/1
f 12/1/1 2/1/1 11/1/1
f 13/1/1 2/1/1 12/1/1
f 14/1/1 2/1/1 13/1/1
f 15/1/1 2/1/1 14/1/1
f 16/1/1 2/1/1 15/1/1
f 19/2/1 18/2/1 17/2/1
f 20/2/1 18/2/1 19/2/1
f 23/2/1 22/2/1 21/2/1
f 24/2/1 22/2/1 23/2/1
f 27/1/1 26/1/1 25/1/1
f 28/1/1 26/1/1 27/1/1
f 31/1/1 30/1/1 29/1/1
f 32/1/1 30/1/1 31/1/1
f 35/1/1 34/1/1 33/1/1
f 36/1/1 34/1/1 35/1/1
f 37/1/1 34/1/1 36/1/1
f 38/1/1 34/1/1 37/1/1
f 41/1/1 40/1/1 39/1/1
f 42/1/1 40/1/1 41/1/1
f 43/1/1 40/1/1 42/1/1
f 44/1/1 40/1/1 43/1/1
f 45/1/1 40/1/1 44/1/1
f 48/1/1 47/1/1 46/1/1
f 49/1/1 47/1/1 48/1/1
f 50/1/2 51/1/2 53/1/2
f 52/1/2 53/1/2 54/1/2
f 53/1/2 51/1/2 55/1/2
f 54/1/2 53/1/2 55/1/2
f 56/1/2 57/1/2 59/1/2
f 58/1/2 59/1/2 60/1/2
f 60/1/2 59/1/2 61/1/2
f 59/1/2 57/1/2 62/1/2
f 61/1/2 59/1/2 62/1/2
f 63/1/2 64/1/2 65/1/2
f 65/1/2 64/1/2 66/1/2
f 67/1/2 68/1/2 70/1/2
f 70/1/2 68/1/2 71/1/2
f 69/1/2 70/1/2 73/1/2
f 71/1/2 72/1/2 73/1/2
f 70/1/2 71/1/2 73/1/2
f 73/1/2 72/1/2 74/1/2
f 75/1/2 76/1/2 77/1/2
f 77/1/2 76/1/2 78/1/2
f 79/2/2 80/2/2 81/2/2
f 81/2/2 80/2/2 82/2/2
f 83/2/2 84/2/2 85/2/2
f 85/2/2 84/2/2 86/2/2
f 87/1/2 88/1/2 89/1/2
f 89/1/2 88/1/2 90/1/2
f 90/1/2 88/1/2 91/1/2
f 91/1/2 88/1/2 92/1/2
f 92/1/2 88/1/2 94/1/2
f 93/1/2 94/1/2 95/1/2
f 94/1/2 88/1/2 96/1/2
f 95/1/2 94/1/2 96/1/2
f 96/1/2 88/1/2 97/1/2
f 97/1/2 88/1/2 98/1/2
f 98/1/2 88/1/2 99/1/2
f 99/1/2 88/1/2 100/1/2
f 100/1/2 88/1/2 101/1/2
f 101/1/2 88/1/2 102/1/2
f 107/1/3 104/1/3 103/1/3
f 108/1/3 104/1/3 107/1/3
f 109/1/3 106/1/3 105/1/3
f 110/1/3 106/1/3 109/1/3
f 113/2/3 112/2/3 111/2/3
f 114/2/3 112/2/3 113/2/3
f 117/1/3 116/1/3 115/1/3
f 118/1/3 116/1/3 117/1/3
f 121/2/3 120/2/3 119/2/3
f 122/2/3 120/2/3 121/2/3
f 125/1/3 124/1/3 123/1/3
f 126/1/3 124/1/3 125/1/3
f 131/1/3 128/1/3 127/1/3
f 132/1/3 128/1/3 131/1/3
f 133/1/3 130/1/3 129/1/3
f 134/1/3 130/1/3 133/1/3
f 139/1/3 136/1/3 135/1/3
f 140/1/3 136/1/3 139/1/3
f 141/1/3 138/1/3 137/1/3
f 142/1/3 138/1/3 141/1/3
f 145/1/3 144/1/3 143/1/3
f 146/1/3 144/1/3 145/1/3
f 149/1/3 148/1/3 147/1/3
f 150/1/3 148/1/3 149/1/3
f 153/1/3 152/1/3 151/1/3
f 154/1/3 152/1/3 153/1/3
f 155/1/3 152/1/3 154/1/3
f 156/1/3 154/1/3 153/1/3
f 157/1/3 154/1/3 156/1/3
f 158/1/3 154/1/3 157/1/3
f 161/1/3 160/1/3 159/1/3
f 162/1/3 160/1/3 161/1/3
f 167/1/3 166/1/3 165/1/3
f 168/1/3 166/1/3 167/1/3
f 171/1/3 170/1/3 169/1/3
f 172/1/3 170/1/3 171/1/3
f 175/1/3 164/1/3 163/1/3
f 176/1/3 164/1/3 175/1/3
f 177/1/3 174/1/3 173/1/3
f 178/1/3 174/1/3 177/1/3
f 179/1/4 180/1/4 181/1/4
f 181/1/4 180/1/4 182/1/4
f 183/1/4 184/1/4 185/1/4
f 185/1/4 184/1/4 186/1/4
f 187/1/4 188/1/4 189/1/4
f 189/1/4 188/1/4 190/1/4
f 191/2/4 192/2/4 193/2/4
f 193/2/4 192/2/4 194/2/4
f 195/2/4 196/2/4 197/2/4
f 197/2/4 196/2/4 198/2/4
f 199/1/4 200/1/4 201/1/4
f 201/1/4 200/1/4 202/1/4
f 199/1/4 201/1/4 203/1/4
f 203/1/4 201/1/4 204/1/4
f 207/1/5 206/1/5 205/1/5
f 208/1/5 206/1/5 207/1/5
f 211/1/5 210/1/5 209/1/5
f 212/1/5 210/1/5 211/1/5
f 213/1/5 210/1/5 212/1/5
f 214/1/5 210/1/5 213/1/5
f 215/1/5 213/1/5 212/1/5
f 216/1/5 213/1/5 215/1/5
f 219/1/5 218/1/5 217/1/5
f 220/1/5 218/1/5 219/1/5
f 221/1/6 222/1/6 223/1/6
f 223/1/6 222/1/6 224/1/6
f 221/1/6 223/1/6 225/1/6
f 225/1/6 223/1/6 226/1/6
f 224/1/6 222/1/6 227/1/6
f 227/1/6 222/1/6 228/1/6
f 224/1/6 227/1/6 230/1/6
f 229/1/6 230/1/6 231/1/6
f 230/1/6 227/1/6 232/1/6
f 231/1/6 230/1/6 232/1/6
f 233/2/6 234/2/6 236/2/6
f 235/1/6 236/1/6 239/1/6
f 236/2/6 234/2/6 240/2/6
f 239/1/6 236/1/6 240/1/6
f 237/1/6 238/1/6 241/1/6
f 241/1/6 238/1/6 242/1/6
f 240/2/6 234/2/6 243/2/6
f 243/2/6 234/2/6 244/2/6
f 245/1/6 246/1/6 247/1/6
f 247/1/6 246/1/6 248/1/6
f 245/1/6 247/1/6 249/1/6
f 249/1/6 247/1/6 250/1/6
f 248/1/6 246/1/6 251/1/6
f 251/1/6 246/1/6 252/1/6
f 248/1/6 251/1/6 254/1/6
f 253/1/6 254/1/6 255/1/6
f 254/1/6 251/1/6 256/1/6
f 255/1/6 254/1/6 256/1/6
f 257/2/6 258/2/6 260/2/6
f 259/1/6 260/1/6 263/1/6
f 260/2/6 258/2/6 264/2/6
f 263/1/6 260/1/6 264/1/6
f 261/1/6 262/1/6 265/1/6
f 265/1/6 262/1/6 266/1/6
f 264/2/6 258/2/6 267/2/6
f 267/2/6 258/2/6 268/2/6
f 269/1/6 270/1/6 273/1/6
f 273/1/6 270/1/6 274/1/6
f 271/1/6 272/1/6 275/1/6
f 275/1/6 272/1/6 276/1/6
f 277/1/6 278/1/6 283/1/6
f 283/1/6 278/1/6 284/1/6
f 279/1/6 280/1/6 285/1/6
f 285/1/6 280/1/6 286/1/6
f 281/1/6 282/1/6 287/1/6
f 287/1/6 282/1/6 288/1/6
f 289/1/6 290/1/6 291/1/6
f 291/1/6 290/1/6 292/1/6
f 292/1/6 290/1/6 293/1/6
f 293/1/6 290/1/6 294/1/6
f 292/1/6 293/1/6 296/1/6
f 296/1/6 293/1/6 297/1/6
f 294/1/6 290/1/6 298/1/6
f 296/1/6 297/1/6 299/1/6
f 297/1/6 298/1/6 299/1/6
f 295/1/6 296/1/6 299/1/6
f 298/1/6 290/1/6 300/1/6
f 299/1/6 298/1/6 300/1/6
f 301/1/6 302/1/6 303/1/6
f 303/1/6 302/1/6 304/1/6
f 301/1/6 303/1/6 305/1/6
f 304/1/6 302/1/6 306/1/6
f 301/1/6 305/1/6 307/1/6
f 305/1/6 306/1/6 307/1/6
f 306/1/6 302/1/6 308/1/6
f 307/1/6 306/1/6 308/1/6
