# MagicaVoxel @ Ephtracy

# group
o 

# material
mtllib long_chair.mtl
usemtl palette

# normals
vn -1 0 0
vn 1 0 0
vn 0 0 1
vn 0 0 -1
vn 0 -1 0
vn 0 1 0

# texcoords
vt 0.310547 0.5
vt 0.990234 0.5

# verts
v -1.7 0.8 0.7
v -1.7 0.8 -0.5
v -1.7 1.1 0.7
v -1.7 1.1 -0.5
v -1.6 0 0.7
v -1.6 0 0.5
v -1.6 0 -0.3
v -1.6 0 -0.5
v -1.6 0.8 0.8
v -1.6 0.8 0.7
v -1.6 0.8 0.5
v -1.6 0.8 -0.3
v -1.6 0.8 -0.5
v -1.6 0.8 -0.6
v -1.6 1.1 0.8
v -1.6 1.1 0.7
v -1.6 1.1 -0.5
v -1.6 1.1 -0.6
v -1.5 0.6 0.5
v -1.5 0.6 -0.3
v -1.5 0.8 0.5
v -1.5 0.8 -0.3
v 1.3 0 0.7
v 1.3 0 0.5
v 1.3 0 -0.3
v 1.3 0 -0.5
v 1.3 0.6 0.6
v 1.3 0.6 0.5
v 1.3 0.6 -0.3
v 1.3 0.6 -0.4
v 1.3 0.8 0.7
v 1.3 0.8 0.6
v 1.3 0.8 0.5
v 1.3 0.8 -0.3
v 1.3 0.8 -0.4
v 1.3 0.8 -0.5
v -1.4 0 0.7
v -1.4 0 0.5
v -1.4 0 -0.3
v -1.4 0 -0.5
v -1.4 0.6 0.6
v -1.4 0.6 0.5
v -1.4 0.6 -0.3
v -1.4 0.6 -0.4
v -1.4 0.8 0.7
v -1.4 0.8 0.6
v -1.4 0.8 0.5
v -1.4 0.8 -0.3
v -1.4 0.8 -0.4
v -1.4 0.8 -0.5
v 1.4 0.6 0.5
v 1.4 0.6 -0.3
v 1.4 0.8 0.5
v 1.4 0.8 -0.3
v 1.5 0 0.7
v 1.5 0 0.5
v 1.5 0 -0.3
v 1.5 0 -0.5
v 1.5 0.8 0.8
v 1.5 0.8 0.7
v 1.5 0.8 0.5
v 1.5 0.8 -0.3
v 1.5 0.8 -0.5
v 1.5 0.8 -0.6
v 1.5 1.1 0.8
v 1.5 1.1 0.7
v 1.5 1.1 -0.5
v 1.5 1.1 -0.6
v 1.6 0.8 0.7
v 1.6 0.8 -0.5
v 1.6 1.1 0.7
v 1.6 1.1 -0.5
v -1.6 0.8 0.8
v -1.6 1.1 0.8
v 1.5 0.8 0.8
v 1.5 1.1 0.8
v -1.7 0.8 0.7
v -1.7 1.1 0.7
v -1.6 0 0.7
v -1.6 0.8 0.7
v -1.6 1.1 0.7
v -1.4 0 0.7
v -1.4 0.8 0.7
v 1.3 0 0.7
v 1.3 0.8 0.7
v 1.5 0 0.7
v 1.5 0.8 0.7
v 1.5 1.1 0.7
v 1.6 0.8 0.7
v 1.6 1.1 0.7
v -1.4 0.6 0.6
v -1.4 0.8 0.6
v 1.3 0.6 0.6
v 1.3 0.8 0.6
v -1.6 0 -0.3
v -1.6 0.8 -0.3
v -1.5 0.6 -0.3
v -1.5 0.8 -0.3
v -1.4 0 -0.3
v -1.4 0.6 -0.3
v -1.4 0.8 -0.3
v 1.3 0 -0.3
v 1.3 0.6 -0.3
v 1.3 0.8 -0.3
v 1.4 0.6 -0.3
v 1.4 0.8 -0.3
v 1.5 0 -0.3
v 1.5 0.8 -0.3
v -1.6 0 0.5
v -1.6 0.8 0.5
v -1.5 0.6 0.5
v -1.5 0.8 0.5
v -1.4 0 0.5
v -1.4 0.6 0.5
v -1.4 0.8 0.5
v 1.3 0 0.5
v 1.3 0.6 0.5
v 1.3 0.8 0.5
v 1.4 0.6 0.5
v 1.4 0.8 0.5
v 1.5 0 0.5
v 1.5 0.8 0.5
v -1.4 0.6 -0.4
v -1.4 0.8 -0.4
v 1.3 0.6 -0.4
v 1.3 0.8 -0.4
v -1.7 0.8 -0.5
v -1.7 1.1 -0.5
v -1.6 0 -0.5
v -1.6 0.8 -0.5
v -1.6 1.1 -0.5
v -1.4 0 -0.5
v -1.4 0.8 -0.5
v 1.3 0 -0.5
v 1.3 0.8 -0.5
v 1.5 0 -0.5
v 1.5 0.8 -0.5
v 1.5 1.1 -0.5
v 1.6 0.8 -0.5
v 1.6 1.1 -0.5
v -1.6 0.8 -0.6
v -1.6 1.1 -0.6
v 1.5 0.8 -0.6
v 1.5 1.1 -0.6
v -1.6 0 0.7
v -1.4 0 0.7
v 1.3 0 0.7
v 1.5 0 0.7
v -1.6 0 0.5
v -1.4 0 0.5
v 1.3 0 0.5
v 1.5 0 0.5
v -1.6 0 -0.3
v -1.4 0 -0.3
v 1.3 0 -0.3
v 1.5 0 -0.3
v -1.6 0 -0.5
v -1.4 0 -0.5
v 1.3 0 -0.5
v 1.5 0 -0.5
v -1.4 0.6 0.6
v 1.3 0.6 0.6
v -1.5 0.6 0.5
v -1.4 0.6 0.5
v 1.3 0.6 0.5
v 1.4 0.6 0.5
v -1.5 0.6 -0.3
v -1.4 0.6 -0.3
v 1.3 0.6 -0.3
v 1.4 0.6 -0.3
v -1.4 0.6 -0.4
v 1.3 0.6 -0.4
v -1.6 0.8 0.8
v 1.5 0.8 0.8
v -1.7 0.8 0.7
v -1.6 0.8 0.7
v -1.4 0.8 0.7
v 1.3 0.8 0.7
v 1.5 0.8 0.7
v 1.6 0.8 0.7
v -1.4 0.8 0.6
v 1.3 0.8 0.6
v -1.6 0.8 0.5
v -1.5 0.8 0.5
v -1.4 0.8 0.5
v 1.3 0.8 0.5
v 1.4 0.8 0.5
v 1.5 0.8 0.5
v -1.6 0.8 -0.3
v -1.5 0.8 -0.3
v -1.4 0.8 -0.3
v 1.3 0.8 -0.3
v 1.4 0.8 -0.3
v 1.5 0.8 -0.3
v -1.4 0.8 -0.4
v 1.3 0.8 -0.4
v -1.7 0.8 -0.5
v -1.6 0.8 -0.5
v -1.4 0.8 -0.5
v 1.3 0.8 -0.5
v 1.5 0.8 -0.5
v 1.6 0.8 -0.5
v -1.6 0.8 -0.6
v 1.5 0.8 -0.6
v -1.6 1.1 0.8
v 1.5 1.1 0.8
v -1.7 1.1 0.7
v -1.6 1.1 0.7
v 1.5 1.1 0.7
v 1.6 1.1 0.7
v -1.7 1.1 -0.5
v -1.6 1.1 -0.5
v 1.5 1.1 -0.5
v 1.6 1.1 -0.5
v -1.6 1.1 -0.6
v 1.5 1.1 -0.6

# faces
f 3/2/1 2/2/1 1/2/1
f 4/2/1 2/2/1 3/2/1
f 10/1/1 6/1/1 5/1/1
f 11/1/1 6/1/1 10/1/1
f 12/1/1 8/1/1 7/1/1
f 13/1/1 8/1/1 12/1/1
f 15/2/1 10/2/1 9/2/1
f 16/2/1 10/2/1 15/2/1
f 17/2/1 14/2/1 13/2/1
f 18/2/1 14/2/1 17/2/1
f 21/1/1 20/1/1 19/1/1
f 22/1/1 20/1/1 21/1/1
f 27/1/1 24/1/1 23/1/1
f 28/1/1 24/1/1 27/1/1
f 29/1/1 26/1/1 25/1/1
f 30/1/1 26/1/1 29/1/1
f 31/1/1 27/1/1 23/1/1
f 32/1/1 27/1/1 31/1/1
f 33/1/1 29/1/1 28/1/1
f 34/1/1 29/1/1 33/1/1
f 35/1/1 26/1/1 30/1/1
f 36/1/1 26/1/1 35/1/1
f 37/1/2 38/1/2 41/1/2
f 41/1/2 38/1/2 42/1/2
f 39/1/2 40/1/2 43/1/2
f 43/1/2 40/1/2 44/1/2
f 37/1/2 41/1/2 45/1/2
f 45/1/2 41/1/2 46/1/2
f 42/1/2 43/1/2 47/1/2
f 47/1/2 43/1/2 48/1/2
f 44/1/2 40/1/2 49/1/2
f 49/1/2 40/1/2 50/1/2
f 51/1/2 52/1/2 53/1/2
f 53/1/2 52/1/2 54/1/2
f 55/1/2 56/1/2 60/1/2
f 60/1/2 56/1/2 61/1/2
f 57/1/2 58/1/2 62/1/2
f 62/1/2 58/1/2 63/1/2
f 59/2/2 60/2/2 65/2/2
f 65/2/2 60/2/2 66/2/2
f 63/2/2 64/2/2 67/2/2
f 67/2/2 64/2/2 68/2/2
f 69/2/2 70/2/2 71/2/2
f 71/2/2 70/2/2 72/2/2
f 75/2/3 74/2/3 73/2/3
f 76/2/3 74/2/3 75/2/3
f 80/2/3 78/2/3 77/2/3
f 81/2/3 78/2/3 80/2/3
f 82/1/3 80/1/3 79/1/3
f 83/1/3 80/1/3 82/1/3
f 86/1/3 85/1/3 84/1/3
f 87/1/3 85/1/3 86/1/3
f 89/2/3 88/2/3 87/2/3
f 90/2/3 88/2/3 89/2/3
f 93/1/3 92/1/3 91/1/3
f 94/1/3 92/1/3 93/1/3
f 97/1/3 96/1/3 95/1/3
f 98/1/3 96/1/3 97/1/3
f 99/1/3 97/1/3 95/1/3
f 100/1/3 97/1/3 99/1/3
f 103/1/3 101/1/3 100/1/3
f 104/1/3 101/1/3 103/1/3
f 105/1/3 103/1/3 102/1/3
f 107/1/3 105/1/3 102/1/3
f 107/1/3 106/1/3 105/1/3
f 108/1/3 106/1/3 107/1/3
f 109/1/4 110/1/4 111/1/4
f 111/1/4 110/1/4 112/1/4
f 109/1/4 111/1/4 113/1/4
f 113/1/4 111/1/4 114/1/4
f 114/1/4 115/1/4 117/1/4
f 117/1/4 115/1/4 118/1/4
f 116/1/4 117/1/4 119/1/4
f 116/1/4 119/1/4 121/1/4
f 119/1/4 120/1/4 121/1/4
f 121/1/4 120/1/4 122/1/4
f 123/1/4 124/1/4 125/1/4
f 125/1/4 124/1/4 126/1/4
f 127/2/4 128/2/4 130/2/4
f 130/2/4 128/2/4 131/2/4
f 129/1/4 130/1/4 132/1/4
f 132/1/4 130/1/4 133/1/4
f 134/1/4 135/1/4 136/1/4
f 136/1/4 135/1/4 137/1/4
f 137/2/4 138/2/4 139/2/4
f 139/2/4 138/2/4 140/2/4
f 141/2/4 142/2/4 143/2/4
f 143/2/4 142/2/4 144/2/4
f 149/1/5 146/1/5 145/1/5
f 150/1/5 146/1/5 149/1/5
f 151/1/5 148/1/5 147/1/5
f 152/1/5 148/1/5 151/1/5
f 157/1/5 154/1/5 153/1/5
f 158/1/5 154/1/5 157/1/5
f 159/1/5 156/1/5 155/1/5
f 160/1/5 156/1/5 159/1/5
f 164/1/5 162/1/5 161/1/5
f 165/1/5 162/1/5 164/1/5
f 167/1/5 164/1/5 163/1/5
f 168/1/5 164/1/5 167/1/5
f 169/1/5 166/1/5 165/1/5
f 170/1/5 166/1/5 169/1/5
f 171/1/5 169/1/5 168/1/5
f 172/1/5 169/1/5 171/1/5
f 176/2/5 174/2/5 173/2/5
f 177/2/5 174/2/5 176/2/5
f 178/2/5 174/2/5 177/2/5
f 179/2/5 174/2/5 178/2/5
f 181/2/5 178/2/5 177/2/5
f 182/2/5 178/2/5 181/2/5
f 183/2/5 176/2/5 175/2/5
f 188/2/5 180/2/5 179/2/5
f 189/2/5 184/2/5 183/2/5
f 189/2/5 183/2/5 175/2/5
f 190/2/5 184/2/5 189/2/5
f 191/2/5 186/2/5 185/2/5
f 192/2/5 186/2/5 191/2/5
f 193/2/5 188/2/5 187/2/5
f 194/2/5 180/2/5 188/2/5
f 194/2/5 188/2/5 193/2/5
f 197/2/5 189/2/5 175/2/5
f 198/2/5 189/2/5 197/2/5
f 199/2/5 196/2/5 195/2/5
f 200/2/5 196/2/5 199/2/5
f 201/2/5 180/2/5 194/2/5
f 202/2/5 180/2/5 201/2/5
f 203/2/5 200/2/5 199/2/5
f 203/2/5 201/2/5 200/2/5
f 203/2/5 199/2/5 198/2/5
f 204/2/5 201/2/5 203/2/5
f 205/2/6 206/2/6 208/2/6
f 208/2/6 206/2/6 209/2/6
f 207/2/6 208/2/6 211/2/6
f 209/2/6 210/2/6 211/2/6
f 208/2/6 209/2/6 211/2/6
f 211/2/6 210/2/6 212/2/6
f 212/2/6 210/2/6 213/2/6
f 213/2/6 210/2/6 214/2/6
f 212/2/6 213/2/6 215/2/6
f 215/2/6 213/2/6 216/2/6
