# MagicaVoxel @ Ephtracy

# group
o 

# material
mtllib refrigerator.mtl
usemtl palette

# normals
vn 1 0 0
vn -1 0 0
vn 0 1 0
vn 0 -1 0
vn 0 0 -1
vn 0 0 1

# texcoords
vt 0.00195312 0.5
vt 0.958984 0.5
vt 0.962891 0.5
vt 0.966797 0.5
vt 0.982422 0.5

# verts
v 1.3 3.7 -1.3
v 1.3 1.4 -1.3
v 1.3 1.3 -1.3
v 1.3 0.7 -1.3
v 1.3 0.6 -1.3
v 1.3 -0.2 -1.3
v 1.3 3.8 -1.2
v 1.3 3.7 -1.2
v 1.3 1.4 -1.2
v 1.3 1.3 -1.2
v 1.3 0.7 -1.2
v 1.3 0.6 -1.2
v 1.3 -0.1 -1.2
v 1.3 3.7 1.1
v 1.3 1.4 1.1
v 1.3 1.3 1.1
v 1.3 0.7 1.1
v 1.3 0.6 1.1
v 1.3 -0.1 1.1
v 1.3 3.8 1.2
v 1.3 -0.2 1.2
v 1.2 3.8 -1.3
v 1.2 3.7 -1.3
v 1.2 3.8 -1.2
v 1.2 3.7 -1.2
v 0.8 3.2 -1.3
v 0.8 1.8 -1.3
v 0.8 3.2 -1.2
v 0.8 1.8 -1.2
v 0.7 3.3 -1.3
v 0.7 3.2 -1.3
v 0.7 1.8 -1.3
v 0.7 1.7 -1.3
v 0.7 3.3 -1.2
v 0.7 3.2 -1.2
v 0.7 1.8 -1.2
v 0.7 1.7 -1.2
v 0.6 3.2 -1.3
v 0.6 1.8 -1.3
v 0.6 3.2 -1.2
v 0.6 1.8 -1.2
v 0.5 1.2 -1.3
v 0.5 1.1 -1.3
v 0.5 1.2 -1.2
v 0.5 1.1 -1.2
v 1.19209e-07 1.3 -1.3
v 1.19209e-07 0.7 -1.3
v 1.19209e-07 1.3 -1.2
v 1.19209e-07 0.7 -1.2
v -0.4 0.5 -1.3
v -0.4 0.4 -1.3
v -0.4 0.5 -1.2
v -0.4 0.4 -1.2
v -0.7 1.2 -1.3
v -0.7 1.1 -1.3
v -0.7 1.2 -1.2
v -0.7 1.1 -1.2
v 0.9 3.2 -1.3
v 0.9 1.8 -1.3
v 0.9 3.2 -1.2
v 0.9 1.8 -1.2
v 0.8 3.3 -1.3
v 0.8 3.2 -1.3
v 0.8 1.8 -1.3
v 0.8 1.7 -1.3
v 0.8 1.2 -1.3
v 0.8 1.1 -1.3
v 0.8 3.3 -1.2
v 0.8 3.2 -1.2
v 0.8 1.8 -1.2
v 0.8 1.7 -1.2
v 0.8 1.2 -1.2
v 0.8 1.1 -1.2
v 0.7 3.2 -1.3
v 0.7 1.8 -1.3
v 0.7 3.2 -1.2
v 0.7 1.8 -1.2
v 0.5 0.5 -1.3
v 0.5 0.4 -1.3
v 0.5 0.5 -1.2
v 0.5 0.4 -1.2
v 0.1 1.3 -1.3
v 0.1 0.7 -1.3
v 0.1 1.3 -1.2
v 0.1 0.7 -1.2
v -0.4 1.2 -1.3
v -0.4 1.1 -1.3
v -0.4 1.2 -1.2
v -0.4 1.1 -1.2
v -1.1 3.8 -1.3
v -1.1 3.7 -1.3
v -1.1 3.8 -1.2
v -1.1 3.7 -1.2
v -1.2 3.7 -1.3
v -1.2 1.4 -1.3
v -1.2 1.3 -1.3
v -1.2 0.7 -1.3
v -1.2 0.6 -1.3
v -1.2 -0.2 -1.3
v -1.2 3.8 -1.2
v -1.2 3.7 -1.2
v -1.2 1.4 -1.2
v -1.2 1.3 -1.2
v -1.2 0.7 -1.2
v -1.2 0.6 -1.2
v -1.2 -0.1 -1.2
v -1.2 3.7 1.1
v -1.2 1.4 1.1
v -1.2 1.3 1.1
v -1.2 0.7 1.1
v -1.2 0.6 1.1
v -1.2 -0.1 1.1
v -1.2 3.8 1.2
v -1.2 -0.2 1.2
v 1.3 3.8 -1.2
v 1.3 3.8 1.2
v 1.2 3.8 -1.3
v 1.2 3.8 -1.2
v 1.2 3.8 1.1
v -1.1 3.8 -1.3
v -1.1 3.8 -1.2
v -1.1 3.8 1.1
v -1.2 3.8 -1.2
v -1.2 3.8 1.2
v 1.3 3.7 -1.3
v 1.3 3.7 -1.2
v 1.2 3.7 -1.3
v 1.2 3.7 -1.2
v -1.1 3.7 -1.3
v -1.1 3.7 -1.2
v -1.2 3.7 -1.3
v -1.2 3.7 -1.2
v 0.8 3.2 -1.3
v 0.8 3.2 -1.2
v 0.7 3.2 -1.3
v 0.7 3.2 -1.2
v 0.9 1.8 -1.3
v 0.9 1.8 -1.2
v 0.8 1.8 -1.3
v 0.8 1.8 -1.2
v 0.7 1.8 -1.3
v 0.7 1.8 -1.2
v 0.6 1.8 -1.3
v 0.6 1.8 -1.2
v 0.8 1.7 -1.3
v 0.8 1.7 -1.2
v 0.7 1.7 -1.3
v 0.7 1.7 -1.2
v 1.3 1.3 -1.3
v 1.3 1.3 -1.2
v 1.2 1.3 -1.3
v 1.2 1.3 -1.2
v 0.9 1.3 -1.3
v 0.9 1.3 -1.2
v 0.4 1.3 -1.3
v 0.4 1.3 -1.2
v 0.1 1.3 -1.3
v 0.1 1.3 -1.2
v 1.19209e-07 1.3 -1.3
v 1.19209e-07 1.3 -1.2
v -0.3 1.3 -1.3
v -0.3 1.3 -1.2
v -0.8 1.3 -1.3
v -0.8 1.3 -1.2
v -1.1 1.3 -1.3
v -1.1 1.3 -1.2
v -1.2 1.3 -1.3
v -1.2 1.3 -1.2
v 0.8 1.1 -1.3
v 0.8 1.1 -1.2
v 0.5 1.1 -1.3
v 0.5 1.1 -1.2
v -0.4 1.1 -1.3
v -0.4 1.1 -1.2
v -0.7 1.1 -1.3
v -0.7 1.1 -1.2
v 1.3 0.6 -1.3
v 1.3 0.6 -1.2
v 1.2 0.6 -1.3
v 1.2 0.6 -1.2
v 0.6 0.6 -1.3
v 0.6 0.6 -1.2
v -0.5 0.6 -1.3
v -0.5 0.6 -1.2
v -1.1 0.6 -1.3
v -1.1 0.6 -1.2
v -1.2 0.6 -1.3
v -1.2 0.6 -1.2
v 0.5 0.4 -1.3
v 0.5 0.4 -1.2
v -0.4 0.4 -1.3
v -0.4 0.4 -1.2
v 0.8 3.3 -1.3
v 0.8 3.3 -1.2
v 0.7 3.3 -1.3
v 0.7 3.3 -1.2
v 0.9 3.2 -1.3
v 0.9 3.2 -1.2
v 0.8 3.2 -1.3
v 0.8 3.2 -1.2
v 0.7 3.2 -1.3
v 0.7 3.2 -1.2
v 0.6 3.2 -1.3
v 0.6 3.2 -1.2
v 0.8 1.8 -1.3
v 0.8 1.8 -1.2
v 0.7 1.8 -1.3
v 0.7 1.8 -1.2
v 1.3 1.4 -1.3
v 1.3 1.4 -1.2
v 1.2 1.4 -1.3
v 1.2 1.4 -1.2
v -1.1 1.4 -1.3
v -1.1 1.4 -1.2
v -1.2 1.4 -1.3
v -1.2 1.4 -1.2
v 0.8 1.2 -1.3
v 0.8 1.2 -1.2
v 0.5 1.2 -1.3
v 0.5 1.2 -1.2
v -0.4 1.2 -1.3
v -0.4 1.2 -1.2
v -0.7 1.2 -1.3
v -0.7 1.2 -1.2
v 1.3 0.7 -1.3
v 1.3 0.7 -1.2
v 1.2 0.7 -1.3
v 1.2 0.7 -1.2
v 0.1 0.7 -1.3
v 0.1 0.7 -1.2
v 1.19209e-07 0.7 -1.3
v 1.19209e-07 0.7 -1.2
v -1.1 0.7 -1.3
v -1.1 0.7 -1.2
v -1.2 0.7 -1.3
v -1.2 0.7 -1.2
v 0.5 0.5 -1.3
v 0.5 0.5 -1.2
v -0.4 0.5 -1.3
v -0.4 0.5 -1.2
v 1.3 -0.2 -1.3
v 1.3 -0.2 1.2
v -1.2 -0.2 -1.3
v -1.2 -0.2 1.2
v 1.2 3.8 -1.3
v -1.1 3.8 -1.3
v 1.3 3.7 -1.3
v 1.2 3.7 -1.3
v -1.1 3.7 -1.3
v -1.2 3.7 -1.3
v 0.8 3.3 -1.3
v 0.7 3.3 -1.3
v 0.9 3.2 -1.3
v 0.8 3.2 -1.3
v 0.7 3.2 -1.3
v 0.6 3.2 -1.3
v 0.9 1.8 -1.3
v 0.8 1.8 -1.3
v 0.7 1.8 -1.3
v 0.6 1.8 -1.3
v 0.8 1.7 -1.3
v 0.7 1.7 -1.3
v 1.3 1.4 -1.3
v 1.2 1.4 -1.3
v -1.1 1.4 -1.3
v -1.2 1.4 -1.3
v 1.3 1.3 -1.3
v 1.2 1.3 -1.3
v 0.9 1.3 -1.3
v 0.4 1.3 -1.3
v 0.1 1.3 -1.3
v 1.19209e-07 1.3 -1.3
v -0.3 1.3 -1.3
v -0.8 1.3 -1.3
v -1.1 1.3 -1.3
v -1.2 1.3 -1.3
v 0.8 1.2 -1.3
v 0.5 1.2 -1.3
v -0.4 1.2 -1.3
v -0.7 1.2 -1.3
v 0.9 1.1 -1.3
v 0.8 1.1 -1.3
v 0.5 1.1 -1.3
v 0.4 1.1 -1.3
v -0.3 1.1 -1.3
v -0.4 1.1 -1.3
v -0.7 1.1 -1.3
v -0.8 1.1 -1.3
v 0.8 1 -1.3
v 0.5 1 -1.3
v -0.4 1 -1.3
v -0.7 1 -1.3
v 1.3 0.7 -1.3
v 1.2 0.7 -1.3
v 0.1 0.7 -1.3
v 1.19209e-07 0.7 -1.3
v -1.1 0.7 -1.3
v -1.2 0.7 -1.3
v 1.3 0.6 -1.3
v 1.2 0.6 -1.3
v 0.6 0.6 -1.3
v -0.5 0.6 -1.3
v -1.1 0.6 -1.3
v -1.2 0.6 -1.3
v 0.5 0.5 -1.3
v -0.4 0.5 -1.3
v 0.6 0.4 -1.3
v 0.5 0.4 -1.3
v -0.4 0.4 -1.3
v -0.5 0.4 -1.3
v 0.5 0.3 -1.3
v -0.4 0.3 -1.3
v 1.2 -0.1 -1.3
v -1.1 -0.1 -1.3
v 1.3 -0.2 -1.3
v -1.2 -0.2 -1.3
v 1.3 3.8 -1.2
v 1.2 3.8 -1.2
v -1.1 3.8 -1.2
v -1.2 3.8 -1.2
v 1.3 3.7 -1.2
v 1.2 3.7 -1.2
v -1.1 3.7 -1.2
v -1.2 3.7 -1.2
v 0.8 3.3 -1.2
v 0.7 3.3 -1.2
v 0.9 3.2 -1.2
v 0.8 3.2 -1.2
v 0.7 3.2 -1.2
v 0.6 3.2 -1.2
v 0.9 1.8 -1.2
v 0.8 1.8 -1.2
v 0.7 1.8 -1.2
v 0.6 1.8 -1.2
v 0.8 1.7 -1.2
v 0.7 1.7 -1.2
v 1.3 1.4 -1.2
v 1.2 1.4 -1.2
v -1.1 1.4 -1.2
v -1.2 1.4 -1.2
v 1.3 1.3 -1.2
v 1.2 1.3 -1.2
v 0.9 1.3 -1.2
v 0.4 1.3 -1.2
v 0.1 1.3 -1.2
v 1.19209e-07 1.3 -1.2
v -0.3 1.3 -1.2
v -0.8 1.3 -1.2
v -1.1 1.3 -1.2
v -1.2 1.3 -1.2
v 0.8 1.2 -1.2
v 0.5 1.2 -1.2
v -0.4 1.2 -1.2
v -0.7 1.2 -1.2
v 0.8 1.1 -1.2
v 0.5 1.1 -1.2
v -0.4 1.1 -1.2
v -0.7 1.1 -1.2
v 1.3 0.7 -1.2
v 1.2 0.7 -1.2
v 0.1 0.7 -1.2
v 1.19209e-07 0.7 -1.2
v -1.1 0.7 -1.2
v -1.2 0.7 -1.2
v 1.3 0.6 -1.2
v 1.2 0.6 -1.2
v 0.6 0.6 -1.2
v -0.5 0.6 -1.2
v -1.1 0.6 -1.2
v -1.2 0.6 -1.2
v 0.5 0.5 -1.2
v -0.4 0.5 -1.2
v 0.5 0.4 -1.2
v -0.4 0.4 -1.2
v 1.3 3.8 1.2
v -1.2 3.8 1.2
v 1.2 3.7 1.2
v -1.1 3.7 1.2
v 1.2 1.4 1.2
v -1.1 1.4 1.2
v 1.2 1.3 1.2
v 0.1 1.3 1.2
v 1.19209e-07 1.3 1.2
v -1.1 1.3 1.2
v 1.2 0.7 1.2
v 0.1 0.7 1.2
v 1.19209e-07 0.7 1.2
v -1.1 0.7 1.2
v 1.2 0.6 1.2
v -1.1 0.6 1.2
v 1.2 -0.1 1.2
v -1.1 -0.1 1.2
v 1.3 -0.2 1.2
v -1.2 -0.2 1.2

# faces
f 8/4/1 2/4/1 1/4/1
f 9/4/1 2/4/1 8/4/1
f 10/4/1 4/4/1 3/4/1
f 11/4/1 4/4/1 10/4/1
f 12/4/1 6/4/1 5/4/1
f 13/4/1 6/4/1 12/4/1
f 14/1/1 9/1/1 8/1/1
f 14/4/1 8/4/1 7/4/1
f 15/4/1 10/4/1 9/4/1
f 15/1/1 9/1/1 14/1/1
f 16/1/1 11/1/1 10/1/1
f 16/4/1 10/4/1 15/4/1
f 17/4/1 12/4/1 11/4/1
f 17/1/1 11/1/1 16/1/1
f 18/1/1 13/1/1 12/1/1
f 18/4/1 12/4/1 17/4/1
f 19/4/1 6/4/1 13/4/1
f 19/1/1 13/1/1 18/1/1
f 20/4/1 15/4/1 14/4/1
f 20/4/1 18/4/1 17/4/1
f 20/4/1 19/4/1 18/4/1
f 20/4/1 16/4/1 15/4/1
f 20/4/1 17/4/1 16/4/1
f 20/4/1 14/4/1 7/4/1
f 21/4/1 6/4/1 19/4/1
f 21/4/1 19/4/1 20/4/1
f 24/4/1 23/4/1 22/4/1
f 25/4/1 23/4/1 24/4/1
f 28/5/1 27/5/1 26/5/1
f 29/5/1 27/5/1 28/5/1
f 34/1/1 31/1/1 30/1/1
f 35/1/1 31/1/1 34/1/1
f 36/1/1 33/1/1 32/1/1
f 37/1/1 33/1/1 36/1/1
f 40/1/1 39/1/1 38/1/1
f 41/1/1 39/1/1 40/1/1
f 44/2/1 43/2/1 42/2/1
f 45/2/1 43/2/1 44/2/1
f 48/1/1 47/1/1 46/1/1
f 49/1/1 47/1/1 48/1/1
f 52/2/1 51/2/1 50/2/1
f 53/2/1 51/2/1 52/2/1
f 56/2/1 55/2/1 54/2/1
f 57/2/1 55/2/1 56/2/1
f 58/1/2 59/1/2 60/1/2
f 60/1/2 59/1/2 61/1/2
f 62/1/2 63/1/2 68/1/2
f 68/1/2 63/1/2 69/1/2
f 64/1/2 65/1/2 70/1/2
f 70/1/2 65/1/2 71/1/2
f 66/2/2 67/2/2 72/2/2
f 72/2/2 67/2/2 73/2/2
f 74/5/2 75/5/2 76/5/2
f 76/5/2 75/5/2 77/5/2
f 78/2/2 79/2/2 80/2/2
f 80/2/2 79/2/2 81/2/2
f 82/1/2 83/1/2 84/1/2
f 84/1/2 83/1/2 85/1/2
f 86/2/2 87/2/2 88/2/2
f 88/2/2 87/2/2 89/2/2
f 90/4/2 91/4/2 92/4/2
f 92/4/2 91/4/2 93/4/2
f 94/4/2 95/4/2 101/4/2
f 101/4/2 95/4/2 102/4/2
f 96/4/2 97/4/2 103/4/2
f 103/4/2 97/4/2 104/4/2
f 98/4/2 99/4/2 105/4/2
f 105/4/2 99/4/2 106/4/2
f 101/1/2 102/1/2 107/1/2
f 100/4/2 101/4/2 107/4/2
f 102/4/2 103/4/2 108/4/2
f 107/1/2 102/1/2 108/1/2
f 103/1/2 104/1/2 109/1/2
f 108/4/2 103/4/2 109/4/2
f 104/4/2 105/4/2 110/4/2
f 109/1/2 104/1/2 110/1/2
f 105/1/2 106/1/2 111/1/2
f 110/4/2 105/4/2 111/4/2
f 106/4/2 99/4/2 112/4/2
f 111/1/2 106/1/2 112/1/2
f 107/4/2 108/4/2 113/4/2
f 110/4/2 111/4/2 113/4/2
f 111/4/2 112/4/2 113/4/2
f 108/4/2 109/4/2 113/4/2
f 109/4/2 110/4/2 113/4/2
f 100/4/2 107/4/2 113/4/2
f 112/4/2 99/4/2 114/4/2
f 113/4/2 112/4/2 114/4/2
f 118/4/3 116/4/3 115/4/3
f 119/4/3 116/4/3 118/4/3
f 120/4/3 118/4/3 117/4/3
f 121/1/3 119/1/3 118/1/3
f 121/4/3 118/4/3 120/4/3
f 122/4/3 116/4/3 119/4/3
f 122/1/3 119/1/3 121/1/3
f 123/4/3 122/4/3 121/4/3
f 124/4/3 116/4/3 122/4/3
f 124/4/3 122/4/3 123/4/3
f 127/4/3 126/4/3 125/4/3
f 128/4/3 126/4/3 127/4/3
f 131/4/3 130/4/3 129/4/3
f 132/4/3 130/4/3 131/4/3
f 135/5/3 134/5/3 133/5/3
f 136/5/3 134/5/3 135/5/3
f 139/1/3 138/1/3 137/1/3
f 140/1/3 138/1/3 139/1/3
f 143/1/3 142/1/3 141/1/3
f 144/1/3 142/1/3 143/1/3
f 147/1/3 146/1/3 145/1/3
f 148/1/3 146/1/3 147/1/3
f 151/4/3 150/4/3 149/4/3
f 152/4/3 150/4/3 151/4/3
f 153/1/3 152/1/3 151/1/3
f 154/1/3 152/1/3 153/1/3
f 155/2/3 154/2/3 153/2/3
f 156/2/3 154/2/3 155/2/3
f 157/1/3 156/1/3 155/1/3
f 158/1/3 156/1/3 157/1/3
f 161/1/3 160/1/3 159/1/3
f 162/1/3 160/1/3 161/1/3
f 163/2/3 162/2/3 161/2/3
f 164/2/3 162/2/3 163/2/3
f 165/1/3 164/1/3 163/1/3
f 166/1/3 164/1/3 165/1/3
f 167/4/3 166/4/3 165/4/3
f 168/4/3 166/4/3 167/4/3
f 171/2/3 170/2/3 169/2/3
f 172/2/3 170/2/3 171/2/3
f 175/2/3 174/2/3 173/2/3
f 176/2/3 174/2/3 175/2/3
f 179/4/3 178/4/3 177/4/3
f 180/4/3 178/4/3 179/4/3
f 181/1/3 180/1/3 179/1/3
f 182/1/3 180/1/3 181/1/3
f 183/2/3 182/2/3 181/2/3
f 184/2/3 182/2/3 183/2/3
f 185/1/3 184/1/3 183/1/3
f 186/1/3 184/1/3 185/1/3
f 187/4/3 186/4/3 185/4/3
f 188/4/3 186/4/3 187/4/3
f 191/2/3 190/2/3 189/2/3
f 192/2/3 190/2/3 191/2/3
f 193/1/4 194/1/4 195/1/4
f 195/1/4 194/1/4 196/1/4
f 197/1/4 198/1/4 199/1/4
f 199/1/4 198/1/4 200/1/4
f 201/1/4 202/1/4 203/1/4
f 203/1/4 202/1/4 204/1/4
f 205/5/4 206/5/4 207/5/4
f 207/5/4 206/5/4 208/5/4
f 209/4/4 210/4/4 211/4/4
f 211/4/4 210/4/4 212/4/4
f 211/1/4 212/1/4 213/1/4
f 213/1/4 212/1/4 214/1/4
f 213/4/4 214/4/4 215/4/4
f 215/4/4 214/4/4 216/4/4
f 217/2/4 218/2/4 219/2/4
f 219/2/4 218/2/4 220/2/4
f 221/2/4 222/2/4 223/2/4
f 223/2/4 222/2/4 224/2/4
f 225/4/4 226/4/4 227/4/4
f 227/4/4 226/4/4 228/4/4
f 227/1/4 228/1/4 229/1/4
f 229/1/4 228/1/4 230/1/4
f 231/1/4 232/1/4 233/1/4
f 233/1/4 232/1/4 234/1/4
f 233/4/4 234/4/4 235/4/4
f 235/4/4 234/4/4 236/4/4
f 237/2/4 238/2/4 239/2/4
f 239/2/4 238/2/4 240/2/4
f 241/4/4 242/4/4 243/4/4
f 243/4/4 242/4/4 244/4/4
f 248/4/5 246/4/5 245/4/5
f 249/4/5 246/4/5 248/4/5
f 251/1/5 249/1/5 248/1/5
f 252/1/5 249/1/5 251/1/5
f 253/1/5 251/1/5 248/1/5
f 254/1/5 251/1/5 253/1/5
f 255/1/5 249/1/5 252/1/5
f 256/1/5 249/1/5 255/1/5
f 257/1/5 253/1/5 248/1/5
f 258/5/5 255/5/5 254/5/5
f 259/5/5 255/5/5 258/5/5
f 260/1/5 249/1/5 256/1/5
f 261/1/5 258/1/5 257/1/5
f 262/1/5 260/1/5 259/1/5
f 263/4/5 248/4/5 247/4/5
f 264/1/5 262/1/5 261/1/5
f 264/4/5 248/4/5 263/4/5
f 264/1/5 261/1/5 257/1/5
f 264/1/5 257/1/5 248/1/5
f 265/4/5 250/4/5 249/4/5
f 265/1/5 262/1/5 264/1/5
f 265/1/5 260/1/5 262/1/5
f 265/1/5 249/1/5 260/1/5
f 266/4/5 250/4/5 265/4/5
f 277/2/5 270/2/5 269/2/5
f 278/2/5 270/2/5 277/2/5
f 279/2/5 274/2/5 273/2/5
f 280/2/5 274/2/5 279/2/5
f 281/1/5 269/1/5 268/1/5
f 281/2/5 277/2/5 269/2/5
f 282/2/5 277/2/5 281/2/5
f 283/2/5 270/2/5 278/2/5
f 284/1/5 271/1/5 270/1/5
f 284/2/5 270/2/5 283/2/5
f 285/1/5 273/1/5 272/1/5
f 285/2/5 279/2/5 273/2/5
f 286/2/5 279/2/5 285/2/5
f 287/2/5 274/2/5 280/2/5
f 288/1/5 275/1/5 274/1/5
f 288/2/5 274/2/5 287/2/5
f 289/2/5 283/2/5 282/2/5
f 289/1/5 282/1/5 281/1/5
f 290/1/5 284/1/5 283/1/5
f 290/2/5 283/2/5 289/2/5
f 291/1/5 286/1/5 285/1/5
f 291/2/5 287/2/5 286/2/5
f 292/1/5 288/1/5 287/1/5
f 292/2/5 287/2/5 291/2/5
f 293/4/5 268/4/5 267/4/5
f 294/1/5 290/1/5 289/1/5
f 294/4/5 268/4/5 293/4/5
f 294/1/5 289/1/5 281/1/5
f 294/1/5 281/1/5 268/1/5
f 295/1/5 284/1/5 290/1/5
f 295/1/5 290/1/5 294/1/5
f 295/1/5 271/1/5 284/1/5
f 296/1/5 285/1/5 272/1/5
f 296/1/5 291/1/5 285/1/5
f 296/1/5 292/1/5 291/1/5
f 297/1/5 288/1/5 292/1/5
f 297/1/5 292/1/5 296/1/5
f 297/4/5 276/4/5 275/4/5
f 297/1/5 275/1/5 288/1/5
f 298/4/5 276/4/5 297/4/5
f 305/2/5 302/2/5 301/2/5
f 306/2/5 302/2/5 305/2/5
f 307/1/5 301/1/5 300/1/5
f 307/2/5 305/2/5 301/2/5
f 308/2/5 305/2/5 307/2/5
f 309/2/5 302/2/5 306/2/5
f 310/1/5 303/1/5 302/1/5
f 310/2/5 302/2/5 309/2/5
f 311/1/5 308/1/5 307/1/5
f 311/2/5 309/2/5 308/2/5
f 312/1/5 310/1/5 309/1/5
f 312/2/5 309/2/5 311/2/5
f 313/4/5 300/4/5 299/4/5
f 313/1/5 311/1/5 307/1/5
f 313/1/5 312/1/5 311/1/5
f 313/1/5 307/1/5 300/1/5
f 314/1/5 310/1/5 312/1/5
f 314/1/5 312/1/5 313/1/5
f 314/1/5 303/1/5 310/1/5
f 314/4/5 304/4/5 303/4/5
f 315/4/5 313/4/5 299/4/5
f 315/4/5 314/4/5 313/4/5
f 316/4/5 304/4/5 314/4/5
f 316/4/5 314/4/5 315/4/5
f 321/4/5 318/4/5 317/4/5
f 322/4/5 318/4/5 321/4/5
f 323/4/5 320/4/5 319/4/5
f 324/4/5 320/4/5 323/4/5
f 328/3/5 326/3/5 325/3/5
f 329/3/5 326/3/5 328/3/5
f 331/3/5 328/3/5 327/3/5
f 332/3/5 328/3/5 331/3/5
f 333/3/5 330/3/5 329/3/5
f 334/3/5 330/3/5 333/3/5
f 335/3/5 333/3/5 332/3/5
f 336/3/5 333/3/5 335/3/5
f 341/4/5 338/4/5 337/4/5
f 341/4/5 340/4/5 339/4/5
f 341/4/5 339/4/5 338/4/5
f 342/4/5 340/4/5 341/4/5
f 343/4/5 340/4/5 342/4/5
f 344/4/5 340/4/5 343/4/5
f 345/4/5 340/4/5 344/4/5
f 346/4/5 340/4/5 345/4/5
f 347/4/5 340/4/5 346/4/5
f 348/4/5 340/4/5 347/4/5
f 349/4/5 340/4/5 348/4/5
f 350/4/5 340/4/5 349/4/5
f 355/5/5 352/5/5 351/5/5
f 356/5/5 352/5/5 355/5/5
f 357/5/5 354/5/5 353/5/5
f 358/5/5 354/5/5 357/5/5
f 361/4/5 346/4/5 345/4/5
f 362/4/5 346/4/5 361/4/5
f 365/4/5 360/4/5 359/4/5
f 365/4/5 364/4/5 363/4/5
f 365/4/5 363/4/5 362/4/5
f 365/4/5 361/4/5 360/4/5
f 365/4/5 362/4/5 361/4/5
f 366/4/5 364/4/5 365/4/5
f 367/4/5 364/4/5 366/4/5
f 368/4/5 364/4/5 367/4/5
f 369/4/5 364/4/5 368/4/5
f 370/4/5 364/4/5 369/4/5
f 373/5/5 372/5/5 371/5/5
f 374/5/5 372/5/5 373/5/5
f 375/4/6 376/4/6 377/4/6
f 377/4/6 376/4/6 378/4/6
f 375/4/6 377/4/6 379/4/6
f 377/1/6 378/1/6 379/1/6
f 378/4/6 376/4/6 380/4/6
f 379/1/6 378/1/6 380/1/6
f 375/4/6 379/4/6 381/4/6
f 379/4/6 380/4/6 381/4/6
f 381/4/6 380/4/6 382/4/6
f 382/4/6 380/4/6 383/4/6
f 380/4/6 376/4/6 384/4/6
f 383/4/6 380/4/6 384/4/6
f 375/4/6 381/4/6 385/4/6
f 381/1/6 382/1/6 385/1/6
f 382/4/6 383/4/6 386/4/6
f 385/1/6 382/1/6 386/1/6
f 383/1/6 384/1/6 387/1/6
f 386/4/6 383/4/6 387/4/6
f 384/4/6 376/4/6 388/4/6
f 387/1/6 384/1/6 388/1/6
f 375/4/6 385/4/6 389/4/6
f 386/4/6 387/4/6 389/4/6
f 387/4/6 388/4/6 389/4/6
f 385/4/6 386/4/6 389/4/6
f 388/4/6 376/4/6 390/4/6
f 389/4/6 388/4/6 390/4/6
f 375/4/6 389/4/6 391/4/6
f 389/1/6 390/1/6 391/1/6
f 390/4/6 376/4/6 392/4/6
f 391/1/6 390/1/6 392/1/6
f 375/4/6 391/4/6 393/4/6
f 391/4/6 392/4/6 393/4/6
f 392/4/6 376/4/6 394/4/6
f 393/4/6 392/4/6 394/4/6
