# MagicaVoxel @ Ephtracy

# group
o 

# material
mtllib officedesk.mtl
usemtl palette

# normals
vn -1 0 0
vn 1 0 0
vn 0 0 1
vn 0 0 -1
vn 0 -1 0
vn 0 1 0

# texcoords
vt 0.0332031 0.5
vt 0.958984 0.5

# verts
v -2 0 0.5
v -2 0 -2
v -2 1 0.5
v -2 1 -2
v -2 1.1 0.5
v -2 1.1 -2
v 0.4 0 -1
v 0.4 0 -1.9
v 0.4 1 -1
v 0.4 1 -1.9
v -1.9 0 0.4
v -1.9 0 -1.9
v -1.9 1 0.4
v -1.9 1 -1.9
v -1 0 0.5
v -1 0 0.4
v -1 1 0.5
v -1 1 0.4
v -1 1 -1
v -1 1.1 0.5
v -1 1.1 -1
v 0.5 0 -1
v 0.5 0 -2
v 0.5 1 -1
v 0.5 1 -2
v 0.5 1.1 -1
v 0.5 1.1 -2
v -2 0 0.5
v -2 1 0.5
v -2 1.1 0.5
v -1 0 0.5
v -1 1 0.5
v -1 1.1 0.5
v -1 1 -1
v -1 1.1 -1
v 0.4 0 -1
v 0.4 1 -1
v 0.5 0 -1
v 0.5 1 -1
v 0.5 1.1 -1
v -1.9 0 -1.9
v -1.9 1 -1.9
v 0.4 0 -1.9
v 0.4 1 -1.9
v -1.9 0 0.4
v -1.9 1 0.4
v -1 0 0.4
v -1 1 0.4
v -2 0 -2
v -2 1 -2
v -2 1.1 -2
v 0.5 0 -2
v 0.5 1 -2
v 0.5 1.1 -2
v -2 0 0.5
v -1 0 0.5
v -1.9 0 0.4
v -1 0 0.4
v 0.4 0 -1
v 0.5 0 -1
v -1.9 0 -1.9
v 0.4 0 -1.9
v -2 0 -2
v 0.5 0 -2
v -1.9 1 0.4
v -1 1 0.4
v -1 1 -1
v 0.4 1 -1
v -1.9 1 -1.9
v 0.4 1 -1.9
v -2 1.1 0.5
v -1 1.1 0.5
v -1 1.1 -1
v 0.5 1.1 -1
v -2 1.1 -2
v 0.5 1.1 -2

# faces
f 3/2/1 2/2/1 1/2/1
f 4/2/1 2/2/1 3/2/1
f 5/1/1 4/1/1 3/1/1
f 6/1/1 4/1/1 5/1/1
f 9/2/1 8/2/1 7/2/1
f 10/2/1 8/2/1 9/2/1
f 11/2/2 12/2/2 13/2/2
f 13/2/2 12/2/2 14/2/2
f 15/2/2 16/2/2 17/2/2
f 17/2/2 16/2/2 18/2/2
f 17/1/2 18/1/2 20/1/2
f 18/1/2 19/1/2 20/1/2
f 20/1/2 19/1/2 21/1/2
f 22/2/2 23/2/2 24/2/2
f 24/2/2 23/2/2 25/2/2
f 24/1/2 25/1/2 26/1/2
f 26/1/2 25/1/2 27/1/2
f 31/2/3 29/2/3 28/2/3
f 32/1/3 30/1/3 29/1/3
f 32/2/3 29/2/3 31/2/3
f 33/1/3 30/1/3 32/1/3
f 37/1/3 35/1/3 34/1/3
f 38/2/3 37/2/3 36/2/3
f 39/1/3 35/1/3 37/1/3
f 39/2/3 37/2/3 38/2/3
f 40/1/3 35/1/3 39/1/3
f 43/2/3 42/2/3 41/2/3
f 44/2/3 42/2/3 43/2/3
f 45/2/4 46/2/4 47/2/4
f 47/2/4 46/2/4 48/2/4
f 49/2/4 50/2/4 52/2/4
f 50/1/4 51/1/4 53/1/4
f 52/2/4 50/2/4 53/2/4
f 53/1/4 51/1/4 54/1/4
f 57/2/5 56/2/5 55/2/5
f 58/2/5 56/2/5 57/2/5
f 61/2/5 57/2/5 55/2/5
f 62/2/5 60/2/5 59/2/5
f 63/2/5 61/2/5 55/2/5
f 63/2/5 62/2/5 61/2/5
f 64/2/5 60/2/5 62/2/5
f 64/2/5 62/2/5 63/2/5
f 67/1/5 66/1/5 65/1/5
f 69/1/5 67/1/5 65/1/5
f 69/1/5 68/1/5 67/1/5
f 70/1/5 68/1/5 69/1/5
f 71/1/6 72/1/6 73/1/6
f 71/1/6 73/1/6 75/1/6
f 73/1/6 74/1/6 75/1/6
f 75/1/6 74/1/6 76/1/6
