# MagicaVoxel @ Ephtracy

# group
o 

# material
mtllib FFdou.mtl
usemtl palette

# normals
vn -1 0 0
vn 1 0 0
vn 0 0 1
vn 0 0 -1
vn 0 -1 0
vn 0 1 0

# texcoords
vt 0.0214844 0.5
vt 0.0878906 0.5
vt 0.974609 0.5
vt 0.986328 0.5
vt 0.990234 0.5

# verts
v -1.1 -0.8 0.5
v -1.1 -0.8 -0.6
v -1.1 -0.5 0.5
v -1.1 -0.5 -0.6
v -1.1 -0.2 0.5
v -1.1 -0.2 -0.6
v -1.1 0.5 0.5
v -1.1 0.5 -0.6
v -1.1 0.6 0.5
v -1.1 0.6 -0.6
v -1.1 0.7 0.5
v -1.1 0.7 -0.6
v -1.1 0.8 0.5
v -1.1 0.8 -0.6
v -1.1 1.5 0.5
v -1.1 1.5 -0.6
v 1.1 -0.8 0.5
v 1.1 -0.8 -0.6
v 1.1 -0.5 0.5
v 1.1 -0.5 -0.6
v 1.1 -0.2 0.5
v 1.1 -0.2 -0.6
v 1.1 0.5 0.5
v 1.1 0.5 -0.6
v 1.1 0.6 0.5
v 1.1 0.6 -0.6
v 1.1 0.7 0.5
v 1.1 0.7 -0.6
v 1.1 0.8 0.5
v 1.1 0.8 -0.6
v 1.1 1.5 0.5
v 1.1 1.5 -0.6
v -1.1 -0.8 0.5
v -1.1 -0.5 0.5
v -1.1 -0.2 0.5
v -1.1 0.5 0.5
v -1.1 0.6 0.5
v -1.1 0.7 0.5
v -1.1 0.8 0.5
v -1.1 1.5 0.5
v -0.3 -0.4 0.5
v -0.3 -0.3 0.5
v 0.3 -0.4 0.5
v 0.3 -0.3 0.5
v 1.1 -0.8 0.5
v 1.1 -0.5 0.5
v 1.1 -0.2 0.5
v 1.1 0.5 0.5
v 1.1 0.6 0.5
v 1.1 0.7 0.5
v 1.1 0.8 0.5
v 1.1 1.5 0.5
v -1.1 -0.8 -0.6
v -1.1 -0.5 -0.6
v -1.1 -0.2 -0.6
v -1.1 0.5 -0.6
v -1.1 0.6 -0.6
v -1.1 0.7 -0.6
v -1.1 0.8 -0.6
v -1.1 1.5 -0.6
v 1.1 -0.8 -0.6
v 1.1 -0.5 -0.6
v 1.1 -0.2 -0.6
v 1.1 0.5 -0.6
v 1.1 0.6 -0.6
v 1.1 0.7 -0.6
v 1.1 0.8 -0.6
v 1.1 1.5 -0.6
v -1.1 -0.8 0.5
v 1.1 -0.8 0.5
v -1.1 -0.8 -0.6
v 1.1 -0.8 -0.6
v -1.1 1.5 0.5
v 1.1 1.5 0.5
v -1.1 1.5 -0.6
v 1.1 1.5 -0.6

# faces
f 3/2/1 2/2/1 1/2/1
f 4/2/1 2/2/1 3/2/1
f 5/5/1 4/5/1 3/5/1
f 6/5/1 4/5/1 5/5/1
f 7/2/1 6/2/1 5/2/1
f 8/2/1 6/2/1 7/2/1
f 9/1/1 8/1/1 7/1/1
f 10/1/1 8/1/1 9/1/1
f 11/3/1 10/3/1 9/3/1
f 12/3/1 10/3/1 11/3/1
f 13/1/1 12/1/1 11/1/1
f 14/1/1 12/1/1 13/1/1
f 15/2/1 14/2/1 13/2/1
f 16/2/1 14/2/1 15/2/1
f 17/2/2 18/2/2 19/2/2
f 19/2/2 18/2/2 20/2/2
f 19/5/2 20/5/2 21/5/2
f 21/5/2 20/5/2 22/5/2
f 21/2/2 22/2/2 23/2/2
f 23/2/2 22/2/2 24/2/2
f 23/1/2 24/1/2 25/1/2
f 25/1/2 24/1/2 26/1/2
f 25/3/2 26/3/2 27/3/2
f 27/3/2 26/3/2 28/3/2
f 27/1/2 28/1/2 29/1/2
f 29/1/2 28/1/2 30/1/2
f 29/2/2 30/2/2 31/2/2
f 31/2/2 30/2/2 32/2/2
f 41/5/3 35/5/3 34/5/3
f 42/5/3 35/5/3 41/5/3
f 43/5/3 41/5/3 34/5/3
f 43/4/3 42/4/3 41/4/3
f 44/5/3 35/5/3 42/5/3
f 44/4/3 42/4/3 43/4/3
f 45/2/3 34/2/3 33/2/3
f 46/5/3 43/5/3 34/5/3
f 46/2/3 34/2/3 45/2/3
f 46/5/3 44/5/3 43/5/3
f 47/5/3 35/5/3 44/5/3
f 47/5/3 44/5/3 46/5/3
f 47/2/3 36/2/3 35/2/3
f 48/1/3 37/1/3 36/1/3
f 48/2/3 36/2/3 47/2/3
f 49/3/3 38/3/3 37/3/3
f 49/1/3 37/1/3 48/1/3
f 50/1/3 39/1/3 38/1/3
f 50/3/3 38/3/3 49/3/3
f 51/2/3 40/2/3 39/2/3
f 51/1/3 39/1/3 50/1/3
f 52/2/3 40/2/3 51/2/3
f 53/2/4 54/2/4 61/2/4
f 54/5/4 55/5/4 62/5/4
f 61/2/4 54/2/4 62/2/4
f 55/2/4 56/2/4 63/2/4
f 62/5/4 55/5/4 63/5/4
f 56/1/4 57/1/4 64/1/4
f 63/2/4 56/2/4 64/2/4
f 57/3/4 58/3/4 65/3/4
f 64/1/4 57/1/4 65/1/4
f 58/1/4 59/1/4 66/1/4
f 65/3/4 58/3/4 66/3/4
f 59/2/4 60/2/4 67/2/4
f 66/1/4 59/1/4 67/1/4
f 67/2/4 60/2/4 68/2/4
f 71/2/5 70/2/5 69/2/5
f 72/2/5 70/2/5 71/2/5
f 73/2/6 74/2/6 75/2/6
f 75/2/6 74/2/6 76/2/6
