# MagicaVoxel @ Ephtracy

# group
o 

# material
mtllib FFkosi.mtl
usemtl palette

# normals
vn -1 0 0
vn 1 0 0
vn 0 0 1
vn 0 0 -1
vn 0 -1 0
vn 0 1 0

# texcoords
vt 0.0214844 0.5
vt 0.0878906 0.5
vt 0.974609 0.5

# verts
v -1.1 -1.7 0.5
v -1.1 -1.7 -0.6
v -1.1 -1.6 0.5
v -1.1 -1.6 -0.6
v -1.1 -1.5 0.5
v -1.1 -1.5 -0.6
v -1.1 -1.4 0.5
v -1.1 -1.4 -0.6
v -1.1 -1.3 0.5
v -1.1 -1.3 -0.6
v -1.1 -0.8 0.5
v -1.1 -0.8 -0.6
v 1 -1.7 0.4
v 1 -1.7 -0.5
v 1 -1.6 0.4
v 1 -1.6 -0.5
v 1 -1.5 0.4
v 1 -1.5 -0.5
v 1 -1.4 0.4
v 1 -1.4 -0.5
v 1 -1.3 0.4
v 1 -1.3 -0.5
v -1 -1.7 0.4
v -1 -1.7 -0.5
v -1 -1.6 0.4
v -1 -1.6 -0.5
v -1 -1.5 0.4
v -1 -1.5 -0.5
v -1 -1.4 0.4
v -1 -1.4 -0.5
v -1 -1.3 0.4
v -1 -1.3 -0.5
v 1.1 -1.7 0.5
v 1.1 -1.7 -0.6
v 1.1 -1.6 0.5
v 1.1 -1.6 -0.6
v 1.1 -1.5 0.5
v 1.1 -1.5 -0.6
v 1.1 -1.4 0.5
v 1.1 -1.4 -0.6
v 1.1 -1.3 0.5
v 1.1 -1.3 -0.6
v 1.1 -0.8 0.5
v 1.1 -0.8 -0.6
v -1.1 -1.7 0.5
v -1.1 -1.6 0.5
v -1.1 -1.5 0.5
v -1.1 -1.4 0.5
v -1.1 -1.3 0.5
v -1.1 -0.8 0.5
v 1.1 -1.7 0.5
v 1.1 -1.6 0.5
v 1.1 -1.5 0.5
v 1.1 -1.4 0.5
v 1.1 -1.3 0.5
v 1.1 -0.8 0.5
v -1 -1.7 -0.5
v -1 -1.6 -0.5
v -1 -1.5 -0.5
v -1 -1.4 -0.5
v -1 -1.3 -0.5
v 1 -1.7 -0.5
v 1 -1.6 -0.5
v 1 -1.5 -0.5
v 1 -1.4 -0.5
v 1 -1.3 -0.5
v -1 -1.7 0.4
v -1 -1.6 0.4
v -1 -1.5 0.4
v -1 -1.4 0.4
v -1 -1.3 0.4
v 1 -1.7 0.4
v 1 -1.6 0.4
v 1 -1.5 0.4
v 1 -1.4 0.4
v 1 -1.3 0.4
v -1.1 -1.7 -0.6
v -1.1 -1.6 -0.6
v -1.1 -1.5 -0.6
v -1.1 -1.4 -0.6
v -1.1 -1.3 -0.6
v -1.1 -0.8 -0.6
v 1.1 -1.7 -0.6
v 1.1 -1.6 -0.6
v 1.1 -1.5 -0.6
v 1.1 -1.4 -0.6
v 1.1 -1.3 -0.6
v 1.1 -0.8 -0.6
v -1.1 -1.7 0.5
v 1.1 -1.7 0.5
v -1 -1.7 0.4
v 1 -1.7 0.4
v -1 -1.7 -0.5
v 1 -1.7 -0.5
v -1.1 -1.7 -0.6
v 1.1 -1.7 -0.6
v -1 -1.3 0.4
v 1 -1.3 0.4
v -1 -1.3 -0.5
v 1 -1.3 -0.5
v -1.1 -0.8 0.5
v 1.1 -0.8 0.5
v -1.1 -0.8 -0.6
v 1.1 -0.8 -0.6

# faces
f 3/2/1 2/2/1 1/2/1
f 4/2/1 2/2/1 3/2/1
f 5/1/1 4/1/1 3/1/1
f 6/1/1 4/1/1 5/1/1
f 7/3/1 6/3/1 5/3/1
f 8/3/1 6/3/1 7/3/1
f 9/1/1 8/1/1 7/1/1
f 10/1/1 8/1/1 9/1/1
f 11/2/1 10/2/1 9/2/1
f 12/2/1 10/2/1 11/2/1
f 15/2/1 14/2/1 13/2/1
f 16/2/1 14/2/1 15/2/1
f 17/1/1 16/1/1 15/1/1
f 18/1/1 16/1/1 17/1/1
f 19/3/1 18/3/1 17/3/1
f 20/3/1 18/3/1 19/3/1
f 21/1/1 20/1/1 19/1/1
f 22/1/1 20/1/1 21/1/1
f 23/2/2 24/2/2 25/2/2
f 25/2/2 24/2/2 26/2/2
f 25/1/2 26/1/2 27/1/2
f 27/1/2 26/1/2 28/1/2
f 27/3/2 28/3/2 29/3/2
f 29/3/2 28/3/2 30/3/2
f 29/1/2 30/1/2 31/1/2
f 31/1/2 30/1/2 32/1/2
f 33/2/2 34/2/2 35/2/2
f 35/2/2 34/2/2 36/2/2
f 35/1/2 36/1/2 37/1/2
f 37/1/2 36/1/2 38/1/2
f 37/3/2 38/3/2 39/3/2
f 39/3/2 38/3/2 40/3/2
f 39/1/2 40/1/2 41/1/2
f 41/1/2 40/1/2 42/1/2
f 41/2/2 42/2/2 43/2/2
f 43/2/2 42/2/2 44/2/2
f 51/2/3 46/2/3 45/2/3
f 52/1/3 47/1/3 46/1/3
f 52/2/3 46/2/3 51/2/3
f 53/3/3 48/3/3 47/3/3
f 53/1/3 47/1/3 52/1/3
f 54/1/3 49/1/3 48/1/3
f 54/3/3 48/3/3 53/3/3
f 55/2/3 50/2/3 49/2/3
f 55/1/3 49/1/3 54/1/3
f 56/2/3 50/2/3 55/2/3
f 62/2/3 58/2/3 57/2/3
f 63/1/3 59/1/3 58/1/3
f 63/2/3 58/2/3 62/2/3
f 64/3/3 60/3/3 59/3/3
f 64/1/3 59/1/3 63/1/3
f 65/1/3 61/1/3 60/1/3
f 65/3/3 60/3/3 64/3/3
f 66/1/3 61/1/3 65/1/3
f 67/2/4 68/2/4 72/2/4
f 68/1/4 69/1/4 73/1/4
f 72/2/4 68/2/4 73/2/4
f 69/3/4 70/3/4 74/3/4
f 73/1/4 69/1/4 74/1/4
f 70/1/4 71/1/4 75/1/4
f 74/3/4 70/3/4 75/3/4
f 75/1/4 71/1/4 76/1/4
f 77/2/4 78/2/4 83/2/4
f 78/1/4 79/1/4 84/1/4
f 83/2/4 78/2/4 84/2/4
f 79/3/4 80/3/4 85/3/4
f 84/1/4 79/1/4 85/1/4
f 80/1/4 81/1/4 86/1/4
f 85/3/4 80/3/4 86/3/4
f 81/2/4 82/2/4 87/2/4
f 86/1/4 81/1/4 87/1/4
f 87/2/4 82/2/4 88/2/4
f 91/2/5 90/2/5 89/2/5
f 92/2/5 90/2/5 91/2/5
f 93/2/5 91/2/5 89/2/5
f 94/2/5 90/2/5 92/2/5
f 95/2/5 93/2/5 89/2/5
f 95/2/5 94/2/5 93/2/5
f 96/2/5 90/2/5 94/2/5
f 96/2/5 94/2/5 95/2/5
f 99/2/5 98/2/5 97/2/5
f 100/2/5 98/2/5 99/2/5
f 101/2/6 102/2/6 103/2/6
f 103/2/6 102/2/6 104/2/6
