# MagicaVoxel @ Ephtracy

# group
o 

# material
mtllib FFlefthandup.mtl
usemtl palette

# normals
vn -1 0 0
vn 1 0 0
vn 0 0 1
vn 0 0 -1
vn 0 -1 0
vn 0 1 0

# texcoords
vt 0.0214844 0.5
vt 0.0878906 0.5
vt 0.974609 0.5

# verts
v 1.1 0 0.3
v 1.1 0 -0.4
v 1.1 0.1 0.3
v 1.1 0.1 -0.4
v 1.1 0.8 0.3
v 1.1 0.8 -0.4
v 1.1 0.9 0.3
v 1.1 0.9 -0.4
v 1.1 1 0.3
v 1.1 1 -0.4
v 1.1 1.1 0.3
v 1.1 1.1 -0.4
v 1.1 1.5 0.3
v 1.1 1.5 -0.4
v 1.7 0 0.3
v 1.7 0 -0.4
v 1.7 0.1 0.3
v 1.7 0.1 -0.4
v 1.7 0.8 0.3
v 1.7 0.8 -0.4
v 1.7 0.9 0.3
v 1.7 0.9 -0.4
v 1.7 1 0.3
v 1.7 1 -0.4
v 1.7 1.1 0.3
v 1.7 1.1 -0.4
v 1.7 1.5 0.3
v 1.7 1.5 -0.4
v 1.1 0 0.3
v 1.1 0.1 0.3
v 1.1 0.8 0.3
v 1.1 0.9 0.3
v 1.1 1 0.3
v 1.1 1.1 0.3
v 1.1 1.5 0.3
v 1.7 0 0.3
v 1.7 0.1 0.3
v 1.7 0.8 0.3
v 1.7 0.9 0.3
v 1.7 1 0.3
v 1.7 1.1 0.3
v 1.7 1.5 0.3
v 1.1 0 -0.4
v 1.1 0.1 -0.4
v 1.1 0.8 -0.4
v 1.1 0.9 -0.4
v 1.1 1 -0.4
v 1.1 1.1 -0.4
v 1.1 1.5 -0.4
v 1.7 0 -0.4
v 1.7 0.1 -0.4
v 1.7 0.8 -0.4
v 1.7 0.9 -0.4
v 1.7 1 -0.4
v 1.7 1.1 -0.4
v 1.7 1.5 -0.4
v 1.1 0 0.3
v 1.7 0 0.3
v 1.1 0 -0.4
v 1.7 0 -0.4
v 1.1 1.5 0.3
v 1.7 1.5 0.3
v 1.1 1.5 -0.4
v 1.7 1.5 -0.4

# faces
f 3/1/1 2/1/1 1/1/1
f 4/1/1 2/1/1 3/1/1
f 5/2/1 4/2/1 3/2/1
f 6/2/1 4/2/1 5/2/1
f 7/1/1 6/1/1 5/1/1
f 8/1/1 6/1/1 7/1/1
f 9/3/1 8/3/1 7/3/1
f 10/3/1 8/3/1 9/3/1
f 11/1/1 10/1/1 9/1/1
f 12/1/1 10/1/1 11/1/1
f 13/2/1 12/2/1 11/2/1
f 14/2/1 12/2/1 13/2/1
f 15/1/2 16/1/2 17/1/2
f 17/1/2 16/1/2 18/1/2
f 17/2/2 18/2/2 19/2/2
f 19/2/2 18/2/2 20/2/2
f 19/1/2 20/1/2 21/1/2
f 21/1/2 20/1/2 22/1/2
f 21/3/2 22/3/2 23/3/2
f 23/3/2 22/3/2 24/3/2
f 23/1/2 24/1/2 25/1/2
f 25/1/2 24/1/2 26/1/2
f 25/2/2 26/2/2 27/2/2
f 27/2/2 26/2/2 28/2/2
f 36/1/3 30/1/3 29/1/3
f 37/2/3 31/2/3 30/2/3
f 37/1/3 30/1/3 36/1/3
f 38/1/3 32/1/3 31/1/3
f 38/2/3 31/2/3 37/2/3
f 39/3/3 33/3/3 32/3/3
f 39/1/3 32/1/3 38/1/3
f 40/1/3 34/1/3 33/1/3
f 40/3/3 33/3/3 39/3/3
f 41/2/3 35/2/3 34/2/3
f 41/1/3 34/1/3 40/1/3
f 42/2/3 35/2/3 41/2/3
f 43/1/4 44/1/4 50/1/4
f 44/2/4 45/2/4 51/2/4
f 50/1/4 44/1/4 51/1/4
f 45/1/4 46/1/4 52/1/4
f 51/2/4 45/2/4 52/2/4
f 46/3/4 47/3/4 53/3/4
f 52/1/4 46/1/4 53/1/4
f 47/1/4 48/1/4 54/1/4
f 53/3/4 47/3/4 54/3/4
f 48/2/4 49/2/4 55/2/4
f 54/1/4 48/1/4 55/1/4
f 55/2/4 49/2/4 56/2/4
f 59/1/5 58/1/5 57/1/5
f 60/1/5 58/1/5 59/1/5
f 61/2/6 62/2/6 63/2/6
f 63/2/6 62/2/6 64/2/6
