# MagicaVoxel @ Ephtracy

# group
o 

# material
mtllib shokaki.mtl
usemtl palette

# normals
vn -1 0 0
vn 1 0 0
vn 0 0 1
vn 0 0 -1
vn 0 -1 0
vn 0 1 0

# texcoords
vt 0.130859 0.5
vt 0.365234 0.5
vt 0.958984 0.5
vt 0.970703 0.5

# verts
v -2 2 1.6
v -2 2 1.4
v -2 2.3 1.6
v -2 2.3 1.4
v -2 3.1 1.6
v -2 3.1 1.4
v -2 3.5 1.6
v -2 3.5 1.4
v -1.9 1.9 1.6
v -1.9 1.9 1.4
v -1.9 2 1.7
v -1.9 2 1.6
v -1.9 2 1.4
v -1.9 2 1.3
v -1.9 2.3 1.7
v -1.9 2.3 1.6
v -1.9 2.3 1.4
v -1.9 2.3 1.3
v -1.9 3.1 1.7
v -1.9 3.1 1.6
v -1.9 3.1 1.4
v -1.9 3.1 1.3
v -1.9 3.5 1.7
v -1.9 3.5 1.6
v -1.9 3.5 1.4
v -1.9 3.5 1.3
v -1.9 3.6 1.6
v -1.9 3.6 1.4
v -1.8 1.9 1.7
v -1.8 1.9 1.6
v -1.8 1.9 1.4
v -1.8 1.9 1.3
v -1.8 2 1.8
v -1.8 2 1.7
v -1.8 2 1.6
v -1.8 2 1.4
v -1.8 2 1.3
v -1.8 2 1.2
v -1.8 2.3 1.8
v -1.8 2.3 1.7
v -1.8 2.3 1.3
v -1.8 2.3 1.2
v -1.8 3.1 1.8
v -1.8 3.1 1.7
v -1.8 3.1 1.3
v -1.8 3.1 1.2
v -1.8 3.5 1.8
v -1.8 3.5 1.7
v -1.8 3.5 1.6
v -1.8 3.5 1.4
v -1.8 3.5 1.3
v -1.8 3.5 1.2
v -1.8 3.6 1.7
v -1.8 3.6 1.6
v -1.8 3.6 1.4
v -1.8 3.6 1.3
v -1.7 3.6 1.6
v -1.7 3.6 1.3
v -1.7 3.6 1.1
v -1.7 3.7 1.6
v -1.7 3.7 1.5
v -1.7 3.7 1.4
v -1.7 3.7 1.3
v -1.7 3.7 1.1
v -1.7 3.8 1.5
v -1.7 3.8 1.4
v -1.7 3.8 1.2
v -1.7 3.9 1.4
v -1.7 3.9 1.2
v -1.7 3.9 1.1
v -1.7 4 1.2
v -1.7 4 1.1
v -1.6 3.6 1.6
v -1.6 3.6 1.3
v -1.6 3.6 1.1
v -1.6 3.7 1.6
v -1.6 3.7 1.5
v -1.6 3.7 1.4
v -1.6 3.7 1.3
v -1.6 3.7 1.1
v -1.6 3.8 1.5
v -1.6 3.8 1.4
v -1.6 3.8 1.2
v -1.6 3.9 1.4
v -1.6 3.9 1.2
v -1.6 3.9 1.1
v -1.6 4 1.2
v -1.6 4 1.1
v -1.5 1.9 1.7
v -1.5 1.9 1.6
v -1.5 1.9 1.4
v -1.5 1.9 1.3
v -1.5 2 1.8
v -1.5 2 1.7
v -1.5 2 1.6
v -1.5 2 1.4
v -1.5 2 1.3
v -1.5 2 1.2
v -1.5 2.3 1.8
v -1.5 2.3 1.7
v -1.5 2.3 1.3
v -1.5 2.3 1.2
v -1.5 3.1 1.8
v -1.5 3.1 1.7
v -1.5 3.1 1.3
v -1.5 3.1 1.2
v -1.5 3.5 1.8
v -1.5 3.5 1.7
v -1.5 3.5 1.6
v -1.5 3.5 1.4
v -1.5 3.5 1.3
v -1.5 3.5 1.2
v -1.5 3.6 1.7
v -1.5 3.6 1.6
v -1.5 3.6 1.4
v -1.5 3.6 1.3
v -1.4 1.9 1.6
v -1.4 1.9 1.4
v -1.4 2 1.7
v -1.4 2 1.6
v -1.4 2 1.4
v -1.4 2 1.3
v -1.4 2.3 1.7
v -1.4 2.3 1.6
v -1.4 2.3 1.4
v -1.4 2.3 1.3
v -1.4 3.1 1.7
v -1.4 3.1 1.6
v -1.4 3.1 1.4
v -1.4 3.1 1.3
v -1.4 3.5 1.7
v -1.4 3.5 1.6
v -1.4 3.5 1.4
v -1.4 3.5 1.3
v -1.4 3.6 1.6
v -1.4 3.6 1.4
v -1.3 2 1.6
v -1.3 2 1.4
v -1.3 2.3 1.6
v -1.3 2.3 1.4
v -1.3 3.1 1.6
v -1.3 3.1 1.4
v -1.3 3.5 1.6
v -1.3 3.5 1.4
v -1.8 2 1.8
v -1.8 2.3 1.8
v -1.8 3.1 1.8
v -1.8 3.5 1.8
v -1.5 2 1.8
v -1.5 2.3 1.8
v -1.5 3.1 1.8
v -1.5 3.5 1.8
v -1.9 2 1.7
v -1.9 2.3 1.7
v -1.9 3.1 1.7
v -1.9 3.5 1.7
v -1.8 1.9 1.7
v -1.8 2 1.7
v -1.8 2.3 1.7
v -1.8 3.1 1.7
v -1.8 3.5 1.7
v -1.8 3.6 1.7
v -1.5 1.9 1.7
v -1.5 2 1.7
v -1.5 2.3 1.7
v -1.5 3.1 1.7
v -1.5 3.5 1.7
v -1.5 3.6 1.7
v -1.4 2 1.7
v -1.4 2.3 1.7
v -1.4 3.1 1.7
v -1.4 3.5 1.7
v -2 2 1.6
v -2 2.3 1.6
v -2 3.1 1.6
v -2 3.5 1.6
v -1.9 1.9 1.6
v -1.9 2 1.6
v -1.9 2.3 1.6
v -1.9 3.1 1.6
v -1.9 3.5 1.6
v -1.9 3.6 1.6
v -1.8 1.9 1.6
v -1.8 2 1.6
v -1.8 3.5 1.6
v -1.8 3.6 1.6
v -1.7 3.6 1.6
v -1.7 3.7 1.6
v -1.6 3.6 1.6
v -1.6 3.7 1.6
v -1.5 1.9 1.6
v -1.5 2 1.6
v -1.5 3.5 1.6
v -1.5 3.6 1.6
v -1.4 1.9 1.6
v -1.4 2 1.6
v -1.4 2.3 1.6
v -1.4 3.1 1.6
v -1.4 3.5 1.6
v -1.4 3.6 1.6
v -1.3 2 1.6
v -1.3 2.3 1.6
v -1.3 3.1 1.6
v -1.3 3.5 1.6
v -1.7 3.7 1.5
v -1.7 3.8 1.5
v -1.6 3.7 1.5
v -1.6 3.8 1.5
v -1.7 3.8 1.4
v -1.7 3.9 1.4
v -1.6 3.8 1.4
v -1.6 3.9 1.4
v -1.7 3.9 1.2
v -1.7 4 1.2
v -1.6 3.9 1.2
v -1.6 4 1.2
v -2 2 1.4
v -2 2.3 1.4
v -2 3.1 1.4
v -2 3.5 1.4
v -1.9 1.9 1.4
v -1.9 2 1.4
v -1.9 2.3 1.4
v -1.9 3.1 1.4
v -1.9 3.5 1.4
v -1.9 3.6 1.4
v -1.8 1.9 1.4
v -1.8 2 1.4
v -1.8 3.5 1.4
v -1.8 3.6 1.4
v -1.7 3.7 1.4
v -1.7 3.8 1.4
v -1.6 3.7 1.4
v -1.6 3.8 1.4
v -1.5 1.9 1.4
v -1.5 2 1.4
v -1.5 3.5 1.4
v -1.5 3.6 1.4
v -1.4 1.9 1.4
v -1.4 2 1.4
v -1.4 2.3 1.4
v -1.4 3.1 1.4
v -1.4 3.5 1.4
v -1.4 3.6 1.4
v -1.3 2 1.4
v -1.3 2.3 1.4
v -1.3 3.1 1.4
v -1.3 3.5 1.4
v -1.9 2 1.3
v -1.9 2.3 1.3
v -1.9 3.1 1.3
v -1.9 3.5 1.3
v -1.8 1.9 1.3
v -1.8 2 1.3
v -1.8 2.3 1.3
v -1.8 3.1 1.3
v -1.8 3.5 1.3
v -1.8 3.6 1.3
v -1.7 3.6 1.3
v -1.6 3.6 1.3
v -1.5 1.9 1.3
v -1.5 2 1.3
v -1.5 2.3 1.3
v -1.5 3.1 1.3
v -1.5 3.5 1.3
v -1.5 3.6 1.3
v -1.4 2 1.3
v -1.4 2.3 1.3
v -1.4 3.1 1.3
v -1.4 3.5 1.3
v -1.8 2 1.2
v -1.8 2.3 1.2
v -1.8 3.1 1.2
v -1.8 3.5 1.2
v -1.7 3.8 1.2
v -1.7 3.9 1.2
v -1.6 3.8 1.2
v -1.6 3.9 1.2
v -1.5 2 1.2
v -1.5 2.3 1.2
v -1.5 3.1 1.2
v -1.5 3.5 1.2
v -1.7 3.6 1.1
v -1.7 3.7 1.1
v -1.7 3.9 1.1
v -1.7 4 1.1
v -1.6 3.6 1.1
v -1.6 3.7 1.1
v -1.6 3.9 1.1
v -1.6 4 1.1
v -1.8 1.9 1.7
v -1.5 1.9 1.7
v -1.9 1.9 1.6
v -1.8 1.9 1.6
v -1.5 1.9 1.6
v -1.4 1.9 1.6
v -1.9 1.9 1.4
v -1.8 1.9 1.4
v -1.5 1.9 1.4
v -1.4 1.9 1.4
v -1.8 1.9 1.3
v -1.5 1.9 1.3
v -1.8 2 1.8
v -1.5 2 1.8
v -1.9 2 1.7
v -1.8 2 1.7
v -1.5 2 1.7
v -1.4 2 1.7
v -2 2 1.6
v -1.9 2 1.6
v -1.8 2 1.6
v -1.5 2 1.6
v -1.4 2 1.6
v -1.3 2 1.6
v -2 2 1.4
v -1.9 2 1.4
v -1.8 2 1.4
v -1.5 2 1.4
v -1.4 2 1.4
v -1.3 2 1.4
v -1.9 2 1.3
v -1.8 2 1.3
v -1.5 2 1.3
v -1.4 2 1.3
v -1.8 2 1.2
v -1.5 2 1.2
v -1.7 3.6 1.3
v -1.6 3.6 1.3
v -1.7 3.6 1.1
v -1.6 3.6 1.1
v -1.7 3.8 1.4
v -1.6 3.8 1.4
v -1.7 3.8 1.2
v -1.6 3.8 1.2
v -1.7 3.9 1.2
v -1.6 3.9 1.2
v -1.7 3.9 1.1
v -1.6 3.9 1.1
v -1.8 3.5 1.8
v -1.5 3.5 1.8
v -1.9 3.5 1.7
v -1.8 3.5 1.7
v -1.5 3.5 1.7
v -1.4 3.5 1.7
v -2 3.5 1.6
v -1.9 3.5 1.6
v -1.8 3.5 1.6
v -1.5 3.5 1.6
v -1.4 3.5 1.6
v -1.3 3.5 1.6
v -2 3.5 1.4
v -1.9 3.5 1.4
v -1.8 3.5 1.4
v -1.5 3.5 1.4
v -1.4 3.5 1.4
v -1.3 3.5 1.4
v -1.9 3.5 1.3
v -1.8 3.5 1.3
v -1.5 3.5 1.3
v -1.4 3.5 1.3
v -1.8 3.5 1.2
v -1.5 3.5 1.2
v -1.8 3.6 1.7
v -1.5 3.6 1.7
v -1.9 3.6 1.6
v -1.8 3.6 1.6
v -1.7 3.6 1.6
v -1.6 3.6 1.6
v -1.5 3.6 1.6
v -1.4 3.6 1.6
v -1.9 3.6 1.4
v -1.8 3.6 1.4
v -1.5 3.6 1.4
v -1.4 3.6 1.4
v -1.8 3.6 1.3
v -1.7 3.6 1.3
v -1.6 3.6 1.3
v -1.5 3.6 1.3
v -1.7 3.7 1.6
v -1.6 3.7 1.6
v -1.7 3.7 1.5
v -1.6 3.7 1.5
v -1.7 3.7 1.4
v -1.6 3.7 1.4
v -1.7 3.7 1.3
v -1.6 3.7 1.3
v -1.7 3.7 1.1
v -1.6 3.7 1.1
v -1.7 3.8 1.5
v -1.6 3.8 1.5
v -1.7 3.8 1.4
v -1.6 3.8 1.4
v -1.7 3.9 1.4
v -1.6 3.9 1.4
v -1.7 3.9 1.2
v -1.6 3.9 1.2
v -1.7 4 1.2
v -1.6 4 1.2
v -1.7 4 1.1
v -1.6 4 1.1

# faces
f 3/1/1 2/1/1 1/1/1
f 4/1/1 2/1/1 3/1/1
f 5/3/1 4/3/1 3/3/1
f 6/3/1 4/3/1 5/3/1
f 7/1/1 6/1/1 5/1/1
f 8/1/1 6/1/1 7/1/1
f 12/1/1 10/1/1 9/1/1
f 13/1/1 10/1/1 12/1/1
f 15/1/1 12/1/1 11/1/1
f 16/1/1 12/1/1 15/1/1
f 17/1/1 14/1/1 13/1/1
f 18/1/1 14/1/1 17/1/1
f 19/3/1 16/3/1 15/3/1
f 20/3/1 16/3/1 19/3/1
f 21/3/1 18/3/1 17/3/1
f 22/3/1 18/3/1 21/3/1
f 23/1/1 20/1/1 19/1/1
f 24/1/1 20/1/1 23/1/1
f 25/1/1 22/1/1 21/1/1
f 26/1/1 22/1/1 25/1/1
f 27/1/1 25/1/1 24/1/1
f 28/1/1 25/1/1 27/1/1
f 34/1/1 30/1/1 29/1/1
f 35/1/1 30/1/1 34/1/1
f 36/1/1 32/1/1 31/1/1
f 37/1/1 32/1/1 36/1/1
f 39/1/1 34/1/1 33/1/1
f 40/1/1 34/1/1 39/1/1
f 41/1/1 38/1/1 37/1/1
f 42/1/1 38/1/1 41/1/1
f 43/3/1 40/3/1 39/3/1
f 44/3/1 40/3/1 43/3/1
f 45/3/1 42/3/1 41/3/1
f 46/3/1 42/3/1 45/3/1
f 47/1/1 44/1/1 43/1/1
f 48/1/1 44/1/1 47/1/1
f 51/1/1 46/1/1 45/1/1
f 52/1/1 46/1/1 51/1/1
f 53/1/1 49/1/1 48/1/1
f 54/1/1 49/1/1 53/1/1
f 55/1/1 51/1/1 50/1/1
f 56/1/1 51/1/1 55/1/1
f 60/4/1 58/4/1 57/4/1
f 61/4/1 58/4/1 60/4/1
f 62/4/1 58/4/1 61/4/1
f 63/2/1 59/2/1 58/2/1
f 63/4/1 58/4/1 62/4/1
f 64/2/1 59/2/1 63/2/1
f 65/2/1 62/2/1 61/2/1
f 66/2/1 62/2/1 65/2/1
f 68/2/1 67/2/1 66/2/1
f 69/2/1 67/2/1 68/2/1
f 71/2/1 70/2/1 69/2/1
f 72/2/1 70/2/1 71/2/1
f 73/4/2 74/4/2 76/4/2
f 76/4/2 74/4/2 77/4/2
f 77/4/2 74/4/2 78/4/2
f 74/2/2 75/2/2 79/2/2
f 78/4/2 74/4/2 79/4/2
f 79/2/2 75/2/2 80/2/2
f 77/2/2 78/2/2 81/2/2
f 81/2/2 78/2/2 82/2/2
f 82/2/2 83/2/2 84/2/2
f 84/2/2 83/2/2 85/2/2
f 85/2/2 86/2/2 87/2/2
f 87/2/2 86/2/2 88/2/2
f 89/1/2 90/1/2 94/1/2
f 94/1/2 90/1/2 95/1/2
f 91/1/2 92/1/2 96/1/2
f 96/1/2 92/1/2 97/1/2
f 93/1/2 94/1/2 99/1/2
f 99/1/2 94/1/2 100/1/2
f 97/1/2 98/1/2 101/1/2
f 101/1/2 98/1/2 102/1/2
f 99/3/2 100/3/2 103/3/2
f 103/3/2 100/3/2 104/3/2
f 101/3/2 102/3/2 105/3/2
f 105/3/2 102/3/2 106/3/2
f 103/1/2 104/1/2 107/1/2
f 107/1/2 104/1/2 108/1/2
f 105/1/2 106/1/2 111/1/2
f 111/1/2 106/1/2 112/1/2
f 108/1/2 109/1/2 113/1/2
f 113/1/2 109/1/2 114/1/2
f 110/1/2 111/1/2 115/1/2
f 115/1/2 111/1/2 116/1/2
f 117/1/2 118/1/2 120/1/2
f 120/1/2 118/1/2 121/1/2
f 119/1/2 120/1/2 123/1/2
f 123/1/2 120/1/2 124/1/2
f 121/1/2 122/1/2 125/1/2
f 125/1/2 122/1/2 126/1/2
f 123/3/2 124/3/2 127/3/2
f 127/3/2 124/3/2 128/3/2
f 125/3/2 126/3/2 129/3/2
f 129/3/2 126/3/2 130/3/2
f 127/1/2 128/1/2 131/1/2
f 131/1/2 128/1/2 132/1/2
f 129/1/2 130/1/2 133/1/2
f 133/1/2 130/1/2 134/1/2
f 132/1/2 133/1/2 135/1/2
f 135/1/2 133/1/2 136/1/2
f 137/1/2 138/1/2 139/1/2
f 139/1/2 138/1/2 140/1/2
f 139/3/2 140/3/2 141/3/2
f 141/3/2 140/3/2 142/3/2
f 141/1/2 142/1/2 143/1/2
f 143/1/2 142/1/2 144/1/2
f 149/1/3 146/1/3 145/1/3
f 150/3/3 147/3/3 146/3/3
f 150/1/3 146/1/3 149/1/3
f 151/1/3 148/1/3 147/1/3
f 151/3/3 147/3/3 150/3/3
f 152/1/3 148/1/3 151/1/3
f 158/1/3 154/1/3 153/1/3
f 159/3/3 155/3/3 154/3/3
f 159/1/3 154/1/3 158/1/3
f 160/1/3 156/1/3 155/1/3
f 160/3/3 155/3/3 159/3/3
f 161/1/3 156/1/3 160/1/3
f 163/1/3 158/1/3 157/1/3
f 164/1/3 158/1/3 163/1/3
f 167/1/3 162/1/3 161/1/3
f 168/1/3 162/1/3 167/1/3
f 169/1/3 165/1/3 164/1/3
f 170/3/3 166/3/3 165/3/3
f 170/1/3 165/1/3 169/1/3
f 171/1/3 167/1/3 166/1/3
f 171/3/3 166/3/3 170/3/3
f 172/1/3 167/1/3 171/1/3
f 178/1/3 174/1/3 173/1/3
f 179/3/3 175/3/3 174/3/3
f 179/1/3 174/1/3 178/1/3
f 180/1/3 176/1/3 175/1/3
f 180/3/3 175/3/3 179/3/3
f 181/1/3 176/1/3 180/1/3
f 183/1/3 178/1/3 177/1/3
f 184/1/3 178/1/3 183/1/3
f 185/1/3 182/1/3 181/1/3
f 186/1/3 182/1/3 185/1/3
f 189/4/3 188/4/3 187/4/3
f 190/4/3 188/4/3 189/4/3
f 195/1/3 192/1/3 191/1/3
f 196/1/3 192/1/3 195/1/3
f 199/1/3 194/1/3 193/1/3
f 200/1/3 194/1/3 199/1/3
f 201/1/3 197/1/3 196/1/3
f 202/3/3 198/3/3 197/3/3
f 202/1/3 197/1/3 201/1/3
f 203/1/3 199/1/3 198/1/3
f 203/3/3 198/3/3 202/3/3
f 204/1/3 199/1/3 203/1/3
f 207/2/3 206/2/3 205/2/3
f 208/2/3 206/2/3 207/2/3
f 211/2/3 210/2/3 209/2/3
f 212/2/3 210/2/3 211/2/3
f 215/2/3 214/2/3 213/2/3
f 216/2/3 214/2/3 215/2/3
f 217/1/4 218/1/4 222/1/4
f 218/3/4 219/3/4 223/3/4
f 222/1/4 218/1/4 223/1/4
f 219/1/4 220/1/4 224/1/4
f 223/3/4 219/3/4 224/3/4
f 224/1/4 220/1/4 225/1/4
f 221/1/4 222/1/4 227/1/4
f 227/1/4 222/1/4 228/1/4
f 225/1/4 226/1/4 229/1/4
f 229/1/4 226/1/4 230/1/4
f 231/2/4 232/2/4 233/2/4
f 233/2/4 232/2/4 234/2/4
f 235/1/4 236/1/4 239/1/4
f 239/1/4 236/1/4 240/1/4
f 237/1/4 238/1/4 243/1/4
f 243/1/4 238/1/4 244/1/4
f 240/1/4 241/1/4 245/1/4
f 241/3/4 242/3/4 246/3/4
f 245/1/4 241/1/4 246/1/4
f 242/1/4 243/1/4 247/1/4
f 246/3/4 242/3/4 247/3/4
f 247/1/4 243/1/4 248/1/4
f 249/1/4 250/1/4 254/1/4
f 250/3/4 251/3/4 255/3/4
f 254/1/4 250/1/4 255/1/4
f 251/1/4 252/1/4 256/1/4
f 255/3/4 251/3/4 256/3/4
f 256/1/4 252/1/4 257/1/4
f 257/1/4 258/1/4 259/1/4
f 257/1/4 259/1/4 260/1/4
f 253/1/4 254/1/4 261/1/4
f 261/1/4 254/1/4 262/1/4
f 257/1/4 260/1/4 265/1/4
f 265/1/4 260/1/4 266/1/4
f 262/1/4 263/1/4 267/1/4
f 263/3/4 264/3/4 268/3/4
f 267/1/4 263/1/4 268/1/4
f 264/1/4 265/1/4 269/1/4
f 268/3/4 264/3/4 269/3/4
f 269/1/4 265/1/4 270/1/4
f 275/2/4 276/2/4 277/2/4
f 277/2/4 276/2/4 278/2/4
f 271/1/4 272/1/4 279/1/4
f 272/3/4 273/3/4 280/3/4
f 279/1/4 272/1/4 280/1/4
f 273/1/4 274/1/4 281/1/4
f 280/3/4 273/3/4 281/3/4
f 281/1/4 274/1/4 282/1/4
f 283/2/4 284/2/4 287/2/4
f 287/2/4 284/2/4 288/2/4
f 285/2/4 286/2/4 289/2/4
f 289/2/4 286/2/4 290/2/4
f 294/1/5 292/1/5 291/1/5
f 295/1/5 292/1/5 294/1/5
f 297/1/5 294/1/5 293/1/5
f 297/1/5 296/1/5 295/1/5
f 297/1/5 295/1/5 294/1/5
f 298/1/5 296/1/5 297/1/5
f 299/1/5 296/1/5 298/1/5
f 300/1/5 296/1/5 299/1/5
f 301/1/5 299/1/5 298/1/5
f 302/1/5 299/1/5 301/1/5
f 306/1/5 304/1/5 303/1/5
f 307/1/5 304/1/5 306/1/5
f 310/1/5 306/1/5 305/1/5
f 311/1/5 306/1/5 310/1/5
f 312/1/5 308/1/5 307/1/5
f 313/1/5 308/1/5 312/1/5
f 315/1/5 310/1/5 309/1/5
f 316/1/5 310/1/5 315/1/5
f 319/1/5 314/1/5 313/1/5
f 320/1/5 314/1/5 319/1/5
f 321/1/5 317/1/5 316/1/5
f 322/1/5 317/1/5 321/1/5
f 323/1/5 319/1/5 318/1/5
f 324/1/5 319/1/5 323/1/5
f 325/1/5 323/1/5 322/1/5
f 326/1/5 323/1/5 325/1/5
f 329/2/5 328/2/5 327/2/5
f 330/2/5 328/2/5 329/2/5
f 333/2/5 332/2/5 331/2/5
f 334/2/5 332/2/5 333/2/5
f 337/2/5 336/2/5 335/2/5
f 338/2/5 336/2/5 337/2/5
f 339/1/6 340/1/6 342/1/6
f 342/1/6 340/1/6 343/1/6
f 341/1/6 342/1/6 346/1/6
f 346/1/6 342/1/6 347/1/6
f 343/1/6 344/1/6 348/1/6
f 348/1/6 344/1/6 349/1/6
f 345/1/6 346/1/6 351/1/6
f 351/1/6 346/1/6 352/1/6
f 349/1/6 350/1/6 355/1/6
f 355/1/6 350/1/6 356/1/6
f 352/1/6 353/1/6 357/1/6
f 357/1/6 353/1/6 358/1/6
f 354/1/6 355/1/6 359/1/6
f 359/1/6 355/1/6 360/1/6
f 358/1/6 359/1/6 361/1/6
f 361/1/6 359/1/6 362/1/6
f 363/1/6 364/1/6 366/1/6
f 366/1/6 364/1/6 367/1/6
f 367/1/6 364/1/6 368/1/6
f 368/1/6 364/1/6 369/1/6
f 365/1/6 366/1/6 371/1/6
f 366/1/6 367/1/6 371/1/6
f 371/1/6 367/1/6 372/1/6
f 369/1/6 370/1/6 373/1/6
f 368/1/6 369/1/6 373/1/6
f 373/1/6 370/1/6 374/1/6
f 372/1/6 367/1/6 375/1/6
f 375/1/6 367/1/6 376/1/6
f 368/1/6 373/1/6 377/1/6
f 377/1/6 373/1/6 378/1/6
f 379/4/6 380/4/6 381/4/6
f 381/4/6 380/4/6 382/4/6
f 383/4/6 384/4/6 385/4/6
f 385/4/6 384/4/6 386/4/6
f 385/2/6 386/2/6 387/2/6
f 387/2/6 386/2/6 388/2/6
f 389/2/6 390/2/6 391/2/6
f 391/2/6 390/2/6 392/2/6
f 393/2/6 394/2/6 395/2/6
f 395/2/6 394/2/6 396/2/6
f 397/2/6 398/2/6 399/2/6
f 399/2/6 398/2/6 400/2/6
