# MagicaVoxel @ Ephtracy

# group
o 

# material
mtllib FF - コピー.mtl
usemtl palette

# normals
vn -1 0 0
vn 1 0 0
vn 0 0 1
vn 0 0 -1
vn 0 -1 0
vn 0 1 0

# texcoords
vt 0.130859 0.5
vt 0.365234 0.5
vt 0.958984 0.5
vt 0.986328 0.5

# verts
v -2 2 1.6
v -2 2 1.4
v -2 2.3 1.6
v -2 2.3 1.4
v -2 3.3 1.6
v -2 3.3 1.4
v -2 3.5 1.6
v -2 3.5 1.4
v -1.9 1.9 1.6
v -1.9 1.9 1.4
v -1.9 2 1.7
v -1.9 2 1.6
v -1.9 2 1.4
v -1.9 2 1.3
v -1.9 2.3 1.7
v -1.9 2.3 1.6
v -1.9 2.3 1.4
v -1.9 2.3 1.3
v -1.9 3.3 1.7
v -1.9 3.3 1.6
v -1.9 3.3 1.4
v -1.9 3.3 1.3
v -1.9 3.5 1.7
v -1.9 3.5 1.6
v -1.9 3.5 1.4
v -1.9 3.5 1.3
v -1.9 3.6 1.6
v -1.9 3.6 1.4
v -1.8 1.9 1.7
v -1.8 1.9 1.6
v -1.8 1.9 1.4
v -1.8 1.9 1.3
v -1.8 2 1.8
v -1.8 2 1.7
v -1.8 2 1.6
v -1.8 2 1.4
v -1.8 2 1.3
v -1.8 2 1.2
v -1.8 2.3 1.8
v -1.8 2.3 1.7
v -1.8 2.3 1.3
v -1.8 2.3 1.2
v -1.8 3.3 1.8
v -1.8 3.3 1.7
v -1.8 3.3 1.3
v -1.8 3.3 1.2
v -1.8 3.5 1.8
v -1.8 3.5 1.7
v -1.8 3.5 1.6
v -1.8 3.5 1.4
v -1.8 3.5 1.3
v -1.8 3.5 1.2
v -1.8 3.6 1.7
v -1.8 3.6 1.6
v -1.8 3.6 1.4
v -1.8 3.6 1.3
v -1.7 3.6 1.6
v -1.7 3.6 1.3
v -1.7 3.6 1.1
v -1.7 3.7 1.6
v -1.7 3.7 1.5
v -1.7 3.7 1.4
v -1.7 3.7 1.1
v -1.7 3.8 1.5
v -1.7 3.8 1.4
v -1.7 3.8 1.2
v -1.7 3.9 1.4
v -1.7 3.9 1.2
v -1.7 3.9 1.1
v -1.7 4 1.2
v -1.7 4 1.1
v -1.6 3.7 1.6
v -1.6 3.7 1.5
v -1.6 3.8 1.6
v -1.6 3.8 1.5
v -1.3 3.6 1.6
v -1.3 3.6 1.5
v -1.3 3.7 1.6
v -1.3 3.7 1.5
v -1.2 2.5 1.6
v -1.2 2.5 1.5
v -1.2 3.6 1.6
v -1.2 3.6 1.5
v -0.5 0 0.4
v -0.5 0 0.3
v -0.5 0.1 0.4
v -0.5 0.1 0.3
v -1.6 3.6 1.6
v -1.6 3.6 1.3
v -1.6 3.6 1.1
v -1.6 3.7 1.6
v -1.6 3.7 1.5
v -1.6 3.7 1.4
v -1.6 3.7 1.1
v -1.6 3.8 1.5
v -1.6 3.8 1.4
v -1.6 3.8 1.2
v -1.6 3.9 1.4
v -1.6 3.9 1.2
v -1.6 3.9 1.1
v -1.6 4 1.2
v -1.6 4 1.1
v -1.5 1.9 1.7
v -1.5 1.9 1.6
v -1.5 1.9 1.4
v -1.5 1.9 1.3
v -1.5 2 1.8
v -1.5 2 1.7
v -1.5 2 1.6
v -1.5 2 1.4
v -1.5 2 1.3
v -1.5 2 1.2
v -1.5 2.3 1.8
v -1.5 2.3 1.7
v -1.5 2.3 1.3
v -1.5 2.3 1.2
v -1.5 3.3 1.8
v -1.5 3.3 1.7
v -1.5 3.3 1.3
v -1.5 3.3 1.2
v -1.5 3.5 1.8
v -1.5 3.5 1.7
v -1.5 3.5 1.6
v -1.5 3.5 1.4
v -1.5 3.5 1.3
v -1.5 3.5 1.2
v -1.5 3.6 1.7
v -1.5 3.6 1.6
v -1.5 3.6 1.4
v -1.5 3.6 1.3
v -1.4 1.9 1.6
v -1.4 1.9 1.4
v -1.4 2 1.7
v -1.4 2 1.6
v -1.4 2 1.4
v -1.4 2 1.3
v -1.4 2.3 1.7
v -1.4 2.3 1.6
v -1.4 2.3 1.4
v -1.4 2.3 1.3
v -1.4 3.3 1.7
v -1.4 3.3 1.6
v -1.4 3.3 1.4
v -1.4 3.3 1.3
v -1.4 3.5 1.7
v -1.4 3.5 1.6
v -1.4 3.5 1.4
v -1.4 3.5 1.3
v -1.4 3.6 1.6
v -1.4 3.6 1.4
v -1.3 2 1.6
v -1.3 2 1.4
v -1.3 2.3 1.6
v -1.3 2.3 1.5
v -1.3 2.3 1.4
v -1.3 2.5 1.6
v -1.3 2.5 1.5
v -1.3 3.3 1.6
v -1.3 3.3 1.4
v -1.3 3.5 1.6
v -1.3 3.5 1.4
v -1.2 2.3 1.6
v -1.2 2.3 1.5
v -1.2 2.4 1.6
v -1.2 2.4 1.5
v -1.2 3.7 1.6
v -1.2 3.7 1.5
v -1.2 3.8 1.6
v -1.2 3.8 1.5
v -1.1 2.4 1.6
v -1.1 2.4 1.5
v -1.1 3.7 1.6
v -1.1 3.7 1.5
v -0.4 0 0.4
v -0.4 0 0.3
v -0.4 0.1 0.4
v -0.4 0.1 0.3
v -1.8 2 1.8
v -1.8 2.3 1.8
v -1.8 3.3 1.8
v -1.8 3.5 1.8
v -1.5 2 1.8
v -1.5 2.3 1.8
v -1.5 3.3 1.8
v -1.5 3.5 1.8
v -1.9 2 1.7
v -1.9 2.3 1.7
v -1.9 3.3 1.7
v -1.9 3.5 1.7
v -1.8 1.9 1.7
v -1.8 2 1.7
v -1.8 2.3 1.7
v -1.8 3.3 1.7
v -1.8 3.5 1.7
v -1.8 3.6 1.7
v -1.5 1.9 1.7
v -1.5 2 1.7
v -1.5 2.3 1.7
v -1.5 3.3 1.7
v -1.5 3.5 1.7
v -1.5 3.6 1.7
v -1.4 2 1.7
v -1.4 2.3 1.7
v -1.4 3.3 1.7
v -1.4 3.5 1.7
v -2 2 1.6
v -2 2.3 1.6
v -2 3.3 1.6
v -2 3.5 1.6
v -1.9 1.9 1.6
v -1.9 2 1.6
v -1.9 2.3 1.6
v -1.9 3.3 1.6
v -1.9 3.5 1.6
v -1.9 3.6 1.6
v -1.8 1.9 1.6
v -1.8 2 1.6
v -1.8 3.5 1.6
v -1.8 3.6 1.6
v -1.7 3.6 1.6
v -1.7 3.7 1.6
v -1.6 3.6 1.6
v -1.6 3.7 1.6
v -1.6 3.8 1.6
v -1.5 1.9 1.6
v -1.5 2 1.6
v -1.5 3.5 1.6
v -1.5 3.6 1.6
v -1.4 1.9 1.6
v -1.4 2 1.6
v -1.4 2.3 1.6
v -1.4 3.3 1.6
v -1.4 3.5 1.6
v -1.4 3.6 1.6
v -1.3 2 1.6
v -1.3 2.3 1.6
v -1.3 2.5 1.6
v -1.3 3.3 1.6
v -1.3 3.5 1.6
v -1.3 3.6 1.6
v -1.3 3.7 1.6
v -1.2 2.3 1.6
v -1.2 2.4 1.6
v -1.2 2.5 1.6
v -1.2 3.6 1.6
v -1.2 3.7 1.6
v -1.2 3.8 1.6
v -1.1 2.4 1.6
v -1.1 3.7 1.6
v -1.7 3.7 1.5
v -1.7 3.8 1.5
v -1.6 3.7 1.5
v -1.6 3.8 1.5
v -1.7 3.8 1.4
v -1.7 3.9 1.4
v -1.6 3.8 1.4
v -1.6 3.9 1.4
v -1.7 3.9 1.2
v -1.7 4 1.2
v -1.6 3.9 1.2
v -1.6 4 1.2
v -0.5 0 0.4
v -0.5 0.1 0.4
v -0.4 0 0.4
v -0.4 0.1 0.4
v -1.6 3.7 1.5
v -1.6 3.8 1.5
v -1.3 2.3 1.5
v -1.3 2.5 1.5
v -1.3 3.6 1.5
v -1.3 3.7 1.5
v -1.2 2.3 1.5
v -1.2 2.4 1.5
v -1.2 2.5 1.5
v -1.2 3.6 1.5
v -1.2 3.7 1.5
v -1.2 3.8 1.5
v -1.1 2.4 1.5
v -1.1 3.7 1.5
v -2 2 1.4
v -2 2.3 1.4
v -2 3.3 1.4
v -2 3.5 1.4
v -1.9 1.9 1.4
v -1.9 2 1.4
v -1.9 2.3 1.4
v -1.9 3.3 1.4
v -1.9 3.5 1.4
v -1.9 3.6 1.4
v -1.8 1.9 1.4
v -1.8 2 1.4
v -1.8 3.5 1.4
v -1.8 3.6 1.4
v -1.7 3.7 1.4
v -1.7 3.8 1.4
v -1.6 3.7 1.4
v -1.6 3.8 1.4
v -1.5 1.9 1.4
v -1.5 2 1.4
v -1.5 3.5 1.4
v -1.5 3.6 1.4
v -1.4 1.9 1.4
v -1.4 2 1.4
v -1.4 2.3 1.4
v -1.4 3.3 1.4
v -1.4 3.5 1.4
v -1.4 3.6 1.4
v -1.3 2 1.4
v -1.3 2.3 1.4
v -1.3 3.3 1.4
v -1.3 3.5 1.4
v -1.9 2 1.3
v -1.9 2.3 1.3
v -1.9 3.3 1.3
v -1.9 3.5 1.3
v -1.8 1.9 1.3
v -1.8 2 1.3
v -1.8 2.3 1.3
v -1.8 3.3 1.3
v -1.8 3.5 1.3
v -1.8 3.6 1.3
v -1.7 3.6 1.3
v -1.6 3.6 1.3
v -1.5 1.9 1.3
v -1.5 2 1.3
v -1.5 2.3 1.3
v -1.5 3.3 1.3
v -1.5 3.5 1.3
v -1.5 3.6 1.3
v -1.4 2 1.3
v -1.4 2.3 1.3
v -1.4 3.3 1.3
v -1.4 3.5 1.3
v -1.8 2 1.2
v -1.8 2.3 1.2
v -1.8 3.3 1.2
v -1.8 3.5 1.2
v -1.7 3.8 1.2
v -1.7 3.9 1.2
v -1.6 3.8 1.2
v -1.6 3.9 1.2
v -1.5 2 1.2
v -1.5 2.3 1.2
v -1.5 3.3 1.2
v -1.5 3.5 1.2
v -1.7 3.6 1.1
v -1.7 3.7 1.1
v -1.7 3.9 1.1
v -1.7 4 1.1
v -1.6 3.6 1.1
v -1.6 3.7 1.1
v -1.6 3.9 1.1
v -1.6 4 1.1
v -0.5 0 0.3
v -0.5 0.1 0.3
v -0.4 0 0.3
v -0.4 0.1 0.3
v -0.5 0 0.4
v -0.4 0 0.4
v -0.5 0 0.3
v -0.4 0 0.3
v -1.8 1.9 1.7
v -1.5 1.9 1.7
v -1.9 1.9 1.6
v -1.8 1.9 1.6
v -1.5 1.9 1.6
v -1.4 1.9 1.6
v -1.9 1.9 1.4
v -1.8 1.9 1.4
v -1.5 1.9 1.4
v -1.4 1.9 1.4
v -1.8 1.9 1.3
v -1.5 1.9 1.3
v -1.8 2 1.8
v -1.5 2 1.8
v -1.9 2 1.7
v -1.8 2 1.7
v -1.5 2 1.7
v -1.4 2 1.7
v -2 2 1.6
v -1.9 2 1.6
v -1.8 2 1.6
v -1.5 2 1.6
v -1.4 2 1.6
v -1.3 2 1.6
v -2 2 1.4
v -1.9 2 1.4
v -1.8 2 1.4
v -1.5 2 1.4
v -1.4 2 1.4
v -1.3 2 1.4
v -1.9 2 1.3
v -1.8 2 1.3
v -1.5 2 1.3
v -1.4 2 1.3
v -1.8 2 1.2
v -1.5 2 1.2
v -1.3 2.3 1.6
v -1.2 2.3 1.6
v -1.3 2.3 1.5
v -1.2 2.3 1.5
v -1.2 2.4 1.6
v -1.1 2.4 1.6
v -1.2 2.4 1.5
v -1.1 2.4 1.5
v -1.3 3.6 1.6
v -1.2 3.6 1.6
v -1.3 3.6 1.5
v -1.2 3.6 1.5
v -1.7 3.6 1.3
v -1.6 3.6 1.3
v -1.7 3.6 1.1
v -1.6 3.6 1.1
v -1.6 3.7 1.6
v -1.3 3.7 1.6
v -1.6 3.7 1.5
v -1.3 3.7 1.5
v -1.7 3.8 1.4
v -1.6 3.8 1.4
v -1.7 3.8 1.2
v -1.6 3.8 1.2
v -1.7 3.9 1.2
v -1.6 3.9 1.2
v -1.7 3.9 1.1
v -1.6 3.9 1.1
v -0.5 0.1 0.4
v -0.4 0.1 0.4
v -0.5 0.1 0.3
v -0.4 0.1 0.3
v -1.3 2.5 1.6
v -1.2 2.5 1.6
v -1.3 2.5 1.5
v -1.2 2.5 1.5
v -1.8 3.5 1.8
v -1.5 3.5 1.8
v -1.9 3.5 1.7
v -1.8 3.5 1.7
v -1.5 3.5 1.7
v -1.4 3.5 1.7
v -2 3.5 1.6
v -1.9 3.5 1.6
v -1.8 3.5 1.6
v -1.5 3.5 1.6
v -1.4 3.5 1.6
v -1.3 3.5 1.6
v -2 3.5 1.4
v -1.9 3.5 1.4
v -1.8 3.5 1.4
v -1.5 3.5 1.4
v -1.4 3.5 1.4
v -1.3 3.5 1.4
v -1.9 3.5 1.3
v -1.8 3.5 1.3
v -1.5 3.5 1.3
v -1.4 3.5 1.3
v -1.8 3.5 1.2
v -1.5 3.5 1.2
v -1.8 3.6 1.7
v -1.5 3.6 1.7
v -1.9 3.6 1.6
v -1.8 3.6 1.6
v -1.7 3.6 1.6
v -1.6 3.6 1.6
v -1.5 3.6 1.6
v -1.4 3.6 1.6
v -1.9 3.6 1.4
v -1.8 3.6 1.4
v -1.5 3.6 1.4
v -1.4 3.6 1.4
v -1.8 3.6 1.3
v -1.7 3.6 1.3
v -1.6 3.6 1.3
v -1.5 3.6 1.3
v -1.7 3.7 1.6
v -1.6 3.7 1.6
v -1.2 3.7 1.6
v -1.1 3.7 1.6
v -1.7 3.7 1.5
v -1.6 3.7 1.5
v -1.2 3.7 1.5
v -1.1 3.7 1.5
v -1.7 3.7 1.4
v -1.6 3.7 1.4
v -1.7 3.7 1.1
v -1.6 3.7 1.1
v -1.6 3.8 1.6
v -1.2 3.8 1.6
v -1.7 3.8 1.5
v -1.6 3.8 1.5
v -1.2 3.8 1.5
v -1.7 3.8 1.4
v -1.6 3.8 1.4
v -1.7 3.9 1.4
v -1.6 3.9 1.4
v -1.7 3.9 1.2
v -1.6 3.9 1.2
v -1.7 4 1.2
v -1.6 4 1.2
v -1.7 4 1.1
v -1.6 4 1.1

# faces
f 3/1/1 2/1/1 1/1/1
f 4/1/1 2/1/1 3/1/1
f 5/3/1 4/3/1 3/3/1
f 6/3/1 4/3/1 5/3/1
f 7/1/1 6/1/1 5/1/1
f 8/1/1 6/1/1 7/1/1
f 12/1/1 10/1/1 9/1/1
f 13/1/1 10/1/1 12/1/1
f 15/1/1 12/1/1 11/1/1
f 16/1/1 12/1/1 15/1/1
f 17/1/1 14/1/1 13/1/1
f 18/1/1 14/1/1 17/1/1
f 19/3/1 16/3/1 15/3/1
f 20/3/1 16/3/1 19/3/1
f 21/3/1 18/3/1 17/3/1
f 22/3/1 18/3/1 21/3/1
f 23/1/1 20/1/1 19/1/1
f 24/1/1 20/1/1 23/1/1
f 25/1/1 22/1/1 21/1/1
f 26/1/1 22/1/1 25/1/1
f 27/1/1 25/1/1 24/1/1
f 28/1/1 25/1/1 27/1/1
f 34/1/1 30/1/1 29/1/1
f 35/1/1 30/1/1 34/1/1
f 36/1/1 32/1/1 31/1/1
f 37/1/1 32/1/1 36/1/1
f 39/1/1 34/1/1 33/1/1
f 40/1/1 34/1/1 39/1/1
f 41/1/1 38/1/1 37/1/1
f 42/1/1 38/1/1 41/1/1
f 43/3/1 40/3/1 39/3/1
f 44/3/1 40/3/1 43/3/1
f 45/3/1 42/3/1 41/3/1
f 46/3/1 42/3/1 45/3/1
f 47/1/1 44/1/1 43/1/1
f 48/1/1 44/1/1 47/1/1
f 51/1/1 46/1/1 45/1/1
f 52/1/1 46/1/1 51/1/1
f 53/1/1 49/1/1 48/1/1
f 54/1/1 49/1/1 53/1/1
f 55/1/1 51/1/1 50/1/1
f 56/1/1 51/1/1 55/1/1
f 60/2/1 58/2/1 57/2/1
f 60/2/1 59/2/1 58/2/1
f 61/2/1 59/2/1 60/2/1
f 62/2/1 59/2/1 61/2/1
f 63/2/1 59/2/1 62/2/1
f 64/2/1 62/2/1 61/2/1
f 65/2/1 62/2/1 64/2/1
f 67/2/1 66/2/1 65/2/1
f 68/2/1 66/2/1 67/2/1
f 70/2/1 69/2/1 68/2/1
f 71/2/1 69/2/1 70/2/1
f 74/2/1 73/2/1 72/2/1
f 75/2/1 73/2/1 74/2/1
f 78/2/1 77/2/1 76/2/1
f 79/2/1 77/2/1 78/2/1
f 82/2/1 81/2/1 80/2/1
f 83/2/1 81/2/1 82/2/1
f 86/4/1 85/4/1 84/4/1
f 87/4/1 85/4/1 86/4/1
f 88/2/2 89/2/2 91/2/2
f 89/2/2 90/2/2 91/2/2
f 91/2/2 90/2/2 92/2/2
f 92/2/2 90/2/2 93/2/2
f 93/2/2 90/2/2 94/2/2
f 92/2/2 93/2/2 95/2/2
f 95/2/2 93/2/2 96/2/2
f 96/2/2 97/2/2 98/2/2
f 98/2/2 97/2/2 99/2/2
f 99/2/2 100/2/2 101/2/2
f 101/2/2 100/2/2 102/2/2
f 103/1/2 104/1/2 108/1/2
f 108/1/2 104/1/2 109/1/2
f 105/1/2 106/1/2 110/1/2
f 110/1/2 106/1/2 111/1/2
f 107/1/2 108/1/2 113/1/2
f 113/1/2 108/1/2 114/1/2
f 111/1/2 112/1/2 115/1/2
f 115/1/2 112/1/2 116/1/2
f 113/3/2 114/3/2 117/3/2
f 117/3/2 114/3/2 118/3/2
f 115/3/2 116/3/2 119/3/2
f 119/3/2 116/3/2 120/3/2
f 117/1/2 118/1/2 121/1/2
f 121/1/2 118/1/2 122/1/2
f 119/1/2 120/1/2 125/1/2
f 125/1/2 120/1/2 126/1/2
f 122/1/2 123/1/2 127/1/2
f 127/1/2 123/1/2 128/1/2
f 124/1/2 125/1/2 129/1/2
f 129/1/2 125/1/2 130/1/2
f 131/1/2 132/1/2 134/1/2
f 134/1/2 132/1/2 135/1/2
f 133/1/2 134/1/2 137/1/2
f 137/1/2 134/1/2 138/1/2
f 135/1/2 136/1/2 139/1/2
f 139/1/2 136/1/2 140/1/2
f 137/3/2 138/3/2 141/3/2
f 141/3/2 138/3/2 142/3/2
f 139/3/2 140/3/2 143/3/2
f 143/3/2 140/3/2 144/3/2
f 141/1/2 142/1/2 145/1/2
f 145/1/2 142/1/2 146/1/2
f 143/1/2 144/1/2 147/1/2
f 147/1/2 144/1/2 148/1/2
f 146/1/2 147/1/2 149/1/2
f 149/1/2 147/1/2 150/1/2
f 151/1/2 152/1/2 153/1/2
f 153/1/2 152/1/2 154/1/2
f 154/1/2 152/1/2 155/1/2
f 154/3/2 155/3/2 157/3/2
f 156/3/2 157/3/2 158/3/2
f 157/3/2 155/3/2 159/3/2
f 158/3/2 157/3/2 159/3/2
f 158/1/2 159/1/2 160/1/2
f 160/1/2 159/1/2 161/1/2
f 162/2/2 163/2/2 164/2/2
f 164/2/2 163/2/2 165/2/2
f 166/2/2 167/2/2 168/2/2
f 168/2/2 167/2/2 169/2/2
f 170/2/2 171/2/2 172/2/2
f 172/2/2 171/2/2 173/2/2
f 174/4/2 175/4/2 176/4/2
f 176/4/2 175/4/2 177/4/2
f 182/1/3 179/1/3 178/1/3
f 183/3/3 180/3/3 179/3/3
f 183/1/3 179/1/3 182/1/3
f 184/1/3 181/1/3 180/1/3
f 184/3/3 180/3/3 183/3/3
f 185/1/3 181/1/3 184/1/3
f 191/1/3 187/1/3 186/1/3
f 192/3/3 188/3/3 187/3/3
f 192/1/3 187/1/3 191/1/3
f 193/1/3 189/1/3 188/1/3
f 193/3/3 188/3/3 192/3/3
f 194/1/3 189/1/3 193/1/3
f 196/1/3 191/1/3 190/1/3
f 197/1/3 191/1/3 196/1/3
f 200/1/3 195/1/3 194/1/3
f 201/1/3 195/1/3 200/1/3
f 202/1/3 198/1/3 197/1/3
f 203/3/3 199/3/3 198/3/3
f 203/1/3 198/1/3 202/1/3
f 204/1/3 200/1/3 199/1/3
f 204/3/3 199/3/3 203/3/3
f 205/1/3 200/1/3 204/1/3
f 211/1/3 207/1/3 206/1/3
f 212/3/3 208/3/3 207/3/3
f 212/1/3 207/1/3 211/1/3
f 213/1/3 209/1/3 208/1/3
f 213/3/3 208/3/3 212/3/3
f 214/1/3 209/1/3 213/1/3
f 216/1/3 211/1/3 210/1/3
f 217/1/3 211/1/3 216/1/3
f 218/1/3 215/1/3 214/1/3
f 219/1/3 215/1/3 218/1/3
f 222/2/3 221/2/3 220/2/3
f 223/2/3 221/2/3 222/2/3
f 229/1/3 226/1/3 225/1/3
f 230/1/3 226/1/3 229/1/3
f 233/1/3 228/1/3 227/1/3
f 234/1/3 228/1/3 233/1/3
f 235/1/3 231/1/3 230/1/3
f 236/3/3 232/3/3 231/3/3
f 236/1/3 231/1/3 235/1/3
f 237/3/3 232/3/3 236/3/3
f 238/1/3 233/1/3 232/1/3
f 238/3/3 232/3/3 237/3/3
f 239/1/3 233/1/3 238/1/3
f 241/2/3 224/2/3 223/2/3
f 242/2/3 237/2/3 236/2/3
f 243/2/3 237/2/3 242/2/3
f 244/2/3 237/2/3 243/2/3
f 245/2/3 241/2/3 240/2/3
f 246/2/3 224/2/3 241/2/3
f 246/2/3 241/2/3 245/2/3
f 247/2/3 224/2/3 246/2/3
f 248/2/3 244/2/3 243/2/3
f 248/2/3 245/2/3 244/2/3
f 248/2/3 246/2/3 245/2/3
f 249/2/3 246/2/3 248/2/3
f 252/2/3 251/2/3 250/2/3
f 253/2/3 251/2/3 252/2/3
f 256/2/3 255/2/3 254/2/3
f 257/2/3 255/2/3 256/2/3
f 260/2/3 259/2/3 258/2/3
f 261/2/3 259/2/3 260/2/3
f 264/4/3 263/4/3 262/4/3
f 265/4/3 263/4/3 264/4/3
f 266/2/4 267/2/4 271/2/4
f 268/2/4 269/2/4 272/2/4
f 272/2/4 269/2/4 273/2/4
f 273/2/4 269/2/4 274/2/4
f 270/2/4 271/2/4 275/2/4
f 271/2/4 267/2/4 276/2/4
f 275/2/4 271/2/4 276/2/4
f 276/2/4 267/2/4 277/2/4
f 273/2/4 274/2/4 278/2/4
f 274/2/4 275/2/4 278/2/4
f 275/2/4 276/2/4 278/2/4
f 278/2/4 276/2/4 279/2/4
f 280/1/4 281/1/4 285/1/4
f 281/3/4 282/3/4 286/3/4
f 285/1/4 281/1/4 286/1/4
f 282/1/4 283/1/4 287/1/4
f 286/3/4 282/3/4 287/3/4
f 287/1/4 283/1/4 288/1/4
f 284/1/4 285/1/4 290/1/4
f 290/1/4 285/1/4 291/1/4
f 288/1/4 289/1/4 292/1/4
f 292/1/4 289/1/4 293/1/4
f 294/2/4 295/2/4 296/2/4
f 296/2/4 295/2/4 297/2/4
f 298/1/4 299/1/4 302/1/4
f 302/1/4 299/1/4 303/1/4
f 300/1/4 301/1/4 306/1/4
f 306/1/4 301/1/4 307/1/4
f 303/1/4 304/1/4 308/1/4
f 304/3/4 305/3/4 309/3/4
f 308/1/4 304/1/4 309/1/4
f 305/1/4 306/1/4 310/1/4
f 309/3/4 305/3/4 310/3/4
f 310/1/4 306/1/4 311/1/4
f 312/1/4 313/1/4 317/1/4
f 313/3/4 314/3/4 318/3/4
f 317/1/4 313/1/4 318/1/4
f 314/1/4 315/1/4 319/1/4
f 318/3/4 314/3/4 319/3/4
f 319/1/4 315/1/4 320/1/4
f 320/1/4 321/1/4 322/1/4
f 320/1/4 322/1/4 323/1/4
f 316/1/4 317/1/4 324/1/4
f 324/1/4 317/1/4 325/1/4
f 320/1/4 323/1/4 328/1/4
f 328/1/4 323/1/4 329/1/4
f 325/1/4 326/1/4 330/1/4
f 326/3/4 327/3/4 331/3/4
f 330/1/4 326/1/4 331/1/4
f 327/1/4 328/1/4 332/1/4
f 331/3/4 327/3/4 332/3/4
f 332/1/4 328/1/4 333/1/4
f 338/2/4 339/2/4 340/2/4
f 340/2/4 339/2/4 341/2/4
f 334/1/4 335/1/4 342/1/4
f 335/3/4 336/3/4 343/3/4
f 342/1/4 335/1/4 343/1/4
f 336/1/4 337/1/4 344/1/4
f 343/3/4 336/3/4 344/3/4
f 344/1/4 337/1/4 345/1/4
f 346/2/4 347/2/4 350/2/4
f 350/2/4 347/2/4 351/2/4
f 348/2/4 349/2/4 352/2/4
f 352/2/4 349/2/4 353/2/4
f 354/4/4 355/4/4 356/4/4
f 356/4/4 355/4/4 357/4/4
f 360/4/5 359/4/5 358/4/5
f 361/4/5 359/4/5 360/4/5
f 365/1/5 363/1/5 362/1/5
f 366/1/5 363/1/5 365/1/5
f 368/1/5 365/1/5 364/1/5
f 368/1/5 367/1/5 366/1/5
f 368/1/5 366/1/5 365/1/5
f 369/1/5 367/1/5 368/1/5
f 370/1/5 367/1/5 369/1/5
f 371/1/5 367/1/5 370/1/5
f 372/1/5 370/1/5 369/1/5
f 373/1/5 370/1/5 372/1/5
f 377/1/5 375/1/5 374/1/5
f 378/1/5 375/1/5 377/1/5
f 381/1/5 377/1/5 376/1/5
f 382/1/5 377/1/5 381/1/5
f 383/1/5 379/1/5 378/1/5
f 384/1/5 379/1/5 383/1/5
f 386/1/5 381/1/5 380/1/5
f 387/1/5 381/1/5 386/1/5
f 390/1/5 385/1/5 384/1/5
f 391/1/5 385/1/5 390/1/5
f 392/1/5 388/1/5 387/1/5
f 393/1/5 388/1/5 392/1/5
f 394/1/5 390/1/5 389/1/5
f 395/1/5 390/1/5 394/1/5
f 396/1/5 394/1/5 393/1/5
f 397/1/5 394/1/5 396/1/5
f 400/2/5 399/2/5 398/2/5
f 401/2/5 399/2/5 400/2/5
f 404/2/5 403/2/5 402/2/5
f 405/2/5 403/2/5 404/2/5
f 408/2/5 407/2/5 406/2/5
f 409/2/5 407/2/5 408/2/5
f 412/2/5 411/2/5 410/2/5
f 413/2/5 411/2/5 412/2/5
f 416/2/5 415/2/5 414/2/5
f 417/2/5 415/2/5 416/2/5
f 420/2/5 419/2/5 418/2/5
f 421/2/5 419/2/5 420/2/5
f 424/2/5 423/2/5 422/2/5
f 425/2/5 423/2/5 424/2/5
f 426/4/6 427/4/6 428/4/6
f 428/4/6 427/4/6 429/4/6
f 430/2/6 431/2/6 432/2/6
f 432/2/6 431/2/6 433/2/6
f 434/1/6 435/1/6 437/1/6
f 437/1/6 435/1/6 438/1/6
f 436/1/6 437/1/6 441/1/6
f 441/1/6 437/1/6 442/1/6
f 438/1/6 439/1/6 443/1/6
f 443/1/6 439/1/6 444/1/6
f 440/1/6 441/1/6 446/1/6
f 446/1/6 441/1/6 447/1/6
f 444/1/6 445/1/6 450/1/6
f 450/1/6 445/1/6 451/1/6
f 447/1/6 448/1/6 452/1/6
f 452/1/6 448/1/6 453/1/6
f 449/1/6 450/1/6 454/1/6
f 454/1/6 450/1/6 455/1/6
f 453/1/6 454/1/6 456/1/6
f 456/1/6 454/1/6 457/1/6
f 458/1/6 459/1/6 461/1/6
f 461/1/6 459/1/6 462/1/6
f 462/1/6 459/1/6 463/1/6
f 463/1/6 459/1/6 464/1/6
f 460/1/6 461/1/6 466/1/6
f 461/1/6 462/1/6 466/1/6
f 466/1/6 462/1/6 467/1/6
f 464/1/6 465/1/6 468/1/6
f 463/1/6 464/1/6 468/1/6
f 468/1/6 465/1/6 469/1/6
f 467/1/6 462/1/6 470/1/6
f 470/1/6 462/1/6 471/1/6
f 463/1/6 468/1/6 472/1/6
f 472/1/6 468/1/6 473/1/6
f 474/2/6 475/2/6 478/2/6
f 478/2/6 475/2/6 479/2/6
f 476/2/6 477/2/6 480/2/6
f 480/2/6 477/2/6 481/2/6
f 482/2/6 483/2/6 484/2/6
f 484/2/6 483/2/6 485/2/6
f 486/2/6 487/2/6 489/2/6
f 489/2/6 487/2/6 490/2/6
f 488/2/6 489/2/6 491/2/6
f 491/2/6 489/2/6 492/2/6
f 493/2/6 494/2/6 495/2/6
f 495/2/6 494/2/6 496/2/6
f 497/2/6 498/2/6 499/2/6
f 499/2/6 498/2/6 500/2/6
